G75*
G70*
%OFA0B0*%
%FSLAX24Y24*%
%IPPOS*%
%LPD*%
%AMOC8*
5,1,8,0,0,1.08239X$1,22.5*
%
%ADD10OC8,0.0520*%
%ADD11R,0.2000X0.0900*%
%ADD12C,0.0860*%
%ADD13OC8,0.0560*%
%ADD14OC8,0.0850*%
%ADD15C,0.0100*%
%ADD16R,0.0475X0.0475*%
%ADD17R,0.0396X0.0396*%
%ADD18R,0.0317X0.0317*%
%ADD19OC8,0.0317*%
%ADD20C,0.0400*%
%ADD21C,0.0396*%
%ADD22C,0.0500*%
%ADD23C,0.0160*%
%ADD24C,0.0320*%
D10*
X009659Y006225D03*
X009659Y007225D03*
X009659Y008725D03*
X009659Y009725D03*
X009659Y011225D03*
X009659Y012225D03*
D11*
X007941Y018975D03*
X007941Y022455D03*
X048655Y022455D03*
X048655Y018975D03*
D12*
X030705Y013787D03*
X023225Y013787D03*
X030705Y010047D03*
X030705Y006307D03*
X023225Y006307D03*
D13*
X036744Y021470D03*
X037744Y021470D03*
X038744Y021470D03*
X038744Y022470D03*
X037744Y022470D03*
X036744Y022470D03*
D14*
X009752Y014547D03*
D15*
X008799Y004037D02*
X049744Y004037D01*
X008799Y004037D01*
X008799Y004431D01*
X006831Y004431D01*
X049744Y004431D01*
X049744Y004333D02*
X008799Y004333D01*
X008799Y004234D02*
X049744Y004234D01*
X049744Y004136D02*
X008799Y004136D01*
X006831Y004431D02*
X006831Y018423D01*
X006849Y018405D01*
X006883Y018386D01*
X006921Y018375D01*
X007891Y018375D01*
X007891Y018925D01*
X007991Y018925D01*
X007991Y018375D01*
X008961Y018375D01*
X008999Y018386D01*
X009033Y018405D01*
X009061Y018433D01*
X009081Y018467D01*
X009091Y018506D01*
X009091Y018925D01*
X007991Y018925D01*
X007991Y019025D01*
X009091Y019025D01*
X009091Y019445D01*
X009081Y019483D01*
X009061Y019517D01*
X009033Y019545D01*
X008999Y019565D01*
X008961Y019575D01*
X007991Y019575D01*
X007991Y019025D01*
X007891Y019025D01*
X007891Y018925D01*
X006831Y018925D01*
X006831Y019025D01*
X007891Y019025D01*
X007891Y019575D01*
X006921Y019575D01*
X006883Y019565D01*
X006849Y019545D01*
X006831Y019527D01*
X006831Y021903D01*
X006849Y021885D01*
X006883Y021866D01*
X006921Y021855D01*
X007891Y021855D01*
X007891Y022405D01*
X007991Y022405D01*
X007991Y021855D01*
X008961Y021855D01*
X008999Y021866D01*
X009033Y021885D01*
X009061Y021913D01*
X009081Y021947D01*
X009091Y021986D01*
X009091Y022405D01*
X007991Y022405D01*
X007991Y022505D01*
X009091Y022505D01*
X009091Y022925D01*
X009081Y022963D01*
X009061Y022997D01*
X009033Y023025D01*
X008999Y023045D01*
X008961Y023055D01*
X007991Y023055D01*
X007991Y022505D01*
X007891Y022505D01*
X007891Y022405D01*
X006831Y022405D01*
X006831Y022505D01*
X007891Y022505D01*
X007891Y023055D01*
X006921Y023055D01*
X006883Y023045D01*
X006849Y023025D01*
X006831Y023007D01*
X006831Y024903D01*
X047776Y024903D01*
X047776Y024509D01*
X049744Y024509D01*
X049744Y023027D01*
X049713Y023045D01*
X049675Y023055D01*
X048705Y023055D01*
X048705Y022505D01*
X049744Y022505D01*
X049744Y022405D01*
X048705Y022405D01*
X048705Y021855D01*
X049675Y021855D01*
X049713Y021866D01*
X049744Y021884D01*
X049744Y019547D01*
X049713Y019565D01*
X049675Y019575D01*
X048705Y019575D01*
X048705Y019025D01*
X049744Y019025D01*
X049744Y018925D01*
X048705Y018925D01*
X048705Y018375D01*
X049675Y018375D01*
X049713Y018386D01*
X049744Y018404D01*
X049744Y004037D01*
X049744Y004530D02*
X006831Y004530D01*
X006831Y004628D02*
X049744Y004628D01*
X049744Y004727D02*
X006831Y004727D01*
X006831Y004825D02*
X049744Y004825D01*
X049744Y004924D02*
X006831Y004924D01*
X006831Y005022D02*
X049744Y005022D01*
X049744Y005121D02*
X006831Y005121D01*
X006831Y005219D02*
X049744Y005219D01*
X049744Y005318D02*
X006831Y005318D01*
X006831Y005416D02*
X049744Y005416D01*
X049744Y005515D02*
X043156Y005515D01*
X043077Y005482D02*
X043285Y005568D01*
X043444Y005727D01*
X043499Y005782D01*
X046577Y005782D01*
X046677Y005823D01*
X046682Y005823D01*
X046685Y005827D01*
X046785Y005868D01*
X046944Y006027D01*
X046985Y006126D01*
X046989Y006130D01*
X046989Y006135D01*
X047030Y006234D01*
X047030Y006459D01*
X046989Y006559D01*
X046989Y006564D01*
X046985Y006567D01*
X046944Y006667D01*
X046785Y006826D01*
X046685Y006867D01*
X046682Y006871D01*
X046677Y006871D01*
X046577Y006912D01*
X043152Y006912D01*
X042945Y006826D01*
X042731Y006612D01*
X042699Y006612D01*
X042030Y007281D01*
X042030Y009559D01*
X041944Y009767D01*
X040185Y011526D01*
X040085Y011567D01*
X040082Y011571D01*
X040077Y011571D01*
X039977Y011612D01*
X039752Y011612D01*
X039653Y011571D01*
X039648Y011571D01*
X039644Y011567D01*
X039545Y011526D01*
X039386Y011367D01*
X039386Y011367D01*
X038986Y010967D01*
X038900Y010759D01*
X038900Y008281D01*
X038731Y008112D01*
X037442Y008112D01*
X037472Y008142D01*
X037528Y008276D01*
X037528Y008818D01*
X037472Y008952D01*
X037370Y009054D01*
X037236Y009110D01*
X036694Y009110D01*
X036560Y009054D01*
X036457Y008952D01*
X036402Y008818D01*
X036402Y008276D01*
X036457Y008142D01*
X036488Y008112D01*
X035839Y008112D01*
X036035Y008193D01*
X036194Y008352D01*
X036280Y008559D01*
X036280Y008784D01*
X036230Y008905D01*
X036230Y009359D01*
X036144Y009567D01*
X035985Y009726D01*
X035130Y010581D01*
X035130Y011259D01*
X035044Y011467D01*
X034885Y011626D01*
X033785Y012726D01*
X033577Y012812D01*
X032972Y012812D01*
X034182Y014022D01*
X034569Y014022D01*
X034762Y014102D01*
X034910Y014249D01*
X035010Y014349D01*
X035090Y014542D01*
X035090Y015151D01*
X035089Y015154D01*
X035089Y015264D01*
X035011Y015341D01*
X035010Y015344D01*
X034862Y015492D01*
X034859Y015493D01*
X034782Y015571D01*
X034672Y015571D01*
X034669Y015572D01*
X034630Y015572D01*
X034889Y015830D01*
X034889Y016264D01*
X034810Y016343D01*
X034810Y017563D01*
X034870Y017623D01*
X034982Y017623D01*
X035289Y017930D01*
X035289Y018364D01*
X034982Y018671D01*
X034548Y018671D01*
X034383Y018505D01*
X034383Y018551D01*
X034473Y018769D01*
X034473Y021685D01*
X034720Y021932D01*
X036294Y021932D01*
X036099Y021738D01*
X036099Y021203D01*
X036299Y021003D01*
X036299Y019679D01*
X036367Y019515D01*
X037545Y018337D01*
X037513Y018324D01*
X037399Y018210D01*
X037194Y018210D01*
X037060Y018154D01*
X036957Y018052D01*
X036902Y017918D01*
X036902Y017376D01*
X036957Y017242D01*
X037060Y017139D01*
X037194Y017084D01*
X037736Y017084D01*
X037870Y017139D01*
X037972Y017242D01*
X038028Y017376D01*
X038028Y017502D01*
X039453Y017502D01*
X039617Y017570D01*
X039742Y017695D01*
X040242Y018195D01*
X040310Y018358D01*
X040310Y020835D01*
X040242Y020999D01*
X040117Y021124D01*
X039393Y021848D01*
X039230Y021915D01*
X039212Y021915D01*
X039012Y022115D01*
X038997Y022115D01*
X039174Y022292D01*
X039174Y022430D01*
X038784Y022430D01*
X038784Y022510D01*
X039174Y022510D01*
X039174Y022649D01*
X038995Y022828D01*
X039441Y022828D01*
X040767Y021502D01*
X040960Y021422D01*
X042492Y021422D01*
X042495Y021423D01*
X042604Y021423D01*
X042682Y021501D01*
X042685Y021502D01*
X042832Y021649D01*
X042834Y021653D01*
X042911Y021730D01*
X042911Y021839D01*
X042912Y021842D01*
X042912Y022051D01*
X042911Y022054D01*
X042911Y022164D01*
X042834Y022241D01*
X042832Y022244D01*
X042685Y022392D01*
X042682Y022393D01*
X042604Y022471D01*
X042495Y022471D01*
X042492Y022472D01*
X041282Y022472D01*
X040104Y023651D01*
X039956Y023798D01*
X039763Y023878D01*
X033767Y023878D01*
X033574Y023798D01*
X032667Y022892D01*
X032520Y022744D01*
X032440Y022551D01*
X032440Y018764D01*
X029947Y016272D01*
X027619Y016272D01*
X027426Y016192D01*
X026678Y015444D01*
X026677Y015441D01*
X026599Y015364D01*
X026599Y015254D01*
X026598Y015251D01*
X026598Y015042D01*
X026599Y015039D01*
X026599Y014930D01*
X026677Y014853D01*
X026678Y014849D01*
X026826Y014702D01*
X026829Y014701D01*
X026906Y014623D01*
X027016Y014623D01*
X027019Y014622D01*
X027227Y014622D01*
X027230Y014623D01*
X027340Y014623D01*
X027417Y014701D01*
X027420Y014702D01*
X027940Y015222D01*
X030269Y015222D01*
X030462Y015302D01*
X030610Y015449D01*
X033333Y018172D01*
X033333Y017657D01*
X031520Y015844D01*
X031440Y015651D01*
X031440Y014090D01*
X031379Y014237D01*
X031155Y014461D01*
X030863Y014582D01*
X030547Y014582D01*
X030255Y014461D01*
X030031Y014237D01*
X030029Y014232D01*
X025909Y014232D01*
X024910Y015231D01*
X024910Y016135D01*
X024842Y016299D01*
X024450Y016691D01*
X024489Y016730D01*
X024489Y017164D01*
X024405Y017247D01*
X024489Y017330D01*
X024489Y017441D01*
X024649Y017602D01*
X029579Y017602D01*
X029341Y017364D01*
X029341Y016930D01*
X029648Y016623D01*
X030082Y016623D01*
X030389Y016930D01*
X030389Y017364D01*
X030150Y017602D01*
X031053Y017602D01*
X031217Y017670D01*
X031342Y017795D01*
X031642Y018095D01*
X031710Y018258D01*
X031710Y018851D01*
X031789Y018930D01*
X031789Y019364D01*
X031482Y019671D01*
X031048Y019671D01*
X030741Y019364D01*
X030741Y018930D01*
X030820Y018851D01*
X030820Y018531D01*
X030781Y018492D01*
X028150Y018492D01*
X028389Y018730D01*
X028389Y019164D01*
X028082Y019471D01*
X027648Y019471D01*
X027341Y019164D01*
X027341Y018730D01*
X027579Y018492D01*
X024376Y018492D01*
X024213Y018424D01*
X023859Y018071D01*
X023748Y018071D01*
X023441Y017764D01*
X023441Y017330D01*
X023524Y017247D01*
X023459Y017182D01*
X023410Y017231D01*
X023410Y018263D01*
X023970Y018823D01*
X024082Y018823D01*
X024389Y019130D01*
X024389Y019564D01*
X024219Y019734D01*
X024242Y019734D01*
X024406Y019802D01*
X024531Y019927D01*
X025126Y020521D01*
X026605Y020521D01*
X026768Y020589D01*
X026893Y020714D01*
X027488Y021309D01*
X029754Y021309D01*
X029918Y021376D01*
X030043Y021501D01*
X030538Y021997D01*
X030564Y022011D01*
X030600Y022059D01*
X030642Y022101D01*
X030653Y022128D01*
X030903Y022453D01*
X030962Y022453D01*
X031269Y022760D01*
X031269Y023194D01*
X030962Y023501D01*
X030528Y023501D01*
X030221Y023194D01*
X030221Y023026D01*
X029930Y022647D01*
X029481Y022199D01*
X027215Y022199D01*
X027051Y022131D01*
X026332Y021411D01*
X024853Y021411D01*
X024689Y021343D01*
X023969Y020624D01*
X023157Y020624D01*
X022831Y020950D01*
X022668Y021017D01*
X020916Y021017D01*
X020752Y020950D01*
X020627Y020824D01*
X020386Y020583D01*
X020378Y020601D01*
X020361Y020662D01*
X020345Y020682D01*
X020335Y020706D01*
X020290Y020751D01*
X020110Y020977D01*
X020110Y021135D01*
X020042Y021299D01*
X019917Y021424D01*
X019753Y021492D01*
X019576Y021492D01*
X019525Y021471D01*
X019348Y021471D01*
X019041Y021164D01*
X019041Y020730D01*
X019348Y020423D01*
X019413Y020423D01*
X019513Y020298D01*
X019513Y017342D01*
X019480Y017310D01*
X019395Y017103D01*
X019395Y017057D01*
X017088Y014750D01*
X017020Y014587D01*
X017020Y014231D01*
X016588Y013799D01*
X016520Y013635D01*
X016520Y013231D01*
X014588Y011299D01*
X014520Y011135D01*
X014520Y010343D01*
X014441Y010264D01*
X014441Y009830D01*
X014748Y009523D01*
X015182Y009523D01*
X015489Y009830D01*
X015489Y010264D01*
X015410Y010343D01*
X015410Y010863D01*
X017217Y012670D01*
X017342Y012795D01*
X017410Y012958D01*
X017410Y013363D01*
X017717Y013670D01*
X017842Y013795D01*
X017910Y013958D01*
X017910Y014314D01*
X020024Y016428D01*
X020070Y016428D01*
X020277Y016514D01*
X020435Y016672D01*
X020521Y016879D01*
X020521Y016925D01*
X020842Y017246D01*
X020910Y017410D01*
X020910Y019849D01*
X021189Y020127D01*
X022395Y020127D01*
X022595Y019927D01*
X022595Y019927D01*
X022721Y019802D01*
X022884Y019734D01*
X023511Y019734D01*
X023341Y019564D01*
X023341Y019452D01*
X022713Y018824D01*
X022713Y018824D01*
X022588Y018699D01*
X022520Y018535D01*
X022520Y016958D01*
X022588Y016795D01*
X022713Y016670D01*
X022812Y016571D01*
X022548Y016571D01*
X022241Y016264D01*
X022241Y015830D01*
X022548Y015523D01*
X022982Y015523D01*
X023289Y015830D01*
X023289Y016138D01*
X023376Y016102D01*
X023781Y016102D01*
X024020Y015863D01*
X024020Y014958D01*
X024088Y014795D01*
X024213Y014670D01*
X025473Y013410D01*
X025636Y013342D01*
X030029Y013342D01*
X030031Y013337D01*
X030096Y013272D01*
X023834Y013272D01*
X023899Y013337D01*
X024020Y013629D01*
X024020Y013945D01*
X023899Y014237D01*
X023675Y014461D01*
X023383Y014582D01*
X023067Y014582D01*
X022774Y014461D01*
X022551Y014237D01*
X022430Y013945D01*
X022430Y013629D01*
X022551Y013337D01*
X022616Y013272D01*
X022582Y013272D01*
X022390Y013464D01*
X022390Y014851D01*
X022310Y015044D01*
X022110Y015244D01*
X021962Y015392D01*
X021769Y015472D01*
X021282Y015472D01*
X021262Y015492D01*
X021259Y015493D01*
X021182Y015571D01*
X021072Y015571D01*
X021069Y015572D01*
X020860Y015572D01*
X020857Y015571D01*
X020748Y015571D01*
X020671Y015493D01*
X020667Y015492D01*
X020520Y015344D01*
X020519Y015341D01*
X020441Y015264D01*
X020441Y015154D01*
X020440Y015151D01*
X020440Y014942D01*
X020441Y014939D01*
X020441Y014830D01*
X020519Y014753D01*
X020520Y014749D01*
X020940Y014329D01*
X020940Y013064D01*
X020934Y012978D01*
X020940Y012960D01*
X020940Y012942D01*
X020973Y012862D01*
X021001Y012780D01*
X021013Y012766D01*
X021020Y012749D01*
X021081Y012688D01*
X021585Y012112D01*
X018352Y012112D01*
X018253Y012071D01*
X018248Y012071D01*
X018244Y012067D01*
X018145Y012026D01*
X017986Y011867D01*
X017945Y011767D01*
X017941Y011764D01*
X017941Y011759D01*
X017900Y011659D01*
X017900Y011434D01*
X017941Y011335D01*
X017941Y011330D01*
X017945Y011326D01*
X015873Y011326D01*
X015775Y011228D02*
X017986Y011228D01*
X017986Y011227D02*
X018145Y011068D01*
X018244Y011027D01*
X018248Y011023D01*
X018253Y011023D01*
X018352Y010982D01*
X030900Y010982D01*
X030900Y010934D01*
X030986Y010727D01*
X031900Y009813D01*
X031900Y007934D01*
X031986Y007727D01*
X032486Y007227D01*
X032645Y007068D01*
X032852Y006982D01*
X039077Y006982D01*
X039285Y007068D01*
X039444Y007227D01*
X039785Y007568D01*
X039944Y007727D01*
X040030Y007934D01*
X040030Y010083D01*
X040900Y009213D01*
X040900Y006934D01*
X040986Y006727D01*
X041145Y006568D01*
X042145Y005568D01*
X042352Y005482D01*
X043077Y005482D01*
X043330Y005613D02*
X049744Y005613D01*
X049744Y005712D02*
X043428Y005712D01*
X042274Y005515D02*
X030870Y005515D01*
X030863Y005512D02*
X031155Y005633D01*
X031379Y005856D01*
X031500Y006149D01*
X031500Y006465D01*
X031379Y006757D01*
X031155Y006981D01*
X030863Y007102D01*
X030547Y007102D01*
X030255Y006981D01*
X030031Y006757D01*
X029910Y006465D01*
X029910Y006149D01*
X030031Y005856D01*
X030255Y005633D01*
X030547Y005512D01*
X030863Y005512D01*
X031108Y005613D02*
X042100Y005613D01*
X042001Y005712D02*
X031234Y005712D01*
X031333Y005810D02*
X041903Y005810D01*
X041804Y005909D02*
X031401Y005909D01*
X031441Y006007D02*
X041706Y006007D01*
X041607Y006106D02*
X031482Y006106D01*
X031500Y006204D02*
X041509Y006204D01*
X041410Y006303D02*
X031500Y006303D01*
X031500Y006401D02*
X041312Y006401D01*
X041213Y006500D02*
X031486Y006500D01*
X031445Y006598D02*
X041115Y006598D01*
X041016Y006697D02*
X031404Y006697D01*
X031341Y006795D02*
X040958Y006795D01*
X040917Y006894D02*
X031242Y006894D01*
X031128Y006992D02*
X032828Y006992D01*
X032622Y007091D02*
X030890Y007091D01*
X030520Y007091D02*
X023410Y007091D01*
X023383Y007102D02*
X023067Y007102D01*
X022774Y006981D01*
X022551Y006757D01*
X022430Y006465D01*
X022430Y006149D01*
X022551Y005856D01*
X022774Y005633D01*
X023067Y005512D01*
X023383Y005512D01*
X023675Y005633D01*
X023899Y005856D01*
X024020Y006149D01*
X024020Y006465D01*
X023899Y006757D01*
X023675Y006981D01*
X023383Y007102D01*
X023647Y006992D02*
X030282Y006992D01*
X030168Y006894D02*
X023762Y006894D01*
X023861Y006795D02*
X030069Y006795D01*
X030006Y006697D02*
X023924Y006697D01*
X023964Y006598D02*
X029965Y006598D01*
X029924Y006500D02*
X024005Y006500D01*
X024020Y006401D02*
X029910Y006401D01*
X029910Y006303D02*
X024020Y006303D01*
X024020Y006204D02*
X029910Y006204D01*
X029928Y006106D02*
X024002Y006106D01*
X023961Y006007D02*
X029969Y006007D01*
X030009Y005909D02*
X023920Y005909D01*
X023852Y005810D02*
X030077Y005810D01*
X030176Y005712D02*
X023754Y005712D01*
X023627Y005613D02*
X030302Y005613D01*
X030540Y005515D02*
X023390Y005515D01*
X023060Y005515D02*
X006831Y005515D01*
X006831Y005613D02*
X009387Y005613D01*
X009400Y005600D02*
X009918Y005600D01*
X010284Y005966D01*
X010284Y006484D01*
X009918Y006850D01*
X009864Y006850D01*
X010069Y007055D01*
X010069Y007195D01*
X009689Y007195D01*
X009689Y007255D01*
X009629Y007255D01*
X009629Y007195D01*
X009249Y007195D01*
X009249Y007055D01*
X009455Y006850D01*
X009400Y006850D01*
X009034Y006484D01*
X009034Y005966D01*
X009400Y005600D01*
X009289Y005712D02*
X006831Y005712D01*
X006831Y005810D02*
X009190Y005810D01*
X009092Y005909D02*
X006831Y005909D01*
X006831Y006007D02*
X009034Y006007D01*
X009034Y006106D02*
X006831Y006106D01*
X006831Y006204D02*
X009034Y006204D01*
X009034Y006303D02*
X006831Y006303D01*
X006831Y006401D02*
X009034Y006401D01*
X009050Y006500D02*
X006831Y006500D01*
X006831Y006598D02*
X009149Y006598D01*
X009247Y006697D02*
X006831Y006697D01*
X006831Y006795D02*
X009346Y006795D01*
X009411Y006894D02*
X006831Y006894D01*
X006831Y006992D02*
X009312Y006992D01*
X009249Y007091D02*
X006831Y007091D01*
X006831Y007189D02*
X009249Y007189D01*
X009249Y007255D02*
X009629Y007255D01*
X009629Y007635D01*
X009489Y007635D01*
X009249Y007395D01*
X009249Y007255D01*
X009249Y007288D02*
X006831Y007288D01*
X006831Y007386D02*
X009249Y007386D01*
X009339Y007485D02*
X006831Y007485D01*
X006831Y007583D02*
X009438Y007583D01*
X009629Y007583D02*
X009689Y007583D01*
X009689Y007635D02*
X009689Y007255D01*
X010069Y007255D01*
X010069Y007395D01*
X009829Y007635D01*
X009689Y007635D01*
X009689Y007485D02*
X009629Y007485D01*
X009629Y007386D02*
X009689Y007386D01*
X009689Y007288D02*
X009629Y007288D01*
X009979Y007485D02*
X013144Y007485D01*
X013045Y007583D02*
X009881Y007583D01*
X010069Y007386D02*
X013242Y007386D01*
X013341Y007288D02*
X010069Y007288D01*
X010069Y007189D02*
X013439Y007189D01*
X013396Y007232D02*
X013569Y007059D01*
X013795Y006965D01*
X015615Y006965D01*
X015841Y007059D01*
X018109Y009328D01*
X021127Y009328D01*
X021252Y009379D01*
X021275Y009379D01*
X021409Y009435D01*
X021512Y009538D01*
X021567Y009672D01*
X021567Y009695D01*
X021619Y009820D01*
X021619Y010065D01*
X021567Y010190D01*
X021567Y010213D01*
X021512Y010347D01*
X021409Y010450D01*
X021275Y010506D01*
X021252Y010506D01*
X021127Y010557D01*
X017732Y010557D01*
X017506Y010464D01*
X017333Y010291D01*
X015238Y008195D01*
X014854Y008195D01*
X014989Y008330D01*
X014989Y008764D01*
X014682Y009071D01*
X014629Y009071D01*
X014689Y009130D01*
X014689Y009564D01*
X014382Y009871D01*
X013948Y009871D01*
X013641Y009564D01*
X013641Y009130D01*
X013948Y008823D01*
X014001Y008823D01*
X013941Y008764D01*
X013941Y008426D01*
X013580Y008788D01*
X013580Y010669D01*
X013486Y010895D01*
X013313Y011068D01*
X011813Y012568D01*
X011587Y012662D01*
X011343Y012662D01*
X011116Y012568D01*
X010943Y012395D01*
X010850Y012169D01*
X010850Y011925D01*
X010943Y011699D01*
X012350Y010292D01*
X012350Y008411D01*
X012443Y008185D01*
X013396Y007232D01*
X013538Y007091D02*
X010069Y007091D01*
X010006Y006992D02*
X013731Y006992D01*
X012947Y007682D02*
X006831Y007682D01*
X006831Y007780D02*
X012848Y007780D01*
X012750Y007879D02*
X006831Y007879D01*
X006831Y007977D02*
X012651Y007977D01*
X012553Y008076D02*
X006831Y008076D01*
X006831Y008174D02*
X009326Y008174D01*
X009400Y008100D02*
X009918Y008100D01*
X010284Y008466D01*
X010284Y008984D01*
X009918Y009350D01*
X009864Y009350D01*
X010069Y009555D01*
X010069Y009695D01*
X009689Y009695D01*
X009689Y009755D01*
X009629Y009755D01*
X009629Y009695D01*
X009249Y009695D01*
X009249Y009555D01*
X009455Y009350D01*
X009400Y009350D01*
X009034Y008984D01*
X009034Y008466D01*
X009400Y008100D01*
X009228Y008273D02*
X006831Y008273D01*
X006831Y008371D02*
X009129Y008371D01*
X009034Y008470D02*
X006831Y008470D01*
X006831Y008568D02*
X009034Y008568D01*
X009034Y008667D02*
X006831Y008667D01*
X006831Y008765D02*
X009034Y008765D01*
X009034Y008864D02*
X006831Y008864D01*
X006831Y008962D02*
X009034Y008962D01*
X009111Y009061D02*
X006831Y009061D01*
X006831Y009159D02*
X009210Y009159D01*
X009308Y009258D02*
X006831Y009258D01*
X006831Y009356D02*
X009448Y009356D01*
X009350Y009455D02*
X006831Y009455D01*
X006831Y009553D02*
X009251Y009553D01*
X009249Y009652D02*
X006831Y009652D01*
X006831Y009750D02*
X009629Y009750D01*
X009629Y009755D02*
X009249Y009755D01*
X009249Y009895D01*
X009489Y010135D01*
X009629Y010135D01*
X009629Y009755D01*
X009689Y009755D02*
X009689Y010135D01*
X009829Y010135D01*
X010069Y009895D01*
X010069Y009755D01*
X009689Y009755D01*
X009689Y009750D02*
X012350Y009750D01*
X012350Y009652D02*
X010069Y009652D01*
X010067Y009553D02*
X012350Y009553D01*
X012350Y009455D02*
X009969Y009455D01*
X009870Y009356D02*
X012350Y009356D01*
X012350Y009258D02*
X010010Y009258D01*
X010109Y009159D02*
X012350Y009159D01*
X012350Y009061D02*
X010207Y009061D01*
X010284Y008962D02*
X012350Y008962D01*
X012350Y008864D02*
X010284Y008864D01*
X010284Y008765D02*
X012350Y008765D01*
X012350Y008667D02*
X010284Y008667D01*
X010284Y008568D02*
X012350Y008568D01*
X012350Y008470D02*
X010284Y008470D01*
X010189Y008371D02*
X012366Y008371D01*
X012407Y008273D02*
X010091Y008273D01*
X009992Y008174D02*
X012454Y008174D01*
X013603Y008765D02*
X013942Y008765D01*
X013941Y008667D02*
X013701Y008667D01*
X013800Y008568D02*
X013941Y008568D01*
X013941Y008470D02*
X013898Y008470D01*
X013908Y008864D02*
X013580Y008864D01*
X013580Y008962D02*
X013809Y008962D01*
X013711Y009061D02*
X013580Y009061D01*
X013580Y009159D02*
X013641Y009159D01*
X013641Y009258D02*
X013580Y009258D01*
X013580Y009356D02*
X013641Y009356D01*
X013641Y009455D02*
X013580Y009455D01*
X013580Y009553D02*
X013641Y009553D01*
X013580Y009652D02*
X013729Y009652D01*
X013827Y009750D02*
X013580Y009750D01*
X013580Y009849D02*
X013926Y009849D01*
X013580Y009947D02*
X014441Y009947D01*
X014441Y009849D02*
X014404Y009849D01*
X014502Y009750D02*
X014521Y009750D01*
X014601Y009652D02*
X014620Y009652D01*
X014689Y009553D02*
X014718Y009553D01*
X014689Y009455D02*
X016497Y009455D01*
X016595Y009553D02*
X015212Y009553D01*
X015310Y009652D02*
X016694Y009652D01*
X016792Y009750D02*
X015409Y009750D01*
X015489Y009849D02*
X016891Y009849D01*
X016989Y009947D02*
X015489Y009947D01*
X015489Y010046D02*
X017088Y010046D01*
X017186Y010144D02*
X015489Y010144D01*
X015489Y010243D02*
X017285Y010243D01*
X017383Y010341D02*
X015411Y010341D01*
X015410Y010440D02*
X017482Y010440D01*
X017685Y010538D02*
X015410Y010538D01*
X015410Y010637D02*
X031076Y010637D01*
X031009Y010543D02*
X030928Y010584D01*
X030841Y010613D01*
X030753Y010626D01*
X030753Y010095D01*
X030657Y010095D01*
X030657Y010626D01*
X030569Y010613D01*
X030482Y010584D01*
X030401Y010543D01*
X030327Y010489D01*
X030263Y010425D01*
X030209Y010351D01*
X030167Y010269D01*
X030139Y010183D01*
X030125Y010095D01*
X030657Y010095D01*
X030657Y009998D01*
X030753Y009998D01*
X030753Y009467D01*
X030841Y009481D01*
X030928Y009509D01*
X031009Y009551D01*
X031083Y009604D01*
X031147Y009669D01*
X031201Y009743D01*
X031242Y009824D01*
X031271Y009911D01*
X031285Y009998D01*
X030753Y009998D01*
X030753Y010095D01*
X031285Y010095D01*
X031271Y010183D01*
X031242Y010269D01*
X031201Y010351D01*
X031147Y010425D01*
X031083Y010489D01*
X031009Y010543D01*
X031016Y010538D02*
X031175Y010538D01*
X031133Y010440D02*
X031273Y010440D01*
X031206Y010341D02*
X031372Y010341D01*
X031470Y010243D02*
X031251Y010243D01*
X031277Y010144D02*
X031569Y010144D01*
X031667Y010046D02*
X030753Y010046D01*
X030657Y010046D02*
X021619Y010046D01*
X021619Y009947D02*
X030134Y009947D01*
X030139Y009911D02*
X030167Y009824D01*
X030209Y009743D01*
X030263Y009669D01*
X030327Y009604D01*
X030401Y009551D01*
X030482Y009509D01*
X030569Y009481D01*
X030657Y009467D01*
X030657Y009998D01*
X030125Y009998D01*
X030139Y009911D01*
X030160Y009849D02*
X021619Y009849D01*
X021590Y009750D02*
X030205Y009750D01*
X030280Y009652D02*
X021559Y009652D01*
X021518Y009553D02*
X030398Y009553D01*
X030657Y009553D02*
X030753Y009553D01*
X030753Y009652D02*
X030657Y009652D01*
X030657Y009750D02*
X030753Y009750D01*
X030753Y009849D02*
X030657Y009849D01*
X030657Y009947D02*
X030753Y009947D01*
X030753Y010144D02*
X030657Y010144D01*
X030657Y010243D02*
X030753Y010243D01*
X030753Y010341D02*
X030657Y010341D01*
X030657Y010440D02*
X030753Y010440D01*
X030753Y010538D02*
X030657Y010538D01*
X030394Y010538D02*
X021173Y010538D01*
X021420Y010440D02*
X030277Y010440D01*
X030204Y010341D02*
X021514Y010341D01*
X021555Y010243D02*
X030159Y010243D01*
X030133Y010144D02*
X021586Y010144D01*
X021429Y009455D02*
X031900Y009455D01*
X031900Y009553D02*
X031012Y009553D01*
X031130Y009652D02*
X031900Y009652D01*
X031900Y009750D02*
X031205Y009750D01*
X031250Y009849D02*
X031864Y009849D01*
X031766Y009947D02*
X031276Y009947D01*
X031900Y009356D02*
X021195Y009356D01*
X018039Y009258D02*
X031900Y009258D01*
X031900Y009159D02*
X017941Y009159D01*
X017842Y009061D02*
X031900Y009061D01*
X031900Y008962D02*
X017744Y008962D01*
X017645Y008864D02*
X031900Y008864D01*
X031900Y008765D02*
X017547Y008765D01*
X017448Y008667D02*
X031900Y008667D01*
X031900Y008568D02*
X017350Y008568D01*
X017251Y008470D02*
X031900Y008470D01*
X031900Y008371D02*
X017153Y008371D01*
X017054Y008273D02*
X031900Y008273D01*
X031900Y008174D02*
X016956Y008174D01*
X016857Y008076D02*
X031900Y008076D01*
X031900Y007977D02*
X016759Y007977D01*
X016660Y007879D02*
X031923Y007879D01*
X031964Y007780D02*
X016562Y007780D01*
X016463Y007682D02*
X032031Y007682D01*
X032130Y007583D02*
X016365Y007583D01*
X016266Y007485D02*
X032228Y007485D01*
X032327Y007386D02*
X016168Y007386D01*
X016069Y007288D02*
X032425Y007288D01*
X032524Y007189D02*
X015971Y007189D01*
X015872Y007091D02*
X023040Y007091D01*
X022802Y006992D02*
X015679Y006992D01*
X015315Y008273D02*
X014931Y008273D01*
X014989Y008371D02*
X015413Y008371D01*
X015512Y008470D02*
X014989Y008470D01*
X014989Y008568D02*
X015610Y008568D01*
X015709Y008667D02*
X014989Y008667D01*
X014987Y008765D02*
X015807Y008765D01*
X015906Y008864D02*
X014889Y008864D01*
X014790Y008962D02*
X016004Y008962D01*
X016103Y009061D02*
X014692Y009061D01*
X014689Y009159D02*
X016201Y009159D01*
X016300Y009258D02*
X014689Y009258D01*
X014689Y009356D02*
X016398Y009356D01*
X014441Y010046D02*
X013580Y010046D01*
X013580Y010144D02*
X014441Y010144D01*
X014441Y010243D02*
X013580Y010243D01*
X013580Y010341D02*
X014518Y010341D01*
X014520Y010440D02*
X013580Y010440D01*
X013580Y010538D02*
X014520Y010538D01*
X014520Y010637D02*
X013580Y010637D01*
X013553Y010735D02*
X014520Y010735D01*
X014520Y010834D02*
X013512Y010834D01*
X013449Y010932D02*
X014520Y010932D01*
X014520Y011031D02*
X013351Y011031D01*
X013313Y011068D02*
X013313Y011068D01*
X013252Y011129D02*
X014520Y011129D01*
X014558Y011228D02*
X013154Y011228D01*
X013055Y011326D02*
X014615Y011326D01*
X014713Y011425D02*
X012957Y011425D01*
X012858Y011523D02*
X014812Y011523D01*
X014910Y011622D02*
X012760Y011622D01*
X012661Y011720D02*
X015009Y011720D01*
X015107Y011819D02*
X012563Y011819D01*
X012464Y011917D02*
X015206Y011917D01*
X015304Y012016D02*
X012366Y012016D01*
X012267Y012114D02*
X015403Y012114D01*
X015501Y012213D02*
X012169Y012213D01*
X012070Y012311D02*
X015600Y012311D01*
X015698Y012410D02*
X011972Y012410D01*
X011873Y012508D02*
X015797Y012508D01*
X015895Y012607D02*
X011721Y012607D01*
X011209Y012607D02*
X009857Y012607D01*
X009829Y012635D02*
X010069Y012395D01*
X010069Y012255D01*
X009689Y012255D01*
X009629Y012255D01*
X009629Y012195D01*
X009249Y012195D01*
X009249Y012055D01*
X009455Y011850D01*
X009400Y011850D01*
X009034Y011484D01*
X009034Y010966D01*
X009400Y010600D01*
X009918Y010600D01*
X010284Y010966D01*
X010284Y011484D01*
X009918Y011850D01*
X009864Y011850D01*
X010069Y012055D01*
X010069Y012195D01*
X009689Y012195D01*
X009689Y012255D01*
X009689Y012635D01*
X009829Y012635D01*
X009689Y012607D02*
X009629Y012607D01*
X009629Y012635D02*
X009489Y012635D01*
X009249Y012395D01*
X009249Y012255D01*
X009629Y012255D01*
X009629Y012635D01*
X009629Y012508D02*
X009689Y012508D01*
X009689Y012410D02*
X009629Y012410D01*
X009629Y012311D02*
X009689Y012311D01*
X009689Y012213D02*
X010868Y012213D01*
X010850Y012114D02*
X010069Y012114D01*
X010030Y012016D02*
X010850Y012016D01*
X010853Y011917D02*
X009931Y011917D01*
X009949Y011819D02*
X010894Y011819D01*
X010935Y011720D02*
X010048Y011720D01*
X010146Y011622D02*
X011020Y011622D01*
X011119Y011523D02*
X010245Y011523D01*
X010284Y011425D02*
X011217Y011425D01*
X011316Y011326D02*
X010284Y011326D01*
X010284Y011228D02*
X011414Y011228D01*
X011513Y011129D02*
X010284Y011129D01*
X010284Y011031D02*
X011611Y011031D01*
X011710Y010932D02*
X010250Y010932D01*
X010152Y010834D02*
X011808Y010834D01*
X011907Y010735D02*
X010053Y010735D01*
X009955Y010637D02*
X012005Y010637D01*
X012104Y010538D02*
X006831Y010538D01*
X006831Y010440D02*
X012202Y010440D01*
X012301Y010341D02*
X006831Y010341D01*
X006831Y010243D02*
X012350Y010243D01*
X012350Y010144D02*
X006831Y010144D01*
X006831Y010046D02*
X009400Y010046D01*
X009302Y009947D02*
X006831Y009947D01*
X006831Y009849D02*
X009249Y009849D01*
X009629Y009849D02*
X009689Y009849D01*
X009689Y009947D02*
X009629Y009947D01*
X009629Y010046D02*
X009689Y010046D01*
X009918Y010046D02*
X012350Y010046D01*
X012350Y009947D02*
X010017Y009947D01*
X010069Y009849D02*
X012350Y009849D01*
X015410Y010735D02*
X030982Y010735D01*
X030942Y010834D02*
X015410Y010834D01*
X015479Y010932D02*
X030901Y010932D01*
X032030Y011281D02*
X032030Y011659D01*
X032020Y011682D01*
X033231Y011682D01*
X033342Y011571D01*
X033248Y011571D01*
X032941Y011264D01*
X032941Y010830D01*
X033248Y010523D01*
X033682Y010523D01*
X033989Y010830D01*
X033989Y010924D01*
X034000Y010913D01*
X034000Y010234D01*
X034086Y010027D01*
X035100Y009013D01*
X035100Y008609D01*
X035186Y008402D01*
X035395Y008193D01*
X035591Y008112D01*
X033199Y008112D01*
X033030Y008281D01*
X033030Y010159D01*
X032944Y010367D01*
X032785Y010526D01*
X032030Y011281D01*
X032030Y011326D02*
X033003Y011326D01*
X032941Y011228D02*
X032083Y011228D01*
X032182Y011129D02*
X032941Y011129D01*
X032941Y011031D02*
X032280Y011031D01*
X032379Y010932D02*
X032941Y010932D01*
X032941Y010834D02*
X032477Y010834D01*
X032576Y010735D02*
X033036Y010735D01*
X033135Y010637D02*
X032674Y010637D01*
X032773Y010538D02*
X033233Y010538D01*
X032954Y010341D02*
X034000Y010341D01*
X034000Y010243D02*
X032995Y010243D01*
X033030Y010144D02*
X034037Y010144D01*
X034078Y010046D02*
X033030Y010046D01*
X033030Y009947D02*
X034166Y009947D01*
X034264Y009849D02*
X033030Y009849D01*
X033030Y009750D02*
X034363Y009750D01*
X034461Y009652D02*
X033030Y009652D01*
X033030Y009553D02*
X034560Y009553D01*
X034658Y009455D02*
X033030Y009455D01*
X033030Y009356D02*
X034757Y009356D01*
X034855Y009258D02*
X033030Y009258D01*
X033030Y009159D02*
X034954Y009159D01*
X035052Y009061D02*
X033030Y009061D01*
X033030Y008962D02*
X035100Y008962D01*
X035100Y008864D02*
X033030Y008864D01*
X033030Y008765D02*
X035100Y008765D01*
X035100Y008667D02*
X033030Y008667D01*
X033030Y008568D02*
X035117Y008568D01*
X035158Y008470D02*
X033030Y008470D01*
X033030Y008371D02*
X035217Y008371D01*
X035315Y008273D02*
X033038Y008273D01*
X033137Y008174D02*
X035440Y008174D01*
X035989Y008174D02*
X036444Y008174D01*
X036403Y008273D02*
X036114Y008273D01*
X036202Y008371D02*
X036402Y008371D01*
X036402Y008470D02*
X036243Y008470D01*
X036280Y008568D02*
X036402Y008568D01*
X036402Y008667D02*
X036280Y008667D01*
X036280Y008765D02*
X036402Y008765D01*
X036421Y008864D02*
X036247Y008864D01*
X036230Y008962D02*
X036468Y008962D01*
X036575Y009061D02*
X036230Y009061D01*
X036230Y009159D02*
X038900Y009159D01*
X038900Y009061D02*
X037355Y009061D01*
X037462Y008962D02*
X038900Y008962D01*
X038900Y008864D02*
X037509Y008864D01*
X037528Y008765D02*
X038900Y008765D01*
X038900Y008667D02*
X037528Y008667D01*
X037528Y008568D02*
X038900Y008568D01*
X038900Y008470D02*
X037528Y008470D01*
X037528Y008371D02*
X038900Y008371D01*
X038892Y008273D02*
X037526Y008273D01*
X037486Y008174D02*
X038793Y008174D01*
X039785Y007568D02*
X039785Y007568D01*
X039800Y007583D02*
X040900Y007583D01*
X040900Y007485D02*
X039701Y007485D01*
X039603Y007386D02*
X040900Y007386D01*
X040900Y007288D02*
X039504Y007288D01*
X039444Y007227D02*
X039444Y007227D01*
X039406Y007189D02*
X040900Y007189D01*
X040900Y007091D02*
X039307Y007091D01*
X039102Y006992D02*
X040900Y006992D01*
X042030Y007288D02*
X049744Y007288D01*
X049744Y007386D02*
X042030Y007386D01*
X042030Y007485D02*
X049744Y007485D01*
X049744Y007583D02*
X042030Y007583D01*
X042030Y007682D02*
X049744Y007682D01*
X049744Y007780D02*
X042030Y007780D01*
X042030Y007879D02*
X049744Y007879D01*
X049744Y007977D02*
X042030Y007977D01*
X042030Y008076D02*
X049744Y008076D01*
X049744Y008174D02*
X042030Y008174D01*
X042030Y008273D02*
X049744Y008273D01*
X049744Y008371D02*
X042030Y008371D01*
X042030Y008470D02*
X049744Y008470D01*
X049744Y008568D02*
X042030Y008568D01*
X042030Y008667D02*
X049744Y008667D01*
X049744Y008765D02*
X042030Y008765D01*
X042030Y008864D02*
X049744Y008864D01*
X049744Y008962D02*
X042030Y008962D01*
X042030Y009061D02*
X049744Y009061D01*
X049744Y009159D02*
X042030Y009159D01*
X042030Y009258D02*
X049744Y009258D01*
X049744Y009356D02*
X042030Y009356D01*
X042030Y009455D02*
X049744Y009455D01*
X049744Y009553D02*
X042030Y009553D01*
X041992Y009652D02*
X049744Y009652D01*
X049744Y009750D02*
X041951Y009750D01*
X041862Y009849D02*
X049744Y009849D01*
X049744Y009947D02*
X041764Y009947D01*
X041665Y010046D02*
X049744Y010046D01*
X049744Y010144D02*
X041567Y010144D01*
X041468Y010243D02*
X049744Y010243D01*
X049744Y010341D02*
X041370Y010341D01*
X041271Y010440D02*
X049744Y010440D01*
X049744Y010538D02*
X041173Y010538D01*
X041074Y010637D02*
X049744Y010637D01*
X049744Y010735D02*
X040976Y010735D01*
X040877Y010834D02*
X049744Y010834D01*
X049744Y010932D02*
X040779Y010932D01*
X040680Y011031D02*
X049744Y011031D01*
X049744Y011129D02*
X040582Y011129D01*
X040483Y011228D02*
X049744Y011228D01*
X049744Y011326D02*
X040385Y011326D01*
X040286Y011425D02*
X049744Y011425D01*
X049744Y011523D02*
X040188Y011523D01*
X039542Y011523D02*
X036389Y011523D01*
X036389Y011425D02*
X039444Y011425D01*
X039345Y011326D02*
X036385Y011326D01*
X036389Y011330D02*
X036389Y011764D01*
X036294Y011859D01*
X036611Y011859D01*
X036745Y011914D01*
X036847Y012017D01*
X036903Y012151D01*
X036903Y012693D01*
X036847Y012827D01*
X036745Y012929D01*
X036611Y012985D01*
X036069Y012985D01*
X035935Y012929D01*
X035832Y012827D01*
X035777Y012693D01*
X035777Y012151D01*
X035810Y012071D01*
X035648Y012071D01*
X035341Y011764D01*
X035341Y011330D01*
X035648Y011023D01*
X036082Y011023D01*
X036389Y011330D01*
X036286Y011228D02*
X039247Y011228D01*
X039148Y011129D02*
X036188Y011129D01*
X036089Y011031D02*
X039050Y011031D01*
X038971Y010932D02*
X035130Y010932D01*
X035130Y010834D02*
X038931Y010834D01*
X038900Y010735D02*
X035130Y010735D01*
X035130Y010637D02*
X038900Y010637D01*
X038900Y010538D02*
X035173Y010538D01*
X035271Y010440D02*
X038900Y010440D01*
X038900Y010341D02*
X035370Y010341D01*
X035468Y010243D02*
X038900Y010243D01*
X038900Y010144D02*
X035567Y010144D01*
X035665Y010046D02*
X038900Y010046D01*
X038900Y009947D02*
X035764Y009947D01*
X035862Y009849D02*
X038900Y009849D01*
X038900Y009750D02*
X035961Y009750D01*
X036059Y009652D02*
X038900Y009652D01*
X038900Y009553D02*
X036150Y009553D01*
X036190Y009455D02*
X038900Y009455D01*
X038900Y009356D02*
X036230Y009356D01*
X036230Y009258D02*
X038900Y009258D01*
X040030Y009258D02*
X040855Y009258D01*
X040900Y009159D02*
X040030Y009159D01*
X040030Y009061D02*
X040900Y009061D01*
X040900Y008962D02*
X040030Y008962D01*
X040030Y008864D02*
X040900Y008864D01*
X040900Y008765D02*
X040030Y008765D01*
X040030Y008667D02*
X040900Y008667D01*
X040900Y008568D02*
X040030Y008568D01*
X040030Y008470D02*
X040900Y008470D01*
X040900Y008371D02*
X040030Y008371D01*
X040030Y008273D02*
X040900Y008273D01*
X040900Y008174D02*
X040030Y008174D01*
X040030Y008076D02*
X040900Y008076D01*
X040900Y007977D02*
X040030Y007977D01*
X040007Y007879D02*
X040900Y007879D01*
X040900Y007780D02*
X039966Y007780D01*
X039898Y007682D02*
X040900Y007682D01*
X042122Y007189D02*
X049744Y007189D01*
X049744Y007091D02*
X042220Y007091D01*
X042319Y006992D02*
X049744Y006992D01*
X049744Y006894D02*
X046621Y006894D01*
X046816Y006795D02*
X049744Y006795D01*
X049744Y006697D02*
X046914Y006697D01*
X046972Y006598D02*
X049744Y006598D01*
X049744Y006500D02*
X047013Y006500D01*
X047030Y006401D02*
X049744Y006401D01*
X049744Y006303D02*
X047030Y006303D01*
X047017Y006204D02*
X049744Y006204D01*
X049744Y006106D02*
X046976Y006106D01*
X046924Y006007D02*
X049744Y006007D01*
X049744Y005909D02*
X046825Y005909D01*
X046645Y005810D02*
X049744Y005810D01*
X043108Y006894D02*
X042417Y006894D01*
X042516Y006795D02*
X042914Y006795D01*
X042816Y006697D02*
X042614Y006697D01*
X040757Y009356D02*
X040030Y009356D01*
X040030Y009455D02*
X040658Y009455D01*
X040560Y009553D02*
X040030Y009553D01*
X040030Y009652D02*
X040461Y009652D01*
X040363Y009750D02*
X040030Y009750D01*
X040030Y009849D02*
X040264Y009849D01*
X040166Y009947D02*
X040030Y009947D01*
X040030Y010046D02*
X040067Y010046D01*
X036389Y011622D02*
X049744Y011622D01*
X049744Y011720D02*
X036389Y011720D01*
X036334Y011819D02*
X049744Y011819D01*
X049744Y011917D02*
X036747Y011917D01*
X036846Y012016D02*
X049744Y012016D01*
X049744Y012114D02*
X036888Y012114D01*
X036903Y012213D02*
X049744Y012213D01*
X049744Y012311D02*
X036903Y012311D01*
X036903Y012410D02*
X049744Y012410D01*
X049744Y012508D02*
X036903Y012508D01*
X036903Y012607D02*
X049744Y012607D01*
X049744Y012705D02*
X036898Y012705D01*
X036857Y012804D02*
X049744Y012804D01*
X049744Y012902D02*
X036772Y012902D01*
X035908Y012902D02*
X033062Y012902D01*
X033161Y013001D02*
X049744Y013001D01*
X049744Y013099D02*
X033259Y013099D01*
X033358Y013198D02*
X049744Y013198D01*
X049744Y013296D02*
X033456Y013296D01*
X033555Y013395D02*
X049744Y013395D01*
X049744Y013493D02*
X033653Y013493D01*
X033752Y013592D02*
X049744Y013592D01*
X049744Y013690D02*
X033850Y013690D01*
X033949Y013789D02*
X049744Y013789D01*
X049744Y013887D02*
X034047Y013887D01*
X034146Y013986D02*
X049744Y013986D01*
X049744Y014084D02*
X034719Y014084D01*
X034843Y014183D02*
X049744Y014183D01*
X049744Y014281D02*
X034941Y014281D01*
X035022Y014380D02*
X049744Y014380D01*
X049744Y014478D02*
X035063Y014478D01*
X035090Y014577D02*
X049744Y014577D01*
X049744Y014675D02*
X035090Y014675D01*
X035090Y014774D02*
X049744Y014774D01*
X049744Y014872D02*
X035090Y014872D01*
X035090Y014971D02*
X049744Y014971D01*
X049744Y015069D02*
X035090Y015069D01*
X035089Y015168D02*
X049744Y015168D01*
X049744Y015266D02*
X035086Y015266D01*
X034990Y015365D02*
X049744Y015365D01*
X049744Y015463D02*
X034891Y015463D01*
X034791Y015562D02*
X049744Y015562D01*
X049744Y015660D02*
X034719Y015660D01*
X034817Y015759D02*
X049744Y015759D01*
X049744Y015857D02*
X034889Y015857D01*
X034889Y015956D02*
X049744Y015956D01*
X049744Y016054D02*
X034889Y016054D01*
X034889Y016153D02*
X049744Y016153D01*
X049744Y016251D02*
X034889Y016251D01*
X034810Y016350D02*
X039722Y016350D01*
X039748Y016323D02*
X039441Y016630D01*
X039441Y017064D01*
X039748Y017371D01*
X040182Y017371D01*
X040489Y017064D01*
X040489Y016630D01*
X040182Y016323D01*
X039748Y016323D01*
X039623Y016448D02*
X034810Y016448D01*
X034810Y016547D02*
X039525Y016547D01*
X039441Y016645D02*
X034810Y016645D01*
X034810Y016744D02*
X039441Y016744D01*
X039441Y016842D02*
X034810Y016842D01*
X034810Y016941D02*
X039441Y016941D01*
X039441Y017039D02*
X034810Y017039D01*
X034810Y017138D02*
X037064Y017138D01*
X036963Y017236D02*
X034810Y017236D01*
X034810Y017335D02*
X036919Y017335D01*
X036902Y017433D02*
X034810Y017433D01*
X034810Y017532D02*
X036902Y017532D01*
X036902Y017630D02*
X034989Y017630D01*
X035087Y017729D02*
X036902Y017729D01*
X036902Y017827D02*
X035186Y017827D01*
X035284Y017926D02*
X036905Y017926D01*
X036946Y018024D02*
X035289Y018024D01*
X035289Y018123D02*
X037028Y018123D01*
X037410Y018221D02*
X035289Y018221D01*
X035289Y018320D02*
X037508Y018320D01*
X037464Y018418D02*
X035234Y018418D01*
X035136Y018517D02*
X037366Y018517D01*
X037267Y018615D02*
X035037Y018615D01*
X034492Y018615D02*
X034409Y018615D01*
X034394Y018517D02*
X034383Y018517D01*
X034450Y018714D02*
X037169Y018714D01*
X037070Y018812D02*
X034473Y018812D01*
X034473Y018911D02*
X036972Y018911D01*
X036873Y019009D02*
X034473Y019009D01*
X034473Y019108D02*
X036775Y019108D01*
X036676Y019206D02*
X034473Y019206D01*
X034473Y019305D02*
X036578Y019305D01*
X036479Y019403D02*
X034473Y019403D01*
X034473Y019502D02*
X036381Y019502D01*
X036332Y019600D02*
X034473Y019600D01*
X034473Y019699D02*
X036299Y019699D01*
X036299Y019797D02*
X034473Y019797D01*
X034473Y019896D02*
X036299Y019896D01*
X036299Y019994D02*
X034473Y019994D01*
X034473Y020093D02*
X036299Y020093D01*
X036299Y020191D02*
X034473Y020191D01*
X034473Y020290D02*
X036299Y020290D01*
X036299Y020388D02*
X034473Y020388D01*
X034473Y020487D02*
X036299Y020487D01*
X036299Y020585D02*
X034473Y020585D01*
X034473Y020684D02*
X036299Y020684D01*
X036299Y020782D02*
X034473Y020782D01*
X034473Y020881D02*
X036299Y020881D01*
X036299Y020979D02*
X034473Y020979D01*
X034473Y021078D02*
X036225Y021078D01*
X036127Y021176D02*
X034473Y021176D01*
X034473Y021275D02*
X036099Y021275D01*
X036099Y021373D02*
X034473Y021373D01*
X034473Y021472D02*
X036099Y021472D01*
X036099Y021570D02*
X034473Y021570D01*
X034473Y021669D02*
X036099Y021669D01*
X036129Y021767D02*
X034555Y021767D01*
X034653Y021866D02*
X036227Y021866D01*
X038784Y022457D02*
X039813Y022457D01*
X039714Y022555D02*
X039174Y022555D01*
X039169Y022654D02*
X039616Y022654D01*
X039517Y022752D02*
X039071Y022752D01*
X039174Y022358D02*
X039911Y022358D01*
X040010Y022260D02*
X039142Y022260D01*
X039043Y022161D02*
X040108Y022161D01*
X040207Y022063D02*
X039064Y022063D01*
X039163Y021964D02*
X040305Y021964D01*
X040404Y021866D02*
X039350Y021866D01*
X039474Y021767D02*
X040502Y021767D01*
X040601Y021669D02*
X039572Y021669D01*
X039671Y021570D02*
X040699Y021570D01*
X040841Y021472D02*
X039769Y021472D01*
X039868Y021373D02*
X049744Y021373D01*
X049744Y021275D02*
X039966Y021275D01*
X040065Y021176D02*
X049744Y021176D01*
X049744Y021078D02*
X040163Y021078D01*
X040250Y020979D02*
X049744Y020979D01*
X049744Y020881D02*
X040291Y020881D01*
X040310Y020782D02*
X049744Y020782D01*
X049744Y020684D02*
X040310Y020684D01*
X040310Y020585D02*
X049744Y020585D01*
X049744Y020487D02*
X040310Y020487D01*
X040310Y020388D02*
X049744Y020388D01*
X049744Y020290D02*
X040310Y020290D01*
X040310Y020191D02*
X049744Y020191D01*
X049744Y020093D02*
X040310Y020093D01*
X040310Y019994D02*
X049744Y019994D01*
X049744Y019896D02*
X040310Y019896D01*
X040310Y019797D02*
X049744Y019797D01*
X049744Y019699D02*
X040310Y019699D01*
X040310Y019600D02*
X049744Y019600D01*
X048705Y019502D02*
X048605Y019502D01*
X048605Y019575D02*
X047635Y019575D01*
X047597Y019565D01*
X047563Y019545D01*
X047535Y019517D01*
X047515Y019483D01*
X047505Y019445D01*
X047505Y019025D01*
X048605Y019025D01*
X048605Y018925D01*
X048705Y018925D01*
X048705Y019025D01*
X048605Y019025D01*
X048605Y019575D01*
X048605Y019403D02*
X048705Y019403D01*
X048705Y019305D02*
X048605Y019305D01*
X048605Y019206D02*
X048705Y019206D01*
X048705Y019108D02*
X048605Y019108D01*
X048605Y019009D02*
X040310Y019009D01*
X040310Y018911D02*
X047505Y018911D01*
X047505Y018925D02*
X047505Y018506D01*
X047515Y018467D01*
X047535Y018433D01*
X047563Y018405D01*
X047597Y018386D01*
X047635Y018375D01*
X048605Y018375D01*
X048605Y018925D01*
X047505Y018925D01*
X047505Y018812D02*
X040310Y018812D01*
X040310Y018714D02*
X047505Y018714D01*
X047505Y018615D02*
X040310Y018615D01*
X040310Y018517D02*
X047505Y018517D01*
X047550Y018418D02*
X040310Y018418D01*
X040294Y018320D02*
X049744Y018320D01*
X049744Y018221D02*
X040253Y018221D01*
X040170Y018123D02*
X049744Y018123D01*
X049744Y018024D02*
X040071Y018024D01*
X039973Y017926D02*
X049744Y017926D01*
X049744Y017827D02*
X039874Y017827D01*
X039776Y017729D02*
X049744Y017729D01*
X049744Y017630D02*
X039677Y017630D01*
X039525Y017532D02*
X049744Y017532D01*
X049744Y017433D02*
X038028Y017433D01*
X038011Y017335D02*
X039712Y017335D01*
X039613Y017236D02*
X037966Y017236D01*
X037865Y017138D02*
X039515Y017138D01*
X040218Y017335D02*
X049744Y017335D01*
X049744Y017236D02*
X040316Y017236D01*
X040415Y017138D02*
X049744Y017138D01*
X049744Y017039D02*
X040489Y017039D01*
X040489Y016941D02*
X049744Y016941D01*
X049744Y016842D02*
X040489Y016842D01*
X040489Y016744D02*
X049744Y016744D01*
X049744Y016645D02*
X040489Y016645D01*
X040405Y016547D02*
X049744Y016547D01*
X049744Y016448D02*
X040307Y016448D01*
X040208Y016350D02*
X049744Y016350D01*
X048705Y018418D02*
X048605Y018418D01*
X048605Y018517D02*
X048705Y018517D01*
X048705Y018615D02*
X048605Y018615D01*
X048605Y018714D02*
X048705Y018714D01*
X048705Y018812D02*
X048605Y018812D01*
X048605Y018911D02*
X048705Y018911D01*
X048705Y019009D02*
X049744Y019009D01*
X047505Y019108D02*
X040310Y019108D01*
X040310Y019206D02*
X047505Y019206D01*
X047505Y019305D02*
X040310Y019305D01*
X040310Y019403D02*
X047505Y019403D01*
X047526Y019502D02*
X040310Y019502D01*
X042653Y021472D02*
X049744Y021472D01*
X049744Y021570D02*
X042753Y021570D01*
X042850Y021669D02*
X049744Y021669D01*
X049744Y021767D02*
X042911Y021767D01*
X042912Y021866D02*
X047597Y021866D01*
X047635Y021855D01*
X048605Y021855D01*
X048605Y022405D01*
X048705Y022405D01*
X048705Y022505D01*
X048605Y022505D01*
X048605Y022405D01*
X047505Y022405D01*
X047505Y021986D01*
X047515Y021947D01*
X047535Y021913D01*
X047563Y021885D01*
X047597Y021866D01*
X047511Y021964D02*
X042912Y021964D01*
X042911Y022063D02*
X047505Y022063D01*
X047505Y022161D02*
X042911Y022161D01*
X042817Y022260D02*
X047505Y022260D01*
X047505Y022358D02*
X042719Y022358D01*
X042618Y022457D02*
X048605Y022457D01*
X048605Y022505D02*
X047505Y022505D01*
X047505Y022925D01*
X047515Y022963D01*
X047535Y022997D01*
X047563Y023025D01*
X047597Y023045D01*
X047635Y023055D01*
X048605Y023055D01*
X048605Y022505D01*
X048605Y022555D02*
X048705Y022555D01*
X048705Y022457D02*
X049744Y022457D01*
X048705Y022358D02*
X048605Y022358D01*
X048605Y022260D02*
X048705Y022260D01*
X048705Y022161D02*
X048605Y022161D01*
X048605Y022063D02*
X048705Y022063D01*
X048705Y021964D02*
X048605Y021964D01*
X048605Y021866D02*
X048705Y021866D01*
X049713Y021866D02*
X049744Y021866D01*
X048705Y022654D02*
X048605Y022654D01*
X048605Y022752D02*
X048705Y022752D01*
X048705Y022851D02*
X048605Y022851D01*
X048605Y022949D02*
X048705Y022949D01*
X048705Y023048D02*
X048605Y023048D01*
X047606Y023048D02*
X040707Y023048D01*
X040805Y022949D02*
X047511Y022949D01*
X047505Y022851D02*
X040904Y022851D01*
X041002Y022752D02*
X047505Y022752D01*
X047505Y022654D02*
X041101Y022654D01*
X041199Y022555D02*
X047505Y022555D01*
X049704Y023048D02*
X049744Y023048D01*
X049744Y023146D02*
X040608Y023146D01*
X040510Y023245D02*
X049744Y023245D01*
X049744Y023343D02*
X040411Y023343D01*
X040313Y023442D02*
X049744Y023442D01*
X049744Y023540D02*
X040214Y023540D01*
X040116Y023639D02*
X049744Y023639D01*
X049744Y023737D02*
X040017Y023737D01*
X039866Y023836D02*
X049744Y023836D01*
X049744Y023934D02*
X006831Y023934D01*
X006831Y023836D02*
X033664Y023836D01*
X033513Y023737D02*
X006831Y023737D01*
X006831Y023639D02*
X033414Y023639D01*
X033316Y023540D02*
X006831Y023540D01*
X006831Y023442D02*
X030469Y023442D01*
X030370Y023343D02*
X006831Y023343D01*
X006831Y023245D02*
X030272Y023245D01*
X030221Y023146D02*
X006831Y023146D01*
X006831Y023048D02*
X006892Y023048D01*
X006831Y022457D02*
X007891Y022457D01*
X007891Y022555D02*
X007991Y022555D01*
X007991Y022457D02*
X020465Y022457D01*
X020460Y022454D02*
X020357Y022352D01*
X020302Y022218D01*
X020302Y021676D01*
X020357Y021542D01*
X020460Y021439D01*
X020594Y021384D01*
X021136Y021384D01*
X021270Y021439D01*
X021372Y021542D01*
X021428Y021676D01*
X021428Y022218D01*
X021372Y022352D01*
X021270Y022454D01*
X021136Y022510D01*
X020594Y022510D01*
X020460Y022454D01*
X020364Y022358D02*
X009091Y022358D01*
X009091Y022260D02*
X020319Y022260D01*
X020302Y022161D02*
X009091Y022161D01*
X009091Y022063D02*
X020302Y022063D01*
X020302Y021964D02*
X009085Y021964D01*
X008999Y021866D02*
X020302Y021866D01*
X020302Y021767D02*
X006831Y021767D01*
X006831Y021669D02*
X020305Y021669D01*
X020346Y021570D02*
X006831Y021570D01*
X006831Y021472D02*
X019527Y021472D01*
X019802Y021472D02*
X020428Y021472D01*
X020052Y021275D02*
X024620Y021275D01*
X024522Y021176D02*
X020093Y021176D01*
X020110Y021078D02*
X024423Y021078D01*
X024325Y020979D02*
X022760Y020979D01*
X022900Y020881D02*
X024226Y020881D01*
X024128Y020782D02*
X022999Y020782D01*
X023097Y020684D02*
X024029Y020684D01*
X024795Y020191D02*
X028980Y020191D01*
X029079Y020093D02*
X024697Y020093D01*
X024598Y019994D02*
X032440Y019994D01*
X032440Y019896D02*
X024500Y019896D01*
X024395Y019797D02*
X032440Y019797D01*
X032440Y019699D02*
X024254Y019699D01*
X024352Y019600D02*
X030977Y019600D01*
X030879Y019502D02*
X024389Y019502D01*
X024389Y019403D02*
X027580Y019403D01*
X027482Y019305D02*
X024389Y019305D01*
X024389Y019206D02*
X027383Y019206D01*
X027341Y019108D02*
X024366Y019108D01*
X024268Y019009D02*
X027341Y019009D01*
X027341Y018911D02*
X024169Y018911D01*
X023959Y018812D02*
X027341Y018812D01*
X027358Y018714D02*
X023861Y018714D01*
X023762Y018615D02*
X027456Y018615D01*
X027555Y018517D02*
X023664Y018517D01*
X023565Y018418D02*
X024207Y018418D01*
X024108Y018320D02*
X023467Y018320D01*
X023410Y018221D02*
X024010Y018221D01*
X023911Y018123D02*
X023410Y018123D01*
X023410Y018024D02*
X023701Y018024D01*
X023603Y017926D02*
X023410Y017926D01*
X023410Y017827D02*
X023504Y017827D01*
X023441Y017729D02*
X023410Y017729D01*
X023410Y017630D02*
X023441Y017630D01*
X023441Y017532D02*
X023410Y017532D01*
X023410Y017433D02*
X023441Y017433D01*
X023441Y017335D02*
X023410Y017335D01*
X023410Y017236D02*
X023513Y017236D01*
X022520Y017236D02*
X020832Y017236D01*
X020879Y017335D02*
X022520Y017335D01*
X022520Y017433D02*
X020910Y017433D01*
X020910Y017532D02*
X022520Y017532D01*
X022520Y017630D02*
X020910Y017630D01*
X020910Y017729D02*
X022520Y017729D01*
X022520Y017827D02*
X020910Y017827D01*
X020910Y017926D02*
X022520Y017926D01*
X022520Y018024D02*
X020910Y018024D01*
X020910Y018123D02*
X022520Y018123D01*
X022520Y018221D02*
X020910Y018221D01*
X020910Y018320D02*
X022520Y018320D01*
X022520Y018418D02*
X020910Y018418D01*
X020910Y018517D02*
X022520Y018517D01*
X022553Y018615D02*
X020910Y018615D01*
X020910Y018714D02*
X022602Y018714D01*
X022701Y018812D02*
X020910Y018812D01*
X020910Y018911D02*
X022799Y018911D01*
X022898Y019009D02*
X020910Y019009D01*
X020910Y019108D02*
X022996Y019108D01*
X023095Y019206D02*
X020910Y019206D01*
X020910Y019305D02*
X023193Y019305D01*
X023292Y019403D02*
X020910Y019403D01*
X020910Y019502D02*
X023341Y019502D01*
X023377Y019600D02*
X020910Y019600D01*
X020910Y019699D02*
X023476Y019699D01*
X022731Y019797D02*
X020910Y019797D01*
X020957Y019896D02*
X022627Y019896D01*
X022528Y019994D02*
X021055Y019994D01*
X021154Y020093D02*
X022430Y020093D01*
X020585Y020782D02*
X020265Y020782D01*
X020187Y020881D02*
X020683Y020881D01*
X020823Y020979D02*
X020110Y020979D01*
X020344Y020684D02*
X020486Y020684D01*
X020388Y020585D02*
X020385Y020585D01*
X019513Y020290D02*
X006831Y020290D01*
X006831Y020388D02*
X019441Y020388D01*
X019285Y020487D02*
X006831Y020487D01*
X006831Y020585D02*
X019186Y020585D01*
X019088Y020684D02*
X006831Y020684D01*
X006831Y020782D02*
X019041Y020782D01*
X019041Y020881D02*
X006831Y020881D01*
X006831Y020979D02*
X019041Y020979D01*
X019041Y021078D02*
X006831Y021078D01*
X006831Y021176D02*
X019053Y021176D01*
X019152Y021275D02*
X006831Y021275D01*
X006831Y021373D02*
X019250Y021373D01*
X019968Y021373D02*
X024761Y021373D01*
X026392Y021472D02*
X021302Y021472D01*
X021384Y021570D02*
X026491Y021570D01*
X026589Y021669D02*
X021425Y021669D01*
X021428Y021767D02*
X026688Y021767D01*
X026786Y021866D02*
X021428Y021866D01*
X021428Y021964D02*
X026885Y021964D01*
X026983Y022063D02*
X021428Y022063D01*
X021428Y022161D02*
X027124Y022161D01*
X027454Y021275D02*
X032440Y021275D01*
X032440Y021373D02*
X029910Y021373D01*
X030013Y021472D02*
X032440Y021472D01*
X032440Y021570D02*
X030111Y021570D01*
X030210Y021669D02*
X032440Y021669D01*
X032440Y021767D02*
X030308Y021767D01*
X030407Y021866D02*
X032440Y021866D01*
X032440Y021964D02*
X030505Y021964D01*
X030604Y022063D02*
X032440Y022063D01*
X032440Y022161D02*
X030679Y022161D01*
X030754Y022260D02*
X032440Y022260D01*
X032440Y022358D02*
X030830Y022358D01*
X030965Y022457D02*
X032440Y022457D01*
X032441Y022555D02*
X031064Y022555D01*
X031162Y022654D02*
X032482Y022654D01*
X032528Y022752D02*
X031261Y022752D01*
X031269Y022851D02*
X032626Y022851D01*
X032725Y022949D02*
X031269Y022949D01*
X031269Y023048D02*
X032823Y023048D01*
X032922Y023146D02*
X031269Y023146D01*
X031218Y023245D02*
X033020Y023245D01*
X033119Y023343D02*
X031119Y023343D01*
X031021Y023442D02*
X033217Y023442D01*
X030221Y023048D02*
X008990Y023048D01*
X009085Y022949D02*
X030162Y022949D01*
X030086Y022851D02*
X009091Y022851D01*
X009091Y022752D02*
X030011Y022752D01*
X029935Y022654D02*
X009091Y022654D01*
X009091Y022555D02*
X029838Y022555D01*
X029739Y022457D02*
X021264Y022457D01*
X021366Y022358D02*
X029641Y022358D01*
X029542Y022260D02*
X021411Y022260D01*
X024992Y020388D02*
X028841Y020388D01*
X028841Y020330D02*
X029148Y020023D01*
X029582Y020023D01*
X029889Y020330D01*
X029889Y020764D01*
X029582Y021071D01*
X029148Y021071D01*
X028841Y020764D01*
X028841Y020330D01*
X028882Y020290D02*
X024894Y020290D01*
X025091Y020487D02*
X028841Y020487D01*
X028841Y020585D02*
X026759Y020585D01*
X026863Y020684D02*
X028841Y020684D01*
X028859Y020782D02*
X026961Y020782D01*
X027060Y020881D02*
X028958Y020881D01*
X029056Y020979D02*
X027158Y020979D01*
X027257Y021078D02*
X032440Y021078D01*
X032440Y021176D02*
X027355Y021176D01*
X029673Y020979D02*
X032440Y020979D01*
X032440Y020881D02*
X029772Y020881D01*
X029870Y020782D02*
X032440Y020782D01*
X032440Y020684D02*
X029889Y020684D01*
X029889Y020585D02*
X032440Y020585D01*
X032440Y020487D02*
X029889Y020487D01*
X029889Y020388D02*
X032440Y020388D01*
X032440Y020290D02*
X029848Y020290D01*
X029750Y020191D02*
X032440Y020191D01*
X032440Y020093D02*
X029651Y020093D01*
X030780Y019403D02*
X028149Y019403D01*
X028248Y019305D02*
X030741Y019305D01*
X030741Y019206D02*
X028346Y019206D01*
X028389Y019108D02*
X030741Y019108D01*
X030741Y019009D02*
X028389Y019009D01*
X028389Y018911D02*
X030761Y018911D01*
X030820Y018812D02*
X028389Y018812D01*
X028372Y018714D02*
X030820Y018714D01*
X030820Y018615D02*
X028274Y018615D01*
X028175Y018517D02*
X030805Y018517D01*
X031473Y017926D02*
X031601Y017926D01*
X031571Y018024D02*
X031700Y018024D01*
X031654Y018123D02*
X031798Y018123D01*
X031897Y018221D02*
X031694Y018221D01*
X031710Y018320D02*
X031995Y018320D01*
X032094Y018418D02*
X031710Y018418D01*
X031710Y018517D02*
X032192Y018517D01*
X032291Y018615D02*
X031710Y018615D01*
X031710Y018714D02*
X032389Y018714D01*
X032440Y018812D02*
X031710Y018812D01*
X031769Y018911D02*
X032440Y018911D01*
X032440Y019009D02*
X031789Y019009D01*
X031789Y019108D02*
X032440Y019108D01*
X032440Y019206D02*
X031789Y019206D01*
X031789Y019305D02*
X032440Y019305D01*
X032440Y019403D02*
X031749Y019403D01*
X031651Y019502D02*
X032440Y019502D01*
X032440Y019600D02*
X031552Y019600D01*
X033283Y018123D02*
X033333Y018123D01*
X033333Y018024D02*
X033184Y018024D01*
X033086Y017926D02*
X033333Y017926D01*
X033333Y017827D02*
X032987Y017827D01*
X032889Y017729D02*
X033333Y017729D01*
X033306Y017630D02*
X032790Y017630D01*
X032692Y017532D02*
X033207Y017532D01*
X033109Y017433D02*
X032593Y017433D01*
X032495Y017335D02*
X033010Y017335D01*
X032912Y017236D02*
X032396Y017236D01*
X032298Y017138D02*
X032813Y017138D01*
X032715Y017039D02*
X032199Y017039D01*
X032101Y016941D02*
X032616Y016941D01*
X032518Y016842D02*
X032002Y016842D01*
X031904Y016744D02*
X032419Y016744D01*
X032321Y016645D02*
X031805Y016645D01*
X031707Y016547D02*
X032222Y016547D01*
X032124Y016448D02*
X031608Y016448D01*
X031510Y016350D02*
X032025Y016350D01*
X031927Y016251D02*
X031411Y016251D01*
X031313Y016153D02*
X031828Y016153D01*
X031730Y016054D02*
X031214Y016054D01*
X031116Y015956D02*
X031631Y015956D01*
X031533Y015857D02*
X031017Y015857D01*
X030919Y015759D02*
X031484Y015759D01*
X031444Y015660D02*
X030820Y015660D01*
X030722Y015562D02*
X031440Y015562D01*
X031440Y015463D02*
X030623Y015463D01*
X030525Y015365D02*
X031440Y015365D01*
X031440Y015266D02*
X030376Y015266D01*
X031440Y015168D02*
X027886Y015168D01*
X027788Y015069D02*
X031440Y015069D01*
X031440Y014971D02*
X027689Y014971D01*
X027591Y014872D02*
X031440Y014872D01*
X031440Y014774D02*
X027492Y014774D01*
X027392Y014675D02*
X031440Y014675D01*
X031440Y014577D02*
X030876Y014577D01*
X031114Y014478D02*
X031440Y014478D01*
X031440Y014380D02*
X031237Y014380D01*
X031335Y014281D02*
X031440Y014281D01*
X031440Y014183D02*
X031402Y014183D01*
X030534Y014577D02*
X025564Y014577D01*
X025466Y014675D02*
X026854Y014675D01*
X026754Y014774D02*
X025367Y014774D01*
X025269Y014872D02*
X026657Y014872D01*
X026599Y014971D02*
X025170Y014971D01*
X025072Y015069D02*
X026598Y015069D01*
X026598Y015168D02*
X024973Y015168D01*
X024910Y015266D02*
X026599Y015266D01*
X026600Y015365D02*
X024910Y015365D01*
X024910Y015463D02*
X026697Y015463D01*
X026795Y015562D02*
X024910Y015562D01*
X024910Y015660D02*
X026894Y015660D01*
X026992Y015759D02*
X024910Y015759D01*
X024910Y015857D02*
X027091Y015857D01*
X027189Y015956D02*
X024910Y015956D01*
X024910Y016054D02*
X027288Y016054D01*
X027386Y016153D02*
X024903Y016153D01*
X024862Y016251D02*
X027568Y016251D01*
X029341Y016941D02*
X024489Y016941D01*
X024489Y017039D02*
X029341Y017039D01*
X029341Y017138D02*
X024489Y017138D01*
X024416Y017236D02*
X029341Y017236D01*
X029341Y017335D02*
X024489Y017335D01*
X024489Y017433D02*
X029410Y017433D01*
X029509Y017532D02*
X024579Y017532D01*
X024489Y016842D02*
X029429Y016842D01*
X029528Y016744D02*
X024489Y016744D01*
X024496Y016645D02*
X029626Y016645D01*
X030104Y016645D02*
X030321Y016645D01*
X030419Y016744D02*
X030202Y016744D01*
X030301Y016842D02*
X030518Y016842D01*
X030616Y016941D02*
X030389Y016941D01*
X030389Y017039D02*
X030715Y017039D01*
X030813Y017138D02*
X030389Y017138D01*
X030389Y017236D02*
X030912Y017236D01*
X031010Y017335D02*
X030389Y017335D01*
X030319Y017433D02*
X031109Y017433D01*
X031207Y017532D02*
X030221Y017532D01*
X031121Y017630D02*
X031306Y017630D01*
X031276Y017729D02*
X031404Y017729D01*
X031374Y017827D02*
X031503Y017827D01*
X030222Y016547D02*
X024594Y016547D01*
X024693Y016448D02*
X030124Y016448D01*
X030025Y016350D02*
X024791Y016350D01*
X024020Y015857D02*
X023289Y015857D01*
X023289Y015956D02*
X023927Y015956D01*
X023828Y016054D02*
X023289Y016054D01*
X023217Y015759D02*
X024020Y015759D01*
X024020Y015660D02*
X023119Y015660D01*
X023020Y015562D02*
X024020Y015562D01*
X024020Y015463D02*
X021790Y015463D01*
X021990Y015365D02*
X024020Y015365D01*
X024020Y015266D02*
X022088Y015266D01*
X022187Y015168D02*
X024020Y015168D01*
X024020Y015069D02*
X022285Y015069D01*
X022340Y014971D02*
X024020Y014971D01*
X024056Y014872D02*
X022381Y014872D01*
X022390Y014774D02*
X024109Y014774D01*
X024207Y014675D02*
X022390Y014675D01*
X022390Y014577D02*
X023053Y014577D01*
X022816Y014478D02*
X022390Y014478D01*
X022390Y014380D02*
X022693Y014380D01*
X022594Y014281D02*
X022390Y014281D01*
X022390Y014183D02*
X022528Y014183D01*
X022487Y014084D02*
X022390Y014084D01*
X022390Y013986D02*
X022446Y013986D01*
X022430Y013887D02*
X022390Y013887D01*
X022390Y013789D02*
X022430Y013789D01*
X022430Y013690D02*
X022390Y013690D01*
X022390Y013592D02*
X022445Y013592D01*
X022486Y013493D02*
X022390Y013493D01*
X022460Y013395D02*
X022527Y013395D01*
X022558Y013296D02*
X022591Y013296D01*
X023858Y013296D02*
X030072Y013296D01*
X030075Y014281D02*
X025860Y014281D01*
X025761Y014380D02*
X030173Y014380D01*
X030296Y014478D02*
X025663Y014478D01*
X024798Y014084D02*
X023962Y014084D01*
X023921Y014183D02*
X024700Y014183D01*
X024601Y014281D02*
X023855Y014281D01*
X023756Y014380D02*
X024503Y014380D01*
X024404Y014478D02*
X023634Y014478D01*
X023396Y014577D02*
X024306Y014577D01*
X024003Y013986D02*
X024897Y013986D01*
X024995Y013887D02*
X024020Y013887D01*
X024020Y013789D02*
X025094Y013789D01*
X025192Y013690D02*
X024020Y013690D01*
X024004Y013592D02*
X025291Y013592D01*
X025389Y013493D02*
X023963Y013493D01*
X023923Y013395D02*
X025509Y013395D01*
X021583Y012114D02*
X016661Y012114D01*
X016563Y012016D02*
X018135Y012016D01*
X018036Y011917D02*
X016464Y011917D01*
X016366Y011819D02*
X017966Y011819D01*
X017925Y011720D02*
X016267Y011720D01*
X016169Y011622D02*
X017900Y011622D01*
X017900Y011523D02*
X016070Y011523D01*
X015972Y011425D02*
X017904Y011425D01*
X017945Y011326D02*
X017986Y011227D01*
X018084Y011129D02*
X015676Y011129D01*
X015578Y011031D02*
X018235Y011031D01*
X016858Y012311D02*
X021411Y012311D01*
X021325Y012410D02*
X016957Y012410D01*
X017055Y012508D02*
X021239Y012508D01*
X021153Y012607D02*
X017154Y012607D01*
X017252Y012705D02*
X021064Y012705D01*
X020993Y012804D02*
X017346Y012804D01*
X017386Y012902D02*
X020957Y012902D01*
X020936Y013001D02*
X017410Y013001D01*
X017410Y013099D02*
X020940Y013099D01*
X020940Y013198D02*
X017410Y013198D01*
X017410Y013296D02*
X020940Y013296D01*
X020940Y013395D02*
X017442Y013395D01*
X017540Y013493D02*
X020940Y013493D01*
X020940Y013592D02*
X017639Y013592D01*
X017737Y013690D02*
X020940Y013690D01*
X020940Y013789D02*
X017836Y013789D01*
X017880Y013887D02*
X020940Y013887D01*
X020940Y013986D02*
X017910Y013986D01*
X017910Y014084D02*
X020940Y014084D01*
X020940Y014183D02*
X017910Y014183D01*
X017910Y014281D02*
X020940Y014281D01*
X020890Y014380D02*
X017976Y014380D01*
X018074Y014478D02*
X020791Y014478D01*
X020693Y014577D02*
X018173Y014577D01*
X018271Y014675D02*
X020594Y014675D01*
X020498Y014774D02*
X018370Y014774D01*
X018468Y014872D02*
X020441Y014872D01*
X020440Y014971D02*
X018567Y014971D01*
X018665Y015069D02*
X020440Y015069D01*
X020441Y015168D02*
X018764Y015168D01*
X018862Y015266D02*
X020443Y015266D01*
X020540Y015365D02*
X018961Y015365D01*
X019059Y015463D02*
X020639Y015463D01*
X020739Y015562D02*
X019158Y015562D01*
X019256Y015660D02*
X022411Y015660D01*
X022510Y015562D02*
X021191Y015562D01*
X022241Y015857D02*
X019453Y015857D01*
X019355Y015759D02*
X022313Y015759D01*
X022241Y015956D02*
X019552Y015956D01*
X019650Y016054D02*
X022241Y016054D01*
X022241Y016153D02*
X019749Y016153D01*
X019847Y016251D02*
X022241Y016251D01*
X022327Y016350D02*
X019946Y016350D01*
X020118Y016448D02*
X022425Y016448D01*
X022524Y016547D02*
X020310Y016547D01*
X020408Y016645D02*
X022737Y016645D01*
X022639Y016744D02*
X020465Y016744D01*
X020506Y016842D02*
X022568Y016842D01*
X022527Y016941D02*
X020537Y016941D01*
X020635Y017039D02*
X022520Y017039D01*
X022520Y017138D02*
X020734Y017138D01*
X019505Y017335D02*
X006831Y017335D01*
X006831Y017433D02*
X019513Y017433D01*
X019513Y017532D02*
X006831Y017532D01*
X006831Y017630D02*
X019513Y017630D01*
X019513Y017729D02*
X006831Y017729D01*
X006831Y017827D02*
X019513Y017827D01*
X019513Y017926D02*
X006831Y017926D01*
X006831Y018024D02*
X019513Y018024D01*
X019513Y018123D02*
X006831Y018123D01*
X006831Y018221D02*
X019513Y018221D01*
X019513Y018320D02*
X006831Y018320D01*
X006831Y018418D02*
X006836Y018418D01*
X006831Y019009D02*
X007891Y019009D01*
X007891Y018911D02*
X007991Y018911D01*
X007991Y019009D02*
X019513Y019009D01*
X019513Y018911D02*
X009091Y018911D01*
X009091Y018812D02*
X019513Y018812D01*
X019513Y018714D02*
X009091Y018714D01*
X009091Y018615D02*
X019513Y018615D01*
X019513Y018517D02*
X009091Y018517D01*
X009046Y018418D02*
X019513Y018418D01*
X019513Y019108D02*
X009091Y019108D01*
X009091Y019206D02*
X019513Y019206D01*
X019513Y019305D02*
X009091Y019305D01*
X009091Y019403D02*
X019513Y019403D01*
X019513Y019502D02*
X009070Y019502D01*
X007991Y019502D02*
X007891Y019502D01*
X007891Y019403D02*
X007991Y019403D01*
X007991Y019305D02*
X007891Y019305D01*
X007891Y019206D02*
X007991Y019206D01*
X007991Y019108D02*
X007891Y019108D01*
X007891Y018812D02*
X007991Y018812D01*
X007991Y018714D02*
X007891Y018714D01*
X007891Y018615D02*
X007991Y018615D01*
X007991Y018517D02*
X007891Y018517D01*
X007891Y018418D02*
X007991Y018418D01*
X006831Y019600D02*
X019513Y019600D01*
X019513Y019699D02*
X006831Y019699D01*
X006831Y019797D02*
X019513Y019797D01*
X019513Y019896D02*
X006831Y019896D01*
X006831Y019994D02*
X019513Y019994D01*
X019513Y020093D02*
X006831Y020093D01*
X006831Y020191D02*
X019513Y020191D01*
X019450Y017236D02*
X006831Y017236D01*
X006831Y017138D02*
X019409Y017138D01*
X019377Y017039D02*
X006831Y017039D01*
X006831Y016941D02*
X019278Y016941D01*
X019180Y016842D02*
X006831Y016842D01*
X006831Y016744D02*
X019081Y016744D01*
X018983Y016645D02*
X006831Y016645D01*
X006831Y016547D02*
X018884Y016547D01*
X018786Y016448D02*
X006831Y016448D01*
X006831Y016350D02*
X018687Y016350D01*
X018589Y016251D02*
X006831Y016251D01*
X006831Y016153D02*
X018490Y016153D01*
X018392Y016054D02*
X006831Y016054D01*
X006831Y015956D02*
X018293Y015956D01*
X018195Y015857D02*
X006831Y015857D01*
X006831Y015759D02*
X018096Y015759D01*
X017998Y015660D02*
X006831Y015660D01*
X006831Y015562D02*
X017899Y015562D01*
X017801Y015463D02*
X006831Y015463D01*
X006831Y015365D02*
X017702Y015365D01*
X017604Y015266D02*
X010150Y015266D01*
X010079Y015337D02*
X009425Y015337D01*
X008962Y014874D01*
X008962Y014220D01*
X009425Y013757D01*
X010079Y013757D01*
X010542Y014220D01*
X010542Y014874D01*
X010079Y015337D01*
X010249Y015168D02*
X017505Y015168D01*
X017407Y015069D02*
X010347Y015069D01*
X010446Y014971D02*
X017308Y014971D01*
X017210Y014872D02*
X010542Y014872D01*
X010542Y014774D02*
X017111Y014774D01*
X017057Y014675D02*
X010542Y014675D01*
X010542Y014577D02*
X017020Y014577D01*
X017020Y014478D02*
X010542Y014478D01*
X010542Y014380D02*
X017020Y014380D01*
X017020Y014281D02*
X010542Y014281D01*
X010505Y014183D02*
X016971Y014183D01*
X016873Y014084D02*
X010407Y014084D01*
X010308Y013986D02*
X016774Y013986D01*
X016676Y013887D02*
X010210Y013887D01*
X010111Y013789D02*
X016583Y013789D01*
X016543Y013690D02*
X006831Y013690D01*
X006831Y013592D02*
X016520Y013592D01*
X016520Y013493D02*
X006831Y013493D01*
X006831Y013395D02*
X016520Y013395D01*
X016520Y013296D02*
X006831Y013296D01*
X006831Y013198D02*
X016486Y013198D01*
X016388Y013099D02*
X006831Y013099D01*
X006831Y013001D02*
X016289Y013001D01*
X016191Y012902D02*
X006831Y012902D01*
X006831Y012804D02*
X016092Y012804D01*
X015994Y012705D02*
X006831Y012705D01*
X006831Y012607D02*
X009461Y012607D01*
X009363Y012508D02*
X006831Y012508D01*
X006831Y012410D02*
X009264Y012410D01*
X009249Y012311D02*
X006831Y012311D01*
X006831Y012213D02*
X009629Y012213D01*
X009387Y011917D02*
X006831Y011917D01*
X006831Y011819D02*
X009369Y011819D01*
X009271Y011720D02*
X006831Y011720D01*
X006831Y011622D02*
X009172Y011622D01*
X009074Y011523D02*
X006831Y011523D01*
X006831Y011425D02*
X009034Y011425D01*
X009034Y011326D02*
X006831Y011326D01*
X006831Y011228D02*
X009034Y011228D01*
X009034Y011129D02*
X006831Y011129D01*
X006831Y011031D02*
X009034Y011031D01*
X009068Y010932D02*
X006831Y010932D01*
X006831Y010834D02*
X009167Y010834D01*
X009265Y010735D02*
X006831Y010735D01*
X006831Y010637D02*
X009364Y010637D01*
X009289Y012016D02*
X006831Y012016D01*
X006831Y012114D02*
X009249Y012114D01*
X009956Y012508D02*
X011056Y012508D01*
X010958Y012410D02*
X010054Y012410D01*
X010069Y012311D02*
X010909Y012311D01*
X009393Y013789D02*
X006831Y013789D01*
X006831Y013887D02*
X009295Y013887D01*
X009196Y013986D02*
X006831Y013986D01*
X006831Y014084D02*
X009098Y014084D01*
X008999Y014183D02*
X006831Y014183D01*
X006831Y014281D02*
X008962Y014281D01*
X008962Y014380D02*
X006831Y014380D01*
X006831Y014478D02*
X008962Y014478D01*
X008962Y014577D02*
X006831Y014577D01*
X006831Y014675D02*
X008962Y014675D01*
X008962Y014774D02*
X006831Y014774D01*
X006831Y014872D02*
X008962Y014872D01*
X009059Y014971D02*
X006831Y014971D01*
X006831Y015069D02*
X009157Y015069D01*
X009256Y015168D02*
X006831Y015168D01*
X006831Y015266D02*
X009354Y015266D01*
X016760Y012213D02*
X021497Y012213D01*
X032030Y011622D02*
X033291Y011622D01*
X033200Y011523D02*
X032030Y011523D01*
X032030Y011425D02*
X033102Y011425D01*
X033989Y010834D02*
X034000Y010834D01*
X034000Y010735D02*
X033894Y010735D01*
X033795Y010637D02*
X034000Y010637D01*
X034000Y010538D02*
X033697Y010538D01*
X034000Y010440D02*
X032871Y010440D01*
X035130Y011031D02*
X035641Y011031D01*
X035542Y011129D02*
X035130Y011129D01*
X035130Y011228D02*
X035444Y011228D01*
X035345Y011326D02*
X035102Y011326D01*
X035061Y011425D02*
X035341Y011425D01*
X035341Y011523D02*
X034988Y011523D01*
X034889Y011622D02*
X035341Y011622D01*
X035341Y011720D02*
X034791Y011720D01*
X034692Y011819D02*
X035396Y011819D01*
X035494Y011917D02*
X034594Y011917D01*
X034495Y012016D02*
X035593Y012016D01*
X035792Y012114D02*
X034397Y012114D01*
X034298Y012213D02*
X035777Y012213D01*
X035777Y012311D02*
X034200Y012311D01*
X034101Y012410D02*
X035777Y012410D01*
X035777Y012508D02*
X034003Y012508D01*
X033904Y012607D02*
X035777Y012607D01*
X035782Y012705D02*
X033806Y012705D01*
X033597Y012804D02*
X035823Y012804D01*
X022687Y006894D02*
X009908Y006894D01*
X009973Y006795D02*
X010928Y006795D01*
X010991Y006858D02*
X010684Y006551D01*
X010684Y006117D01*
X010991Y005811D01*
X011424Y005811D01*
X011731Y006117D01*
X011731Y006551D01*
X011424Y006858D01*
X010991Y006858D01*
X010829Y006697D02*
X010071Y006697D01*
X010170Y006598D02*
X010731Y006598D01*
X010684Y006500D02*
X010268Y006500D01*
X010284Y006401D02*
X010684Y006401D01*
X010684Y006303D02*
X010284Y006303D01*
X010284Y006204D02*
X010684Y006204D01*
X010696Y006106D02*
X010284Y006106D01*
X010284Y006007D02*
X010794Y006007D01*
X010893Y005909D02*
X010227Y005909D01*
X010128Y005810D02*
X022597Y005810D01*
X022529Y005909D02*
X011522Y005909D01*
X011621Y006007D02*
X022488Y006007D01*
X022448Y006106D02*
X011719Y006106D01*
X011731Y006204D02*
X022430Y006204D01*
X022430Y006303D02*
X011731Y006303D01*
X011731Y006401D02*
X022430Y006401D01*
X022444Y006500D02*
X011731Y006500D01*
X011684Y006598D02*
X022485Y006598D01*
X022526Y006697D02*
X011586Y006697D01*
X011487Y006795D02*
X022589Y006795D01*
X022696Y005712D02*
X010030Y005712D01*
X009931Y005613D02*
X022822Y005613D01*
X007991Y021866D02*
X007891Y021866D01*
X007891Y021964D02*
X007991Y021964D01*
X007991Y022063D02*
X007891Y022063D01*
X007891Y022161D02*
X007991Y022161D01*
X007991Y022260D02*
X007891Y022260D01*
X007891Y022358D02*
X007991Y022358D01*
X007991Y022654D02*
X007891Y022654D01*
X007891Y022752D02*
X007991Y022752D01*
X007991Y022851D02*
X007891Y022851D01*
X007891Y022949D02*
X007991Y022949D01*
X007991Y023048D02*
X007891Y023048D01*
X006831Y024033D02*
X049744Y024033D01*
X049744Y024131D02*
X006831Y024131D01*
X006831Y024230D02*
X049744Y024230D01*
X049744Y024328D02*
X006831Y024328D01*
X006831Y024427D02*
X049744Y024427D01*
X047776Y024525D02*
X006831Y024525D01*
X006831Y024624D02*
X047776Y024624D01*
X047776Y024722D02*
X006831Y024722D01*
X006831Y024821D02*
X047776Y024821D01*
X006883Y021866D02*
X006831Y021866D01*
D16*
X007305Y022509D03*
X008505Y022509D03*
X008707Y024393D03*
X007605Y024393D03*
X010676Y024393D03*
X012644Y024393D03*
X014613Y024393D03*
X016581Y024393D03*
X018550Y024393D03*
X020518Y024393D03*
X022487Y024393D03*
X024455Y024393D03*
X026424Y024393D03*
X028392Y024393D03*
X030361Y024393D03*
X032329Y024393D03*
X034298Y024393D03*
X036266Y024393D03*
X038235Y024393D03*
X040203Y024393D03*
X042172Y024393D03*
X042833Y023746D03*
X044140Y024393D03*
X044802Y023746D03*
X046109Y024393D03*
X046770Y023746D03*
X045786Y022762D03*
X046770Y021778D03*
X048078Y022471D03*
X049078Y022471D03*
X043818Y022762D03*
X041849Y022762D03*
X046770Y019809D03*
X048078Y018971D03*
X049078Y018971D03*
X046770Y017841D03*
X045786Y016857D03*
X044802Y015872D03*
X046770Y015872D03*
X047755Y014888D03*
X048739Y013904D03*
X047755Y012920D03*
X048739Y011935D03*
X047755Y010951D03*
X048739Y009967D03*
X047755Y008983D03*
X048739Y007998D03*
X047755Y007014D03*
X048739Y006030D03*
X048077Y004920D03*
X046109Y004920D03*
X044140Y004920D03*
X042172Y004920D03*
X040203Y004920D03*
X039219Y005414D03*
X038235Y004920D03*
X037251Y005414D03*
X036266Y004920D03*
X035282Y005414D03*
X034298Y004920D03*
X032329Y004920D03*
X030361Y004920D03*
X028392Y004920D03*
X026424Y004920D03*
X024455Y004920D03*
X022487Y004920D03*
X020315Y004731D03*
X019715Y004731D03*
X019115Y004731D03*
X018515Y004731D03*
X017915Y004731D03*
X017915Y005331D03*
X018515Y005331D03*
X019115Y005331D03*
X019715Y005331D03*
X020315Y005331D03*
X020315Y006031D03*
X019715Y006031D03*
X019115Y006031D03*
X018515Y006031D03*
X017915Y006031D03*
X017915Y006731D03*
X018515Y006731D03*
X019115Y006731D03*
X019715Y006731D03*
X020315Y006731D03*
X020315Y007331D03*
X019715Y007331D03*
X019115Y007331D03*
X018515Y007331D03*
X017915Y007331D03*
X016990Y007529D03*
X021024Y007526D03*
X016581Y004920D03*
X014613Y004920D03*
X012644Y004920D03*
X007605Y004920D03*
X007605Y006398D03*
X007605Y008367D03*
X007605Y010335D03*
X007605Y012304D03*
X007605Y014272D03*
X011771Y015115D03*
X011727Y016044D03*
X012344Y016638D03*
X012904Y016039D03*
X012951Y015156D03*
X015507Y013883D03*
X015507Y013083D03*
X019350Y012739D03*
X017244Y016581D03*
X017970Y016879D03*
X008405Y019009D03*
X007205Y019009D03*
X007605Y018209D03*
X007605Y016241D03*
X036266Y006398D03*
X038235Y006398D03*
X040203Y006398D03*
X048739Y015872D03*
X047755Y016857D03*
X043428Y018994D03*
X041893Y017660D03*
X040144Y017710D03*
X041128Y018694D03*
X041128Y016726D03*
D17*
X037465Y017647D03*
X038465Y018647D03*
X036340Y012422D03*
X040547Y009181D03*
X036965Y008547D03*
X021004Y009943D03*
X011665Y019147D03*
X020865Y021947D03*
D18*
X018565Y022347D03*
X016665Y022047D03*
X017865Y021247D03*
X021465Y019847D03*
X022365Y019847D03*
X023189Y020977D03*
X024419Y021737D03*
X026699Y022287D03*
X027569Y023327D03*
X028339Y023317D03*
X029459Y023387D03*
X031448Y023446D03*
X027299Y020587D03*
X025799Y020187D03*
X029899Y018787D03*
X030399Y019087D03*
X026480Y017171D03*
X023480Y015571D03*
X021380Y017171D03*
X019398Y018829D03*
X016565Y018947D03*
X015565Y018947D03*
X014565Y018947D03*
X020065Y023247D03*
X036191Y019149D03*
X042887Y019533D03*
X044782Y019001D03*
X042908Y018444D03*
X044044Y021171D03*
X044014Y021959D03*
X036399Y013835D03*
X036380Y013096D03*
X034590Y013088D03*
X034610Y013790D03*
X034533Y012503D03*
X036752Y011359D03*
X036130Y009846D03*
X037755Y009846D03*
X034638Y009058D03*
X033927Y009063D03*
X042037Y010363D03*
X042588Y009855D03*
X044591Y009821D03*
X045821Y010259D03*
X045839Y011260D03*
X045843Y012265D03*
X045845Y013274D03*
X045226Y013635D03*
X043209Y013643D03*
X042043Y013386D03*
X040531Y013641D03*
X039788Y013632D03*
X038870Y013295D03*
X042038Y011380D03*
X046321Y007974D03*
X046326Y007280D03*
X043008Y006929D03*
X043196Y005603D03*
X012397Y011882D03*
D19*
X011465Y012047D03*
X014965Y010047D03*
X014165Y009347D03*
X014465Y008547D03*
X011207Y006334D03*
X018465Y011547D03*
X020965Y015047D03*
X022765Y016047D03*
X023965Y016947D03*
X023965Y017547D03*
X023865Y019347D03*
X027865Y018947D03*
X029365Y020547D03*
X031265Y019147D03*
X034765Y018147D03*
X034365Y016047D03*
X033265Y015447D03*
X034565Y015047D03*
X029865Y017147D03*
X027123Y015147D03*
X033465Y011047D03*
X035865Y011547D03*
X038863Y011629D03*
X039865Y011047D03*
X046465Y006347D03*
X039965Y016847D03*
X042387Y021947D03*
X030745Y022977D03*
X019565Y020947D03*
D20*
X031665Y012247D02*
X033465Y012247D01*
X034565Y011147D01*
X034565Y010347D01*
X035665Y009247D01*
X035665Y008722D01*
X035715Y008672D01*
X032965Y007547D02*
X038965Y007547D01*
X039465Y008047D01*
X039465Y010647D01*
X039865Y011047D01*
X041465Y009447D01*
X041465Y007047D01*
X042465Y006047D01*
X042965Y006047D01*
X043265Y006347D01*
X046465Y006347D01*
X032965Y007547D02*
X032465Y008047D01*
X032465Y010047D01*
X031465Y011047D01*
X031465Y011547D01*
X018465Y011547D01*
D21*
X019958Y016991D03*
X033858Y018891D03*
X035715Y008672D03*
D22*
X021004Y009943D02*
X017855Y009943D01*
X015492Y007580D01*
X013918Y007580D01*
X012965Y008533D01*
X012965Y010547D01*
X011465Y012047D01*
X033858Y018891D02*
X033858Y021940D01*
X034465Y022547D01*
X036668Y022547D01*
X036744Y022470D01*
D23*
X036744Y021470D02*
X036744Y019767D01*
X037965Y018547D01*
X038365Y018547D01*
X038465Y018647D01*
X037765Y017947D02*
X037465Y017647D01*
X037765Y017947D02*
X039365Y017947D01*
X039865Y018447D01*
X039865Y020747D01*
X039141Y021470D01*
X038744Y021470D01*
X034765Y018147D02*
X034365Y017747D01*
X034365Y016047D01*
X033765Y015447D01*
X033265Y015447D01*
X030705Y013787D02*
X025725Y013787D01*
X024465Y015047D01*
X024465Y016047D01*
X023965Y016547D01*
X023465Y016547D01*
X022965Y017047D01*
X022965Y018447D01*
X023865Y019347D01*
X024154Y020179D02*
X022973Y020179D01*
X022579Y020572D01*
X021004Y020572D01*
X020479Y020047D01*
X020465Y020047D01*
X020465Y017498D01*
X019958Y016991D01*
X019958Y020454D01*
X019565Y020947D01*
X019665Y021047D01*
X024154Y020179D02*
X024941Y020966D01*
X026516Y020966D01*
X027303Y021754D01*
X029666Y021754D01*
X030265Y022353D01*
X030745Y022977D01*
X031265Y019147D02*
X031265Y018347D01*
X030965Y018047D01*
X024465Y018047D01*
X023965Y017547D01*
X019958Y016991D02*
X017465Y014498D01*
X017465Y014047D01*
X016965Y013547D01*
X016965Y013047D01*
X014965Y011047D01*
X014965Y010047D01*
D24*
X021465Y013047D02*
X021465Y014547D01*
X020965Y015047D01*
X021065Y014947D01*
X021665Y014947D01*
X021865Y014747D01*
X021865Y013247D01*
X022365Y012747D01*
X031465Y012747D01*
X031965Y013247D01*
X031965Y015547D01*
X033858Y017440D01*
X033858Y018891D01*
X032965Y018547D02*
X030165Y015747D01*
X027723Y015747D01*
X027123Y015147D01*
X022165Y012247D02*
X021465Y013047D01*
X022165Y012247D02*
X031665Y012247D01*
X033965Y014547D01*
X034465Y014547D01*
X034565Y014647D01*
X034565Y015047D01*
X032965Y018547D02*
X032965Y022447D01*
X033871Y023353D01*
X039659Y023353D01*
X041065Y021947D01*
X042387Y021947D01*
M02*
