G75*
G70*
%OFA0B0*%
%FSLAX24Y24*%
%IPPOS*%
%LPD*%
%AMOC8*
5,1,8,0,0,1.08239X$1,22.5*
%
%ADD10C,0.0520*%
%ADD11C,0.0594*%
%ADD12C,0.0560*%
%ADD13C,0.0780*%
%ADD14C,0.0440*%
%ADD15C,0.0475*%
%ADD16C,0.0317*%
%ADD17C,0.0160*%
%ADD18C,0.0396*%
D10*
X002828Y002188D03*
X002828Y003188D03*
X002828Y004688D03*
X002828Y005688D03*
X002828Y007188D03*
X002828Y008188D03*
D11*
X016394Y009750D03*
X023874Y009750D03*
X023874Y006010D03*
X023874Y002270D03*
X016394Y002270D03*
D12*
X029913Y017433D03*
X030913Y017433D03*
X031913Y017433D03*
X031913Y018433D03*
X030913Y018433D03*
X029913Y018433D03*
D13*
X007048Y009139D03*
D14*
X018412Y012842D03*
X020412Y012842D03*
X019412Y013842D03*
D15*
X019593Y020356D03*
X021561Y020356D03*
X023530Y020356D03*
X025498Y020356D03*
X027467Y020356D03*
X029435Y020356D03*
X031404Y020356D03*
X033372Y020356D03*
X035341Y020356D03*
X036002Y019709D03*
X037309Y020356D03*
X037971Y019709D03*
X039278Y020356D03*
X039939Y019709D03*
X038955Y018725D03*
X039939Y017741D03*
X041247Y018434D03*
X042247Y018434D03*
X036987Y018725D03*
X035018Y018725D03*
X039939Y015772D03*
X041247Y014934D03*
X042247Y014934D03*
X039939Y013804D03*
X038955Y012820D03*
X037971Y011835D03*
X039939Y011835D03*
X040924Y010851D03*
X041908Y009867D03*
X040924Y008883D03*
X041908Y007898D03*
X040924Y006914D03*
X041908Y005930D03*
X040924Y004946D03*
X041908Y003961D03*
X040924Y002977D03*
X041908Y001993D03*
X041246Y000883D03*
X039278Y000883D03*
X037309Y000883D03*
X035341Y000883D03*
X033372Y000883D03*
X032388Y001377D03*
X031404Y000883D03*
X030420Y001377D03*
X029435Y000883D03*
X028451Y001377D03*
X027467Y000883D03*
X025498Y000883D03*
X023530Y000883D03*
X021561Y000883D03*
X019593Y000883D03*
X017624Y000883D03*
X015656Y000883D03*
X013484Y000694D03*
X012884Y000694D03*
X012284Y000694D03*
X011684Y000694D03*
X011084Y000694D03*
X011084Y001294D03*
X011684Y001294D03*
X012284Y001294D03*
X012884Y001294D03*
X013484Y001294D03*
X013484Y001994D03*
X012884Y001994D03*
X012284Y001994D03*
X011684Y001994D03*
X011084Y001994D03*
X011084Y002694D03*
X011684Y002694D03*
X012284Y002694D03*
X012884Y002694D03*
X013484Y002694D03*
X013484Y003294D03*
X012884Y003294D03*
X012284Y003294D03*
X011684Y003294D03*
X011084Y003294D03*
X009750Y000883D03*
X007782Y000883D03*
X005813Y000883D03*
X000774Y000883D03*
X000774Y002361D03*
X000774Y004330D03*
X000774Y006298D03*
X000774Y008267D03*
X000774Y010235D03*
X002560Y010802D03*
X001966Y011419D03*
X002565Y011978D03*
X003448Y012026D03*
X003489Y010846D03*
X000774Y012204D03*
X000374Y014972D03*
X001574Y014972D03*
X001674Y018472D03*
X000474Y018472D03*
X000774Y020356D03*
X001876Y020356D03*
X003845Y020356D03*
X005813Y020356D03*
X007782Y020356D03*
X009750Y020356D03*
X011719Y020356D03*
X013687Y020356D03*
X015656Y020356D03*
X017624Y020356D03*
X033313Y013673D03*
X035062Y013623D03*
X034297Y012689D03*
X034297Y014657D03*
X036597Y014957D03*
X040924Y012820D03*
X041908Y011835D03*
X033372Y002361D03*
X031404Y002361D03*
X029435Y002361D03*
D16*
X034235Y001736D03*
X036365Y001566D03*
X036177Y002892D03*
X039495Y003243D03*
X039490Y003937D03*
X039634Y002310D03*
X033705Y005204D03*
X035757Y005818D03*
X035206Y006326D03*
X035207Y007343D03*
X033034Y007010D03*
X032032Y007592D03*
X029922Y007321D03*
X029034Y007510D03*
X027702Y008466D03*
X027759Y009051D03*
X027779Y009753D03*
X029549Y009059D03*
X029568Y009798D03*
X027734Y011010D03*
X026434Y011410D03*
X027534Y012010D03*
X027934Y014110D03*
X029361Y015112D03*
X033134Y012810D03*
X036077Y014407D03*
X036056Y015496D03*
X038131Y014964D03*
X037213Y017134D03*
X037183Y017922D03*
X035556Y017910D03*
X024617Y019409D03*
X023914Y018940D03*
X022628Y019350D03*
X021508Y019280D03*
X020738Y019290D03*
X019868Y018250D03*
X017588Y017700D03*
X016358Y016940D03*
X015534Y015810D03*
X014634Y015810D03*
X012567Y014792D03*
X014549Y013134D03*
X015934Y012010D03*
X017134Y012910D03*
X017134Y013510D03*
X018719Y011904D03*
X023034Y013110D03*
X023068Y014750D03*
X023568Y015050D03*
X024434Y015110D03*
X022534Y016510D03*
X020468Y016550D03*
X018938Y016120D03*
X017034Y015310D03*
X021034Y014910D03*
X014134Y011010D03*
X010489Y012309D03*
X009664Y012433D03*
X009861Y011770D03*
X011331Y012856D03*
X009954Y013123D03*
X009734Y014910D03*
X008734Y014910D03*
X007734Y014910D03*
X005466Y014479D03*
X004696Y014479D03*
X006410Y013469D03*
X006307Y010499D03*
X003552Y009141D03*
X008134Y006010D03*
X007334Y005310D03*
X007634Y004510D03*
X010174Y003661D03*
X014204Y003671D03*
X014511Y001388D03*
X004376Y002297D03*
X011634Y007510D03*
X012511Y008708D03*
X026634Y007010D03*
X029299Y005809D03*
X030924Y005809D03*
X027807Y005021D03*
X027096Y005026D03*
X032039Y009258D03*
X032957Y009595D03*
X033700Y009604D03*
X035212Y009349D03*
X036378Y009606D03*
X038395Y009598D03*
X039014Y009237D03*
X039012Y008228D03*
X039008Y007223D03*
X038990Y006222D03*
X037760Y005784D03*
X012734Y016910D03*
X011034Y017210D03*
X009834Y018010D03*
X011734Y018310D03*
X013234Y019210D03*
X005171Y018673D03*
X003661Y018703D03*
D17*
X000000Y020866D02*
X000000Y000394D01*
X002362Y000394D01*
X002362Y000000D01*
X042913Y000000D01*
X002362Y000000D01*
X002362Y000159D02*
X042913Y000159D01*
X042913Y000317D02*
X002362Y000317D01*
X002698Y001533D02*
X002959Y001533D01*
X003199Y001633D01*
X003384Y001817D01*
X003483Y002058D01*
X003483Y002318D01*
X003384Y002559D01*
X003199Y002743D01*
X003048Y002806D01*
X003059Y002811D01*
X003115Y002852D01*
X003164Y002901D01*
X003205Y002957D01*
X003236Y003019D01*
X003258Y003085D01*
X003268Y003153D01*
X003268Y003188D01*
X003268Y003222D01*
X003258Y003291D01*
X003236Y003357D01*
X003205Y003418D01*
X003164Y003474D01*
X003115Y003523D01*
X003059Y003564D01*
X002997Y003596D01*
X002931Y003617D01*
X002863Y003628D01*
X002828Y003628D01*
X002794Y003628D01*
X002725Y003617D01*
X002659Y003596D01*
X002598Y003564D01*
X002542Y003523D01*
X002493Y003474D01*
X002452Y003418D01*
X002421Y003357D01*
X002399Y003291D01*
X002388Y003222D01*
X002388Y003188D01*
X002828Y003188D01*
X002828Y003188D01*
X002828Y003628D01*
X002828Y003188D01*
X002828Y003188D01*
X002388Y003188D01*
X002388Y003153D01*
X002399Y003085D01*
X002421Y003019D01*
X002452Y002957D01*
X002493Y002901D01*
X002542Y002852D01*
X002598Y002811D01*
X002609Y002806D01*
X002457Y002743D01*
X002273Y002559D01*
X002173Y002318D01*
X002173Y002058D01*
X002273Y001817D01*
X002457Y001633D01*
X002698Y001533D01*
X002572Y001585D02*
X000000Y001585D01*
X000000Y001427D02*
X042913Y001427D01*
X042913Y001585D02*
X024029Y001585D01*
X024012Y001578D02*
X024266Y001683D01*
X024461Y001878D01*
X024566Y002132D01*
X024566Y002407D01*
X024461Y002662D01*
X024266Y002856D01*
X024012Y002961D01*
X023736Y002961D01*
X023482Y002856D01*
X023288Y002662D01*
X023182Y002407D01*
X023182Y002132D01*
X023288Y001878D01*
X023482Y001683D01*
X023736Y001578D01*
X024012Y001578D01*
X023719Y001585D02*
X016549Y001585D01*
X016531Y001578D02*
X016786Y001683D01*
X016980Y001878D01*
X017086Y002132D01*
X017086Y002407D01*
X016980Y002662D01*
X016786Y002856D01*
X016531Y002961D01*
X016256Y002961D01*
X016002Y002856D01*
X015807Y002662D01*
X015702Y002407D01*
X015702Y002132D01*
X015807Y001878D01*
X016002Y001683D01*
X016256Y001578D01*
X016531Y001578D01*
X016239Y001585D02*
X003085Y001585D01*
X003310Y001744D02*
X015942Y001744D01*
X015797Y001902D02*
X004764Y001902D01*
X004690Y001828D02*
X004846Y001984D01*
X004930Y002187D01*
X004930Y002407D01*
X004846Y002611D01*
X004690Y002767D01*
X004487Y002851D01*
X004266Y002851D01*
X004063Y002767D01*
X003907Y002611D01*
X003823Y002407D01*
X003823Y002187D01*
X003907Y001984D01*
X004063Y001828D01*
X004266Y001744D01*
X004487Y001744D01*
X004690Y001828D01*
X004878Y002061D02*
X015732Y002061D01*
X015702Y002219D02*
X004930Y002219D01*
X004930Y002378D02*
X015702Y002378D01*
X015755Y002536D02*
X004877Y002536D01*
X004762Y002695D02*
X015840Y002695D01*
X015999Y002853D02*
X003116Y002853D01*
X003232Y003012D02*
X042913Y003012D01*
X042913Y003170D02*
X003268Y003170D01*
X003268Y003188D02*
X002828Y003188D01*
X003268Y003188D01*
X003245Y003329D02*
X042913Y003329D01*
X042913Y003487D02*
X003151Y003487D01*
X002828Y003487D02*
X002828Y003487D01*
X002828Y003329D02*
X002828Y003329D01*
X002828Y003188D02*
X002828Y003188D01*
X002411Y003329D02*
X000000Y003329D01*
X000000Y003487D02*
X002505Y003487D01*
X002388Y003170D02*
X000000Y003170D01*
X000000Y003012D02*
X002424Y003012D01*
X002541Y002853D02*
X000000Y002853D01*
X000000Y002695D02*
X002409Y002695D01*
X002264Y002536D02*
X000000Y002536D01*
X000000Y002378D02*
X002198Y002378D01*
X002173Y002219D02*
X000000Y002219D01*
X000000Y002061D02*
X002173Y002061D01*
X002238Y001902D02*
X000000Y001902D01*
X000000Y001744D02*
X002346Y001744D01*
X003419Y001902D02*
X003989Y001902D01*
X003875Y002061D02*
X003483Y002061D01*
X003483Y002219D02*
X003823Y002219D01*
X003823Y002378D02*
X003459Y002378D01*
X003393Y002536D02*
X003876Y002536D01*
X003991Y002695D02*
X003248Y002695D01*
X002959Y004033D02*
X002698Y004033D01*
X002457Y004133D01*
X002273Y004317D01*
X002173Y004558D01*
X002173Y004818D01*
X002273Y005059D01*
X002457Y005243D01*
X002609Y005306D01*
X002598Y005311D01*
X002542Y005352D01*
X002493Y005401D01*
X002452Y005457D01*
X002421Y005519D01*
X002399Y005585D01*
X002388Y005653D01*
X002388Y005688D01*
X002828Y005688D01*
X002828Y005688D01*
X002828Y006128D01*
X002794Y006128D01*
X002725Y006117D01*
X002659Y006096D01*
X002598Y006064D01*
X002542Y006023D01*
X002493Y005974D01*
X002452Y005918D01*
X002421Y005857D01*
X002399Y005791D01*
X002388Y005722D01*
X002388Y005688D01*
X002828Y005688D01*
X002828Y005688D01*
X002828Y006128D01*
X002863Y006128D01*
X002931Y006117D01*
X002997Y006096D01*
X003059Y006064D01*
X003115Y006023D01*
X007580Y006023D01*
X007580Y006120D02*
X007580Y005900D01*
X007626Y005788D01*
X007444Y005864D01*
X007224Y005864D01*
X007020Y005779D01*
X006864Y005623D01*
X006780Y005420D01*
X006780Y005200D01*
X006864Y004996D01*
X007020Y004840D01*
X007149Y004787D01*
X007080Y004620D01*
X007080Y004400D01*
X007164Y004196D01*
X007320Y004040D01*
X007524Y003956D01*
X007744Y003956D01*
X007948Y004040D01*
X008103Y004196D01*
X008188Y004400D01*
X008188Y004620D01*
X008103Y004823D01*
X007948Y004979D01*
X007818Y005033D01*
X007888Y005200D01*
X007888Y005420D01*
X007841Y005532D01*
X008024Y005456D01*
X008244Y005456D01*
X008448Y005540D01*
X008603Y005696D01*
X008688Y005900D01*
X008688Y006120D01*
X008603Y006323D01*
X008448Y006479D01*
X008244Y006564D01*
X008024Y006564D01*
X007820Y006479D01*
X007664Y006323D01*
X007580Y006120D01*
X007606Y006182D02*
X000000Y006182D01*
X000000Y006340D02*
X007681Y006340D01*
X007867Y006499D02*
X000000Y006499D01*
X000000Y006657D02*
X002433Y006657D01*
X002457Y006633D02*
X002698Y006533D01*
X002959Y006533D01*
X003199Y006633D01*
X003384Y006817D01*
X003483Y007058D01*
X003483Y007318D01*
X003384Y007559D01*
X003199Y007743D01*
X003048Y007806D01*
X003059Y007811D01*
X003115Y007852D01*
X003164Y007901D01*
X003205Y007957D01*
X003236Y008019D01*
X003258Y008085D01*
X003268Y008153D01*
X003268Y008188D01*
X003268Y008222D01*
X003258Y008291D01*
X003236Y008357D01*
X003205Y008418D01*
X003164Y008474D01*
X003115Y008523D01*
X003059Y008564D01*
X002997Y008596D01*
X002931Y008617D01*
X002863Y008628D01*
X002828Y008628D01*
X002794Y008628D01*
X002725Y008617D01*
X002659Y008596D01*
X002598Y008564D01*
X002542Y008523D01*
X002493Y008474D01*
X002452Y008418D01*
X002421Y008357D01*
X002399Y008291D01*
X002388Y008222D01*
X002388Y008188D01*
X002828Y008188D01*
X002828Y008188D01*
X002828Y008628D01*
X002828Y008188D01*
X002828Y008188D01*
X002388Y008188D01*
X002388Y008153D01*
X002399Y008085D01*
X002421Y008019D01*
X002452Y007957D01*
X002493Y007901D01*
X002542Y007852D01*
X002598Y007811D01*
X002609Y007806D01*
X002457Y007743D01*
X002273Y007559D01*
X002173Y007318D01*
X002173Y007058D01*
X002273Y006817D01*
X002457Y006633D01*
X002274Y006816D02*
X000000Y006816D01*
X000000Y006974D02*
X002208Y006974D01*
X002173Y007133D02*
X000000Y007133D01*
X000000Y007291D02*
X002173Y007291D01*
X002228Y007450D02*
X000000Y007450D01*
X000000Y007608D02*
X002322Y007608D01*
X002514Y007767D02*
X000000Y007767D01*
X000000Y007925D02*
X002475Y007925D01*
X002400Y008084D02*
X000000Y008084D01*
X000000Y008242D02*
X002391Y008242D01*
X002443Y008401D02*
X000000Y008401D01*
X000000Y008559D02*
X002591Y008559D01*
X002828Y008559D02*
X002828Y008559D01*
X002828Y008401D02*
X002828Y008401D01*
X002828Y008242D02*
X002828Y008242D01*
X002828Y008188D02*
X003268Y008188D01*
X002828Y008188D01*
X002828Y008188D01*
X003181Y007925D02*
X011266Y007925D01*
X011320Y007979D02*
X011164Y007823D01*
X011080Y007620D01*
X011080Y007400D01*
X011164Y007196D01*
X011320Y007040D01*
X011524Y006956D01*
X011744Y006956D01*
X011948Y007040D01*
X012103Y007196D01*
X012188Y007400D01*
X012188Y007620D01*
X012103Y007823D01*
X011948Y007979D01*
X011744Y008064D01*
X011524Y008064D01*
X011320Y007979D01*
X011141Y007767D02*
X003143Y007767D01*
X003334Y007608D02*
X011080Y007608D01*
X011080Y007450D02*
X003429Y007450D01*
X003483Y007291D02*
X011125Y007291D01*
X011228Y007133D02*
X003483Y007133D01*
X003449Y006974D02*
X011481Y006974D01*
X011787Y006974D02*
X026080Y006974D01*
X026080Y006900D02*
X026164Y006696D01*
X026320Y006540D01*
X026524Y006456D01*
X026744Y006456D01*
X026948Y006540D01*
X027103Y006696D01*
X027188Y006900D01*
X027188Y007120D01*
X027103Y007323D01*
X026948Y007479D01*
X026744Y007564D01*
X026524Y007564D01*
X026320Y007479D01*
X026164Y007323D01*
X026080Y007120D01*
X026080Y006900D01*
X026115Y006816D02*
X003382Y006816D01*
X003224Y006657D02*
X026204Y006657D01*
X026421Y006499D02*
X014291Y006499D01*
X014055Y006499D01*
X013837Y006408D01*
X013670Y006241D01*
X013580Y006023D01*
X008688Y006023D01*
X008673Y005865D02*
X013580Y005865D01*
X013580Y005788D02*
X013670Y005570D01*
X013837Y005403D01*
X014055Y005312D01*
X014291Y005312D01*
X014509Y005403D01*
X014676Y005570D01*
X014766Y005788D01*
X014766Y006023D01*
X023856Y006023D01*
X023856Y006028D02*
X023856Y005991D01*
X023892Y005991D01*
X023892Y005533D01*
X023912Y005533D01*
X023986Y005545D01*
X024057Y005568D01*
X024124Y005602D01*
X024185Y005646D01*
X024238Y005699D01*
X024282Y005760D01*
X024316Y005827D01*
X024339Y005898D01*
X024351Y005972D01*
X024351Y005991D01*
X023892Y005991D01*
X023892Y006028D01*
X023856Y006028D01*
X023856Y006487D01*
X023836Y006487D01*
X023762Y006475D01*
X023691Y006452D01*
X023624Y006418D01*
X023563Y006374D01*
X023510Y006320D01*
X023466Y006260D01*
X023432Y006193D01*
X023409Y006122D01*
X023397Y006047D01*
X023397Y006028D01*
X023856Y006028D01*
X023892Y006028D02*
X023892Y006487D01*
X023912Y006487D01*
X023986Y006475D01*
X024057Y006452D01*
X024124Y006418D01*
X024185Y006374D01*
X024238Y006320D01*
X024282Y006260D01*
X024316Y006193D01*
X024339Y006122D01*
X024351Y006047D01*
X024351Y006028D01*
X023892Y006028D01*
X023892Y006023D02*
X042913Y006023D01*
X042913Y005865D02*
X024328Y005865D01*
X024243Y005706D02*
X042913Y005706D01*
X042913Y005548D02*
X023994Y005548D01*
X023892Y005548D02*
X023856Y005548D01*
X023856Y005533D02*
X023856Y005991D01*
X023397Y005991D01*
X023397Y005972D01*
X023409Y005898D01*
X023432Y005827D01*
X023466Y005760D01*
X023510Y005699D01*
X023563Y005646D01*
X023624Y005602D01*
X023691Y005568D01*
X023762Y005545D01*
X023836Y005533D01*
X023856Y005533D01*
X023754Y005548D02*
X014654Y005548D01*
X014733Y005706D02*
X023505Y005706D01*
X023420Y005865D02*
X014766Y005865D01*
X014766Y006023D02*
X014676Y006241D01*
X014509Y006408D01*
X014291Y006499D01*
X014055Y006499D02*
X008401Y006499D01*
X008587Y006340D02*
X013769Y006340D01*
X013646Y006182D02*
X008662Y006182D01*
X008607Y005706D02*
X013614Y005706D01*
X013580Y005788D02*
X013580Y006023D01*
X013693Y005548D02*
X008455Y005548D01*
X007888Y005389D02*
X013870Y005389D01*
X014476Y005389D02*
X042913Y005389D01*
X042913Y005231D02*
X007888Y005231D01*
X007835Y005072D02*
X028482Y005072D01*
X028548Y005138D02*
X028381Y004971D01*
X028291Y004753D01*
X028291Y004517D01*
X028381Y004299D01*
X028548Y004132D01*
X028766Y004042D01*
X029002Y004042D01*
X029220Y004132D01*
X029387Y004299D01*
X029477Y004517D01*
X029477Y004753D01*
X029387Y004971D01*
X029220Y005138D01*
X029002Y005228D01*
X028766Y005228D01*
X028548Y005138D01*
X028357Y004914D02*
X008013Y004914D01*
X008132Y004755D02*
X028292Y004755D01*
X028291Y004597D02*
X008188Y004597D01*
X008188Y004438D02*
X028323Y004438D01*
X028400Y004280D02*
X008138Y004280D01*
X008028Y004121D02*
X028575Y004121D01*
X029193Y004121D02*
X029684Y004121D01*
X029631Y004174D02*
X029798Y004007D01*
X030016Y003917D01*
X030252Y003917D01*
X030470Y004007D01*
X030637Y004174D01*
X030727Y004392D01*
X030727Y004628D01*
X030637Y004846D01*
X030470Y005013D01*
X030252Y005103D01*
X030016Y005103D01*
X029798Y005013D01*
X029631Y004846D01*
X029541Y004628D01*
X029541Y004392D01*
X029631Y004174D01*
X029587Y004280D02*
X029367Y004280D01*
X029444Y004438D02*
X029541Y004438D01*
X029541Y004597D02*
X029477Y004597D01*
X029476Y004755D02*
X029593Y004755D01*
X029699Y004914D02*
X029410Y004914D01*
X029285Y005072D02*
X029941Y005072D01*
X030326Y005072D02*
X042913Y005072D01*
X042913Y004914D02*
X030569Y004914D01*
X030674Y004755D02*
X042913Y004755D01*
X042913Y004597D02*
X030727Y004597D01*
X030727Y004438D02*
X042913Y004438D01*
X042913Y004280D02*
X030680Y004280D01*
X030584Y004121D02*
X042913Y004121D01*
X042913Y003963D02*
X030362Y003963D01*
X029905Y003963D02*
X007759Y003963D01*
X007508Y003963D02*
X000000Y003963D01*
X000000Y004121D02*
X002485Y004121D01*
X002310Y004280D02*
X000000Y004280D01*
X000000Y004438D02*
X002223Y004438D01*
X002173Y004597D02*
X000000Y004597D01*
X000000Y004755D02*
X002173Y004755D01*
X002213Y004914D02*
X000000Y004914D01*
X000000Y005072D02*
X002286Y005072D01*
X002445Y005231D02*
X000000Y005231D01*
X000000Y005389D02*
X002505Y005389D01*
X002411Y005548D02*
X000000Y005548D01*
X000000Y005706D02*
X002388Y005706D01*
X002425Y005865D02*
X000000Y005865D01*
X000000Y006023D02*
X002541Y006023D01*
X002828Y006023D02*
X002828Y006023D01*
X002828Y005865D02*
X002828Y005865D01*
X002828Y005706D02*
X002828Y005706D01*
X002828Y005688D02*
X003268Y005688D01*
X003268Y005722D01*
X003258Y005791D01*
X003236Y005857D01*
X003205Y005918D01*
X003164Y005974D01*
X003115Y006023D01*
X003232Y005865D02*
X007595Y005865D01*
X006947Y005706D02*
X003268Y005706D01*
X003268Y005688D02*
X002828Y005688D01*
X002828Y005688D01*
X003268Y005688D02*
X003268Y005653D01*
X003258Y005585D01*
X003236Y005519D01*
X003205Y005457D01*
X003164Y005401D01*
X003115Y005352D01*
X003059Y005311D01*
X003048Y005306D01*
X003199Y005243D01*
X003384Y005059D01*
X003483Y004818D01*
X003483Y004558D01*
X003384Y004317D01*
X003199Y004133D01*
X002959Y004033D01*
X003171Y004121D02*
X007240Y004121D01*
X007130Y004280D02*
X003346Y004280D01*
X003434Y004438D02*
X007080Y004438D01*
X007080Y004597D02*
X003483Y004597D01*
X003483Y004755D02*
X007136Y004755D01*
X006947Y004914D02*
X003444Y004914D01*
X003370Y005072D02*
X006833Y005072D01*
X006780Y005231D02*
X003212Y005231D01*
X003152Y005389D02*
X006780Y005389D01*
X006833Y005548D02*
X003245Y005548D01*
X000000Y003804D02*
X042913Y003804D01*
X042913Y003646D02*
X000000Y003646D01*
X000000Y001268D02*
X042913Y001268D01*
X042913Y001110D02*
X000000Y001110D01*
X000000Y000951D02*
X042913Y000951D01*
X042913Y000793D02*
X000000Y000793D01*
X000000Y000634D02*
X042913Y000634D01*
X042913Y000476D02*
X000000Y000476D01*
X012040Y007133D02*
X026085Y007133D01*
X026151Y007291D02*
X012143Y007291D01*
X012188Y007450D02*
X026290Y007450D01*
X026977Y007450D02*
X028480Y007450D01*
X028480Y007400D02*
X028564Y007196D01*
X028720Y007040D01*
X028924Y006956D01*
X029144Y006956D01*
X029348Y007040D01*
X029503Y007196D01*
X029588Y007400D01*
X029588Y007620D01*
X029516Y007792D01*
X029627Y007792D01*
X029845Y007882D01*
X030012Y008049D01*
X030102Y008267D01*
X030102Y008503D01*
X030012Y008721D01*
X029845Y008888D01*
X029627Y008978D01*
X029391Y008978D01*
X029173Y008888D01*
X029006Y008721D01*
X028916Y008503D01*
X028916Y008267D01*
X029000Y008064D01*
X028924Y008064D01*
X028720Y007979D01*
X028564Y007823D01*
X028480Y007620D01*
X028480Y007400D01*
X028525Y007291D02*
X027117Y007291D01*
X027182Y007133D02*
X028628Y007133D01*
X028881Y006974D02*
X027188Y006974D01*
X027153Y006816D02*
X032515Y006816D01*
X032480Y006900D02*
X032564Y006696D01*
X032720Y006540D01*
X032924Y006456D01*
X033144Y006456D01*
X033348Y006540D01*
X033503Y006696D01*
X033588Y006900D01*
X033588Y007120D01*
X033503Y007323D01*
X033348Y007479D01*
X033144Y007564D01*
X032924Y007564D01*
X032720Y007479D01*
X032564Y007323D01*
X032480Y007120D01*
X032480Y006900D01*
X032480Y006974D02*
X029187Y006974D01*
X029440Y007133D02*
X032485Y007133D01*
X032551Y007291D02*
X029543Y007291D01*
X029588Y007450D02*
X032690Y007450D01*
X033377Y007450D02*
X042913Y007450D01*
X042913Y007608D02*
X029588Y007608D01*
X029527Y007767D02*
X042913Y007767D01*
X042913Y007925D02*
X029888Y007925D01*
X030026Y008084D02*
X042913Y008084D01*
X042913Y008242D02*
X030092Y008242D01*
X030102Y008401D02*
X042913Y008401D01*
X042913Y008559D02*
X030079Y008559D01*
X030013Y008718D02*
X042913Y008718D01*
X042913Y008876D02*
X029856Y008876D01*
X029161Y008876D02*
X007788Y008876D01*
X007833Y008983D02*
X007713Y008694D01*
X007492Y008473D01*
X007204Y008354D01*
X006891Y008354D01*
X006603Y008473D01*
X006382Y008694D01*
X006263Y008983D01*
X006263Y009295D01*
X006382Y009583D01*
X006603Y009804D01*
X006891Y009924D01*
X007204Y009924D01*
X007492Y009804D01*
X007713Y009583D01*
X007833Y009295D01*
X007833Y008983D01*
X007833Y009035D02*
X042913Y009035D01*
X042913Y009193D02*
X024295Y009193D01*
X024266Y009164D02*
X024461Y009358D01*
X024566Y009612D01*
X024566Y009888D01*
X024461Y010142D01*
X024266Y010336D01*
X024012Y010442D01*
X023736Y010442D01*
X023482Y010336D01*
X023288Y010142D01*
X023182Y009888D01*
X023182Y009612D01*
X023288Y009358D01*
X023482Y009164D01*
X023736Y009058D01*
X024012Y009058D01*
X024266Y009164D01*
X024454Y009352D02*
X042913Y009352D01*
X042913Y009510D02*
X024523Y009510D01*
X024566Y009669D02*
X042913Y009669D01*
X042913Y009827D02*
X024566Y009827D01*
X024525Y009986D02*
X042913Y009986D01*
X042913Y010144D02*
X024458Y010144D01*
X024300Y010303D02*
X042913Y010303D01*
X042913Y010461D02*
X027856Y010461D01*
X027844Y010456D02*
X028048Y010540D01*
X028203Y010696D01*
X028288Y010900D01*
X028288Y011120D01*
X028203Y011323D01*
X028048Y011479D01*
X027863Y011556D01*
X028003Y011696D01*
X028088Y011900D01*
X028088Y012120D01*
X028003Y012323D01*
X027848Y012479D01*
X027644Y012564D01*
X027424Y012564D01*
X027220Y012479D01*
X027064Y012323D01*
X026980Y012120D01*
X026980Y011900D01*
X027064Y011696D01*
X027220Y011540D01*
X027405Y011464D01*
X027264Y011323D01*
X027180Y011120D01*
X027180Y010900D01*
X027264Y010696D01*
X027420Y010540D01*
X027624Y010456D01*
X027844Y010456D01*
X027612Y010461D02*
X014256Y010461D01*
X014244Y010456D02*
X014448Y010540D01*
X014603Y010696D01*
X014688Y010900D01*
X014688Y011120D01*
X014603Y011323D01*
X014448Y011479D01*
X014244Y011564D01*
X014024Y011564D01*
X013820Y011479D01*
X013664Y011323D01*
X013580Y011120D01*
X013580Y010900D01*
X013664Y010696D01*
X013820Y010540D01*
X014024Y010456D01*
X014244Y010456D01*
X014012Y010461D02*
X006904Y010461D01*
X006904Y010385D02*
X006814Y010168D01*
X006647Y010001D01*
X006429Y009910D01*
X006193Y009910D01*
X005975Y010001D01*
X005808Y010168D01*
X005718Y010385D01*
X005718Y010621D01*
X005808Y010839D01*
X005975Y011006D01*
X006193Y011097D01*
X006429Y011097D01*
X006647Y011006D01*
X006814Y010839D01*
X006904Y010621D01*
X006904Y010385D01*
X006870Y010303D02*
X015968Y010303D01*
X016002Y010336D02*
X015807Y010142D01*
X015702Y009888D01*
X015702Y009612D01*
X015807Y009358D01*
X016002Y009164D01*
X016256Y009058D01*
X016531Y009058D01*
X016786Y009164D01*
X016980Y009358D01*
X017086Y009612D01*
X017086Y009888D01*
X016980Y010142D01*
X016786Y010336D01*
X016531Y010442D01*
X016256Y010442D01*
X016002Y010336D01*
X015809Y010144D02*
X006791Y010144D01*
X006611Y009986D02*
X015742Y009986D01*
X015702Y009827D02*
X007437Y009827D01*
X007628Y009669D02*
X015702Y009669D01*
X015744Y009510D02*
X007743Y009510D01*
X007809Y009352D02*
X015814Y009352D01*
X015972Y009193D02*
X007833Y009193D01*
X007723Y008718D02*
X029005Y008718D01*
X028939Y008559D02*
X007578Y008559D01*
X007317Y008401D02*
X028916Y008401D01*
X028926Y008242D02*
X003265Y008242D01*
X003257Y008084D02*
X028992Y008084D01*
X028666Y007925D02*
X012002Y007925D01*
X012127Y007767D02*
X028541Y007767D01*
X028480Y007608D02*
X012188Y007608D01*
X014577Y006340D02*
X023530Y006340D01*
X023428Y006182D02*
X014701Y006182D01*
X016815Y009193D02*
X023453Y009193D01*
X023294Y009352D02*
X016974Y009352D01*
X017043Y009510D02*
X023225Y009510D01*
X023182Y009669D02*
X017086Y009669D01*
X017086Y009827D02*
X023182Y009827D01*
X023223Y009986D02*
X017045Y009986D01*
X016978Y010144D02*
X023290Y010144D01*
X023448Y010303D02*
X016820Y010303D01*
X016248Y011540D02*
X016044Y011456D01*
X015824Y011456D01*
X015620Y011540D01*
X015464Y011696D01*
X015380Y011900D01*
X015380Y012120D01*
X015464Y012323D01*
X015620Y012479D01*
X015824Y012564D01*
X016044Y012564D01*
X016248Y012479D01*
X016403Y012323D01*
X016488Y012120D01*
X016488Y011900D01*
X016403Y011696D01*
X016248Y011540D01*
X016278Y011571D02*
X020497Y011571D01*
X020497Y011578D02*
X020497Y011342D01*
X020587Y011124D01*
X020754Y010957D01*
X020972Y010867D01*
X021208Y010867D01*
X021426Y010957D01*
X021593Y011124D01*
X021683Y011342D01*
X021683Y011578D01*
X021593Y011796D01*
X021426Y011963D01*
X021208Y012053D01*
X020972Y012053D01*
X020754Y011963D01*
X020587Y011796D01*
X020497Y011578D01*
X020559Y011729D02*
X016417Y011729D01*
X016483Y011888D02*
X020679Y011888D01*
X020955Y012046D02*
X016488Y012046D01*
X016453Y012205D02*
X027015Y012205D01*
X026980Y012046D02*
X021225Y012046D01*
X021501Y011888D02*
X026140Y011888D01*
X026120Y011879D02*
X025964Y011723D01*
X025880Y011520D01*
X025880Y011300D01*
X025964Y011096D01*
X026120Y010940D01*
X026324Y010856D01*
X026544Y010856D01*
X026748Y010940D01*
X026903Y011096D01*
X026988Y011300D01*
X026988Y011520D01*
X026903Y011723D01*
X026748Y011879D01*
X026544Y011964D01*
X026324Y011964D01*
X026120Y011879D01*
X025970Y011729D02*
X021621Y011729D01*
X021683Y011571D02*
X025901Y011571D01*
X025880Y011412D02*
X021683Y011412D01*
X021646Y011254D02*
X025899Y011254D01*
X025966Y011095D02*
X021564Y011095D01*
X021376Y010937D02*
X026130Y010937D01*
X026738Y010937D02*
X027180Y010937D01*
X027180Y011095D02*
X026902Y011095D01*
X026968Y011254D02*
X027235Y011254D01*
X027353Y011412D02*
X026988Y011412D01*
X026967Y011571D02*
X027190Y011571D01*
X027051Y011729D02*
X026898Y011729D01*
X026985Y011888D02*
X026728Y011888D01*
X027104Y012363D02*
X020802Y012363D01*
X020760Y012321D02*
X020933Y012494D01*
X021027Y012720D01*
X021027Y012964D01*
X020933Y013190D01*
X020760Y013363D01*
X020534Y013457D01*
X020289Y013457D01*
X020063Y013363D01*
X019890Y013190D01*
X019797Y012964D01*
X019797Y012720D01*
X019890Y012494D01*
X020063Y012321D01*
X020289Y012227D01*
X020534Y012227D01*
X020760Y012321D01*
X020944Y012522D02*
X027322Y012522D01*
X027745Y012522D02*
X032654Y012522D01*
X032664Y012496D02*
X032820Y012340D01*
X033024Y012256D01*
X033244Y012256D01*
X033448Y012340D01*
X033603Y012496D01*
X033688Y012700D01*
X033688Y012920D01*
X033603Y013123D01*
X033448Y013279D01*
X033244Y013364D01*
X033024Y013364D01*
X032820Y013279D01*
X032664Y013123D01*
X032580Y012920D01*
X032580Y012700D01*
X032664Y012496D01*
X032798Y012363D02*
X027964Y012363D01*
X028053Y012205D02*
X042913Y012205D01*
X042913Y012363D02*
X033470Y012363D01*
X033614Y012522D02*
X042913Y012522D01*
X042913Y012680D02*
X033679Y012680D01*
X033688Y012839D02*
X042913Y012839D01*
X042913Y012997D02*
X033656Y012997D01*
X033571Y013156D02*
X042913Y013156D01*
X042913Y013314D02*
X033364Y013314D01*
X032904Y013314D02*
X031153Y013314D01*
X031137Y013274D02*
X031227Y013492D01*
X031227Y013728D01*
X031137Y013946D01*
X030970Y014113D01*
X030752Y014203D01*
X030516Y014203D01*
X030298Y014113D01*
X030131Y013946D01*
X030041Y013728D01*
X030041Y013492D01*
X030131Y013274D01*
X030298Y013107D01*
X030516Y013017D01*
X030752Y013017D01*
X030970Y013107D01*
X031137Y013274D01*
X031018Y013156D02*
X032696Y013156D01*
X032612Y012997D02*
X023586Y012997D01*
X023588Y013000D02*
X023503Y012796D01*
X023348Y012640D01*
X023144Y012556D01*
X022924Y012556D01*
X022720Y012640D01*
X022564Y012796D01*
X022480Y013000D01*
X022480Y013220D01*
X022564Y013423D01*
X022720Y013579D01*
X022924Y013664D01*
X023144Y013664D01*
X023348Y013579D01*
X023503Y013423D01*
X023588Y013220D01*
X023588Y013000D01*
X023588Y013156D02*
X030249Y013156D01*
X030114Y013314D02*
X023549Y013314D01*
X023454Y013473D02*
X030049Y013473D01*
X030041Y013631D02*
X028225Y013631D01*
X028248Y013640D02*
X028403Y013796D01*
X028488Y014000D01*
X028488Y014220D01*
X028403Y014423D01*
X028248Y014579D01*
X028044Y014664D01*
X027824Y014664D01*
X027620Y014579D01*
X027464Y014423D01*
X027380Y014220D01*
X027380Y014000D01*
X027464Y013796D01*
X027620Y013640D01*
X027824Y013556D01*
X028044Y013556D01*
X028248Y013640D01*
X028397Y013790D02*
X030066Y013790D01*
X030133Y013948D02*
X028466Y013948D01*
X028488Y014107D02*
X030292Y014107D01*
X030976Y014107D02*
X031299Y014107D01*
X031298Y014107D02*
X031516Y014017D01*
X031752Y014017D01*
X031970Y014107D01*
X032137Y014274D01*
X032227Y014492D01*
X032227Y014728D01*
X032137Y014946D01*
X031970Y015113D01*
X031752Y015203D01*
X031516Y015203D01*
X031298Y015113D01*
X031131Y014946D01*
X031041Y014728D01*
X031041Y014492D01*
X031131Y014274D01*
X031298Y014107D01*
X031140Y014265D02*
X028469Y014265D01*
X028403Y014424D02*
X031069Y014424D01*
X031041Y014582D02*
X028241Y014582D01*
X027627Y014582D02*
X027556Y014582D01*
X027530Y014518D02*
X027620Y014736D01*
X027620Y014972D01*
X027530Y015190D01*
X027363Y015357D01*
X027145Y015447D01*
X026909Y015447D01*
X026691Y015357D01*
X026524Y015190D01*
X026434Y014972D01*
X026434Y014736D01*
X026524Y014518D01*
X026691Y014351D01*
X026909Y014261D01*
X027145Y014261D01*
X027363Y014351D01*
X027530Y014518D01*
X027464Y014424D02*
X027435Y014424D01*
X027399Y014265D02*
X027155Y014265D01*
X026899Y014265D02*
X019858Y014265D01*
X019933Y014190D02*
X019760Y014363D01*
X019534Y014457D01*
X019289Y014457D01*
X019063Y014363D01*
X018890Y014190D01*
X018797Y013964D01*
X018797Y013720D01*
X018890Y013494D01*
X019063Y013321D01*
X019289Y013227D01*
X019534Y013227D01*
X019760Y013321D01*
X019933Y013494D01*
X020027Y013720D01*
X020027Y013964D01*
X019933Y014190D01*
X019968Y014107D02*
X027380Y014107D01*
X027402Y013948D02*
X020027Y013948D01*
X020027Y013790D02*
X027471Y013790D01*
X027643Y013631D02*
X023223Y013631D01*
X022845Y013631D02*
X019990Y013631D01*
X019912Y013473D02*
X022613Y013473D01*
X022519Y013314D02*
X020809Y013314D01*
X020947Y013156D02*
X022480Y013156D01*
X022481Y012997D02*
X021013Y012997D01*
X021027Y012839D02*
X022547Y012839D01*
X022681Y012680D02*
X021010Y012680D01*
X020021Y012363D02*
X017261Y012363D01*
X017244Y012356D02*
X017448Y012440D01*
X017603Y012596D01*
X017688Y012800D01*
X017688Y013020D01*
X017609Y013210D01*
X017688Y013400D01*
X017688Y013620D01*
X017603Y013823D01*
X017448Y013979D01*
X017244Y014064D01*
X017024Y014064D01*
X016820Y013979D01*
X016664Y013823D01*
X016580Y013620D01*
X016580Y013400D01*
X016659Y013210D01*
X016580Y013020D01*
X016580Y012800D01*
X016664Y012596D01*
X016820Y012440D01*
X017024Y012356D01*
X017244Y012356D01*
X017007Y012363D02*
X016364Y012363D01*
X016145Y012522D02*
X016739Y012522D01*
X016630Y012680D02*
X013655Y012680D01*
X013630Y012618D02*
X013720Y012836D01*
X013720Y013072D01*
X013630Y013290D01*
X013463Y013457D01*
X013245Y013547D01*
X013009Y013547D01*
X012791Y013457D01*
X012624Y013290D01*
X012534Y013072D01*
X012534Y012836D01*
X012624Y012618D01*
X012791Y012451D01*
X013009Y012361D01*
X013245Y012361D01*
X013463Y012451D01*
X013630Y012618D01*
X013533Y012522D02*
X015722Y012522D01*
X015504Y012363D02*
X013250Y012363D01*
X013004Y012363D02*
X008612Y012363D01*
X008653Y012404D02*
X008743Y012622D01*
X008743Y012858D01*
X008653Y013076D01*
X008486Y013243D01*
X008268Y013333D01*
X008032Y013333D01*
X007814Y013243D01*
X007647Y013076D01*
X007557Y012858D01*
X007557Y012622D01*
X007647Y012404D01*
X007814Y012237D01*
X008032Y012147D01*
X008124Y012147D01*
X008114Y012143D01*
X007947Y011976D01*
X007857Y011758D01*
X007857Y011522D01*
X007947Y011304D01*
X008114Y011137D01*
X008332Y011047D01*
X008568Y011047D01*
X008786Y011137D01*
X008953Y011304D01*
X009043Y011522D01*
X009043Y011758D01*
X008953Y011976D01*
X008786Y012143D01*
X008568Y012233D01*
X008476Y012233D01*
X008486Y012237D01*
X008653Y012404D01*
X008701Y012522D02*
X012720Y012522D01*
X012598Y012680D02*
X008743Y012680D01*
X008743Y012839D02*
X012534Y012839D01*
X012534Y012997D02*
X008685Y012997D01*
X008573Y013156D02*
X012568Y013156D01*
X012648Y013314D02*
X008314Y013314D01*
X007986Y013314D02*
X000000Y013314D01*
X000000Y013156D02*
X007727Y013156D01*
X007615Y012997D02*
X000000Y012997D01*
X000000Y012839D02*
X007557Y012839D01*
X007557Y012680D02*
X000000Y012680D01*
X000000Y012522D02*
X007599Y012522D01*
X007688Y012363D02*
X000000Y012363D01*
X000000Y012205D02*
X007893Y012205D01*
X008017Y012046D02*
X000000Y012046D01*
X000000Y011888D02*
X007911Y011888D01*
X007857Y011729D02*
X000000Y011729D01*
X000000Y011571D02*
X007857Y011571D01*
X007902Y011412D02*
X000000Y011412D01*
X000000Y011254D02*
X007998Y011254D01*
X008216Y011095D02*
X006433Y011095D01*
X006190Y011095D02*
X000000Y011095D01*
X000000Y010937D02*
X005906Y010937D01*
X005783Y010778D02*
X000000Y010778D01*
X000000Y010620D02*
X005718Y010620D01*
X005718Y010461D02*
X000000Y010461D01*
X000000Y010303D02*
X005753Y010303D01*
X005832Y010144D02*
X000000Y010144D01*
X000000Y009986D02*
X006012Y009986D01*
X006467Y009669D02*
X000000Y009669D01*
X000000Y009827D02*
X006658Y009827D01*
X006352Y009510D02*
X000000Y009510D01*
X000000Y009352D02*
X006286Y009352D01*
X006263Y009193D02*
X000000Y009193D01*
X000000Y009035D02*
X006263Y009035D01*
X006307Y008876D02*
X000000Y008876D01*
X000000Y008718D02*
X006372Y008718D01*
X006517Y008559D02*
X003066Y008559D01*
X003214Y008401D02*
X006779Y008401D01*
X006904Y010620D02*
X013741Y010620D01*
X013631Y010778D02*
X006839Y010778D01*
X006717Y010937D02*
X013580Y010937D01*
X013580Y011095D02*
X008684Y011095D01*
X008902Y011254D02*
X013635Y011254D01*
X013753Y011412D02*
X008998Y011412D01*
X009043Y011571D02*
X015590Y011571D01*
X015451Y011729D02*
X009043Y011729D01*
X008989Y011888D02*
X015385Y011888D01*
X015380Y012046D02*
X008883Y012046D01*
X008637Y012205D02*
X015415Y012205D01*
X014515Y011412D02*
X020497Y011412D01*
X020534Y011254D02*
X014632Y011254D01*
X014688Y011095D02*
X020616Y011095D01*
X020804Y010937D02*
X014688Y010937D01*
X014637Y010778D02*
X027231Y010778D01*
X027341Y010620D02*
X014527Y010620D01*
X017529Y012522D02*
X018171Y012522D01*
X018157Y012531D02*
X018222Y012487D01*
X018295Y012457D01*
X018372Y012442D01*
X018412Y012442D01*
X018451Y012442D01*
X018528Y012457D01*
X018601Y012487D01*
X018667Y012531D01*
X018722Y012587D01*
X018766Y012652D01*
X018796Y012725D01*
X018812Y012803D01*
X018812Y012842D01*
X018812Y012881D01*
X018796Y012959D01*
X018766Y013031D01*
X018722Y013097D01*
X018667Y013153D01*
X018601Y013196D01*
X018528Y013227D01*
X018451Y013242D01*
X018412Y013242D01*
X018412Y012842D01*
X018812Y012842D01*
X018412Y012842D01*
X018412Y012842D01*
X018412Y012842D01*
X018412Y012442D01*
X018412Y012842D01*
X018412Y012842D01*
X018412Y013242D01*
X018372Y013242D01*
X018295Y013227D01*
X018222Y013196D01*
X018157Y013153D01*
X018101Y013097D01*
X018057Y013031D01*
X018027Y012959D01*
X018012Y012881D01*
X018012Y012842D01*
X018412Y012842D01*
X018412Y012842D01*
X018012Y012842D01*
X018012Y012803D01*
X018027Y012725D01*
X018057Y012652D01*
X018101Y012587D01*
X018157Y012531D01*
X018046Y012680D02*
X017638Y012680D01*
X017688Y012839D02*
X018012Y012839D01*
X018043Y012997D02*
X017688Y012997D01*
X017631Y013156D02*
X018161Y013156D01*
X018412Y013156D02*
X018412Y013156D01*
X018412Y012997D02*
X018412Y012997D01*
X018412Y012839D02*
X018412Y012839D01*
X018412Y012680D02*
X018412Y012680D01*
X018412Y012522D02*
X018412Y012522D01*
X018652Y012522D02*
X019879Y012522D01*
X019813Y012680D02*
X018777Y012680D01*
X018812Y012839D02*
X019797Y012839D01*
X019810Y012997D02*
X018780Y012997D01*
X018662Y013156D02*
X019876Y013156D01*
X019744Y013314D02*
X020014Y013314D01*
X019079Y013314D02*
X017652Y013314D01*
X017688Y013473D02*
X018911Y013473D01*
X018833Y013631D02*
X017683Y013631D01*
X017617Y013790D02*
X018797Y013790D01*
X018797Y013948D02*
X017479Y013948D01*
X016789Y013948D02*
X000000Y013948D01*
X000000Y013790D02*
X016650Y013790D01*
X016585Y013631D02*
X000000Y013631D01*
X000000Y013473D02*
X012829Y013473D01*
X013425Y013473D02*
X016580Y013473D01*
X016616Y013314D02*
X013605Y013314D01*
X013685Y013156D02*
X016636Y013156D01*
X016580Y012997D02*
X013720Y012997D01*
X013720Y012839D02*
X016580Y012839D01*
X018856Y014107D02*
X000000Y014107D01*
X000000Y014265D02*
X018965Y014265D01*
X019209Y014424D02*
X000000Y014424D01*
X000000Y014582D02*
X020579Y014582D01*
X020564Y014596D02*
X020720Y014440D01*
X020924Y014356D01*
X021144Y014356D01*
X021348Y014440D01*
X021503Y014596D01*
X021588Y014800D01*
X021588Y015020D01*
X021503Y015223D01*
X021348Y015379D01*
X021144Y015464D01*
X020924Y015464D01*
X020720Y015379D01*
X020564Y015223D01*
X020480Y015020D01*
X020480Y014800D01*
X020564Y014596D01*
X020505Y014741D02*
X000000Y014741D01*
X000000Y014899D02*
X016662Y014899D01*
X016720Y014840D02*
X016564Y014996D01*
X016480Y015200D01*
X016480Y015420D01*
X016564Y015623D01*
X016720Y015779D01*
X016924Y015864D01*
X017144Y015864D01*
X017348Y015779D01*
X017503Y015623D01*
X017588Y015420D01*
X017588Y015200D01*
X017503Y014996D01*
X017348Y014840D01*
X017144Y014756D01*
X016924Y014756D01*
X016720Y014840D01*
X016539Y015058D02*
X000000Y015058D01*
X000000Y015216D02*
X016480Y015216D01*
X016480Y015375D02*
X000000Y015375D01*
X000000Y015533D02*
X016527Y015533D01*
X016632Y015692D02*
X000000Y015692D01*
X000000Y015850D02*
X016891Y015850D01*
X017177Y015850D02*
X042913Y015850D01*
X042913Y015692D02*
X017435Y015692D01*
X017541Y015533D02*
X024074Y015533D01*
X024120Y015579D02*
X023964Y015423D01*
X023880Y015220D01*
X023880Y015000D01*
X023964Y014796D01*
X024120Y014640D01*
X024324Y014556D01*
X024544Y014556D01*
X024748Y014640D01*
X024903Y014796D01*
X024988Y015000D01*
X024988Y015220D01*
X024903Y015423D01*
X024748Y015579D01*
X024544Y015664D01*
X024324Y015664D01*
X024120Y015579D01*
X023944Y015375D02*
X021352Y015375D01*
X021506Y015216D02*
X023880Y015216D01*
X023880Y015058D02*
X021572Y015058D01*
X021588Y014899D02*
X023922Y014899D01*
X024020Y014741D02*
X021563Y014741D01*
X021489Y014582D02*
X024261Y014582D01*
X024606Y014582D02*
X026497Y014582D01*
X026434Y014741D02*
X024848Y014741D01*
X024946Y014899D02*
X026434Y014899D01*
X026469Y015058D02*
X024988Y015058D01*
X024988Y015216D02*
X026550Y015216D01*
X026734Y015375D02*
X024924Y015375D01*
X024794Y015533D02*
X042913Y015533D01*
X042913Y015375D02*
X027320Y015375D01*
X027503Y015216D02*
X042913Y015216D01*
X042913Y015058D02*
X032025Y015058D01*
X032156Y014899D02*
X042913Y014899D01*
X042913Y014741D02*
X032222Y014741D01*
X032227Y014582D02*
X042913Y014582D01*
X042913Y014424D02*
X032199Y014424D01*
X032128Y014265D02*
X042913Y014265D01*
X042913Y014107D02*
X031969Y014107D01*
X031201Y013790D02*
X042913Y013790D01*
X042913Y013948D02*
X031134Y013948D01*
X031227Y013631D02*
X042913Y013631D01*
X042913Y013473D02*
X031219Y013473D01*
X032580Y012839D02*
X023521Y012839D01*
X023387Y012680D02*
X032588Y012680D01*
X031046Y014741D02*
X027620Y014741D01*
X027620Y014899D02*
X031112Y014899D01*
X031243Y015058D02*
X027584Y015058D01*
X026618Y014424D02*
X021307Y014424D01*
X020761Y014424D02*
X019615Y014424D01*
X020480Y014899D02*
X017406Y014899D01*
X017529Y015058D02*
X020496Y015058D01*
X020561Y015216D02*
X017588Y015216D01*
X017588Y015375D02*
X020715Y015375D01*
X022064Y016196D02*
X022220Y016040D01*
X022424Y015956D01*
X022644Y015956D01*
X022848Y016040D01*
X023003Y016196D01*
X023088Y016400D01*
X023088Y016620D01*
X023003Y016823D01*
X022848Y016979D01*
X022644Y017064D01*
X022424Y017064D01*
X022220Y016979D01*
X022064Y016823D01*
X021980Y016620D01*
X021980Y016400D01*
X022064Y016196D01*
X022094Y016167D02*
X000000Y016167D01*
X000000Y016009D02*
X022297Y016009D01*
X022011Y016326D02*
X000000Y016326D01*
X000000Y016484D02*
X012377Y016484D01*
X012420Y016440D02*
X012624Y016356D01*
X012844Y016356D01*
X013048Y016440D01*
X013203Y016596D01*
X013288Y016800D01*
X013288Y017020D01*
X013203Y017223D01*
X013048Y017379D01*
X012844Y017464D01*
X012624Y017464D01*
X012420Y017379D01*
X012264Y017223D01*
X012180Y017020D01*
X012180Y016800D01*
X012264Y016596D01*
X012420Y016440D01*
X012245Y016643D02*
X000000Y016643D01*
X000000Y016801D02*
X012180Y016801D01*
X012180Y016960D02*
X000000Y016960D01*
X000000Y017118D02*
X012221Y017118D01*
X012317Y017277D02*
X000000Y017277D01*
X000000Y017435D02*
X012555Y017435D01*
X012913Y017435D02*
X013670Y017435D01*
X013698Y017407D02*
X013916Y017317D01*
X014152Y017317D01*
X014370Y017407D01*
X014537Y017574D01*
X014627Y017792D01*
X014627Y018028D01*
X014537Y018246D01*
X014370Y018413D01*
X014152Y018503D01*
X013916Y018503D01*
X013698Y018413D01*
X013531Y018246D01*
X013441Y018028D01*
X013441Y017792D01*
X013531Y017574D01*
X013698Y017407D01*
X013523Y017594D02*
X000000Y017594D01*
X000000Y017752D02*
X013457Y017752D01*
X013441Y017911D02*
X000000Y017911D01*
X000000Y018069D02*
X013458Y018069D01*
X013524Y018228D02*
X000000Y018228D01*
X000000Y018386D02*
X013671Y018386D01*
X014396Y018386D02*
X029238Y018386D01*
X029238Y018299D02*
X029238Y018568D01*
X029341Y018816D01*
X029531Y019006D01*
X029779Y019108D01*
X030048Y019108D01*
X030296Y019006D01*
X030413Y018888D01*
X030531Y019006D01*
X030779Y019108D01*
X031048Y019108D01*
X031296Y019006D01*
X031486Y018816D01*
X031535Y018696D01*
X031563Y018733D01*
X031614Y018784D01*
X031672Y018827D01*
X031737Y018860D01*
X031806Y018882D01*
X031877Y018893D01*
X031903Y018893D01*
X031903Y018443D01*
X031923Y018443D01*
X032373Y018443D01*
X032373Y018470D01*
X032362Y018541D01*
X032340Y018610D01*
X032307Y018675D01*
X032264Y018733D01*
X032213Y018784D01*
X032154Y018827D01*
X032090Y018860D01*
X032021Y018882D01*
X031950Y018893D01*
X031923Y018893D01*
X031923Y018443D01*
X031923Y018423D01*
X032373Y018423D01*
X032373Y018397D01*
X032362Y018326D01*
X032340Y018257D01*
X032307Y018192D01*
X032264Y018134D01*
X032213Y018083D01*
X032176Y018055D01*
X032296Y018006D01*
X032486Y017816D01*
X032588Y017568D01*
X032588Y017299D01*
X032486Y017051D01*
X032296Y016861D01*
X032048Y016759D01*
X031779Y016759D01*
X031531Y016861D01*
X031413Y016979D01*
X031296Y016861D01*
X031048Y016759D01*
X030779Y016759D01*
X030531Y016861D01*
X030413Y016979D01*
X030296Y016861D01*
X030048Y016759D01*
X029779Y016759D01*
X029531Y016861D01*
X029341Y017051D01*
X029238Y017299D01*
X029238Y017568D01*
X029341Y017816D01*
X029459Y017933D01*
X029341Y018051D01*
X029238Y018299D01*
X029268Y018228D02*
X014544Y018228D01*
X014610Y018069D02*
X029334Y018069D01*
X029436Y017911D02*
X014627Y017911D01*
X014610Y017752D02*
X029315Y017752D01*
X029249Y017594D02*
X014545Y017594D01*
X014398Y017435D02*
X029238Y017435D01*
X029248Y017277D02*
X013150Y017277D01*
X013247Y017118D02*
X029313Y017118D01*
X029433Y016960D02*
X022867Y016960D01*
X023013Y016801D02*
X029676Y016801D01*
X030150Y016801D02*
X030676Y016801D01*
X030433Y016960D02*
X030394Y016960D01*
X031150Y016801D02*
X031676Y016801D01*
X031433Y016960D02*
X031394Y016960D01*
X032150Y016801D02*
X042913Y016801D01*
X042913Y016643D02*
X023078Y016643D01*
X023088Y016484D02*
X042913Y016484D01*
X042913Y016326D02*
X023057Y016326D01*
X022974Y016167D02*
X042913Y016167D01*
X042913Y016009D02*
X022770Y016009D01*
X021980Y016484D02*
X013091Y016484D01*
X013222Y016643D02*
X021989Y016643D01*
X022055Y016801D02*
X013288Y016801D01*
X013288Y016960D02*
X022200Y016960D01*
X023600Y018470D02*
X023804Y018386D01*
X024024Y018386D01*
X024228Y018470D01*
X024383Y018626D01*
X024468Y018830D01*
X024468Y019050D01*
X024383Y019253D01*
X024228Y019409D01*
X024024Y019494D01*
X023804Y019494D01*
X023600Y019409D01*
X023444Y019253D01*
X023360Y019050D01*
X023360Y018830D01*
X023444Y018626D01*
X023600Y018470D01*
X023526Y018545D02*
X000000Y018545D01*
X000000Y018703D02*
X023413Y018703D01*
X023360Y018862D02*
X000000Y018862D01*
X000000Y019020D02*
X023360Y019020D01*
X023413Y019179D02*
X000000Y019179D01*
X000000Y019337D02*
X023528Y019337D01*
X024300Y019337D02*
X042913Y019337D01*
X042913Y019179D02*
X024414Y019179D01*
X024468Y019020D02*
X029566Y019020D01*
X029387Y018862D02*
X024468Y018862D01*
X024415Y018703D02*
X029294Y018703D01*
X029238Y018545D02*
X024302Y018545D01*
X030261Y019020D02*
X030566Y019020D01*
X031261Y019020D02*
X042913Y019020D01*
X042913Y018862D02*
X032085Y018862D01*
X031923Y018862D02*
X031903Y018862D01*
X031903Y018703D02*
X031923Y018703D01*
X031923Y018545D02*
X031903Y018545D01*
X031541Y018703D02*
X031532Y018703D01*
X031440Y018862D02*
X031742Y018862D01*
X032286Y018703D02*
X042913Y018703D01*
X042913Y018545D02*
X032361Y018545D01*
X032372Y018386D02*
X035259Y018386D01*
X035243Y018379D02*
X035087Y018223D01*
X035003Y018020D01*
X035003Y017800D01*
X035087Y017596D01*
X035243Y017440D01*
X035446Y017356D01*
X035667Y017356D01*
X035870Y017440D01*
X036026Y017596D01*
X036110Y017800D01*
X036110Y018020D01*
X036026Y018223D01*
X035870Y018379D01*
X035667Y018464D01*
X035446Y018464D01*
X035243Y018379D01*
X035091Y018228D02*
X032325Y018228D01*
X032194Y018069D02*
X035023Y018069D01*
X035003Y017911D02*
X032391Y017911D01*
X032512Y017752D02*
X035023Y017752D01*
X035090Y017594D02*
X032578Y017594D01*
X032588Y017435D02*
X035256Y017435D01*
X035857Y017435D02*
X042913Y017435D01*
X042913Y017277D02*
X032579Y017277D01*
X032513Y017118D02*
X042913Y017118D01*
X042913Y016960D02*
X032394Y016960D01*
X035854Y018386D02*
X042913Y018386D01*
X042913Y018228D02*
X036022Y018228D01*
X036090Y018069D02*
X042913Y018069D01*
X042913Y017911D02*
X036110Y017911D01*
X036090Y017752D02*
X042913Y017752D01*
X042913Y017594D02*
X036023Y017594D01*
X040945Y020472D02*
X042913Y020472D01*
X042913Y000000D01*
X042913Y001744D02*
X024326Y001744D01*
X024471Y001902D02*
X039259Y001902D01*
X039320Y001840D02*
X039524Y001756D01*
X039744Y001756D01*
X039948Y001840D01*
X040103Y001996D01*
X040188Y002200D01*
X040188Y002420D01*
X040103Y002623D01*
X039948Y002779D01*
X039744Y002864D01*
X039524Y002864D01*
X039320Y002779D01*
X039164Y002623D01*
X039080Y002420D01*
X039080Y002200D01*
X039164Y001996D01*
X039320Y001840D01*
X039138Y002061D02*
X024536Y002061D01*
X024566Y002219D02*
X039080Y002219D01*
X039080Y002378D02*
X024566Y002378D01*
X024513Y002536D02*
X039128Y002536D01*
X039235Y002695D02*
X024428Y002695D01*
X024269Y002853D02*
X039498Y002853D01*
X039769Y002853D02*
X042913Y002853D01*
X042913Y002695D02*
X040032Y002695D01*
X040139Y002536D02*
X042913Y002536D01*
X042913Y002378D02*
X040188Y002378D01*
X040188Y002219D02*
X042913Y002219D01*
X042913Y002061D02*
X040130Y002061D01*
X040009Y001902D02*
X042913Y001902D01*
X042913Y006182D02*
X024320Y006182D01*
X024218Y006340D02*
X042913Y006340D01*
X042913Y006499D02*
X033246Y006499D01*
X033464Y006657D02*
X042913Y006657D01*
X042913Y006816D02*
X033553Y006816D01*
X033588Y006974D02*
X042913Y006974D01*
X042913Y007133D02*
X033582Y007133D01*
X033517Y007291D02*
X042913Y007291D01*
X042913Y010620D02*
X028127Y010620D01*
X028237Y010778D02*
X042913Y010778D01*
X042913Y010937D02*
X028288Y010937D01*
X028288Y011095D02*
X042913Y011095D01*
X042913Y011254D02*
X028232Y011254D01*
X028115Y011412D02*
X042913Y011412D01*
X042913Y011571D02*
X027878Y011571D01*
X028017Y011729D02*
X042913Y011729D01*
X042913Y011888D02*
X028083Y011888D01*
X028088Y012046D02*
X042913Y012046D01*
X032604Y006657D02*
X027064Y006657D01*
X026846Y006499D02*
X032821Y006499D01*
X023892Y006340D02*
X023856Y006340D01*
X023856Y006182D02*
X023892Y006182D01*
X023892Y005865D02*
X023856Y005865D01*
X023856Y005706D02*
X023892Y005706D01*
X023479Y002853D02*
X016789Y002853D01*
X016947Y002695D02*
X023320Y002695D01*
X023236Y002536D02*
X017032Y002536D01*
X017086Y002378D02*
X023182Y002378D01*
X023182Y002219D02*
X017086Y002219D01*
X017056Y002061D02*
X023212Y002061D01*
X023278Y001902D02*
X016990Y001902D01*
X016846Y001744D02*
X023422Y001744D01*
X042913Y019496D02*
X000000Y019496D01*
X000000Y019654D02*
X042913Y019654D01*
X042913Y019813D02*
X000000Y019813D01*
X000000Y019971D02*
X042913Y019971D01*
X042913Y020130D02*
X000000Y020130D01*
X000000Y020288D02*
X042913Y020288D01*
X042913Y020447D02*
X000000Y020447D01*
X000000Y020605D02*
X040945Y020605D01*
X040945Y020472D02*
X040945Y020866D01*
X000000Y020866D01*
X000000Y020764D02*
X040945Y020764D01*
D18*
X031634Y014610D03*
X030634Y013610D03*
X027027Y014854D03*
X021090Y011460D03*
X013127Y012954D03*
X008450Y011640D03*
X008150Y012740D03*
X006311Y010503D03*
X014173Y005906D03*
X028884Y004635D03*
X030134Y004510D03*
X029509Y008385D03*
X014034Y017910D03*
M02*
