G75*
G70*
%OFA0B0*%
%FSLAX24Y24*%
%IPPOS*%
%LPD*%
%AMOC8*
5,1,8,0,0,1.08239X$1,22.5*
%
%ADD10R,0.1409X0.0443*%
%ADD11R,0.0591X0.0512*%
%ADD12R,0.0433X0.0394*%
%ADD13R,0.2126X0.2441*%
%ADD14R,0.0394X0.0630*%
%ADD15R,0.0512X0.0591*%
%ADD16R,0.0787X0.0591*%
%ADD17R,0.0787X0.1496*%
%ADD18R,0.0581X0.0177*%
%ADD19R,0.0394X0.0433*%
%ADD20R,0.0433X0.0236*%
%ADD21R,0.0551X0.0315*%
%ADD22R,0.0748X0.0315*%
%ADD23C,0.0600*%
%ADD24R,0.0598X0.0598*%
%ADD25R,0.0492X0.0197*%
%ADD26R,0.0394X0.0551*%
%ADD27OC8,0.0520*%
%ADD28R,0.0435X0.0413*%
%ADD29R,0.2000X0.0900*%
%ADD30C,0.0860*%
%ADD31OC8,0.0560*%
%ADD32R,0.0460X0.0630*%
%ADD33R,0.0256X0.0689*%
%ADD34OC8,0.0850*%
%ADD35C,0.0440*%
%ADD36R,0.0475X0.0475*%
%ADD37C,0.0120*%
%ADD38R,0.0317X0.0317*%
%ADD39C,0.0160*%
%ADD40C,0.0240*%
%ADD41C,0.0320*%
%ADD42OC8,0.0317*%
%ADD43C,0.0400*%
%ADD44C,0.0500*%
%ADD45C,0.0100*%
%ADD46R,0.0396X0.0396*%
%ADD47C,0.0396*%
%ADD48OC8,0.0396*%
D10*
X048958Y018795D03*
D11*
X040521Y010506D03*
X040521Y009758D03*
X021032Y008988D03*
X021032Y008240D03*
X017032Y008240D03*
X016032Y008240D03*
X016032Y008988D03*
X017032Y008988D03*
X012429Y012488D03*
X012429Y013236D03*
D12*
X022365Y018712D03*
X022365Y019381D03*
X020513Y020458D03*
X020513Y021127D03*
X017870Y022074D03*
X017091Y022051D03*
X015899Y021747D03*
X015230Y021747D03*
X015230Y021247D03*
X015899Y021247D03*
X016565Y020081D03*
X016565Y019412D03*
X017565Y019412D03*
X017565Y020081D03*
X013565Y020081D03*
X013565Y019412D03*
X017091Y022720D03*
X017870Y022743D03*
X023611Y020954D03*
X024280Y020954D03*
X024822Y021742D03*
X025491Y021742D03*
X026030Y021747D03*
X026699Y021747D03*
X028365Y022212D03*
X028365Y022881D03*
X030265Y022981D03*
X030265Y022312D03*
X025499Y020147D03*
X024830Y020147D03*
X026030Y019347D03*
X026699Y019347D03*
X028730Y018747D03*
X029399Y018747D03*
X029399Y017947D03*
X028730Y017947D03*
X026709Y015927D03*
X026040Y015927D03*
X034483Y019181D03*
X034483Y019851D03*
X042915Y021177D03*
X043584Y021177D03*
X043587Y021952D03*
X042918Y021952D03*
X046141Y020735D03*
X046811Y020735D03*
X044389Y017617D03*
X043720Y017617D03*
X043785Y016855D03*
X043785Y016186D03*
X042418Y015178D03*
X041749Y015178D03*
X037521Y013871D03*
X036851Y013871D03*
X035745Y013784D03*
X035076Y013784D03*
X035074Y013072D03*
X035743Y013072D03*
X036852Y013107D03*
X037522Y013107D03*
X038854Y012895D03*
X038854Y012225D03*
X040533Y011862D03*
X040533Y011193D03*
X038876Y011208D03*
X038207Y011208D03*
X038210Y009874D03*
X038879Y009874D03*
X038114Y008572D03*
X037444Y008572D03*
X035342Y009501D03*
X035342Y010170D03*
X041512Y007301D03*
X042182Y007301D03*
X045185Y007273D03*
X045854Y007273D03*
X045865Y007972D03*
X045195Y007972D03*
X042179Y005765D03*
X041509Y005765D03*
D13*
X019089Y006181D03*
X012340Y015950D03*
D14*
X011443Y013076D03*
X013238Y013076D03*
X018192Y009056D03*
X019987Y009056D03*
D15*
X018776Y012744D03*
X018027Y012744D03*
X014845Y013124D03*
X014097Y013124D03*
X014112Y013908D03*
X014860Y013908D03*
X018698Y016896D03*
X019446Y016896D03*
D16*
X017335Y015799D03*
X017335Y014894D03*
X017335Y013988D03*
D17*
X019815Y014894D03*
D18*
X028008Y019451D03*
X028008Y019707D03*
X028008Y019963D03*
X028008Y020219D03*
X028008Y020475D03*
X028008Y020731D03*
X028008Y020987D03*
X028008Y021243D03*
X030322Y021243D03*
X030322Y020987D03*
X030322Y020731D03*
X030322Y020475D03*
X030322Y020219D03*
X030322Y019963D03*
X030322Y019707D03*
X030322Y019451D03*
X035017Y012500D03*
X035017Y012244D03*
X035017Y011988D03*
X035017Y011732D03*
X035017Y011476D03*
X035017Y011220D03*
X035017Y010964D03*
X035017Y010708D03*
X037331Y010708D03*
X037331Y010964D03*
X037331Y011220D03*
X037331Y011476D03*
X037331Y011732D03*
X037331Y011988D03*
X037331Y012244D03*
X037331Y012500D03*
D19*
X039829Y012472D03*
X040528Y012476D03*
X040528Y013146D03*
X039829Y013141D03*
X037518Y014528D03*
X036849Y014528D03*
X035744Y014481D03*
X035075Y014481D03*
X029399Y017147D03*
X028730Y017147D03*
X025499Y019347D03*
X024830Y019347D03*
X026030Y020147D03*
X026699Y020147D03*
X026699Y020947D03*
X026030Y020947D03*
X025499Y020947D03*
X024830Y020947D03*
X027561Y022219D03*
X027561Y022888D03*
X026071Y022511D03*
X025402Y022511D03*
X029465Y022312D03*
X029465Y022981D03*
X031459Y022981D03*
X031459Y022312D03*
X035108Y019851D03*
X035733Y019851D03*
X035733Y019181D03*
X035108Y019181D03*
X042380Y017614D03*
X043049Y017614D03*
X043079Y015175D03*
X043748Y015175D03*
X038875Y010536D03*
X038206Y010536D03*
X037281Y009931D03*
X036612Y009931D03*
X034638Y010161D03*
X033934Y010160D03*
X033934Y009491D03*
X034638Y009492D03*
X041560Y008257D03*
X042230Y008257D03*
X043550Y008237D03*
X044220Y008237D03*
X042170Y006557D03*
X041501Y006557D03*
X043629Y005637D03*
X044298Y005637D03*
X045171Y006388D03*
X045840Y006388D03*
X021465Y018712D03*
X021465Y019381D03*
X018465Y020112D03*
X018465Y020781D03*
X017399Y021247D03*
X016730Y021247D03*
X015565Y020081D03*
X015565Y019412D03*
X014565Y019412D03*
X014565Y020081D03*
X014399Y021247D03*
X013730Y021247D03*
X013465Y010336D03*
X012796Y010336D03*
X011200Y010437D03*
X010531Y010437D03*
X010531Y008037D03*
X011200Y008037D03*
X012797Y007594D03*
X013466Y007594D03*
X011200Y005537D03*
X010531Y005537D03*
X042908Y020392D03*
X043577Y020392D03*
X044101Y020404D03*
X044771Y020404D03*
D20*
X044496Y007296D03*
X043433Y007296D03*
X043433Y006922D03*
X043433Y006548D03*
X044496Y006548D03*
D21*
X044495Y018407D03*
X044495Y019587D03*
D22*
X044395Y018997D03*
D23*
X043763Y019097D02*
X043763Y018897D01*
X042927Y018897D01*
X042927Y019097D01*
X043763Y019097D01*
D24*
X044229Y014225D03*
X043229Y014225D03*
X042229Y014225D03*
X041429Y013375D03*
X041429Y012375D03*
X041429Y011375D03*
X041429Y010375D03*
X042579Y009225D03*
X043579Y009225D03*
X044579Y009225D03*
X045579Y009225D03*
X046429Y010275D03*
X046429Y011275D03*
X046429Y012275D03*
X046429Y013275D03*
X045229Y014225D03*
D25*
X023050Y016782D03*
X023050Y017156D03*
X023050Y017530D03*
X022066Y017530D03*
X022066Y017156D03*
X022066Y016782D03*
X020057Y021973D03*
X020057Y022347D03*
X020057Y022721D03*
X019073Y022721D03*
X019073Y022347D03*
X019073Y021973D03*
X012864Y009311D03*
X012864Y008937D03*
X012864Y008563D03*
X011880Y008563D03*
X011880Y008937D03*
X011880Y009311D03*
D26*
X019891Y018814D03*
X020639Y018814D03*
X020265Y019680D03*
D27*
X009659Y012225D03*
X009659Y011225D03*
X009659Y009725D03*
X009659Y008725D03*
X009659Y007225D03*
X009659Y006225D03*
D28*
X009847Y019147D03*
X009847Y020147D03*
X009847Y021147D03*
X012483Y021147D03*
X012483Y020147D03*
X012483Y019147D03*
D29*
X007941Y018975D03*
X007941Y020715D03*
X007941Y022455D03*
X048655Y022455D03*
X048655Y020715D03*
X048655Y018975D03*
D30*
X030705Y013787D03*
X023225Y013787D03*
X030705Y010047D03*
X030705Y006307D03*
X023225Y006307D03*
D31*
X036744Y021470D03*
X037744Y021470D03*
X038744Y021470D03*
X038744Y022470D03*
X037744Y022470D03*
X036744Y022470D03*
D32*
X036441Y018226D03*
X035841Y018226D03*
D33*
X037494Y019298D03*
X037994Y019298D03*
X038494Y019298D03*
X038994Y019298D03*
X038994Y016443D03*
X038494Y016443D03*
X037994Y016443D03*
X037494Y016443D03*
D34*
X009752Y014547D03*
D35*
X025243Y016879D03*
X027243Y016879D03*
X026243Y017879D03*
D36*
X017970Y016879D03*
X017244Y016581D03*
X012904Y016039D03*
X012344Y016638D03*
X011727Y016044D03*
X011771Y015115D03*
X012951Y015156D03*
X007605Y014272D03*
X007605Y012304D03*
X007605Y010335D03*
X007605Y008367D03*
X007605Y006398D03*
X007605Y004920D03*
X012644Y004920D03*
X014613Y004920D03*
X016581Y004920D03*
X017915Y004731D03*
X018515Y004731D03*
X019115Y004731D03*
X019715Y004731D03*
X020315Y004731D03*
X020315Y005331D03*
X019715Y005331D03*
X019115Y005331D03*
X018515Y005331D03*
X017915Y005331D03*
X017915Y006031D03*
X018515Y006031D03*
X019115Y006031D03*
X019715Y006031D03*
X020315Y006031D03*
X020315Y006731D03*
X019715Y006731D03*
X019115Y006731D03*
X018515Y006731D03*
X017915Y006731D03*
X017915Y007331D03*
X018515Y007331D03*
X019115Y007331D03*
X019715Y007331D03*
X020315Y007331D03*
X022487Y004920D03*
X024455Y004920D03*
X026424Y004920D03*
X028392Y004920D03*
X030361Y004920D03*
X032329Y004920D03*
X034298Y004920D03*
X035282Y005414D03*
X036266Y004920D03*
X037251Y005414D03*
X038235Y004920D03*
X039219Y005414D03*
X040203Y004920D03*
X042172Y004920D03*
X044140Y004920D03*
X046109Y004920D03*
X048077Y004920D03*
X048739Y006030D03*
X047755Y007014D03*
X048739Y007998D03*
X047755Y008983D03*
X048739Y009967D03*
X047755Y010951D03*
X048739Y011935D03*
X047755Y012920D03*
X048739Y013904D03*
X047755Y014888D03*
X048739Y015872D03*
X047755Y016857D03*
X046770Y017841D03*
X045786Y016857D03*
X044802Y015872D03*
X046770Y015872D03*
X041893Y017660D03*
X040144Y017710D03*
X041128Y018694D03*
X043428Y018994D03*
X046770Y019809D03*
X048078Y018971D03*
X049078Y018971D03*
X046770Y021778D03*
X048078Y022471D03*
X049078Y022471D03*
X046770Y023746D03*
X046109Y024393D03*
X044802Y023746D03*
X044140Y024393D03*
X042833Y023746D03*
X042172Y024393D03*
X040203Y024393D03*
X038235Y024393D03*
X036266Y024393D03*
X034298Y024393D03*
X032329Y024393D03*
X030361Y024393D03*
X028392Y024393D03*
X026424Y024393D03*
X024455Y024393D03*
X022487Y024393D03*
X020518Y024393D03*
X018550Y024393D03*
X016581Y024393D03*
X014613Y024393D03*
X012644Y024393D03*
X010676Y024393D03*
X008707Y024393D03*
X007605Y024393D03*
X007305Y022509D03*
X008505Y022509D03*
X008405Y019009D03*
X007205Y019009D03*
X007605Y018209D03*
X007605Y016241D03*
X036266Y006398D03*
X038235Y006398D03*
X040203Y006398D03*
X041128Y016726D03*
X041849Y022762D03*
X043818Y022762D03*
X045786Y022762D03*
D37*
X040521Y009758D02*
X040547Y009181D01*
D38*
X040536Y009241D03*
X042588Y009855D03*
X042037Y010363D03*
X042038Y011380D03*
X044591Y009821D03*
X045821Y010259D03*
X045839Y011260D03*
X045843Y012265D03*
X045845Y013274D03*
X045226Y013635D03*
X043209Y013643D03*
X042043Y013386D03*
X040531Y013641D03*
X039788Y013632D03*
X038870Y013295D03*
X036399Y013835D03*
X036380Y013096D03*
X034590Y013088D03*
X034610Y013790D03*
X034533Y012503D03*
X036752Y011359D03*
X036130Y009846D03*
X037755Y009846D03*
X034638Y009058D03*
X033927Y009063D03*
X041026Y005763D03*
X043196Y005603D03*
X043008Y006929D03*
X046326Y007280D03*
X046321Y007974D03*
X025550Y015941D03*
X021380Y017171D03*
X019398Y018829D03*
X021465Y019847D03*
X022365Y019847D03*
X023189Y020977D03*
X024419Y021737D03*
X026699Y022287D03*
X027569Y023327D03*
X028339Y023317D03*
X029459Y023387D03*
X031448Y023446D03*
X027299Y020587D03*
X025769Y020157D03*
X029899Y018787D03*
X030399Y019087D03*
X036191Y019149D03*
X042887Y019533D03*
X044782Y019001D03*
X042908Y018444D03*
X044044Y021171D03*
X044014Y021959D03*
X020065Y023247D03*
X018565Y022347D03*
X016665Y022047D03*
X017865Y021247D03*
X016565Y018947D03*
X015565Y018947D03*
X014565Y018947D03*
X015405Y013908D03*
X015405Y013138D03*
X012397Y011882D03*
X019342Y012745D03*
X021035Y007708D03*
X017005Y007698D03*
D39*
X015031Y007837D02*
X015031Y008762D01*
X014855Y008937D01*
X014965Y009047D01*
X014965Y010047D01*
X014675Y010336D01*
X013465Y010336D01*
X012899Y010232D02*
X012796Y010336D01*
X012899Y010232D02*
X012899Y009347D01*
X012864Y009311D01*
X012899Y009347D02*
X014165Y009347D01*
X014855Y008937D02*
X012864Y008937D01*
X012864Y008563D02*
X012797Y008496D01*
X012797Y007594D01*
X013466Y007594D02*
X014788Y007594D01*
X015031Y007837D01*
X014465Y008547D02*
X012881Y008547D01*
X012864Y008563D01*
X011880Y008563D02*
X011863Y008547D01*
X011359Y008547D01*
X011200Y008389D01*
X011200Y008037D01*
X010531Y008037D02*
X010067Y008017D01*
X009659Y008725D01*
X010465Y009047D02*
X010574Y008937D01*
X011880Y008937D01*
X011880Y009311D02*
X011844Y009347D01*
X011265Y009347D01*
X011200Y009411D01*
X011200Y010437D01*
X010531Y010437D02*
X009659Y011225D01*
X018192Y009492D02*
X018248Y009549D01*
X018248Y009607D01*
X018248Y009943D01*
X020714Y012398D01*
X025076Y012398D01*
X027251Y014583D01*
X027251Y015847D01*
X027250Y015848D01*
X027172Y015927D01*
X026709Y015927D01*
X027250Y015937D02*
X027250Y015848D01*
X027250Y015937D02*
X027243Y016879D01*
X027961Y016307D02*
X027961Y017543D01*
X027965Y017547D01*
X026908Y018604D01*
X026122Y018604D01*
X026030Y018696D01*
X026030Y019347D01*
X025499Y019347D02*
X025499Y018046D01*
X025729Y017817D01*
X026180Y017817D01*
X026243Y017879D01*
X027865Y018947D02*
X028004Y019447D01*
X028008Y019451D01*
X028008Y019707D02*
X028505Y019707D01*
X028765Y019447D01*
X028765Y018781D01*
X028730Y018747D01*
X028730Y017947D01*
X028730Y017147D01*
X029399Y017147D02*
X029865Y017147D01*
X027961Y016307D02*
X029272Y014996D01*
X029272Y006793D01*
X029818Y006247D01*
X030645Y006247D01*
X030705Y006307D01*
X034825Y006307D01*
X035565Y007047D01*
X037365Y007047D01*
X038165Y007847D01*
X038165Y008521D01*
X038114Y008572D01*
X037444Y008572D02*
X036990Y008572D01*
X036965Y008547D01*
X034638Y009058D02*
X034638Y009058D01*
X034638Y009492D01*
X033934Y009491D02*
X033934Y009070D01*
X033927Y009063D01*
X033934Y010160D02*
X033797Y010297D01*
X033934Y010160D02*
X034636Y010160D01*
X034638Y010161D01*
X034647Y010170D01*
X034965Y010170D01*
X035017Y010223D01*
X035017Y010964D01*
X035017Y010708D01*
X035017Y011220D02*
X033638Y011220D01*
X033465Y011047D01*
X033980Y011732D02*
X033565Y012147D01*
X033565Y015147D01*
X033265Y015447D01*
X033865Y015747D02*
X033865Y012247D01*
X034124Y011988D01*
X035017Y011988D01*
X035017Y012244D02*
X035581Y012244D01*
X035712Y012375D01*
X035712Y013018D01*
X035743Y013072D01*
X035728Y013709D01*
X035745Y013784D01*
X035744Y013785D01*
X035744Y014481D01*
X036399Y013835D02*
X036816Y013835D01*
X036851Y013871D01*
X037518Y013873D02*
X037518Y014528D01*
X038265Y014647D02*
X038765Y015147D01*
X041718Y015147D01*
X041749Y015178D01*
X042418Y015178D02*
X042421Y015175D01*
X043079Y015175D01*
X043160Y014185D02*
X042299Y014185D01*
X042299Y014155D01*
X042299Y013745D01*
X042552Y013745D01*
X042598Y013758D01*
X042639Y013781D01*
X042673Y013815D01*
X042696Y013856D01*
X042709Y013902D01*
X042709Y014155D01*
X042299Y014155D01*
X042160Y014155D01*
X042160Y013745D01*
X041907Y013745D01*
X041893Y013749D01*
X041896Y013743D01*
X041909Y013698D01*
X041909Y013444D01*
X041499Y013444D01*
X041499Y013305D01*
X041909Y013305D01*
X041909Y013052D01*
X041903Y013029D01*
X041952Y013009D01*
X042063Y012898D01*
X042124Y012752D01*
X042124Y011997D01*
X042063Y011852D01*
X041952Y011741D01*
X041903Y011720D01*
X041909Y011698D01*
X041909Y011444D01*
X041499Y011444D01*
X041499Y011305D01*
X041499Y010895D01*
X041752Y010895D01*
X041798Y010908D01*
X041839Y010931D01*
X041873Y010965D01*
X041896Y011006D01*
X041909Y011052D01*
X041909Y011305D01*
X041499Y011305D01*
X041447Y011305D01*
X041454Y010444D01*
X041499Y010444D01*
X041909Y010444D01*
X041909Y010698D01*
X041896Y010743D01*
X041873Y010784D01*
X041839Y010818D01*
X041798Y010842D01*
X041752Y010854D01*
X041499Y010854D01*
X041499Y010444D01*
X041499Y010305D01*
X041499Y009895D01*
X041752Y009895D01*
X041798Y009908D01*
X041839Y009931D01*
X041873Y009965D01*
X041896Y010006D01*
X041909Y010052D01*
X041909Y010305D01*
X041499Y010305D01*
X041455Y010305D01*
X041465Y009247D01*
X042510Y009247D01*
X042510Y009294D01*
X042100Y009294D01*
X042100Y009548D01*
X042112Y009593D01*
X042136Y009634D01*
X042170Y009668D01*
X042211Y009692D01*
X042257Y009704D01*
X042510Y009704D01*
X042510Y009294D01*
X042649Y009294D01*
X042649Y009704D01*
X042902Y009704D01*
X042925Y009698D01*
X042945Y009748D01*
X043057Y009859D01*
X043202Y009919D01*
X043957Y009919D01*
X044102Y009859D01*
X044213Y009748D01*
X044234Y009698D01*
X044257Y009704D01*
X044510Y009704D01*
X044510Y009294D01*
X044649Y009294D01*
X045059Y009294D01*
X045059Y009548D01*
X045046Y009593D01*
X045023Y009634D01*
X044989Y009668D01*
X044948Y009692D01*
X044902Y009704D01*
X044649Y009704D01*
X044649Y009294D01*
X044649Y009247D01*
X045510Y009247D01*
X045510Y009294D01*
X045100Y009294D01*
X045100Y009548D01*
X045112Y009593D01*
X045136Y009634D01*
X045170Y009668D01*
X045211Y009692D01*
X045257Y009704D01*
X045510Y009704D01*
X045510Y009294D01*
X045649Y009294D01*
X046059Y009294D01*
X046059Y009548D01*
X046046Y009593D01*
X046023Y009634D01*
X045989Y009668D01*
X045948Y009692D01*
X045902Y009704D01*
X045649Y009704D01*
X045649Y009294D01*
X045649Y009247D01*
X046465Y009247D01*
X046456Y010205D01*
X046360Y010205D01*
X046360Y009795D01*
X046107Y009795D01*
X046061Y009808D01*
X046020Y009831D01*
X045986Y009865D01*
X045962Y009906D01*
X045950Y009952D01*
X045950Y010205D01*
X046360Y010205D01*
X046360Y010344D01*
X045950Y010344D01*
X045950Y010598D01*
X045962Y010643D01*
X045986Y010684D01*
X046020Y010718D01*
X046061Y010742D01*
X046107Y010754D01*
X046360Y010754D01*
X046360Y010344D01*
X046455Y010344D01*
X046447Y011205D01*
X046360Y011205D01*
X046360Y010795D01*
X046107Y010795D01*
X046061Y010808D01*
X046020Y010831D01*
X045986Y010865D01*
X045962Y010906D01*
X045950Y010952D01*
X045950Y011205D01*
X046360Y011205D01*
X046360Y011344D01*
X045950Y011344D01*
X045950Y011598D01*
X045962Y011643D01*
X045986Y011684D01*
X046020Y011718D01*
X046061Y011742D01*
X046107Y011754D01*
X046360Y011754D01*
X046360Y011344D01*
X046446Y011344D01*
X046439Y012205D01*
X046360Y012205D01*
X046360Y011795D01*
X046107Y011795D01*
X046061Y011808D01*
X046020Y011831D01*
X045986Y011865D01*
X045962Y011906D01*
X045950Y011952D01*
X045950Y012205D01*
X046360Y012205D01*
X046360Y012344D01*
X045950Y012344D01*
X045950Y012598D01*
X045962Y012643D01*
X045986Y012684D01*
X046020Y012718D01*
X046061Y012742D01*
X046107Y012754D01*
X046360Y012754D01*
X046360Y012344D01*
X046437Y012344D01*
X046430Y013205D01*
X046360Y013205D01*
X046360Y012795D01*
X046107Y012795D01*
X046061Y012808D01*
X046020Y012831D01*
X045986Y012865D01*
X045962Y012906D01*
X045950Y012952D01*
X045950Y013205D01*
X046360Y013205D01*
X046360Y013344D01*
X045950Y013344D01*
X045950Y013598D01*
X045962Y013643D01*
X045986Y013684D01*
X046020Y013718D01*
X046061Y013742D01*
X046107Y013754D01*
X046360Y013754D01*
X046360Y013344D01*
X046428Y013344D01*
X046421Y014185D01*
X045299Y014185D01*
X045299Y014155D01*
X045299Y013745D01*
X045552Y013745D01*
X045598Y013758D01*
X045639Y013781D01*
X045673Y013815D01*
X045696Y013856D01*
X045709Y013902D01*
X045709Y014155D01*
X045299Y014155D01*
X045160Y014155D01*
X045160Y013745D01*
X044907Y013745D01*
X044884Y013751D01*
X044863Y013702D01*
X044752Y013591D01*
X044607Y013530D01*
X043852Y013530D01*
X043707Y013591D01*
X043595Y013702D01*
X043575Y013751D01*
X043552Y013745D01*
X043299Y013745D01*
X043299Y014155D01*
X043160Y014155D01*
X043160Y013745D01*
X042907Y013745D01*
X042861Y013758D01*
X042820Y013781D01*
X042786Y013815D01*
X042762Y013856D01*
X042750Y013902D01*
X042750Y014155D01*
X043160Y014155D01*
X043160Y014185D01*
X043160Y014181D02*
X042299Y014181D01*
X042160Y014181D02*
X041421Y014181D01*
X041421Y014185D02*
X041428Y013444D01*
X041499Y013444D01*
X041499Y013854D01*
X041752Y013854D01*
X041766Y013850D01*
X041762Y013856D01*
X041750Y013902D01*
X041750Y014155D01*
X042160Y014155D01*
X042160Y014185D01*
X041421Y014185D01*
X041422Y014023D02*
X041750Y014023D01*
X041760Y013864D02*
X041424Y013864D01*
X041425Y013706D02*
X041499Y013706D01*
X041499Y013547D02*
X041427Y013547D01*
X041499Y013389D02*
X045950Y013389D01*
X045950Y013547D02*
X044647Y013547D01*
X044865Y013706D02*
X046007Y013706D01*
X045699Y013864D02*
X046424Y013864D01*
X046425Y013706D02*
X046360Y013706D01*
X046360Y013547D02*
X046427Y013547D01*
X046428Y013389D02*
X046360Y013389D01*
X046360Y013230D02*
X041909Y013230D01*
X041909Y013072D02*
X045950Y013072D01*
X045961Y012913D02*
X042048Y012913D01*
X042123Y012755D02*
X046434Y012755D01*
X046432Y012913D02*
X046360Y012913D01*
X046360Y013072D02*
X046431Y013072D01*
X046435Y012596D02*
X046360Y012596D01*
X046360Y012438D02*
X046437Y012438D01*
X046360Y012279D02*
X042124Y012279D01*
X042124Y012121D02*
X045950Y012121D01*
X045950Y011962D02*
X042109Y011962D01*
X042015Y011804D02*
X046076Y011804D01*
X045963Y011645D02*
X041909Y011645D01*
X041909Y011487D02*
X045950Y011487D01*
X045950Y011170D02*
X041909Y011170D01*
X041898Y011011D02*
X045950Y011011D01*
X045999Y010853D02*
X041757Y010853D01*
X041909Y010694D02*
X045996Y010694D01*
X045950Y010536D02*
X041909Y010536D01*
X041909Y010219D02*
X046360Y010219D01*
X046360Y010377D02*
X046455Y010377D01*
X046453Y010536D02*
X046360Y010536D01*
X046360Y010694D02*
X046452Y010694D01*
X046451Y010853D02*
X046360Y010853D01*
X046360Y011011D02*
X046449Y011011D01*
X046448Y011170D02*
X046360Y011170D01*
X046360Y011328D02*
X041499Y011328D01*
X041499Y011170D02*
X041448Y011170D01*
X041449Y011011D02*
X041499Y011011D01*
X041499Y010853D02*
X041451Y010853D01*
X041452Y010694D02*
X041499Y010694D01*
X041499Y010536D02*
X041453Y010536D01*
X041499Y010377D02*
X045950Y010377D01*
X045950Y010060D02*
X041909Y010060D01*
X041775Y009902D02*
X043160Y009902D01*
X042944Y009743D02*
X041460Y009743D01*
X041462Y009585D02*
X042110Y009585D01*
X042100Y009426D02*
X041463Y009426D01*
X041465Y009268D02*
X042510Y009268D01*
X042510Y009426D02*
X042649Y009426D01*
X042649Y009585D02*
X042510Y009585D01*
X041499Y009902D02*
X041459Y009902D01*
X041458Y010060D02*
X041499Y010060D01*
X041499Y010219D02*
X041456Y010219D01*
X039641Y009587D02*
X039351Y009877D01*
X038882Y009877D01*
X038879Y009874D01*
X038926Y009922D01*
X038879Y009874D02*
X038879Y010532D01*
X038875Y010536D01*
X038206Y010536D02*
X038206Y010722D01*
X037963Y010964D01*
X038207Y011208D01*
X037963Y010964D02*
X037331Y010964D01*
X037331Y010708D02*
X037331Y009980D01*
X037281Y009931D01*
X037755Y009846D02*
X038181Y009846D01*
X038210Y009874D01*
X039641Y009587D02*
X039641Y008747D01*
X040131Y008257D01*
X041560Y008257D01*
X041590Y007797D02*
X041465Y007672D01*
X041465Y007348D01*
X041512Y007301D01*
X042182Y007301D02*
X042375Y007301D01*
X042591Y007427D01*
X043172Y007427D01*
X043433Y007296D01*
X043433Y006548D02*
X043253Y006407D01*
X042651Y006407D01*
X042470Y006548D01*
X042179Y006548D01*
X042090Y007797D02*
X041590Y007797D01*
X042090Y007797D02*
X042230Y007937D01*
X042230Y008257D01*
X043515Y008273D02*
X043550Y008237D01*
X044649Y009268D02*
X045510Y009268D01*
X045649Y009268D02*
X046465Y009268D01*
X046463Y009426D02*
X046059Y009426D01*
X046049Y009585D02*
X046462Y009585D01*
X046460Y009743D02*
X044215Y009743D01*
X043999Y009902D02*
X045965Y009902D01*
X046360Y009902D02*
X046459Y009902D01*
X046458Y010060D02*
X046360Y010060D01*
X045649Y009585D02*
X045510Y009585D01*
X045510Y009426D02*
X045649Y009426D01*
X045100Y009426D02*
X045059Y009426D01*
X045049Y009585D02*
X045110Y009585D01*
X044649Y009585D02*
X044510Y009585D01*
X044510Y009426D02*
X044649Y009426D01*
X046360Y011487D02*
X046445Y011487D01*
X046444Y011645D02*
X046360Y011645D01*
X046360Y011804D02*
X046442Y011804D01*
X046441Y011962D02*
X046360Y011962D01*
X046360Y012121D02*
X046439Y012121D01*
X045950Y012438D02*
X042124Y012438D01*
X042124Y012596D02*
X045950Y012596D01*
X043812Y013547D02*
X041909Y013547D01*
X041907Y013706D02*
X043594Y013706D01*
X043299Y013864D02*
X043160Y013864D01*
X043160Y014023D02*
X043299Y014023D01*
X042750Y014023D02*
X042709Y014023D01*
X042699Y013864D02*
X042760Y013864D01*
X042299Y013864D02*
X042160Y013864D01*
X042160Y014023D02*
X042299Y014023D01*
X045160Y014023D02*
X045299Y014023D01*
X045299Y014181D02*
X046421Y014181D01*
X046422Y014023D02*
X045709Y014023D01*
X045299Y013864D02*
X045160Y013864D01*
X039965Y016847D02*
X039565Y017247D01*
X038265Y017247D01*
X037994Y016976D01*
X037994Y016443D01*
X038465Y016414D02*
X038494Y016443D01*
X038465Y016414D02*
X038465Y015847D01*
X038165Y015547D01*
X035665Y015547D01*
X034665Y016547D01*
X034065Y016547D01*
X032665Y017947D01*
X032665Y020147D01*
X032337Y020475D01*
X030322Y020475D01*
X030322Y020731D02*
X029549Y020731D01*
X029365Y020547D01*
X030322Y020219D02*
X031993Y020219D01*
X032265Y019947D01*
X032265Y017847D01*
X034065Y016047D01*
X034365Y016047D01*
X033865Y015747D02*
X031965Y017647D01*
X031965Y019747D01*
X031749Y019963D01*
X030322Y019963D01*
X030322Y019707D02*
X031105Y019707D01*
X031265Y019547D01*
X031265Y019147D01*
X030399Y019087D02*
X030322Y019164D01*
X030322Y019451D01*
X028008Y019963D02*
X027481Y019963D01*
X027165Y019647D01*
X027165Y019447D01*
X027065Y019347D01*
X026699Y019347D01*
X024830Y019347D02*
X023865Y019347D01*
X024830Y019347D02*
X024830Y020147D01*
X024830Y020947D01*
X024865Y020981D01*
X024765Y021047D01*
X024742Y020934D01*
X024642Y020964D01*
X024280Y020954D01*
X025491Y020955D02*
X025499Y020947D01*
X026030Y020947D01*
X025491Y020955D02*
X025491Y021742D01*
X025491Y021991D01*
X025335Y022147D01*
X025335Y022444D01*
X025402Y022511D01*
X026071Y022511D02*
X026122Y022459D01*
X026122Y022147D01*
X026030Y022055D01*
X026030Y021747D01*
X026739Y020987D02*
X026699Y020947D01*
X026739Y020987D02*
X027303Y020987D01*
X027303Y021754D01*
X027561Y022011D01*
X027561Y022219D01*
X028365Y022212D02*
X028365Y021947D01*
X028465Y021847D01*
X028465Y021347D01*
X028360Y021243D01*
X028008Y021243D01*
X028008Y020987D02*
X027303Y020987D01*
X028008Y020731D02*
X028008Y020475D01*
X027896Y020587D01*
X027299Y020587D01*
X027137Y020219D02*
X027065Y020147D01*
X026699Y020147D01*
X027137Y020219D02*
X028008Y020219D01*
X028008Y020475D02*
X027936Y020547D01*
X030322Y020987D02*
X030322Y021243D01*
X030322Y022256D01*
X030265Y022312D01*
X031459Y022312D01*
X030265Y022312D02*
X029465Y022312D01*
X030265Y022981D02*
X030745Y022977D01*
X035733Y019851D02*
X035829Y019947D01*
X037265Y019947D01*
X037494Y019717D01*
X037494Y019298D01*
X037994Y019298D02*
X037994Y020017D01*
X037744Y020267D01*
X037744Y021470D01*
X038265Y021950D02*
X037744Y022470D01*
X038265Y021950D02*
X038265Y020747D01*
X038994Y020017D01*
X038994Y019298D01*
X038494Y019298D02*
X038465Y019268D01*
X038465Y018647D01*
X037865Y018647D01*
X037444Y018226D01*
X036441Y018226D01*
X035841Y018226D02*
X035762Y018147D01*
X034765Y018147D01*
X034483Y019851D02*
X035108Y019851D01*
X035733Y019851D01*
X037465Y017647D02*
X037465Y016473D01*
X037494Y016443D01*
X038265Y014647D02*
X038265Y012147D01*
X038106Y011988D01*
X037331Y011988D01*
X037331Y012244D02*
X037787Y012244D01*
X037840Y012297D01*
X037840Y012789D01*
X037522Y013107D01*
X037521Y013109D01*
X037521Y013871D01*
X037518Y013873D01*
X036852Y013107D02*
X036841Y013096D01*
X036380Y013096D01*
X035074Y013072D02*
X035067Y013088D01*
X034590Y013088D01*
X034610Y013790D02*
X035048Y013775D01*
X035076Y013784D01*
X035017Y012500D02*
X034658Y012500D01*
X034533Y012503D01*
X035017Y011732D02*
X033980Y011732D01*
X035017Y011476D02*
X035794Y011476D01*
X035865Y011547D01*
X035765Y011547D01*
X036752Y011359D02*
X036891Y011220D01*
X037331Y011220D01*
X037331Y011476D02*
X036870Y011476D01*
X036752Y011359D01*
X037331Y011732D02*
X038375Y011732D01*
X038854Y012225D01*
X038863Y011629D02*
X038876Y011393D01*
X038876Y011208D01*
X037331Y012500D02*
X037284Y012547D01*
X036840Y012547D01*
X036715Y012422D01*
X036340Y012422D01*
X038809Y013055D02*
X038870Y013295D01*
X038809Y013055D02*
X038854Y012895D01*
X035342Y010170D02*
X034965Y010170D01*
X036130Y009846D02*
X036215Y009931D01*
X036612Y009931D01*
X023285Y006247D02*
X023225Y006307D01*
X011207Y006334D02*
X011210Y005547D01*
X011200Y005537D01*
X010531Y005537D02*
X010177Y005537D01*
X009659Y006225D01*
X019563Y015146D02*
X019815Y014894D01*
X019563Y015146D02*
X019446Y015263D01*
X019446Y016896D01*
X021380Y017171D02*
X021395Y017156D01*
X022066Y017156D01*
X022066Y017530D02*
X022066Y018048D01*
X022365Y018347D01*
X022365Y018712D01*
X021465Y018712D01*
X021399Y018647D01*
X021265Y018647D01*
X021098Y018814D01*
X020639Y018814D01*
X021465Y019381D02*
X021465Y019847D01*
X022365Y019847D02*
X022365Y019381D01*
X020265Y019680D02*
X020265Y020210D01*
X020513Y020458D01*
X019565Y020947D02*
X019565Y022147D01*
X019665Y022347D01*
X020057Y022347D01*
X020057Y021973D02*
X020083Y021947D01*
X020865Y021947D01*
X021565Y022247D02*
X021565Y021447D01*
X021265Y021147D01*
X020599Y021147D01*
X019073Y021973D02*
X019047Y021947D01*
X018565Y021947D01*
X018465Y021847D01*
X018238Y022074D01*
X017870Y022074D01*
X018465Y021847D02*
X018465Y020781D01*
X017965Y021247D02*
X017399Y021247D01*
X016730Y021247D02*
X016730Y020781D01*
X016865Y020647D01*
X017465Y020647D01*
X017565Y020547D01*
X017565Y020081D01*
X018465Y020112D01*
X017565Y019412D02*
X017530Y019447D01*
X017165Y019447D01*
X017065Y019547D01*
X017065Y019947D01*
X016930Y020081D01*
X016565Y020081D01*
X015565Y020081D01*
X014565Y020081D01*
X014530Y020047D01*
X014165Y020047D01*
X014065Y019947D01*
X014065Y019547D01*
X013930Y019412D01*
X013565Y019412D01*
X013565Y020081D02*
X013565Y020747D01*
X013765Y020947D01*
X013765Y021212D01*
X013730Y021247D01*
X012483Y021147D01*
X014399Y021247D02*
X015230Y021247D01*
X015230Y021747D01*
X015899Y021747D02*
X015899Y021247D01*
X016730Y021247D01*
X018565Y022347D02*
X019073Y022347D01*
X019073Y022721D02*
X019051Y022743D01*
X017870Y022743D01*
X017848Y022720D01*
X017091Y022720D01*
X020057Y022721D02*
X021091Y022721D01*
X021565Y022247D01*
X016565Y019412D02*
X016565Y018947D01*
X015565Y018947D02*
X015565Y019412D01*
X014565Y019412D02*
X014565Y018947D01*
X012483Y019147D02*
X011665Y019147D01*
X022066Y017530D02*
X022381Y017530D01*
X022565Y017347D01*
X022565Y016947D01*
X022400Y016782D01*
X022066Y016782D01*
X023050Y016782D02*
X023050Y016332D01*
X022765Y016047D01*
X023765Y016947D02*
X023965Y016947D01*
X023765Y016947D02*
X023555Y017156D01*
X023050Y017156D01*
X023050Y017530D02*
X023066Y017547D01*
X023965Y017547D01*
D40*
X017244Y016581D02*
X017247Y016073D01*
X017335Y015799D01*
X023189Y020977D02*
X023388Y020976D01*
X023611Y020954D01*
X033858Y018891D02*
X034483Y018891D01*
X034483Y019181D01*
X035108Y019181D02*
X035733Y019181D01*
X036233Y019191D01*
X036191Y019149D01*
X041870Y017817D02*
X041921Y017766D01*
X041939Y017748D01*
X041939Y017614D01*
X041954Y017614D02*
X041921Y017647D01*
X041921Y017766D01*
X041954Y017614D02*
X042380Y017614D01*
X043049Y017614D02*
X043567Y017614D01*
X043720Y017617D01*
X043631Y017556D01*
X043631Y017297D01*
X043830Y017098D01*
X043830Y016900D01*
X043785Y016855D01*
X043785Y016186D02*
X043785Y015212D01*
X043748Y015175D01*
X040531Y013641D02*
X040528Y013637D01*
X040528Y013146D01*
X039829Y013141D02*
X039829Y013573D01*
X039788Y013632D01*
X039834Y012476D02*
X039829Y012472D01*
X039834Y012476D02*
X040528Y012476D01*
X040533Y012472D01*
X040533Y011862D01*
X040532Y012472D02*
X040528Y012476D01*
X040533Y011193D02*
X040512Y011162D01*
X040486Y011014D01*
X040534Y010801D01*
X040521Y010506D01*
X043550Y008237D02*
X043560Y008227D01*
X043560Y007912D01*
X043433Y007785D01*
X043433Y007296D01*
X044020Y007572D02*
X044224Y007776D01*
X044224Y008233D01*
X044220Y008237D01*
X044020Y007572D02*
X044020Y006908D01*
X044380Y006548D01*
X044496Y006548D01*
X044496Y005835D01*
X044298Y005637D01*
X043629Y005637D02*
X043595Y005603D01*
X043196Y005603D01*
X042179Y005765D02*
X042179Y006548D01*
X042170Y006557D01*
X041501Y006557D02*
X041437Y006557D01*
X041501Y006557D02*
X041501Y007289D01*
X041512Y007301D01*
X043008Y006929D02*
X043015Y006922D01*
X043433Y006922D01*
X044496Y007296D02*
X045162Y007296D01*
X045185Y007273D01*
X045195Y007284D01*
X045195Y007972D01*
X045191Y007976D01*
X045865Y007972D02*
X045911Y007962D01*
X046321Y007974D01*
X046326Y007280D02*
X046073Y007279D01*
X045854Y007273D01*
X041509Y005765D02*
X041423Y005829D01*
X044389Y017617D02*
X044495Y017722D01*
X044495Y018407D01*
X044495Y019587D02*
X044771Y019863D01*
X044771Y020404D01*
X044101Y020404D02*
X043588Y020404D01*
X043577Y020392D01*
X042908Y020392D02*
X042908Y021170D01*
X042915Y021177D01*
X042915Y021949D01*
X042918Y021952D01*
X042283Y021952D01*
X042387Y021947D01*
D41*
X045368Y019587D02*
X046141Y020735D01*
X046811Y020735D02*
X048635Y020735D01*
X048655Y020715D01*
X045368Y019587D02*
X044495Y019587D01*
X044402Y019004D02*
X044395Y018997D01*
X044165Y015122D02*
X044229Y015057D01*
X044229Y014225D01*
X041429Y012375D02*
X040630Y012375D01*
X040528Y012476D01*
X035075Y014937D02*
X034965Y015047D01*
X034565Y015047D01*
X027921Y015497D02*
X027921Y014467D01*
X025421Y011967D01*
X020841Y011957D01*
X018611Y009727D01*
X018436Y009737D01*
X018248Y009549D01*
X018192Y009056D02*
X017099Y009056D01*
X017032Y008988D01*
X016032Y008988D01*
X019987Y009056D02*
X020055Y008988D01*
X021032Y008988D01*
X023225Y006307D02*
X023091Y006173D01*
X035379Y009007D02*
X035715Y008672D01*
X035379Y009007D02*
X035379Y009464D01*
X043579Y009225D02*
X043579Y008266D01*
X043550Y008237D01*
X020965Y015047D02*
X019662Y015047D01*
X019563Y015146D01*
X018698Y016896D02*
X018436Y016886D01*
X017970Y016879D01*
X009847Y021147D02*
X009165Y021147D01*
X008733Y020715D01*
X007941Y020715D01*
D42*
X019565Y020947D03*
X023865Y019347D03*
X023965Y017547D03*
X023965Y016947D03*
X022765Y016047D03*
X020965Y015047D03*
X018465Y011547D03*
X014965Y010047D03*
X014165Y009347D03*
X014465Y008547D03*
X011207Y006334D03*
X011465Y012047D03*
X027865Y018947D03*
X029365Y020547D03*
X031265Y019147D03*
X034765Y018147D03*
X034365Y016047D03*
X033265Y015447D03*
X034565Y015047D03*
X029865Y017147D03*
X039965Y016847D03*
X042387Y021947D03*
X030745Y022977D03*
X038863Y011629D03*
X039865Y011047D03*
X035865Y011547D03*
X033465Y011047D03*
X046465Y006347D03*
D43*
X046423Y006388D01*
X045840Y006388D01*
X045185Y006403D02*
X045171Y006388D01*
X045185Y006403D02*
X045185Y007273D01*
X040533Y011193D02*
X040387Y011047D01*
X039865Y011047D01*
X035379Y009464D02*
X035342Y009501D01*
X036849Y014528D02*
X036849Y014663D01*
X036465Y015047D01*
X034965Y015047D01*
X043748Y015175D02*
X043752Y015172D01*
X044215Y015172D01*
X044165Y015122D01*
X025550Y015941D02*
X025456Y015937D01*
X019958Y016991D02*
X019863Y016896D01*
X019446Y016896D01*
X016265Y014647D02*
X015865Y015047D01*
X014465Y015047D01*
X014112Y014694D01*
X014112Y013908D01*
X016265Y014347D02*
X016665Y013947D01*
X017294Y013947D01*
X017335Y013988D01*
X017335Y012977D01*
X017565Y012747D01*
X018025Y012747D01*
X018027Y012744D01*
X018027Y011984D01*
X018465Y011547D01*
X012397Y011882D02*
X012419Y012344D01*
X012429Y012488D01*
X016265Y014347D02*
X016265Y014647D01*
D44*
X014860Y013908D02*
X014845Y013894D01*
X014845Y013124D01*
X014097Y013124D02*
X014097Y013894D01*
X014112Y013908D01*
X014097Y013124D02*
X014049Y013076D01*
X013238Y013076D01*
X012429Y013236D02*
X011602Y013236D01*
X011443Y013076D01*
X011427Y013092D01*
X010768Y013092D01*
X009752Y014108D01*
X009752Y014547D01*
X011443Y013076D02*
X011465Y013054D01*
X011465Y012047D01*
X018006Y012766D02*
X018027Y012744D01*
X020424Y010730D02*
X019691Y009997D01*
X018638Y009997D01*
X018248Y009607D01*
X018192Y009492D02*
X018192Y009056D01*
X020424Y010730D02*
X022468Y010730D01*
X023231Y009967D01*
X023231Y006313D01*
X023225Y006307D01*
X021032Y008988D02*
X021004Y009015D01*
X021004Y009943D01*
X019880Y014839D02*
X019773Y014860D01*
X019815Y014894D02*
X019880Y014839D01*
X035075Y014937D02*
X035075Y014481D01*
X041893Y017660D02*
X041939Y017614D01*
D45*
X049744Y004037D02*
X008799Y004037D01*
X008799Y004431D01*
X006831Y004431D01*
X049744Y004431D01*
X049744Y004333D02*
X008799Y004333D01*
X008799Y004234D02*
X049744Y004234D01*
X049744Y004136D02*
X008799Y004136D01*
X008799Y004037D02*
X049744Y004037D01*
X049744Y018213D01*
X049736Y018209D01*
X048181Y018209D01*
X048047Y018265D01*
X047944Y018367D01*
X047941Y018375D01*
X047635Y018375D01*
X047597Y018386D01*
X047563Y018405D01*
X047535Y018433D01*
X047515Y018467D01*
X047505Y018506D01*
X047505Y018925D01*
X047889Y018925D01*
X047889Y019025D01*
X047505Y019025D01*
X047505Y019445D01*
X047515Y019483D01*
X047535Y019517D01*
X047563Y019545D01*
X047597Y019565D01*
X047635Y019575D01*
X048605Y019575D01*
X048605Y019382D01*
X048705Y019382D01*
X048705Y019575D01*
X049675Y019575D01*
X049713Y019565D01*
X049744Y019547D01*
X049744Y019907D01*
X049727Y019900D01*
X047582Y019900D01*
X047448Y019956D01*
X047345Y020059D01*
X047290Y020193D01*
X047290Y020210D01*
X047189Y020210D01*
X047100Y020173D01*
X046521Y020173D01*
X046476Y020192D01*
X046430Y020173D01*
X046396Y020173D01*
X045833Y019337D01*
X045813Y019290D01*
X045775Y019252D01*
X045745Y019207D01*
X045702Y019179D01*
X045665Y019142D01*
X045616Y019121D01*
X045571Y019092D01*
X045520Y019082D01*
X045472Y019062D01*
X045419Y019062D01*
X045366Y019052D01*
X045315Y019062D01*
X044919Y019062D01*
X044919Y019026D01*
X044428Y019026D01*
X044428Y018968D01*
X044919Y018968D01*
X044919Y018898D01*
X044977Y018874D01*
X045080Y018771D01*
X045135Y018637D01*
X045135Y018177D01*
X045080Y018042D01*
X044980Y017942D01*
X044980Y017626D01*
X044971Y017604D01*
X044971Y017347D01*
X044915Y017213D01*
X044813Y017111D01*
X044678Y017055D01*
X044366Y017055D01*
X044366Y016585D01*
X044339Y016520D01*
X044366Y016455D01*
X044366Y015916D01*
X044310Y015782D01*
X044270Y015741D01*
X044270Y015737D01*
X044327Y015737D01*
X044535Y015651D01*
X044694Y015492D01*
X044780Y015284D01*
X044780Y015059D01*
X044754Y014998D01*
X044754Y014814D01*
X044838Y014731D01*
X044867Y014661D01*
X044872Y014664D01*
X044910Y014674D01*
X045179Y014674D01*
X045179Y014275D01*
X045279Y014275D01*
X045279Y014674D01*
X045548Y014674D01*
X045587Y014664D01*
X045621Y014644D01*
X045649Y014616D01*
X045668Y014582D01*
X045679Y014544D01*
X045679Y014275D01*
X045279Y014275D01*
X045279Y014175D01*
X045279Y013775D01*
X045548Y013775D01*
X045587Y013786D01*
X045621Y013805D01*
X045649Y013833D01*
X045668Y013868D01*
X045679Y013906D01*
X045679Y014175D01*
X045279Y014175D01*
X045179Y014175D01*
X045179Y013775D01*
X044910Y013775D01*
X044872Y013786D01*
X044867Y013789D01*
X044838Y013719D01*
X044735Y013616D01*
X044601Y013560D01*
X043858Y013560D01*
X043723Y013616D01*
X043621Y013719D01*
X043592Y013789D01*
X043587Y013786D01*
X043548Y013775D01*
X043279Y013775D01*
X043279Y014175D01*
X043179Y014175D01*
X042780Y014175D01*
X042780Y013906D01*
X042790Y013868D01*
X042810Y013833D01*
X042838Y013805D01*
X042872Y013786D01*
X042910Y013775D01*
X043179Y013775D01*
X043179Y014175D01*
X043179Y014275D01*
X042780Y014275D01*
X042780Y014544D01*
X042790Y014582D01*
X042800Y014598D01*
X042731Y014626D01*
X042707Y014616D01*
X042648Y014616D01*
X042649Y014616D01*
X042668Y014582D01*
X042679Y014544D01*
X042679Y014275D01*
X042279Y014275D01*
X042279Y014175D01*
X042279Y013775D01*
X042548Y013775D01*
X042587Y013786D01*
X042621Y013805D01*
X042649Y013833D01*
X042668Y013868D01*
X042679Y013906D01*
X042679Y014175D01*
X042279Y014175D01*
X042179Y014175D01*
X041780Y014175D01*
X041780Y013906D01*
X041790Y013868D01*
X041810Y013833D01*
X041838Y013805D01*
X041872Y013786D01*
X041910Y013775D01*
X042179Y013775D01*
X042179Y014175D01*
X042179Y014275D01*
X041780Y014275D01*
X041780Y014544D01*
X041790Y014582D01*
X041810Y014616D01*
X041810Y014616D01*
X041460Y014616D01*
X041326Y014672D01*
X041295Y014702D01*
X038949Y014702D01*
X038710Y014463D01*
X038710Y013241D01*
X038806Y013241D01*
X038806Y012943D01*
X038903Y012943D01*
X039221Y012943D01*
X039221Y013111D01*
X039210Y013149D01*
X039191Y013183D01*
X039163Y013211D01*
X039129Y013231D01*
X039090Y013241D01*
X038903Y013241D01*
X038903Y012943D01*
X038903Y012846D01*
X039221Y012846D01*
X039221Y012755D01*
X039268Y012736D01*
X039268Y012761D01*
X039323Y012895D01*
X039426Y012997D01*
X039483Y013021D01*
X039483Y013092D01*
X039781Y013092D01*
X039781Y013189D01*
X039483Y013189D01*
X039483Y013377D01*
X039493Y013415D01*
X039513Y013449D01*
X039540Y013477D01*
X039575Y013497D01*
X039613Y013507D01*
X039781Y013507D01*
X039781Y013189D01*
X039878Y013189D01*
X040176Y013189D01*
X040176Y013377D01*
X040166Y013415D01*
X040146Y013449D01*
X040118Y013477D01*
X040084Y013497D01*
X040046Y013507D01*
X039878Y013507D01*
X039878Y013189D01*
X039878Y013092D01*
X040176Y013092D01*
X040176Y013024D01*
X040181Y013026D01*
X040181Y013097D01*
X040479Y013097D01*
X040479Y013194D01*
X040181Y013194D01*
X040181Y013382D01*
X040191Y013420D01*
X040211Y013454D01*
X040239Y013482D01*
X040273Y013502D01*
X040311Y013512D01*
X040479Y013512D01*
X040479Y013194D01*
X040576Y013194D01*
X040875Y013194D01*
X040875Y013382D01*
X040864Y013420D01*
X040845Y013454D01*
X040817Y013482D01*
X040782Y013502D01*
X040744Y013512D01*
X040576Y013512D01*
X040576Y013194D01*
X040576Y013097D01*
X040875Y013097D01*
X040875Y013026D01*
X040931Y013002D01*
X040943Y012991D01*
X040994Y013012D01*
X040990Y013018D01*
X040980Y013056D01*
X040980Y013325D01*
X041379Y013325D01*
X041379Y013425D01*
X040980Y013425D01*
X040980Y013694D01*
X040990Y013732D01*
X041010Y013766D01*
X041038Y013794D01*
X041072Y013814D01*
X041110Y013824D01*
X041379Y013824D01*
X041379Y013425D01*
X041479Y013425D01*
X041479Y013824D01*
X041748Y013824D01*
X041787Y013814D01*
X041821Y013794D01*
X041849Y013766D01*
X041868Y013732D01*
X041879Y013694D01*
X041879Y013425D01*
X041479Y013425D01*
X041479Y013325D01*
X041879Y013325D01*
X041879Y013056D01*
X041868Y013018D01*
X041865Y013012D01*
X041935Y012983D01*
X042038Y012881D01*
X042094Y012746D01*
X042094Y012003D01*
X042038Y011869D01*
X041935Y011766D01*
X041865Y011737D01*
X041868Y011732D01*
X041879Y011694D01*
X041879Y011425D01*
X041479Y011425D01*
X041479Y011325D01*
X041479Y010925D01*
X041748Y010925D01*
X041787Y010936D01*
X041821Y010955D01*
X041849Y010983D01*
X041868Y011018D01*
X041879Y011056D01*
X041879Y011325D01*
X041479Y011325D01*
X041379Y011325D01*
X041379Y010925D01*
X041143Y010925D01*
X041181Y010834D01*
X041181Y010824D01*
X041379Y010824D01*
X041379Y010425D01*
X041479Y010425D01*
X041479Y010824D01*
X041748Y010824D01*
X041787Y010814D01*
X041821Y010794D01*
X041849Y010766D01*
X041868Y010732D01*
X041879Y010694D01*
X041879Y010425D01*
X041479Y010425D01*
X041479Y010325D01*
X041479Y009925D01*
X041748Y009925D01*
X041787Y009936D01*
X041821Y009955D01*
X041849Y009983D01*
X041868Y010018D01*
X041879Y010056D01*
X041879Y010325D01*
X041479Y010325D01*
X041379Y010325D01*
X041379Y009925D01*
X041110Y009925D01*
X041072Y009936D01*
X041038Y009955D01*
X041038Y009956D01*
X041023Y009941D01*
X040966Y009917D01*
X040966Y009808D01*
X040571Y009808D01*
X040571Y009708D01*
X040966Y009708D01*
X040966Y009482D01*
X040956Y009444D01*
X040936Y009410D01*
X040908Y009382D01*
X040874Y009362D01*
X040836Y009352D01*
X040571Y009352D01*
X040571Y009708D01*
X040471Y009708D01*
X040471Y009352D01*
X040206Y009352D01*
X040167Y009362D01*
X040133Y009382D01*
X040105Y009410D01*
X040086Y009444D01*
X040086Y008931D01*
X040315Y008702D01*
X041076Y008702D01*
X041157Y008783D01*
X041291Y008838D01*
X041830Y008838D01*
X041895Y008811D01*
X041960Y008838D01*
X042157Y008838D01*
X042140Y008868D01*
X042130Y008906D01*
X042130Y009175D01*
X042529Y009175D01*
X042529Y009275D01*
X042130Y009275D01*
X042130Y009544D01*
X042140Y009582D01*
X042160Y009616D01*
X042188Y009644D01*
X042222Y009664D01*
X042260Y009674D01*
X042529Y009674D01*
X042529Y009275D01*
X042629Y009275D01*
X042629Y009674D01*
X042898Y009674D01*
X042937Y009664D01*
X042942Y009661D01*
X042971Y009731D01*
X043073Y009833D01*
X043208Y009889D01*
X043951Y009889D01*
X044085Y009833D01*
X044188Y009731D01*
X044217Y009661D01*
X044222Y009664D01*
X044260Y009674D01*
X044529Y009674D01*
X044529Y009275D01*
X044629Y009275D01*
X044629Y009674D01*
X044898Y009674D01*
X044937Y009664D01*
X044971Y009644D01*
X044999Y009616D01*
X045018Y009582D01*
X045029Y009544D01*
X045029Y009275D01*
X044629Y009275D01*
X044629Y009175D01*
X044629Y008775D01*
X044898Y008775D01*
X044937Y008786D01*
X044971Y008805D01*
X044999Y008833D01*
X045018Y008868D01*
X045029Y008906D01*
X045029Y009175D01*
X044629Y009175D01*
X044529Y009175D01*
X044529Y008802D01*
X044623Y008763D01*
X044726Y008660D01*
X044782Y008526D01*
X044782Y008482D01*
X044906Y008533D01*
X045484Y008533D01*
X045619Y008478D01*
X045721Y008375D01*
X045745Y008318D01*
X045816Y008318D01*
X045816Y008020D01*
X045913Y008020D01*
X046231Y008020D01*
X046231Y008188D01*
X046221Y008226D01*
X046201Y008261D01*
X046173Y008288D01*
X046139Y008308D01*
X046101Y008318D01*
X045913Y008318D01*
X045913Y008020D01*
X045913Y007923D01*
X045913Y007625D01*
X046101Y007625D01*
X046139Y007635D01*
X046173Y007655D01*
X046201Y007683D01*
X046221Y007717D01*
X046231Y007755D01*
X046231Y007923D01*
X045913Y007923D01*
X045816Y007923D01*
X045816Y007625D01*
X045745Y007625D01*
X045743Y007620D01*
X045806Y007620D01*
X045806Y007322D01*
X045903Y007322D01*
X046221Y007322D01*
X046221Y007490D01*
X046211Y007528D01*
X046191Y007562D01*
X046163Y007590D01*
X046129Y007610D01*
X046091Y007620D01*
X045903Y007620D01*
X045903Y007322D01*
X045903Y007225D01*
X046221Y007225D01*
X046221Y007057D01*
X046211Y007019D01*
X046191Y006984D01*
X046163Y006956D01*
X046158Y006953D01*
X046536Y006953D01*
X046743Y006867D01*
X046944Y006667D01*
X046985Y006567D01*
X046989Y006564D01*
X046989Y006559D01*
X047030Y006459D01*
X047030Y006234D01*
X046989Y006135D01*
X046989Y006130D01*
X046985Y006126D01*
X046944Y006027D01*
X046785Y005868D01*
X046685Y005827D01*
X046682Y005823D01*
X046677Y005823D01*
X046577Y005782D01*
X046352Y005782D01*
X046253Y005823D01*
X046248Y005823D01*
X046248Y005823D01*
X046149Y005823D01*
X046109Y005807D01*
X045571Y005807D01*
X045505Y005834D01*
X045440Y005807D01*
X044981Y005807D01*
X044981Y005739D01*
X044907Y005560D01*
X044860Y005513D01*
X044860Y005348D01*
X044804Y005213D01*
X044702Y005111D01*
X044568Y005055D01*
X044029Y005055D01*
X043894Y005111D01*
X043792Y005213D01*
X043768Y005270D01*
X043677Y005270D01*
X043677Y005588D01*
X043580Y005588D01*
X043282Y005588D01*
X043282Y005400D01*
X043292Y005362D01*
X043312Y005328D01*
X043340Y005300D01*
X043374Y005280D01*
X043412Y005270D01*
X043580Y005270D01*
X043580Y005588D01*
X043580Y005685D01*
X043282Y005685D01*
X043282Y005873D01*
X043292Y005911D01*
X043312Y005945D01*
X043329Y005962D01*
X043313Y005962D01*
X043285Y005955D01*
X043225Y005962D01*
X042760Y005962D01*
X042760Y005496D01*
X042705Y005362D01*
X042602Y005259D01*
X042468Y005204D01*
X041890Y005204D01*
X041756Y005259D01*
X041653Y005362D01*
X041629Y005419D01*
X041558Y005419D01*
X041558Y005717D01*
X041461Y005717D01*
X041143Y005717D01*
X041143Y005549D01*
X041153Y005511D01*
X041173Y005476D01*
X041201Y005448D01*
X041235Y005429D01*
X041273Y005419D01*
X041461Y005419D01*
X041461Y005717D01*
X041461Y005814D01*
X041143Y005814D01*
X041143Y005982D01*
X041150Y006009D01*
X041097Y006031D01*
X040994Y006134D01*
X040939Y006268D01*
X040939Y006846D01*
X040973Y006929D01*
X040931Y007031D01*
X040931Y007570D01*
X040986Y007704D01*
X041020Y007738D01*
X041020Y007760D01*
X041041Y007812D01*
X040043Y007812D01*
X039879Y007880D01*
X039389Y008370D01*
X039264Y008495D01*
X039196Y008658D01*
X039196Y009324D01*
X039168Y009313D01*
X038590Y009313D01*
X038456Y009368D01*
X038353Y009471D01*
X038330Y009528D01*
X038258Y009528D01*
X038258Y009826D01*
X038161Y009826D01*
X037843Y009826D01*
X037843Y009923D01*
X038161Y009923D01*
X038161Y009826D01*
X038161Y009528D01*
X037973Y009528D01*
X037935Y009538D01*
X037901Y009558D01*
X037873Y009585D01*
X037853Y009620D01*
X037843Y009657D01*
X037843Y009642D01*
X037788Y009508D01*
X037685Y009405D01*
X037551Y009349D01*
X037012Y009349D01*
X036878Y009405D01*
X036775Y009508D01*
X036752Y009564D01*
X036661Y009564D01*
X036661Y009882D01*
X036564Y009882D01*
X036564Y009564D01*
X036396Y009564D01*
X036357Y009575D01*
X036323Y009594D01*
X036295Y009622D01*
X036276Y009656D01*
X036265Y009695D01*
X036265Y009882D01*
X036564Y009882D01*
X036564Y009979D01*
X036265Y009979D01*
X036265Y010167D01*
X036276Y010205D01*
X036295Y010240D01*
X036323Y010267D01*
X036357Y010287D01*
X036396Y010297D01*
X036564Y010297D01*
X036564Y009979D01*
X036661Y009979D01*
X036661Y010297D01*
X036752Y010297D01*
X036775Y010354D01*
X036783Y010361D01*
X036731Y010413D01*
X036675Y010547D01*
X036675Y011126D01*
X036731Y011260D01*
X036819Y011348D01*
X036731Y011437D01*
X036675Y011571D01*
X036675Y011886D01*
X036611Y011859D01*
X036294Y011859D01*
X036389Y011764D01*
X036389Y011330D01*
X036082Y011023D01*
X035673Y011023D01*
X035673Y010715D01*
X035765Y010677D01*
X035868Y010574D01*
X035924Y010440D01*
X035924Y009901D01*
X035897Y009836D01*
X035924Y009771D01*
X035924Y009626D01*
X035944Y009576D01*
X035944Y009351D01*
X035924Y009301D01*
X035924Y009232D01*
X035916Y009213D01*
X035942Y009187D01*
X036034Y009149D01*
X036192Y008991D01*
X036278Y008784D01*
X036278Y008560D01*
X036192Y008353D01*
X036034Y008195D01*
X035827Y008109D01*
X035603Y008109D01*
X035396Y008195D01*
X035237Y008353D01*
X035199Y008445D01*
X034934Y008710D01*
X034854Y008903D01*
X034854Y009059D01*
X034816Y009097D01*
X034805Y009125D01*
X034686Y009125D01*
X034686Y009443D01*
X034589Y009443D01*
X034589Y009125D01*
X034421Y009125D01*
X034383Y009135D01*
X034349Y009155D01*
X034321Y009183D01*
X034301Y009217D01*
X034291Y009255D01*
X034291Y009443D01*
X034589Y009443D01*
X034589Y009540D01*
X034291Y009540D01*
X034291Y009611D01*
X034287Y009613D01*
X034281Y009610D01*
X034281Y009539D01*
X033983Y009539D01*
X033983Y009442D01*
X034281Y009442D01*
X034281Y009254D01*
X034271Y009216D01*
X034251Y009182D01*
X034223Y009154D01*
X034189Y009134D01*
X034151Y009124D01*
X033983Y009124D01*
X033983Y009442D01*
X033886Y009442D01*
X033886Y009124D01*
X033718Y009124D01*
X033679Y009134D01*
X033645Y009154D01*
X033617Y009182D01*
X033597Y009216D01*
X033587Y009254D01*
X033587Y009442D01*
X033886Y009442D01*
X033886Y009539D01*
X033587Y009539D01*
X033587Y009610D01*
X033531Y009634D01*
X033428Y009737D01*
X033372Y009871D01*
X033372Y010160D01*
X033352Y010208D01*
X033352Y010385D01*
X033372Y010433D01*
X033372Y010449D01*
X033403Y010523D01*
X033248Y010523D01*
X032941Y010830D01*
X032941Y011264D01*
X033248Y011571D01*
X033359Y011571D01*
X033386Y011597D01*
X033456Y011626D01*
X033313Y011770D01*
X033188Y011895D01*
X033120Y012058D01*
X033120Y014923D01*
X033048Y014923D01*
X032741Y015230D01*
X032741Y015664D01*
X033030Y015953D01*
X031588Y017395D01*
X031520Y017558D01*
X031520Y018661D01*
X031482Y018623D01*
X031048Y018623D01*
X030741Y018930D01*
X030741Y019262D01*
X030724Y019262D01*
X030704Y019243D01*
X030670Y019223D01*
X030632Y019213D01*
X030322Y019213D01*
X030322Y019254D01*
X030322Y019254D01*
X030322Y019213D01*
X030011Y019213D01*
X029973Y019223D01*
X029939Y019243D01*
X029911Y019270D01*
X029909Y019274D01*
X029824Y019309D01*
X029722Y019412D01*
X029666Y019546D01*
X029666Y020108D01*
X029582Y020023D01*
X029148Y020023D01*
X028841Y020330D01*
X028841Y020764D01*
X029148Y021071D01*
X029259Y021071D01*
X029297Y021108D01*
X029460Y021176D01*
X029666Y021176D01*
X028876Y021176D01*
X028842Y021095D02*
X028910Y021258D01*
X028910Y021855D01*
X028941Y021931D01*
X028959Y021889D01*
X029061Y021786D01*
X029195Y021731D01*
X029734Y021731D01*
X029868Y021786D01*
X029874Y021792D01*
X029877Y021791D01*
X029877Y021662D01*
X029824Y021640D01*
X029722Y021538D01*
X029666Y021404D01*
X029666Y021176D01*
X029666Y021275D02*
X028910Y021275D01*
X028910Y021373D02*
X029666Y021373D01*
X029694Y021472D02*
X028910Y021472D01*
X028910Y021570D02*
X029754Y021570D01*
X029877Y021669D02*
X028910Y021669D01*
X028910Y021767D02*
X029108Y021767D01*
X028982Y021866D02*
X028914Y021866D01*
X029822Y021767D02*
X029877Y021767D01*
X030766Y021767D02*
X031101Y021767D01*
X031055Y021786D02*
X031189Y021731D01*
X031728Y021731D01*
X031862Y021786D01*
X031965Y021889D01*
X032020Y022023D01*
X032020Y022601D01*
X031965Y022735D01*
X031862Y022838D01*
X031805Y022862D01*
X031805Y022933D01*
X031507Y022933D01*
X031507Y023030D01*
X031410Y023030D01*
X031410Y023348D01*
X031242Y023348D01*
X031204Y023338D01*
X031170Y023318D01*
X031157Y023305D01*
X030962Y023501D01*
X030657Y023501D01*
X030554Y023543D01*
X029976Y023543D01*
X029842Y023488D01*
X029739Y023385D01*
X029719Y023338D01*
X029681Y023348D01*
X029513Y023348D01*
X029513Y023030D01*
X029416Y023030D01*
X029416Y022933D01*
X029118Y022933D01*
X029118Y022862D01*
X029061Y022838D01*
X028959Y022735D01*
X028903Y022601D01*
X028903Y022586D01*
X028891Y022616D01*
X028788Y022718D01*
X028731Y022742D01*
X028731Y022833D01*
X028413Y022833D01*
X028413Y022930D01*
X028316Y022930D01*
X028316Y022833D01*
X027998Y022833D01*
X027998Y022742D01*
X027976Y022733D01*
X027964Y022744D01*
X027908Y022768D01*
X027908Y022839D01*
X027609Y022839D01*
X027609Y022936D01*
X027512Y022936D01*
X027512Y022839D01*
X027214Y022839D01*
X027214Y022768D01*
X027157Y022744D01*
X027055Y022642D01*
X026999Y022508D01*
X026999Y022078D01*
X026993Y022072D01*
X026974Y022083D01*
X026936Y022094D01*
X026748Y022094D01*
X026748Y021795D01*
X026651Y021795D01*
X026651Y022094D01*
X026580Y022094D01*
X026633Y022221D01*
X026633Y022800D01*
X026577Y022934D01*
X026475Y023037D01*
X026341Y023092D01*
X025802Y023092D01*
X025736Y023065D01*
X025671Y023092D01*
X025132Y023092D01*
X024998Y023037D01*
X024896Y022934D01*
X024840Y022800D01*
X024840Y022221D01*
X024890Y022101D01*
X024890Y022089D01*
X024870Y022089D01*
X024870Y021791D01*
X024773Y021791D01*
X024773Y022089D01*
X024586Y022089D01*
X024547Y022079D01*
X024513Y022059D01*
X024485Y022031D01*
X024466Y021997D01*
X024455Y021959D01*
X024455Y021791D01*
X024773Y021791D01*
X024773Y021694D01*
X024455Y021694D01*
X024455Y021526D01*
X024458Y021516D01*
X023991Y021516D01*
X023857Y021460D01*
X023755Y021358D01*
X023731Y021301D01*
X023660Y021301D01*
X023660Y021002D01*
X023563Y021002D01*
X023563Y020906D01*
X023245Y020906D01*
X023245Y020737D01*
X023255Y020699D01*
X023275Y020665D01*
X023303Y020637D01*
X023337Y020617D01*
X023375Y020607D01*
X023563Y020607D01*
X023563Y020906D01*
X023660Y020906D01*
X023660Y020607D01*
X023731Y020607D01*
X023755Y020550D01*
X023857Y020448D01*
X023991Y020392D01*
X024249Y020392D01*
X024249Y019877D01*
X024284Y019792D01*
X024160Y019792D01*
X024082Y019871D01*
X023648Y019871D01*
X023341Y019564D01*
X023341Y019130D01*
X023648Y018823D01*
X024082Y018823D01*
X024160Y018902D01*
X024346Y018902D01*
X024427Y018821D01*
X024561Y018765D01*
X025055Y018765D01*
X025055Y017957D01*
X025122Y017794D01*
X025351Y017564D01*
X025477Y017439D01*
X025640Y017372D01*
X025939Y017372D01*
X026126Y017294D01*
X026359Y017294D01*
X026574Y017383D01*
X026738Y017548D01*
X026828Y017763D01*
X026828Y017995D01*
X026785Y018097D01*
X027461Y017422D01*
X027359Y017464D01*
X027126Y017464D01*
X026911Y017375D01*
X026747Y017210D01*
X026658Y016995D01*
X026658Y016763D01*
X026747Y016548D01*
X026801Y016493D01*
X026801Y016489D01*
X026420Y016489D01*
X026286Y016433D01*
X026184Y016330D01*
X026160Y016274D01*
X026089Y016274D01*
X026089Y015975D01*
X025992Y015975D01*
X025992Y015878D01*
X026089Y015878D01*
X026089Y015580D01*
X026160Y015580D01*
X026184Y015523D01*
X026286Y015421D01*
X026420Y015365D01*
X026806Y015365D01*
X026806Y014767D01*
X024891Y012843D01*
X020714Y012843D01*
X020627Y012844D01*
X020626Y012843D01*
X020626Y012843D01*
X020544Y012810D01*
X020463Y012776D01*
X020463Y012776D01*
X020462Y012776D01*
X020400Y012713D01*
X018969Y011289D01*
X018985Y011326D01*
X019007Y011326D01*
X018989Y011330D02*
X018989Y011335D01*
X019030Y011434D01*
X019030Y011659D01*
X018989Y011759D01*
X018989Y011764D01*
X018985Y011767D01*
X018944Y011867D01*
X018592Y012218D01*
X018592Y012242D01*
X018593Y012242D01*
X018616Y012299D01*
X018726Y012299D01*
X018726Y012694D01*
X018826Y012694D01*
X018826Y012794D01*
X019181Y012794D01*
X019181Y013059D01*
X019171Y013098D01*
X019151Y013132D01*
X019124Y013160D01*
X019089Y013179D01*
X019051Y013190D01*
X018826Y013190D01*
X018826Y012794D01*
X018726Y012794D01*
X018726Y013190D01*
X018616Y013190D01*
X018593Y013246D01*
X018490Y013349D01*
X018356Y013405D01*
X017957Y013405D01*
X018038Y013486D01*
X018094Y013620D01*
X018094Y014356D01*
X018059Y014441D01*
X018094Y014526D01*
X018094Y015261D01*
X018038Y015396D01*
X017935Y015498D01*
X017879Y015522D01*
X017879Y015749D01*
X017385Y015749D01*
X017385Y015849D01*
X017879Y015849D01*
X017879Y016114D01*
X017869Y016152D01*
X017849Y016186D01*
X017821Y016214D01*
X017787Y016234D01*
X017749Y016244D01*
X017385Y016244D01*
X017385Y015849D01*
X017285Y015849D01*
X017285Y015749D01*
X016791Y015749D01*
X016791Y015522D01*
X016735Y015498D01*
X016632Y015396D01*
X016576Y015261D01*
X016576Y015134D01*
X016185Y015526D01*
X015977Y015612D01*
X014352Y015612D01*
X014145Y015526D01*
X013986Y015367D01*
X013633Y015014D01*
X013553Y014822D01*
X013553Y015900D01*
X012390Y015900D01*
X012390Y014580D01*
X013423Y014580D01*
X013461Y014590D01*
X013496Y014609D01*
X013523Y014637D01*
X013543Y014672D01*
X013547Y014684D01*
X013547Y014410D01*
X013546Y014410D01*
X013491Y014276D01*
X013491Y014036D01*
X013482Y014016D01*
X013482Y013756D01*
X012976Y013756D01*
X012931Y013801D01*
X012797Y013856D01*
X012061Y013856D01*
X012047Y013851D01*
X011480Y013851D01*
X011254Y013757D01*
X011253Y013756D01*
X011173Y013756D01*
X011055Y013707D01*
X011023Y013707D01*
X010526Y014204D01*
X010542Y014220D01*
X010542Y014874D01*
X010079Y015337D01*
X009425Y015337D01*
X008962Y014874D01*
X008962Y014220D01*
X009137Y014045D01*
X009137Y013986D01*
X009231Y013760D01*
X010247Y012744D01*
X010420Y012571D01*
X010646Y012477D01*
X010850Y012477D01*
X010850Y011925D01*
X010943Y011699D01*
X011116Y011526D01*
X011343Y011432D01*
X011587Y011432D01*
X011813Y011526D01*
X011986Y011699D01*
X012080Y011925D01*
X012080Y012091D01*
X012114Y012082D01*
X012379Y012082D01*
X012379Y012438D01*
X012479Y012438D01*
X012479Y012082D01*
X012744Y012082D01*
X012782Y012092D01*
X012817Y012112D01*
X012845Y012140D01*
X012864Y012174D01*
X012875Y012212D01*
X012875Y012435D01*
X012969Y012396D01*
X013508Y012396D01*
X013642Y012452D01*
X013651Y012461D01*
X014171Y012461D01*
X014179Y012464D01*
X014426Y012464D01*
X014560Y012520D01*
X014662Y012622D01*
X014686Y012679D01*
X014795Y012679D01*
X014795Y013074D01*
X014895Y013074D01*
X014895Y012679D01*
X015121Y012679D01*
X015159Y012689D01*
X015193Y012709D01*
X015221Y012737D01*
X015241Y012771D01*
X015251Y012809D01*
X015251Y013074D01*
X014895Y013074D01*
X014895Y013174D01*
X015251Y013174D01*
X015251Y013439D01*
X015241Y013478D01*
X015223Y013508D01*
X015236Y013521D01*
X015255Y013555D01*
X015265Y013593D01*
X015265Y013858D01*
X014910Y013858D01*
X014910Y013958D01*
X015265Y013958D01*
X015265Y014223D01*
X015255Y014261D01*
X015236Y014295D01*
X015208Y014323D01*
X015173Y014343D01*
X015135Y014353D01*
X014910Y014353D01*
X014910Y013958D01*
X014810Y013958D01*
X014810Y014353D01*
X014700Y014353D01*
X014677Y014410D01*
X014677Y014410D01*
X014677Y014460D01*
X014699Y014482D01*
X015631Y014482D01*
X015700Y014413D01*
X015700Y014234D01*
X015786Y014027D01*
X016186Y013627D01*
X016345Y013468D01*
X016552Y013382D01*
X016738Y013382D01*
X016770Y013369D01*
X016770Y012864D01*
X016856Y012657D01*
X017086Y012427D01*
X017245Y012268D01*
X017452Y012182D01*
X017463Y012182D01*
X017463Y011872D01*
X017549Y011664D01*
X018145Y011068D01*
X018244Y011027D01*
X018248Y011023D01*
X018253Y011023D01*
X018352Y010982D01*
X018577Y010982D01*
X018677Y011023D01*
X018682Y011023D01*
X018685Y011027D01*
X018721Y011042D01*
X017997Y010320D01*
X017996Y010320D01*
X017934Y010257D01*
X017872Y010195D01*
X017871Y010195D01*
X017871Y010195D01*
X017837Y010113D01*
X017804Y010032D01*
X017804Y010032D01*
X017727Y009955D01*
X017686Y009856D01*
X017670Y009840D01*
X017577Y009614D01*
X017577Y009580D01*
X017468Y009580D01*
X017400Y009609D01*
X016664Y009609D01*
X016532Y009554D01*
X016400Y009609D01*
X015664Y009609D01*
X015530Y009553D01*
X015427Y009450D01*
X015410Y009409D01*
X015410Y009751D01*
X015489Y009830D01*
X015489Y010264D01*
X015182Y010571D01*
X015070Y010571D01*
X014928Y010713D01*
X014764Y010781D01*
X013949Y010781D01*
X013868Y010862D01*
X013734Y010918D01*
X013195Y010918D01*
X013130Y010891D01*
X013065Y010918D01*
X012526Y010918D01*
X012392Y010862D01*
X012289Y010759D01*
X012234Y010625D01*
X012234Y010047D01*
X012289Y009913D01*
X012392Y009810D01*
X012455Y009784D01*
X012455Y009737D01*
X012411Y009719D01*
X012372Y009680D01*
X012333Y009719D01*
X012198Y009775D01*
X011974Y009775D01*
X011933Y009792D01*
X011645Y009792D01*
X011645Y009953D01*
X011707Y010014D01*
X011762Y010148D01*
X011762Y010727D01*
X011707Y010861D01*
X011604Y010963D01*
X011470Y011019D01*
X010931Y011019D01*
X010866Y010992D01*
X010800Y011019D01*
X010551Y011019D01*
X010284Y011260D01*
X010284Y011484D01*
X009918Y011850D01*
X009864Y011850D01*
X010069Y012055D01*
X010069Y012195D01*
X009689Y012195D01*
X009689Y012255D01*
X009629Y012255D01*
X009629Y012195D01*
X009249Y012195D01*
X009249Y012055D01*
X009455Y011850D01*
X009400Y011850D01*
X009034Y011484D01*
X009034Y010966D01*
X009400Y010600D01*
X009687Y010600D01*
X009969Y010345D01*
X009969Y010148D01*
X010025Y010014D01*
X010127Y009911D01*
X010262Y009856D01*
X010755Y009856D01*
X010755Y009323D01*
X010823Y009159D01*
X010888Y009095D01*
X011013Y008970D01*
X011115Y008927D01*
X011106Y008924D01*
X010981Y008799D01*
X010823Y008641D01*
X010812Y008614D01*
X010800Y008619D01*
X010284Y008619D01*
X010284Y008984D01*
X009918Y009350D01*
X009864Y009350D01*
X010069Y009555D01*
X010069Y009695D01*
X009689Y009695D01*
X009689Y009755D01*
X009629Y009755D01*
X009629Y009695D01*
X009249Y009695D01*
X009249Y009555D01*
X009455Y009350D01*
X009400Y009350D01*
X009034Y008984D01*
X009034Y008466D01*
X009400Y008100D01*
X009506Y008100D01*
X009672Y007812D01*
X009701Y007749D01*
X009716Y007736D01*
X009726Y007718D01*
X009781Y007676D01*
X009826Y007635D01*
X009689Y007635D01*
X009689Y007255D01*
X009629Y007255D01*
X009629Y007195D01*
X009249Y007195D01*
X009249Y007055D01*
X009455Y006850D01*
X009400Y006850D01*
X009034Y006484D01*
X009034Y005966D01*
X009400Y005600D01*
X009573Y005600D01*
X009788Y005315D01*
X009800Y005285D01*
X009841Y005245D01*
X009875Y005199D01*
X009903Y005183D01*
X009925Y005160D01*
X009978Y005138D01*
X010028Y005109D01*
X010030Y005109D01*
X010127Y005011D01*
X010262Y004956D01*
X010800Y004956D01*
X010866Y004983D01*
X010931Y004956D01*
X011470Y004956D01*
X011604Y005011D01*
X011707Y005114D01*
X011762Y005248D01*
X011762Y005827D01*
X011707Y005961D01*
X011653Y006014D01*
X011653Y006039D01*
X011731Y006117D01*
X011731Y006551D01*
X011424Y006858D01*
X010991Y006858D01*
X010684Y006551D01*
X010684Y006119D01*
X010296Y006119D01*
X010284Y006135D01*
X010284Y006484D01*
X009918Y006850D01*
X009864Y006850D01*
X010069Y007055D01*
X010069Y007195D01*
X009689Y007195D01*
X009689Y007255D01*
X010069Y007255D01*
X010069Y007395D01*
X009836Y007628D01*
X009851Y007623D01*
X009866Y007611D01*
X009933Y007593D01*
X009998Y007569D01*
X010018Y007570D01*
X010037Y007565D01*
X010070Y007569D01*
X010127Y007511D01*
X010262Y007456D01*
X010800Y007456D01*
X010866Y007483D01*
X010931Y007456D01*
X011470Y007456D01*
X011604Y007511D01*
X011707Y007614D01*
X011762Y007748D01*
X011762Y008100D01*
X012198Y008100D01*
X012333Y008156D01*
X012352Y008175D01*
X012352Y008078D01*
X012291Y008017D01*
X012235Y007883D01*
X012235Y007305D01*
X012291Y007170D01*
X012394Y007068D01*
X012528Y007012D01*
X013067Y007012D01*
X013132Y007039D01*
X013197Y007012D01*
X013736Y007012D01*
X013870Y007068D01*
X013951Y007149D01*
X014876Y007149D01*
X015040Y007216D01*
X015283Y007460D01*
X015408Y007585D01*
X015476Y007748D01*
X015476Y008476D01*
X015530Y008422D01*
X015586Y008399D01*
X015586Y008290D01*
X015982Y008290D01*
X015982Y008190D01*
X016082Y008190D01*
X016082Y008290D01*
X016477Y008290D01*
X016477Y008399D01*
X016532Y008422D01*
X016586Y008399D01*
X016586Y008290D01*
X016982Y008290D01*
X016982Y008190D01*
X017082Y008190D01*
X017082Y008290D01*
X017477Y008290D01*
X017477Y008399D01*
X017534Y008422D01*
X017636Y008525D01*
X017639Y008531D01*
X017689Y008531D01*
X017788Y008431D01*
X017922Y008376D01*
X018461Y008376D01*
X018595Y008431D01*
X018698Y008534D01*
X018753Y008668D01*
X018753Y008805D01*
X018807Y008933D01*
X018807Y009239D01*
X018882Y009266D01*
X018894Y009276D01*
X018908Y009282D01*
X018972Y009345D01*
X019013Y009382D01*
X019425Y009382D01*
X019425Y008668D01*
X019481Y008534D01*
X019583Y008431D01*
X019717Y008376D01*
X020256Y008376D01*
X020390Y008431D01*
X020422Y008463D01*
X020489Y008463D01*
X020530Y008422D01*
X020586Y008399D01*
X020586Y008290D01*
X020982Y008290D01*
X020982Y008190D01*
X021082Y008190D01*
X021082Y008290D01*
X021477Y008290D01*
X021477Y008399D01*
X021534Y008422D01*
X021636Y008525D01*
X021692Y008659D01*
X021692Y009316D01*
X021636Y009450D01*
X021619Y009468D01*
X021619Y010065D01*
X021598Y010115D01*
X022213Y010115D01*
X022616Y009712D01*
X022616Y006822D01*
X022551Y006757D01*
X022430Y006465D01*
X022430Y006149D01*
X022551Y005856D01*
X022774Y005633D01*
X023067Y005512D01*
X023383Y005512D01*
X023675Y005633D01*
X023899Y005856D01*
X024020Y006149D01*
X024020Y006465D01*
X023899Y006757D01*
X023846Y006810D01*
X023846Y010089D01*
X023752Y010315D01*
X023579Y010488D01*
X022816Y011251D01*
X022590Y011345D01*
X020971Y011345D01*
X021059Y011433D01*
X025422Y011442D01*
X025525Y011442D01*
X025526Y011442D01*
X025527Y011442D01*
X025622Y011482D01*
X025718Y011522D01*
X025719Y011522D01*
X025719Y011523D01*
X025792Y011596D01*
X028366Y014170D01*
X028446Y014363D01*
X028446Y015193D01*
X028827Y014812D01*
X028827Y006704D01*
X028895Y006541D01*
X029020Y006416D01*
X029441Y005995D01*
X029566Y005870D01*
X029729Y005802D01*
X030086Y005802D01*
X030255Y005633D01*
X030547Y005512D01*
X030863Y005512D01*
X031155Y005633D01*
X031379Y005856D01*
X031381Y005862D01*
X034913Y005862D01*
X035077Y005929D01*
X035749Y006602D01*
X037453Y006602D01*
X037617Y006670D01*
X038417Y007470D01*
X038542Y007595D01*
X038610Y007758D01*
X038610Y008139D01*
X038640Y008169D01*
X038695Y008303D01*
X038695Y008842D01*
X038640Y008976D01*
X038537Y009078D01*
X038403Y009134D01*
X037824Y009134D01*
X037779Y009115D01*
X037733Y009134D01*
X037155Y009134D01*
X037097Y009110D01*
X036694Y009110D01*
X036560Y009054D01*
X036457Y008952D01*
X036402Y008818D01*
X036402Y008276D01*
X036457Y008142D01*
X036560Y008039D01*
X036694Y007984D01*
X037236Y007984D01*
X037300Y008010D01*
X037699Y008010D01*
X037181Y007492D01*
X035476Y007492D01*
X035313Y007424D01*
X035188Y007299D01*
X034640Y006752D01*
X031381Y006752D01*
X031379Y006757D01*
X031155Y006981D01*
X030863Y007102D01*
X030547Y007102D01*
X030255Y006981D01*
X030031Y006757D01*
X030004Y006692D01*
X030002Y006692D01*
X029717Y006977D01*
X029717Y015085D01*
X029649Y015248D01*
X028406Y016491D01*
X028406Y016588D01*
X028461Y016565D01*
X029000Y016565D01*
X029065Y016592D01*
X029130Y016565D01*
X029669Y016565D01*
X029803Y016621D01*
X029805Y016623D01*
X030082Y016623D01*
X030389Y016930D01*
X030389Y017364D01*
X030082Y017671D01*
X029805Y017671D01*
X029803Y017673D01*
X029756Y017692D01*
X029766Y017730D01*
X029766Y017898D01*
X029448Y017898D01*
X029448Y017995D01*
X029766Y017995D01*
X029766Y018163D01*
X029756Y018202D01*
X029736Y018236D01*
X029708Y018264D01*
X029674Y018283D01*
X029636Y018294D01*
X029448Y018294D01*
X029448Y017995D01*
X029351Y017995D01*
X029351Y018294D01*
X029280Y018294D01*
X029258Y018347D01*
X029280Y018400D01*
X029351Y018400D01*
X029351Y018698D01*
X029448Y018698D01*
X029448Y018400D01*
X029636Y018400D01*
X029674Y018410D01*
X029708Y018430D01*
X029736Y018458D01*
X029756Y018492D01*
X029766Y018530D01*
X029766Y018698D01*
X029448Y018698D01*
X029448Y018795D01*
X029766Y018795D01*
X029766Y018963D01*
X029756Y019002D01*
X029736Y019036D01*
X029708Y019064D01*
X029674Y019083D01*
X029636Y019094D01*
X029448Y019094D01*
X029448Y018795D01*
X029351Y018795D01*
X029351Y019094D01*
X029280Y019094D01*
X029256Y019150D01*
X029210Y019197D01*
X029210Y019535D01*
X029142Y019699D01*
X029017Y019824D01*
X028757Y020084D01*
X028663Y020123D01*
X028663Y020380D01*
X028608Y020514D01*
X028519Y020603D01*
X028608Y020691D01*
X028663Y020825D01*
X028663Y020916D01*
X028717Y020970D01*
X028842Y021095D01*
X028825Y021078D02*
X029266Y021078D01*
X029056Y020979D02*
X028726Y020979D01*
X028663Y020881D02*
X028958Y020881D01*
X028859Y020782D02*
X028645Y020782D01*
X028600Y020684D02*
X028841Y020684D01*
X028841Y020585D02*
X028537Y020585D01*
X028619Y020487D02*
X028841Y020487D01*
X028841Y020388D02*
X028660Y020388D01*
X028663Y020290D02*
X028882Y020290D01*
X028980Y020191D02*
X028663Y020191D01*
X028737Y020093D02*
X029079Y020093D01*
X028945Y019896D02*
X029666Y019896D01*
X029666Y019994D02*
X028847Y019994D01*
X029044Y019797D02*
X029666Y019797D01*
X029666Y019699D02*
X029142Y019699D01*
X029183Y019600D02*
X029666Y019600D01*
X029685Y019502D02*
X029210Y019502D01*
X029210Y019403D02*
X029730Y019403D01*
X029835Y019305D02*
X029210Y019305D01*
X029210Y019206D02*
X030741Y019206D01*
X030741Y019108D02*
X029274Y019108D01*
X029351Y019009D02*
X029448Y019009D01*
X029448Y018911D02*
X029351Y018911D01*
X029351Y018812D02*
X029448Y018812D01*
X029448Y018714D02*
X030958Y018714D01*
X030859Y018812D02*
X029766Y018812D01*
X029766Y018911D02*
X030761Y018911D01*
X030741Y019009D02*
X029751Y019009D01*
X029766Y018615D02*
X031520Y018615D01*
X031520Y018517D02*
X029762Y018517D01*
X029687Y018418D02*
X031520Y018418D01*
X031520Y018320D02*
X029269Y018320D01*
X029351Y018418D02*
X029448Y018418D01*
X029448Y018517D02*
X029351Y018517D01*
X029351Y018615D02*
X029448Y018615D01*
X029448Y018221D02*
X029351Y018221D01*
X029351Y018123D02*
X029448Y018123D01*
X029448Y018024D02*
X029351Y018024D01*
X029448Y017926D02*
X031520Y017926D01*
X031520Y018024D02*
X029766Y018024D01*
X029766Y018123D02*
X031520Y018123D01*
X031520Y018221D02*
X029745Y018221D01*
X029766Y017827D02*
X031520Y017827D01*
X031520Y017729D02*
X029766Y017729D01*
X030122Y017630D02*
X031520Y017630D01*
X031531Y017532D02*
X030221Y017532D01*
X030319Y017433D02*
X031572Y017433D01*
X031648Y017335D02*
X030389Y017335D01*
X030389Y017236D02*
X031746Y017236D01*
X031845Y017138D02*
X030389Y017138D01*
X030389Y017039D02*
X031943Y017039D01*
X032042Y016941D02*
X030389Y016941D01*
X030301Y016842D02*
X032140Y016842D01*
X032239Y016744D02*
X030202Y016744D01*
X030104Y016645D02*
X032337Y016645D01*
X032436Y016547D02*
X028406Y016547D01*
X028449Y016448D02*
X032534Y016448D01*
X032633Y016350D02*
X028548Y016350D01*
X028646Y016251D02*
X032731Y016251D01*
X032830Y016153D02*
X028745Y016153D01*
X028843Y016054D02*
X032928Y016054D01*
X033027Y015956D02*
X028942Y015956D01*
X029040Y015857D02*
X032934Y015857D01*
X032836Y015759D02*
X029139Y015759D01*
X029237Y015660D02*
X032741Y015660D01*
X032741Y015562D02*
X029336Y015562D01*
X029434Y015463D02*
X032741Y015463D01*
X032741Y015365D02*
X029533Y015365D01*
X029631Y015266D02*
X032741Y015266D01*
X032804Y015168D02*
X029683Y015168D01*
X029717Y015069D02*
X032902Y015069D01*
X033001Y014971D02*
X029717Y014971D01*
X029717Y014872D02*
X033120Y014872D01*
X033120Y014774D02*
X029717Y014774D01*
X029717Y014675D02*
X033120Y014675D01*
X033120Y014577D02*
X030876Y014577D01*
X030863Y014582D02*
X030547Y014582D01*
X030255Y014461D01*
X030031Y014237D01*
X029910Y013945D01*
X029910Y013629D01*
X030031Y013337D01*
X030255Y013113D01*
X030547Y012992D01*
X030863Y012992D01*
X031155Y013113D01*
X031379Y013337D01*
X031500Y013629D01*
X031500Y013945D01*
X031379Y014237D01*
X031155Y014461D01*
X030863Y014582D01*
X031114Y014478D02*
X033120Y014478D01*
X033120Y014380D02*
X031237Y014380D01*
X031335Y014281D02*
X033120Y014281D01*
X033120Y014183D02*
X031402Y014183D01*
X031442Y014084D02*
X033120Y014084D01*
X033120Y013986D02*
X031483Y013986D01*
X031500Y013887D02*
X033120Y013887D01*
X033120Y013789D02*
X031500Y013789D01*
X031500Y013690D02*
X033120Y013690D01*
X033120Y013592D02*
X031484Y013592D01*
X031444Y013493D02*
X033120Y013493D01*
X033120Y013395D02*
X031403Y013395D01*
X031338Y013296D02*
X033120Y013296D01*
X033120Y013198D02*
X031240Y013198D01*
X031121Y013099D02*
X033120Y013099D01*
X033120Y013001D02*
X030884Y013001D01*
X030526Y013001D02*
X029717Y013001D01*
X029717Y013099D02*
X030289Y013099D01*
X030170Y013198D02*
X029717Y013198D01*
X029717Y013296D02*
X030072Y013296D01*
X030007Y013395D02*
X029717Y013395D01*
X029717Y013493D02*
X029966Y013493D01*
X029925Y013592D02*
X029717Y013592D01*
X029717Y013690D02*
X029910Y013690D01*
X029910Y013789D02*
X029717Y013789D01*
X029717Y013887D02*
X029910Y013887D01*
X029927Y013986D02*
X029717Y013986D01*
X029717Y014084D02*
X029968Y014084D01*
X030008Y014183D02*
X029717Y014183D01*
X029717Y014281D02*
X030075Y014281D01*
X030173Y014380D02*
X029717Y014380D01*
X029717Y014478D02*
X030296Y014478D01*
X030534Y014577D02*
X029717Y014577D01*
X028827Y014577D02*
X028446Y014577D01*
X028446Y014675D02*
X028827Y014675D01*
X028827Y014774D02*
X028446Y014774D01*
X028446Y014872D02*
X028767Y014872D01*
X028668Y014971D02*
X028446Y014971D01*
X028446Y015069D02*
X028570Y015069D01*
X028471Y015168D02*
X028446Y015168D01*
X028446Y014478D02*
X028827Y014478D01*
X028827Y014380D02*
X028446Y014380D01*
X028412Y014281D02*
X028827Y014281D01*
X028827Y014183D02*
X028371Y014183D01*
X028280Y014084D02*
X028827Y014084D01*
X028827Y013986D02*
X028182Y013986D01*
X028083Y013887D02*
X028827Y013887D01*
X028827Y013789D02*
X027985Y013789D01*
X027886Y013690D02*
X028827Y013690D01*
X028827Y013592D02*
X027788Y013592D01*
X027689Y013493D02*
X028827Y013493D01*
X028827Y013395D02*
X027591Y013395D01*
X027492Y013296D02*
X028827Y013296D01*
X028827Y013198D02*
X027394Y013198D01*
X027295Y013099D02*
X028827Y013099D01*
X028827Y013001D02*
X027197Y013001D01*
X027098Y012902D02*
X028827Y012902D01*
X028827Y012804D02*
X027000Y012804D01*
X026901Y012705D02*
X028827Y012705D01*
X028827Y012607D02*
X026803Y012607D01*
X026704Y012508D02*
X028827Y012508D01*
X028827Y012410D02*
X026606Y012410D01*
X026507Y012311D02*
X028827Y012311D01*
X028827Y012213D02*
X026409Y012213D01*
X026310Y012114D02*
X028827Y012114D01*
X028827Y012016D02*
X026212Y012016D01*
X026113Y011917D02*
X028827Y011917D01*
X028827Y011819D02*
X026015Y011819D01*
X025916Y011720D02*
X028827Y011720D01*
X028827Y011622D02*
X025818Y011622D01*
X025720Y011523D02*
X028827Y011523D01*
X028827Y011425D02*
X021051Y011425D01*
X019996Y012311D02*
X019092Y012311D01*
X019089Y012309D02*
X019124Y012329D01*
X019151Y012357D01*
X019171Y012391D01*
X019181Y012429D01*
X019181Y012694D01*
X018826Y012694D01*
X018826Y012299D01*
X019051Y012299D01*
X019089Y012309D01*
X019176Y012410D02*
X020095Y012410D01*
X020194Y012508D02*
X019181Y012508D01*
X019181Y012607D02*
X020293Y012607D01*
X020392Y012705D02*
X018826Y012705D01*
X018826Y012607D02*
X018726Y012607D01*
X018726Y012508D02*
X018826Y012508D01*
X018826Y012410D02*
X018726Y012410D01*
X018726Y012311D02*
X018826Y012311D01*
X018697Y012114D02*
X019798Y012114D01*
X019699Y012016D02*
X018795Y012016D01*
X018894Y011917D02*
X019600Y011917D01*
X019501Y011819D02*
X018964Y011819D01*
X019005Y011720D02*
X019402Y011720D01*
X019304Y011622D02*
X019030Y011622D01*
X019030Y011523D02*
X019205Y011523D01*
X019106Y011425D02*
X019026Y011425D01*
X018989Y011330D02*
X018985Y011326D01*
X018710Y011031D02*
X018695Y011031D01*
X018611Y010932D02*
X011635Y010932D01*
X011718Y010834D02*
X012363Y010834D01*
X012279Y010735D02*
X011759Y010735D01*
X011762Y010637D02*
X012238Y010637D01*
X012234Y010538D02*
X011762Y010538D01*
X011762Y010440D02*
X012234Y010440D01*
X012234Y010341D02*
X011762Y010341D01*
X011762Y010243D02*
X012234Y010243D01*
X012234Y010144D02*
X011760Y010144D01*
X011720Y010046D02*
X012234Y010046D01*
X012275Y009947D02*
X011645Y009947D01*
X011645Y009849D02*
X012354Y009849D01*
X012258Y009750D02*
X012455Y009750D01*
X011031Y008962D02*
X010284Y008962D01*
X010284Y008864D02*
X011046Y008864D01*
X010947Y008765D02*
X010284Y008765D01*
X010284Y008667D02*
X010849Y008667D01*
X010922Y009061D02*
X010207Y009061D01*
X010109Y009159D02*
X010823Y009159D01*
X010782Y009258D02*
X010010Y009258D01*
X009870Y009356D02*
X010755Y009356D01*
X010755Y009455D02*
X009969Y009455D01*
X010067Y009553D02*
X010755Y009553D01*
X010755Y009652D02*
X010069Y009652D01*
X010069Y009755D02*
X010069Y009895D01*
X009829Y010135D01*
X009689Y010135D01*
X009689Y009755D01*
X010069Y009755D01*
X010069Y009849D02*
X010755Y009849D01*
X010755Y009750D02*
X009689Y009750D01*
X009629Y009750D02*
X006831Y009750D01*
X006831Y009652D02*
X009249Y009652D01*
X009251Y009553D02*
X006831Y009553D01*
X006831Y009455D02*
X009350Y009455D01*
X009448Y009356D02*
X006831Y009356D01*
X006831Y009258D02*
X009308Y009258D01*
X009210Y009159D02*
X006831Y009159D01*
X006831Y009061D02*
X009111Y009061D01*
X009034Y008962D02*
X006831Y008962D01*
X006831Y008864D02*
X009034Y008864D01*
X009034Y008765D02*
X006831Y008765D01*
X006831Y008667D02*
X009034Y008667D01*
X009034Y008568D02*
X006831Y008568D01*
X006831Y008470D02*
X009034Y008470D01*
X009129Y008371D02*
X006831Y008371D01*
X006831Y008273D02*
X009228Y008273D01*
X009326Y008174D02*
X006831Y008174D01*
X006831Y008076D02*
X009520Y008076D01*
X009577Y007977D02*
X006831Y007977D01*
X006831Y007879D02*
X009634Y007879D01*
X009687Y007780D02*
X006831Y007780D01*
X006831Y007682D02*
X009774Y007682D01*
X009689Y007583D02*
X009629Y007583D01*
X009629Y007635D02*
X009489Y007635D01*
X009249Y007395D01*
X009249Y007255D01*
X009629Y007255D01*
X009629Y007635D01*
X009629Y007485D02*
X009689Y007485D01*
X009689Y007386D02*
X009629Y007386D01*
X009629Y007288D02*
X009689Y007288D01*
X009979Y007485D02*
X010192Y007485D01*
X010069Y007386D02*
X012235Y007386D01*
X012235Y007485D02*
X011539Y007485D01*
X011675Y007583D02*
X012235Y007583D01*
X012235Y007682D02*
X011734Y007682D01*
X011762Y007780D02*
X012235Y007780D01*
X012235Y007879D02*
X011762Y007879D01*
X011762Y007977D02*
X012274Y007977D01*
X012349Y008076D02*
X011762Y008076D01*
X012351Y008174D02*
X012352Y008174D01*
X012242Y007288D02*
X010069Y007288D01*
X010069Y007189D02*
X012283Y007189D01*
X012371Y007091D02*
X010069Y007091D01*
X010006Y006992D02*
X017876Y006992D01*
X017876Y006894D02*
X009908Y006894D01*
X009973Y006795D02*
X010928Y006795D01*
X010829Y006697D02*
X010071Y006697D01*
X010170Y006598D02*
X010731Y006598D01*
X010684Y006500D02*
X010268Y006500D01*
X010284Y006401D02*
X010684Y006401D01*
X010684Y006303D02*
X010284Y006303D01*
X010284Y006204D02*
X010684Y006204D01*
X011660Y006007D02*
X017876Y006007D01*
X017876Y005909D02*
X011728Y005909D01*
X011762Y005810D02*
X017876Y005810D01*
X017876Y005712D02*
X011762Y005712D01*
X011762Y005613D02*
X017876Y005613D01*
X017876Y005515D02*
X011762Y005515D01*
X011762Y005416D02*
X017876Y005416D01*
X017876Y005318D02*
X011762Y005318D01*
X011750Y005219D02*
X017876Y005219D01*
X017876Y005121D02*
X011709Y005121D01*
X011614Y005022D02*
X017876Y005022D01*
X017876Y004941D02*
X017886Y004903D01*
X017906Y004869D01*
X017934Y004841D01*
X017968Y004821D01*
X018006Y004811D01*
X019039Y004811D01*
X019039Y006131D01*
X019139Y006131D01*
X019139Y004811D01*
X020172Y004811D01*
X020210Y004821D01*
X020244Y004841D01*
X020272Y004869D01*
X020292Y004903D01*
X020302Y004941D01*
X020302Y006131D01*
X019139Y006131D01*
X019139Y006231D01*
X020302Y006231D01*
X020302Y007422D01*
X020292Y007460D01*
X020272Y007494D01*
X020244Y007522D01*
X020210Y007542D01*
X020172Y007552D01*
X019139Y007552D01*
X019139Y006231D01*
X019039Y006231D01*
X019039Y006131D01*
X017876Y006131D01*
X017876Y004941D01*
X017881Y004924D02*
X006831Y004924D01*
X006831Y005022D02*
X010117Y005022D01*
X010008Y005121D02*
X006831Y005121D01*
X006831Y005219D02*
X009860Y005219D01*
X009786Y005318D02*
X006831Y005318D01*
X006831Y005416D02*
X009712Y005416D01*
X009637Y005515D02*
X006831Y005515D01*
X006831Y005613D02*
X009387Y005613D01*
X009289Y005712D02*
X006831Y005712D01*
X006831Y005810D02*
X009190Y005810D01*
X009092Y005909D02*
X006831Y005909D01*
X006831Y006007D02*
X009034Y006007D01*
X009034Y006106D02*
X006831Y006106D01*
X006831Y006204D02*
X009034Y006204D01*
X009034Y006303D02*
X006831Y006303D01*
X006831Y006401D02*
X009034Y006401D01*
X009050Y006500D02*
X006831Y006500D01*
X006831Y006598D02*
X009149Y006598D01*
X009247Y006697D02*
X006831Y006697D01*
X006831Y006795D02*
X009346Y006795D01*
X009411Y006894D02*
X006831Y006894D01*
X006831Y006992D02*
X009312Y006992D01*
X009249Y007091D02*
X006831Y007091D01*
X006831Y007189D02*
X009249Y007189D01*
X009249Y007288D02*
X006831Y007288D01*
X006831Y007386D02*
X009249Y007386D01*
X009339Y007485D02*
X006831Y007485D01*
X006831Y007583D02*
X009438Y007583D01*
X009881Y007583D02*
X009960Y007583D01*
X011487Y006795D02*
X017876Y006795D01*
X017876Y006697D02*
X011586Y006697D01*
X011684Y006598D02*
X017876Y006598D01*
X017876Y006500D02*
X011731Y006500D01*
X011731Y006401D02*
X017876Y006401D01*
X017876Y006303D02*
X011731Y006303D01*
X011731Y006204D02*
X019039Y006204D01*
X019039Y006231D02*
X017876Y006231D01*
X017876Y007422D01*
X017886Y007460D01*
X017906Y007494D01*
X017934Y007522D01*
X017968Y007542D01*
X018006Y007552D01*
X019039Y007552D01*
X019039Y006231D01*
X019039Y006303D02*
X019139Y006303D01*
X019139Y006401D02*
X019039Y006401D01*
X019039Y006500D02*
X019139Y006500D01*
X019139Y006598D02*
X019039Y006598D01*
X019039Y006697D02*
X019139Y006697D01*
X019139Y006795D02*
X019039Y006795D01*
X019039Y006894D02*
X019139Y006894D01*
X019139Y006992D02*
X019039Y006992D01*
X019039Y007091D02*
X019139Y007091D01*
X019139Y007189D02*
X019039Y007189D01*
X019039Y007288D02*
X019139Y007288D01*
X019139Y007386D02*
X019039Y007386D01*
X019039Y007485D02*
X019139Y007485D01*
X020278Y007485D02*
X022616Y007485D01*
X022616Y007583D02*
X015406Y007583D01*
X015448Y007682D02*
X022616Y007682D01*
X022616Y007780D02*
X015476Y007780D01*
X015476Y007879D02*
X015630Y007879D01*
X015616Y007892D02*
X015644Y007864D01*
X015679Y007844D01*
X015717Y007834D01*
X015982Y007834D01*
X015982Y008190D01*
X015586Y008190D01*
X015586Y007964D01*
X015597Y007926D01*
X015616Y007892D01*
X015586Y007977D02*
X015476Y007977D01*
X015476Y008076D02*
X015586Y008076D01*
X015586Y008174D02*
X015476Y008174D01*
X015476Y008273D02*
X015982Y008273D01*
X015982Y008174D02*
X016082Y008174D01*
X016082Y008190D02*
X016082Y007834D01*
X016347Y007834D01*
X016385Y007844D01*
X016419Y007864D01*
X016447Y007892D01*
X016467Y007926D01*
X016477Y007964D01*
X016477Y008190D01*
X016082Y008190D01*
X016082Y008273D02*
X016982Y008273D01*
X016982Y008190D02*
X016586Y008190D01*
X016586Y007964D01*
X016597Y007926D01*
X016616Y007892D01*
X016644Y007864D01*
X016679Y007844D01*
X016717Y007834D01*
X016982Y007834D01*
X016982Y008190D01*
X016982Y008174D02*
X017082Y008174D01*
X017082Y008190D02*
X017082Y007834D01*
X017347Y007834D01*
X017385Y007844D01*
X017419Y007864D01*
X017447Y007892D01*
X017467Y007926D01*
X017477Y007964D01*
X017477Y008190D01*
X017082Y008190D01*
X017082Y008273D02*
X020982Y008273D01*
X020982Y008190D02*
X020586Y008190D01*
X020586Y007964D01*
X020597Y007926D01*
X020616Y007892D01*
X020644Y007864D01*
X020679Y007844D01*
X020717Y007834D01*
X020982Y007834D01*
X020982Y008190D01*
X020982Y008174D02*
X021082Y008174D01*
X021082Y008190D02*
X021082Y007834D01*
X021347Y007834D01*
X021385Y007844D01*
X021419Y007864D01*
X021447Y007892D01*
X021467Y007926D01*
X021477Y007964D01*
X021477Y008190D01*
X021082Y008190D01*
X021082Y008273D02*
X022616Y008273D01*
X022616Y008371D02*
X021477Y008371D01*
X021581Y008470D02*
X022616Y008470D01*
X022616Y008568D02*
X021654Y008568D01*
X021692Y008667D02*
X022616Y008667D01*
X022616Y008765D02*
X021692Y008765D01*
X021692Y008864D02*
X022616Y008864D01*
X022616Y008962D02*
X021692Y008962D01*
X021692Y009061D02*
X022616Y009061D01*
X022616Y009159D02*
X021692Y009159D01*
X021692Y009258D02*
X022616Y009258D01*
X022616Y009356D02*
X021676Y009356D01*
X021632Y009455D02*
X022616Y009455D01*
X022616Y009553D02*
X021619Y009553D01*
X021619Y009652D02*
X022616Y009652D01*
X022578Y009750D02*
X021619Y009750D01*
X021619Y009849D02*
X022480Y009849D01*
X022381Y009947D02*
X021619Y009947D01*
X021619Y010046D02*
X022283Y010046D01*
X023530Y010538D02*
X028827Y010538D01*
X028827Y010440D02*
X023628Y010440D01*
X023727Y010341D02*
X028827Y010341D01*
X028827Y010243D02*
X023782Y010243D01*
X023823Y010144D02*
X028827Y010144D01*
X028827Y010046D02*
X023846Y010046D01*
X023846Y009947D02*
X028827Y009947D01*
X028827Y009849D02*
X023846Y009849D01*
X023846Y009750D02*
X028827Y009750D01*
X028827Y009652D02*
X023846Y009652D01*
X023846Y009553D02*
X028827Y009553D01*
X028827Y009455D02*
X023846Y009455D01*
X023846Y009356D02*
X028827Y009356D01*
X028827Y009258D02*
X023846Y009258D01*
X023846Y009159D02*
X028827Y009159D01*
X028827Y009061D02*
X023846Y009061D01*
X023846Y008962D02*
X028827Y008962D01*
X028827Y008864D02*
X023846Y008864D01*
X023846Y008765D02*
X028827Y008765D01*
X028827Y008667D02*
X023846Y008667D01*
X023846Y008568D02*
X028827Y008568D01*
X028827Y008470D02*
X023846Y008470D01*
X023846Y008371D02*
X028827Y008371D01*
X028827Y008273D02*
X023846Y008273D01*
X023846Y008174D02*
X028827Y008174D01*
X028827Y008076D02*
X023846Y008076D01*
X023846Y007977D02*
X028827Y007977D01*
X028827Y007879D02*
X023846Y007879D01*
X023846Y007780D02*
X028827Y007780D01*
X028827Y007682D02*
X023846Y007682D01*
X023846Y007583D02*
X028827Y007583D01*
X028827Y007485D02*
X023846Y007485D01*
X023846Y007386D02*
X028827Y007386D01*
X028827Y007288D02*
X023846Y007288D01*
X023846Y007189D02*
X028827Y007189D01*
X028827Y007091D02*
X023846Y007091D01*
X023846Y006992D02*
X028827Y006992D01*
X028827Y006894D02*
X023846Y006894D01*
X023861Y006795D02*
X028827Y006795D01*
X028830Y006697D02*
X023924Y006697D01*
X023964Y006598D02*
X028871Y006598D01*
X028936Y006500D02*
X024005Y006500D01*
X024020Y006401D02*
X029035Y006401D01*
X029133Y006303D02*
X024020Y006303D01*
X024020Y006204D02*
X029232Y006204D01*
X029330Y006106D02*
X024002Y006106D01*
X023961Y006007D02*
X029429Y006007D01*
X029441Y005995D02*
X029441Y005995D01*
X029527Y005909D02*
X023920Y005909D01*
X023852Y005810D02*
X029710Y005810D01*
X030176Y005712D02*
X023754Y005712D01*
X023627Y005613D02*
X030302Y005613D01*
X030540Y005515D02*
X023390Y005515D01*
X023060Y005515D02*
X020302Y005515D01*
X020302Y005613D02*
X022822Y005613D01*
X022696Y005712D02*
X020302Y005712D01*
X020302Y005810D02*
X022597Y005810D01*
X022529Y005909D02*
X020302Y005909D01*
X020302Y006007D02*
X022488Y006007D01*
X022448Y006106D02*
X020302Y006106D01*
X020302Y006303D02*
X022430Y006303D01*
X022430Y006401D02*
X020302Y006401D01*
X020302Y006500D02*
X022444Y006500D01*
X022485Y006598D02*
X020302Y006598D01*
X020302Y006697D02*
X022526Y006697D01*
X022589Y006795D02*
X020302Y006795D01*
X020302Y006894D02*
X022616Y006894D01*
X022616Y006992D02*
X020302Y006992D01*
X020302Y007091D02*
X022616Y007091D01*
X022616Y007189D02*
X020302Y007189D01*
X020302Y007288D02*
X022616Y007288D01*
X022616Y007386D02*
X020302Y007386D01*
X020630Y007879D02*
X017434Y007879D01*
X017477Y007977D02*
X020586Y007977D01*
X020586Y008076D02*
X017477Y008076D01*
X017477Y008174D02*
X020586Y008174D01*
X020586Y008371D02*
X017477Y008371D01*
X017581Y008470D02*
X017750Y008470D01*
X018634Y008470D02*
X019545Y008470D01*
X019466Y008568D02*
X018712Y008568D01*
X018753Y008667D02*
X019426Y008667D01*
X019425Y008765D02*
X018753Y008765D01*
X018778Y008864D02*
X019425Y008864D01*
X019425Y008962D02*
X018807Y008962D01*
X018807Y009061D02*
X019425Y009061D01*
X019425Y009159D02*
X018807Y009159D01*
X018859Y009258D02*
X019425Y009258D01*
X019425Y009356D02*
X018984Y009356D01*
X017809Y010046D02*
X015489Y010046D01*
X015489Y010144D02*
X017850Y010144D01*
X017919Y010243D02*
X015489Y010243D01*
X015411Y010341D02*
X018018Y010341D01*
X018117Y010440D02*
X015313Y010440D01*
X015214Y010538D02*
X018216Y010538D01*
X018315Y010637D02*
X015004Y010637D01*
X014875Y010735D02*
X018413Y010735D01*
X018512Y010834D02*
X013897Y010834D01*
X011995Y011720D02*
X017525Y011720D01*
X017485Y011819D02*
X012036Y011819D01*
X012077Y011917D02*
X017463Y011917D01*
X017463Y012016D02*
X012080Y012016D01*
X012379Y012114D02*
X012479Y012114D01*
X012479Y012213D02*
X012379Y012213D01*
X012379Y012311D02*
X012479Y012311D01*
X012479Y012410D02*
X012379Y012410D01*
X012875Y012410D02*
X012936Y012410D01*
X012875Y012311D02*
X017202Y012311D01*
X017103Y012410D02*
X013540Y012410D01*
X012875Y012213D02*
X017378Y012213D01*
X017463Y012114D02*
X012819Y012114D01*
X011909Y011622D02*
X017591Y011622D01*
X017690Y011523D02*
X011807Y011523D01*
X011122Y011523D02*
X010245Y011523D01*
X010284Y011425D02*
X017788Y011425D01*
X017887Y011326D02*
X010284Y011326D01*
X010320Y011228D02*
X017985Y011228D01*
X018084Y011129D02*
X010429Y011129D01*
X010538Y011031D02*
X018235Y011031D01*
X017724Y009947D02*
X015489Y009947D01*
X015489Y009849D02*
X017678Y009849D01*
X017633Y009750D02*
X015410Y009750D01*
X015410Y009652D02*
X017592Y009652D01*
X015530Y009553D02*
X015410Y009553D01*
X015410Y009455D02*
X015431Y009455D01*
X015476Y008470D02*
X015483Y008470D01*
X015476Y008371D02*
X015586Y008371D01*
X015982Y008076D02*
X016082Y008076D01*
X016082Y007977D02*
X015982Y007977D01*
X015982Y007879D02*
X016082Y007879D01*
X016434Y007879D02*
X016630Y007879D01*
X016586Y007977D02*
X016477Y007977D01*
X016477Y008076D02*
X016586Y008076D01*
X016586Y008174D02*
X016477Y008174D01*
X016477Y008371D02*
X016586Y008371D01*
X016982Y008076D02*
X017082Y008076D01*
X017082Y007977D02*
X016982Y007977D01*
X016982Y007879D02*
X017082Y007879D01*
X017901Y007485D02*
X015308Y007485D01*
X015209Y007386D02*
X017876Y007386D01*
X017876Y007288D02*
X015111Y007288D01*
X014973Y007189D02*
X017876Y007189D01*
X017876Y007091D02*
X013893Y007091D01*
X011719Y006106D02*
X017876Y006106D01*
X019039Y006106D02*
X019139Y006106D01*
X019139Y006204D02*
X022430Y006204D01*
X020302Y005416D02*
X041630Y005416D01*
X041697Y005318D02*
X020302Y005318D01*
X020302Y005219D02*
X041852Y005219D01*
X041558Y005515D02*
X041461Y005515D01*
X041461Y005613D02*
X041558Y005613D01*
X041558Y005712D02*
X041461Y005712D01*
X041461Y005810D02*
X031333Y005810D01*
X031234Y005712D02*
X041143Y005712D01*
X041143Y005613D02*
X031108Y005613D01*
X030870Y005515D02*
X041152Y005515D01*
X041143Y005909D02*
X035026Y005909D01*
X035154Y006007D02*
X041150Y006007D01*
X041023Y006106D02*
X035253Y006106D01*
X035351Y006204D02*
X040965Y006204D01*
X040939Y006303D02*
X035450Y006303D01*
X035548Y006401D02*
X040939Y006401D01*
X040939Y006500D02*
X035647Y006500D01*
X035745Y006598D02*
X040939Y006598D01*
X040939Y006697D02*
X037644Y006697D01*
X037742Y006795D02*
X040939Y006795D01*
X040958Y006894D02*
X037841Y006894D01*
X037939Y006992D02*
X040947Y006992D01*
X040931Y007091D02*
X038038Y007091D01*
X038136Y007189D02*
X040931Y007189D01*
X040931Y007288D02*
X038235Y007288D01*
X038333Y007386D02*
X040931Y007386D01*
X040931Y007485D02*
X038432Y007485D01*
X038530Y007583D02*
X040936Y007583D01*
X040977Y007682D02*
X038578Y007682D01*
X038610Y007780D02*
X041028Y007780D01*
X039882Y007879D02*
X038610Y007879D01*
X038610Y007977D02*
X039782Y007977D01*
X039683Y008076D02*
X038610Y008076D01*
X038642Y008174D02*
X039585Y008174D01*
X039486Y008273D02*
X038683Y008273D01*
X038695Y008371D02*
X039388Y008371D01*
X039289Y008470D02*
X038695Y008470D01*
X038695Y008568D02*
X039233Y008568D01*
X039196Y008667D02*
X038695Y008667D01*
X038695Y008765D02*
X039196Y008765D01*
X039196Y008864D02*
X038686Y008864D01*
X038645Y008962D02*
X039196Y008962D01*
X039196Y009061D02*
X038555Y009061D01*
X038485Y009356D02*
X037567Y009356D01*
X037735Y009455D02*
X038369Y009455D01*
X038258Y009553D02*
X038161Y009553D01*
X038161Y009652D02*
X038258Y009652D01*
X038258Y009750D02*
X038161Y009750D01*
X038161Y009849D02*
X037843Y009849D01*
X037843Y009652D02*
X037845Y009652D01*
X037806Y009553D02*
X037909Y009553D01*
X036996Y009356D02*
X035944Y009356D01*
X035944Y009455D02*
X036828Y009455D01*
X036756Y009553D02*
X035944Y009553D01*
X035924Y009652D02*
X036278Y009652D01*
X036265Y009750D02*
X035924Y009750D01*
X035902Y009849D02*
X036265Y009849D01*
X036265Y010046D02*
X035924Y010046D01*
X035924Y010144D02*
X036265Y010144D01*
X036298Y010243D02*
X035924Y010243D01*
X035924Y010341D02*
X036770Y010341D01*
X036720Y010440D02*
X035924Y010440D01*
X035883Y010538D02*
X036679Y010538D01*
X036675Y010637D02*
X035805Y010637D01*
X035673Y010735D02*
X036675Y010735D01*
X036675Y010834D02*
X035673Y010834D01*
X035673Y010932D02*
X036675Y010932D01*
X036675Y011031D02*
X036089Y011031D01*
X036188Y011129D02*
X036677Y011129D01*
X036718Y011228D02*
X036286Y011228D01*
X036385Y011326D02*
X036797Y011326D01*
X036743Y011425D02*
X036389Y011425D01*
X036389Y011523D02*
X036695Y011523D01*
X036675Y011622D02*
X036389Y011622D01*
X036389Y011720D02*
X036675Y011720D01*
X036675Y011819D02*
X036334Y011819D01*
X034795Y012738D02*
X034707Y012738D01*
X034669Y012728D01*
X034635Y012708D01*
X034607Y012680D01*
X034605Y012677D01*
X034520Y012642D01*
X034417Y012539D01*
X034373Y012433D01*
X034310Y012433D01*
X034310Y014561D01*
X034348Y014523D01*
X034457Y014523D01*
X034460Y014522D01*
X034460Y014358D01*
X034513Y014230D01*
X034513Y014192D01*
X034569Y014057D01*
X034671Y013955D01*
X034709Y013939D01*
X034709Y013832D01*
X035027Y013832D01*
X035027Y013735D01*
X034709Y013735D01*
X034709Y013567D01*
X034720Y013529D01*
X034739Y013495D01*
X034767Y013467D01*
X034801Y013447D01*
X034840Y013437D01*
X035027Y013437D01*
X035027Y013735D01*
X035124Y013735D01*
X035124Y013437D01*
X035196Y013437D01*
X035199Y013430D01*
X035194Y013419D01*
X035123Y013419D01*
X035123Y013121D01*
X035026Y013121D01*
X035026Y013419D01*
X034838Y013419D01*
X034800Y013409D01*
X034765Y013389D01*
X034738Y013361D01*
X034718Y013327D01*
X034708Y013289D01*
X034708Y013121D01*
X035026Y013121D01*
X035026Y013024D01*
X034708Y013024D01*
X034708Y012856D01*
X034718Y012818D01*
X034738Y012783D01*
X034765Y012756D01*
X034795Y012738D01*
X034726Y012804D02*
X034310Y012804D01*
X034310Y012902D02*
X034708Y012902D01*
X034708Y013001D02*
X034310Y013001D01*
X034310Y013099D02*
X035026Y013099D01*
X035026Y013198D02*
X035123Y013198D01*
X035123Y013296D02*
X035026Y013296D01*
X035026Y013395D02*
X035123Y013395D01*
X035124Y013493D02*
X035027Y013493D01*
X035027Y013592D02*
X035124Y013592D01*
X035124Y013690D02*
X035027Y013690D01*
X035027Y013789D02*
X034310Y013789D01*
X034310Y013887D02*
X034709Y013887D01*
X034640Y013986D02*
X034310Y013986D01*
X034310Y014084D02*
X034557Y014084D01*
X034517Y014183D02*
X034310Y014183D01*
X034310Y014281D02*
X034492Y014281D01*
X034460Y014380D02*
X034310Y014380D01*
X034310Y014478D02*
X034460Y014478D01*
X034310Y013690D02*
X034709Y013690D01*
X034709Y013592D02*
X034310Y013592D01*
X034310Y013493D02*
X034741Y013493D01*
X034775Y013395D02*
X034310Y013395D01*
X034310Y013296D02*
X034709Y013296D01*
X034708Y013198D02*
X034310Y013198D01*
X034310Y012705D02*
X034631Y012705D01*
X034485Y012607D02*
X034310Y012607D01*
X034310Y012508D02*
X034405Y012508D01*
X033264Y011819D02*
X029717Y011819D01*
X029717Y011917D02*
X033178Y011917D01*
X033138Y012016D02*
X029717Y012016D01*
X029717Y012114D02*
X033120Y012114D01*
X033120Y012213D02*
X029717Y012213D01*
X029717Y012311D02*
X033120Y012311D01*
X033120Y012410D02*
X029717Y012410D01*
X029717Y012508D02*
X033120Y012508D01*
X033120Y012607D02*
X029717Y012607D01*
X029717Y012705D02*
X033120Y012705D01*
X033120Y012804D02*
X029717Y012804D01*
X029717Y012902D02*
X033120Y012902D01*
X033362Y011720D02*
X029717Y011720D01*
X029717Y011622D02*
X033444Y011622D01*
X033200Y011523D02*
X029717Y011523D01*
X029717Y011425D02*
X033102Y011425D01*
X033003Y011326D02*
X029717Y011326D01*
X029717Y011228D02*
X032941Y011228D01*
X032941Y011129D02*
X029717Y011129D01*
X029717Y011031D02*
X032941Y011031D01*
X032941Y010932D02*
X029717Y010932D01*
X029717Y010834D02*
X032941Y010834D01*
X033036Y010735D02*
X029717Y010735D01*
X029717Y010637D02*
X033135Y010637D01*
X033233Y010538D02*
X031016Y010538D01*
X031009Y010543D02*
X030928Y010584D01*
X030841Y010613D01*
X030753Y010626D01*
X030753Y010095D01*
X030657Y010095D01*
X030657Y010626D01*
X030569Y010613D01*
X030482Y010584D01*
X030401Y010543D01*
X030327Y010489D01*
X030263Y010425D01*
X030209Y010351D01*
X030167Y010269D01*
X030139Y010183D01*
X030125Y010095D01*
X030657Y010095D01*
X030657Y009998D01*
X030753Y009998D01*
X030753Y009467D01*
X030841Y009481D01*
X030928Y009509D01*
X031009Y009551D01*
X031083Y009604D01*
X031147Y009669D01*
X031201Y009743D01*
X031242Y009824D01*
X031271Y009911D01*
X031285Y009998D01*
X030753Y009998D01*
X030753Y010095D01*
X031285Y010095D01*
X031271Y010183D01*
X031242Y010269D01*
X031201Y010351D01*
X031147Y010425D01*
X031083Y010489D01*
X031009Y010543D01*
X031133Y010440D02*
X033372Y010440D01*
X033352Y010341D02*
X031206Y010341D01*
X031251Y010243D02*
X033352Y010243D01*
X033372Y010144D02*
X031277Y010144D01*
X031276Y009947D02*
X033372Y009947D01*
X033372Y010046D02*
X030753Y010046D01*
X030657Y010046D02*
X029717Y010046D01*
X029717Y010144D02*
X030133Y010144D01*
X030159Y010243D02*
X029717Y010243D01*
X029717Y010341D02*
X030204Y010341D01*
X030277Y010440D02*
X029717Y010440D01*
X029717Y010538D02*
X030394Y010538D01*
X030657Y010538D02*
X030753Y010538D01*
X030753Y010440D02*
X030657Y010440D01*
X030657Y010341D02*
X030753Y010341D01*
X030753Y010243D02*
X030657Y010243D01*
X030657Y010144D02*
X030753Y010144D01*
X030657Y009998D02*
X030125Y009998D01*
X030139Y009911D01*
X030167Y009824D01*
X030209Y009743D01*
X030263Y009669D01*
X030327Y009604D01*
X030401Y009551D01*
X030482Y009509D01*
X030569Y009481D01*
X030657Y009467D01*
X030657Y009998D01*
X030657Y009947D02*
X030753Y009947D01*
X030753Y009849D02*
X030657Y009849D01*
X030657Y009750D02*
X030753Y009750D01*
X030753Y009652D02*
X030657Y009652D01*
X030657Y009553D02*
X030753Y009553D01*
X031012Y009553D02*
X033587Y009553D01*
X033513Y009652D02*
X031130Y009652D01*
X031205Y009750D02*
X033422Y009750D01*
X033381Y009849D02*
X031250Y009849D01*
X030398Y009553D02*
X029717Y009553D01*
X029717Y009455D02*
X033886Y009455D01*
X033983Y009455D02*
X034589Y009455D01*
X034589Y009356D02*
X034686Y009356D01*
X034686Y009258D02*
X034589Y009258D01*
X034589Y009159D02*
X034686Y009159D01*
X034853Y009061D02*
X029717Y009061D01*
X029717Y009159D02*
X033640Y009159D01*
X033587Y009258D02*
X029717Y009258D01*
X029717Y009356D02*
X033587Y009356D01*
X033886Y009356D02*
X033983Y009356D01*
X033983Y009258D02*
X033886Y009258D01*
X033886Y009159D02*
X033983Y009159D01*
X034228Y009159D02*
X034345Y009159D01*
X034291Y009258D02*
X034281Y009258D01*
X034281Y009356D02*
X034291Y009356D01*
X034281Y009553D02*
X034291Y009553D01*
X034854Y008962D02*
X029717Y008962D01*
X029717Y008864D02*
X034871Y008864D01*
X034912Y008765D02*
X029717Y008765D01*
X029717Y008667D02*
X034978Y008667D01*
X035076Y008568D02*
X029717Y008568D01*
X029717Y008470D02*
X035175Y008470D01*
X035230Y008371D02*
X029717Y008371D01*
X029717Y008273D02*
X035318Y008273D01*
X035445Y008174D02*
X029717Y008174D01*
X029717Y008076D02*
X036524Y008076D01*
X036444Y008174D02*
X035984Y008174D01*
X036112Y008273D02*
X036403Y008273D01*
X036402Y008371D02*
X036200Y008371D01*
X036240Y008470D02*
X036402Y008470D01*
X036402Y008568D02*
X036278Y008568D01*
X036278Y008667D02*
X036402Y008667D01*
X036402Y008765D02*
X036278Y008765D01*
X036245Y008864D02*
X036421Y008864D01*
X036468Y008962D02*
X036204Y008962D01*
X036122Y009061D02*
X036575Y009061D01*
X036010Y009159D02*
X039196Y009159D01*
X039196Y009258D02*
X035924Y009258D01*
X036564Y009652D02*
X036661Y009652D01*
X036661Y009750D02*
X036564Y009750D01*
X036564Y009849D02*
X036661Y009849D01*
X036564Y009947D02*
X035924Y009947D01*
X036564Y010046D02*
X036661Y010046D01*
X036661Y010144D02*
X036564Y010144D01*
X036564Y010243D02*
X036661Y010243D01*
X038828Y011256D02*
X038828Y011555D01*
X038823Y011555D01*
X038928Y011663D01*
X039143Y011663D01*
X039277Y011719D01*
X039380Y011822D01*
X039431Y011944D01*
X039560Y011890D01*
X039951Y011890D01*
X039951Y011612D01*
X039752Y011612D01*
X039653Y011571D01*
X039648Y011571D01*
X039644Y011567D01*
X039545Y011526D01*
X039386Y011367D01*
X039345Y011267D01*
X039341Y011264D01*
X039341Y011259D01*
X039300Y011159D01*
X039300Y011040D01*
X039279Y011062D01*
X039243Y011076D01*
X039243Y011160D01*
X038925Y011160D01*
X038925Y011256D01*
X039243Y011256D01*
X039243Y011425D01*
X039233Y011463D01*
X039213Y011497D01*
X039185Y011525D01*
X039151Y011545D01*
X039113Y011555D01*
X038925Y011555D01*
X038925Y011256D01*
X038828Y011256D01*
X038828Y011326D02*
X038925Y011326D01*
X038925Y011228D02*
X039328Y011228D01*
X039300Y011129D02*
X039243Y011129D01*
X039243Y011326D02*
X039369Y011326D01*
X039444Y011425D02*
X039243Y011425D01*
X039187Y011523D02*
X039542Y011523D01*
X039278Y011720D02*
X039951Y011720D01*
X039951Y011622D02*
X038888Y011622D01*
X038925Y011523D02*
X038828Y011523D01*
X038828Y011425D02*
X038925Y011425D01*
X039377Y011819D02*
X039951Y011819D01*
X039495Y011917D02*
X039420Y011917D01*
X039285Y012804D02*
X039221Y012804D01*
X039330Y012902D02*
X038903Y012902D01*
X038903Y013001D02*
X038806Y013001D01*
X038806Y013099D02*
X038903Y013099D01*
X038903Y013198D02*
X038806Y013198D01*
X038710Y013296D02*
X039483Y013296D01*
X039483Y013198D02*
X039177Y013198D01*
X039221Y013099D02*
X039781Y013099D01*
X039878Y013099D02*
X040479Y013099D01*
X040576Y013099D02*
X040980Y013099D01*
X040980Y013198D02*
X040875Y013198D01*
X040875Y013296D02*
X040980Y013296D01*
X040871Y013395D02*
X041379Y013395D01*
X041379Y013493D02*
X041479Y013493D01*
X041479Y013395D02*
X045980Y013395D01*
X045980Y013325D02*
X046379Y013325D01*
X046379Y013225D01*
X045980Y013225D01*
X045980Y012956D01*
X045990Y012918D01*
X046010Y012883D01*
X046038Y012855D01*
X046072Y012836D01*
X046110Y012825D01*
X046379Y012825D01*
X046379Y013225D01*
X046479Y013225D01*
X046479Y012825D01*
X046748Y012825D01*
X046787Y012836D01*
X046821Y012855D01*
X046849Y012883D01*
X046868Y012918D01*
X046879Y012956D01*
X046879Y013225D01*
X046479Y013225D01*
X046479Y013325D01*
X046379Y013325D01*
X046379Y013724D01*
X046110Y013724D01*
X046072Y013714D01*
X046038Y013694D01*
X046010Y013666D01*
X045990Y013632D01*
X045980Y013594D01*
X045980Y013325D01*
X045980Y013198D02*
X041879Y013198D01*
X041879Y013296D02*
X046379Y013296D01*
X046379Y013198D02*
X046479Y013198D01*
X046479Y013296D02*
X049744Y013296D01*
X049744Y013198D02*
X046879Y013198D01*
X046879Y013099D02*
X049744Y013099D01*
X049744Y013001D02*
X046879Y013001D01*
X046859Y012902D02*
X049744Y012902D01*
X049744Y012804D02*
X042070Y012804D01*
X042094Y012705D02*
X046057Y012705D01*
X046072Y012714D02*
X046038Y012694D01*
X046010Y012666D01*
X045990Y012632D01*
X045980Y012594D01*
X045980Y012325D01*
X046379Y012325D01*
X046379Y012225D01*
X045980Y012225D01*
X045980Y011956D01*
X045990Y011918D01*
X046010Y011883D01*
X046038Y011855D01*
X046072Y011836D01*
X046110Y011825D01*
X046379Y011825D01*
X046379Y012225D01*
X046479Y012225D01*
X046479Y011825D01*
X046748Y011825D01*
X046787Y011836D01*
X046821Y011855D01*
X046849Y011883D01*
X046868Y011918D01*
X046879Y011956D01*
X046879Y012225D01*
X046479Y012225D01*
X046479Y012325D01*
X046379Y012325D01*
X046379Y012724D01*
X046110Y012724D01*
X046072Y012714D01*
X045984Y012607D02*
X042094Y012607D01*
X042094Y012508D02*
X045980Y012508D01*
X045980Y012410D02*
X042094Y012410D01*
X042094Y012311D02*
X046379Y012311D01*
X046379Y012213D02*
X046479Y012213D01*
X046479Y012311D02*
X049744Y012311D01*
X049744Y012213D02*
X046879Y012213D01*
X046879Y012114D02*
X049744Y012114D01*
X049744Y012016D02*
X046879Y012016D01*
X046868Y011917D02*
X049744Y011917D01*
X049744Y011819D02*
X041988Y011819D01*
X042058Y011917D02*
X045991Y011917D01*
X045980Y012016D02*
X042094Y012016D01*
X042094Y012114D02*
X045980Y012114D01*
X045980Y012213D02*
X042094Y012213D01*
X041872Y011720D02*
X046096Y011720D01*
X046110Y011724D02*
X046072Y011714D01*
X046038Y011694D01*
X046010Y011666D01*
X045990Y011632D01*
X045980Y011594D01*
X045980Y011325D01*
X046379Y011325D01*
X046379Y011225D01*
X045980Y011225D01*
X045980Y010956D01*
X045990Y010918D01*
X046010Y010883D01*
X046038Y010855D01*
X046072Y010836D01*
X046110Y010825D01*
X046379Y010825D01*
X046379Y011225D01*
X046479Y011225D01*
X046479Y010825D01*
X046748Y010825D01*
X046787Y010836D01*
X046821Y010855D01*
X046849Y010883D01*
X046868Y010918D01*
X046879Y010956D01*
X046879Y011225D01*
X046479Y011225D01*
X046479Y011325D01*
X046379Y011325D01*
X046379Y011724D01*
X046110Y011724D01*
X045988Y011622D02*
X041879Y011622D01*
X041879Y011523D02*
X045980Y011523D01*
X045980Y011425D02*
X041479Y011425D01*
X041479Y011326D02*
X045980Y011326D01*
X045980Y011129D02*
X041879Y011129D01*
X041879Y011228D02*
X046379Y011228D01*
X046379Y011326D02*
X046479Y011326D01*
X046479Y011325D02*
X046479Y011724D01*
X046748Y011724D01*
X046787Y011714D01*
X046821Y011694D01*
X046849Y011666D01*
X046868Y011632D01*
X046879Y011594D01*
X046879Y011325D01*
X046479Y011325D01*
X046479Y011228D02*
X049744Y011228D01*
X049744Y011326D02*
X046879Y011326D01*
X046879Y011425D02*
X049744Y011425D01*
X049744Y011523D02*
X046879Y011523D01*
X046871Y011622D02*
X049744Y011622D01*
X049744Y011720D02*
X046763Y011720D01*
X046479Y011720D02*
X046379Y011720D01*
X046379Y011622D02*
X046479Y011622D01*
X046479Y011523D02*
X046379Y011523D01*
X046379Y011425D02*
X046479Y011425D01*
X046479Y011129D02*
X046379Y011129D01*
X046379Y011031D02*
X046479Y011031D01*
X046479Y010932D02*
X046379Y010932D01*
X046379Y010834D02*
X046479Y010834D01*
X046479Y010724D02*
X046748Y010724D01*
X046787Y010714D01*
X046821Y010694D01*
X046849Y010666D01*
X046868Y010632D01*
X046879Y010594D01*
X046879Y010325D01*
X046479Y010325D01*
X046379Y010325D01*
X046379Y010225D01*
X045980Y010225D01*
X045980Y009956D01*
X045990Y009918D01*
X046010Y009883D01*
X046038Y009855D01*
X046072Y009836D01*
X046110Y009825D01*
X046379Y009825D01*
X046379Y010225D01*
X046479Y010225D01*
X046479Y009825D01*
X046748Y009825D01*
X046787Y009836D01*
X046821Y009855D01*
X046849Y009883D01*
X046868Y009918D01*
X046879Y009956D01*
X046879Y010225D01*
X046479Y010225D01*
X046479Y010325D01*
X046479Y010724D01*
X046479Y010637D02*
X046379Y010637D01*
X046379Y010724D02*
X046110Y010724D01*
X046072Y010714D01*
X046038Y010694D01*
X046010Y010666D01*
X045990Y010632D01*
X045980Y010594D01*
X045980Y010325D01*
X046379Y010325D01*
X046379Y010724D01*
X046379Y010538D02*
X046479Y010538D01*
X046479Y010440D02*
X046379Y010440D01*
X046379Y010341D02*
X046479Y010341D01*
X046479Y010243D02*
X049744Y010243D01*
X049744Y010341D02*
X046879Y010341D01*
X046879Y010440D02*
X049744Y010440D01*
X049744Y010538D02*
X046879Y010538D01*
X046866Y010637D02*
X049744Y010637D01*
X049744Y010735D02*
X041867Y010735D01*
X041879Y010637D02*
X045993Y010637D01*
X045980Y010538D02*
X041879Y010538D01*
X041879Y010440D02*
X045980Y010440D01*
X045980Y010341D02*
X041479Y010341D01*
X041479Y010243D02*
X041379Y010243D01*
X041379Y010144D02*
X041479Y010144D01*
X041479Y010046D02*
X041379Y010046D01*
X041379Y009947D02*
X041479Y009947D01*
X041806Y009947D02*
X045983Y009947D01*
X045980Y010046D02*
X041876Y010046D01*
X041879Y010144D02*
X045980Y010144D01*
X046050Y009849D02*
X044048Y009849D01*
X044169Y009750D02*
X049744Y009750D01*
X049744Y009652D02*
X045957Y009652D01*
X045971Y009644D02*
X045937Y009664D01*
X045898Y009674D01*
X045629Y009674D01*
X045629Y009275D01*
X045529Y009275D01*
X045529Y009175D01*
X045130Y009175D01*
X045130Y008906D01*
X045140Y008868D01*
X045160Y008833D01*
X045188Y008805D01*
X045222Y008786D01*
X045260Y008775D01*
X045529Y008775D01*
X045529Y009175D01*
X045629Y009175D01*
X045629Y008775D01*
X045898Y008775D01*
X045937Y008786D01*
X045971Y008805D01*
X045999Y008833D01*
X046018Y008868D01*
X046029Y008906D01*
X046029Y009175D01*
X045629Y009175D01*
X045629Y009275D01*
X046029Y009275D01*
X046029Y009544D01*
X046018Y009582D01*
X045999Y009616D01*
X045971Y009644D01*
X046026Y009553D02*
X049744Y009553D01*
X049744Y009455D02*
X046029Y009455D01*
X046029Y009356D02*
X049744Y009356D01*
X049744Y009258D02*
X045629Y009258D01*
X045629Y009356D02*
X045529Y009356D01*
X045529Y009275D02*
X045529Y009674D01*
X045260Y009674D01*
X045222Y009664D01*
X045188Y009644D01*
X045160Y009616D01*
X045140Y009582D01*
X045130Y009544D01*
X045130Y009275D01*
X045529Y009275D01*
X045529Y009258D02*
X044629Y009258D01*
X044629Y009356D02*
X044529Y009356D01*
X044529Y009455D02*
X044629Y009455D01*
X044629Y009553D02*
X044529Y009553D01*
X044529Y009652D02*
X044629Y009652D01*
X044957Y009652D02*
X045201Y009652D01*
X045133Y009553D02*
X045026Y009553D01*
X045029Y009455D02*
X045130Y009455D01*
X045130Y009356D02*
X045029Y009356D01*
X045029Y009159D02*
X045130Y009159D01*
X045130Y009061D02*
X045029Y009061D01*
X045029Y008962D02*
X045130Y008962D01*
X045143Y008864D02*
X045016Y008864D01*
X044720Y008667D02*
X049744Y008667D01*
X049744Y008765D02*
X044619Y008765D01*
X044629Y008864D02*
X044529Y008864D01*
X044529Y008962D02*
X044629Y008962D01*
X044629Y009061D02*
X044529Y009061D01*
X044529Y009159D02*
X044629Y009159D01*
X044764Y008568D02*
X049744Y008568D01*
X049744Y008470D02*
X045627Y008470D01*
X045723Y008371D02*
X049744Y008371D01*
X049744Y008273D02*
X046189Y008273D01*
X046231Y008174D02*
X049744Y008174D01*
X049744Y008076D02*
X046231Y008076D01*
X046231Y007879D02*
X049744Y007879D01*
X049744Y007977D02*
X045913Y007977D01*
X045913Y007879D02*
X045816Y007879D01*
X045816Y007780D02*
X045913Y007780D01*
X045913Y007682D02*
X045816Y007682D01*
X045806Y007583D02*
X045903Y007583D01*
X045903Y007485D02*
X045806Y007485D01*
X045806Y007386D02*
X045903Y007386D01*
X045903Y007288D02*
X049744Y007288D01*
X049744Y007386D02*
X046221Y007386D01*
X046221Y007485D02*
X049744Y007485D01*
X049744Y007583D02*
X046170Y007583D01*
X046200Y007682D02*
X049744Y007682D01*
X049744Y007780D02*
X046231Y007780D01*
X045913Y008076D02*
X045816Y008076D01*
X045816Y008174D02*
X045913Y008174D01*
X045913Y008273D02*
X045816Y008273D01*
X045629Y008864D02*
X045529Y008864D01*
X045529Y008962D02*
X045629Y008962D01*
X045629Y009061D02*
X045529Y009061D01*
X045529Y009159D02*
X045629Y009159D01*
X045629Y009455D02*
X045529Y009455D01*
X045529Y009553D02*
X045629Y009553D01*
X045629Y009652D02*
X045529Y009652D01*
X046379Y009849D02*
X046479Y009849D01*
X046479Y009947D02*
X046379Y009947D01*
X046379Y010046D02*
X046479Y010046D01*
X046479Y010144D02*
X046379Y010144D01*
X046379Y010243D02*
X041879Y010243D01*
X041479Y010440D02*
X041379Y010440D01*
X041379Y010538D02*
X041479Y010538D01*
X041479Y010637D02*
X041379Y010637D01*
X041379Y010735D02*
X041479Y010735D01*
X041479Y010932D02*
X041379Y010932D01*
X041379Y011031D02*
X041479Y011031D01*
X041479Y011129D02*
X041379Y011129D01*
X041379Y011228D02*
X041479Y011228D01*
X041773Y010932D02*
X045987Y010932D01*
X045980Y011031D02*
X041872Y011031D01*
X041181Y010834D02*
X046080Y010834D01*
X046779Y010834D02*
X049744Y010834D01*
X049744Y010932D02*
X046872Y010932D01*
X046879Y011031D02*
X049744Y011031D01*
X049744Y011129D02*
X046879Y011129D01*
X046479Y011917D02*
X046379Y011917D01*
X046379Y012016D02*
X046479Y012016D01*
X046479Y012114D02*
X046379Y012114D01*
X046479Y012325D02*
X046879Y012325D01*
X046879Y012594D01*
X046868Y012632D01*
X046849Y012666D01*
X046821Y012694D01*
X046787Y012714D01*
X046748Y012724D01*
X046479Y012724D01*
X046479Y012325D01*
X046479Y012410D02*
X046379Y012410D01*
X046379Y012508D02*
X046479Y012508D01*
X046479Y012607D02*
X046379Y012607D01*
X046379Y012705D02*
X046479Y012705D01*
X046479Y012902D02*
X046379Y012902D01*
X046379Y013001D02*
X046479Y013001D01*
X046479Y013099D02*
X046379Y013099D01*
X046479Y013325D02*
X046879Y013325D01*
X046879Y013594D01*
X046868Y013632D01*
X046849Y013666D01*
X046821Y013694D01*
X046787Y013714D01*
X046748Y013724D01*
X046479Y013724D01*
X046479Y013325D01*
X046479Y013395D02*
X046379Y013395D01*
X046379Y013493D02*
X046479Y013493D01*
X046479Y013592D02*
X046379Y013592D01*
X046379Y013690D02*
X046479Y013690D01*
X046825Y013690D02*
X049744Y013690D01*
X049744Y013592D02*
X046879Y013592D01*
X046879Y013493D02*
X049744Y013493D01*
X049744Y013395D02*
X046879Y013395D01*
X046034Y013690D02*
X044809Y013690D01*
X044867Y013789D02*
X044867Y013789D01*
X044676Y013592D02*
X045980Y013592D01*
X045980Y013493D02*
X041879Y013493D01*
X041879Y013592D02*
X043783Y013592D01*
X043649Y013690D02*
X041879Y013690D01*
X041867Y013789D02*
X041826Y013789D01*
X041785Y013887D02*
X038710Y013887D01*
X038710Y013789D02*
X041033Y013789D01*
X040980Y013690D02*
X038710Y013690D01*
X038710Y013592D02*
X040980Y013592D01*
X040980Y013493D02*
X040798Y013493D01*
X040576Y013493D02*
X040479Y013493D01*
X040479Y013395D02*
X040576Y013395D01*
X040576Y013296D02*
X040479Y013296D01*
X040479Y013198D02*
X040576Y013198D01*
X040181Y013198D02*
X040176Y013198D01*
X040176Y013296D02*
X040181Y013296D01*
X040172Y013395D02*
X040184Y013395D01*
X040257Y013493D02*
X040091Y013493D01*
X039878Y013493D02*
X039781Y013493D01*
X039781Y013395D02*
X039878Y013395D01*
X039878Y013296D02*
X039781Y013296D01*
X039781Y013198D02*
X039878Y013198D01*
X039568Y013493D02*
X038710Y013493D01*
X038710Y013395D02*
X039487Y013395D01*
X039433Y013001D02*
X039221Y013001D01*
X040933Y013001D02*
X040965Y013001D01*
X041879Y013099D02*
X045980Y013099D01*
X045980Y013001D02*
X041894Y013001D01*
X042017Y012902D02*
X045999Y012902D01*
X046801Y012705D02*
X049744Y012705D01*
X049744Y012607D02*
X046875Y012607D01*
X046879Y012508D02*
X049744Y012508D01*
X049744Y012410D02*
X046879Y012410D01*
X045592Y013789D02*
X049744Y013789D01*
X049744Y013887D02*
X045674Y013887D01*
X045679Y013986D02*
X049744Y013986D01*
X049744Y014084D02*
X045679Y014084D01*
X045679Y014281D02*
X049744Y014281D01*
X049744Y014183D02*
X045279Y014183D01*
X045279Y014281D02*
X045179Y014281D01*
X045179Y014380D02*
X045279Y014380D01*
X045279Y014478D02*
X045179Y014478D01*
X045179Y014577D02*
X045279Y014577D01*
X045670Y014577D02*
X049744Y014577D01*
X049744Y014675D02*
X044861Y014675D01*
X044795Y014774D02*
X049744Y014774D01*
X049744Y014872D02*
X044754Y014872D01*
X044754Y014971D02*
X049744Y014971D01*
X049744Y015069D02*
X044780Y015069D01*
X044780Y015168D02*
X049744Y015168D01*
X049744Y015266D02*
X044780Y015266D01*
X044747Y015365D02*
X049744Y015365D01*
X049744Y015463D02*
X044706Y015463D01*
X044624Y015562D02*
X049744Y015562D01*
X049744Y015660D02*
X044513Y015660D01*
X044287Y015759D02*
X049744Y015759D01*
X049744Y015857D02*
X044342Y015857D01*
X044366Y015956D02*
X049744Y015956D01*
X049744Y016054D02*
X044366Y016054D01*
X044366Y016153D02*
X049744Y016153D01*
X049744Y016251D02*
X044366Y016251D01*
X044366Y016350D02*
X049744Y016350D01*
X049744Y016448D02*
X044366Y016448D01*
X044350Y016547D02*
X049744Y016547D01*
X049744Y016645D02*
X044366Y016645D01*
X044366Y016744D02*
X049744Y016744D01*
X049744Y016842D02*
X044366Y016842D01*
X044366Y016941D02*
X049744Y016941D01*
X049744Y017039D02*
X044366Y017039D01*
X044839Y017138D02*
X049744Y017138D01*
X049744Y017236D02*
X044925Y017236D01*
X044965Y017335D02*
X049744Y017335D01*
X049744Y017433D02*
X044971Y017433D01*
X044971Y017532D02*
X049744Y017532D01*
X049744Y017630D02*
X044980Y017630D01*
X044980Y017729D02*
X049744Y017729D01*
X049744Y017827D02*
X044980Y017827D01*
X044980Y017926D02*
X049744Y017926D01*
X049744Y018024D02*
X045061Y018024D01*
X045113Y018123D02*
X049744Y018123D01*
X048152Y018221D02*
X045135Y018221D01*
X045135Y018320D02*
X047992Y018320D01*
X047550Y018418D02*
X045135Y018418D01*
X045135Y018517D02*
X047505Y018517D01*
X047505Y018615D02*
X045135Y018615D01*
X045103Y018714D02*
X047505Y018714D01*
X047505Y018812D02*
X045039Y018812D01*
X044919Y018911D02*
X047505Y018911D01*
X047505Y019108D02*
X045595Y019108D01*
X045743Y019206D02*
X047505Y019206D01*
X047505Y019305D02*
X045819Y019305D01*
X045877Y019403D02*
X047505Y019403D01*
X047526Y019502D02*
X045943Y019502D01*
X046010Y019600D02*
X049744Y019600D01*
X049744Y019699D02*
X046076Y019699D01*
X046142Y019797D02*
X049744Y019797D01*
X049744Y019896D02*
X046209Y019896D01*
X046275Y019994D02*
X047410Y019994D01*
X047331Y020093D02*
X046341Y020093D01*
X046473Y020191D02*
X046479Y020191D01*
X047142Y020191D02*
X047291Y020191D01*
X048605Y019502D02*
X048705Y019502D01*
X048705Y019403D02*
X048605Y019403D01*
X047889Y019009D02*
X044428Y019009D01*
X043854Y019762D02*
X042794Y019762D01*
X042550Y019661D01*
X042363Y019474D01*
X042261Y019229D01*
X042261Y018765D01*
X042363Y018520D01*
X042550Y018333D01*
X042794Y018232D01*
X043854Y018232D01*
X043854Y018179D01*
X043431Y018179D01*
X043395Y018164D01*
X043319Y018195D01*
X042780Y018195D01*
X042646Y018140D01*
X042543Y018037D01*
X042519Y017980D01*
X042428Y017980D01*
X042428Y017662D01*
X042331Y017662D01*
X042331Y017565D01*
X042428Y017565D01*
X042428Y017247D01*
X042519Y017247D01*
X042543Y017191D01*
X042646Y017088D01*
X042780Y017032D01*
X043203Y017032D01*
X043203Y016585D01*
X043230Y016520D01*
X043203Y016455D01*
X043203Y015916D01*
X043259Y015782D01*
X043284Y015757D01*
X042810Y015757D01*
X042738Y015727D01*
X042707Y015740D01*
X042129Y015740D01*
X042084Y015721D01*
X042038Y015740D01*
X041460Y015740D01*
X041326Y015684D01*
X041233Y015592D01*
X038839Y015592D01*
X038842Y015595D01*
X038910Y015758D01*
X038910Y015870D01*
X038932Y015892D01*
X038955Y015949D01*
X038980Y015949D01*
X038980Y016010D01*
X038987Y016026D01*
X038987Y016429D01*
X039008Y016429D01*
X039008Y015949D01*
X039142Y015949D01*
X039180Y015959D01*
X039214Y015979D01*
X039242Y016007D01*
X039262Y016041D01*
X039272Y016079D01*
X039272Y016429D01*
X039008Y016429D01*
X039008Y016457D01*
X039272Y016457D01*
X039272Y016802D01*
X039381Y016802D01*
X039441Y016741D01*
X039441Y016630D01*
X039748Y016323D01*
X040182Y016323D01*
X040489Y016630D01*
X040489Y017064D01*
X040182Y017371D01*
X040070Y017371D01*
X039817Y017624D01*
X039653Y017692D01*
X038176Y017692D01*
X038028Y017630D01*
X038028Y017918D01*
X037972Y018052D01*
X037936Y018088D01*
X038023Y018176D01*
X038060Y018139D01*
X038194Y018084D01*
X038736Y018084D01*
X038870Y018139D01*
X038972Y018242D01*
X039028Y018376D01*
X039028Y018588D01*
X039195Y018588D01*
X039329Y018644D01*
X039432Y018746D01*
X039487Y018881D01*
X039487Y019715D01*
X039439Y019830D01*
X039439Y020106D01*
X039372Y020269D01*
X038815Y020826D01*
X039012Y020826D01*
X039389Y021203D01*
X039389Y021738D01*
X039012Y022115D01*
X038997Y022115D01*
X039174Y022292D01*
X039174Y022430D01*
X038784Y022430D01*
X038784Y022510D01*
X039174Y022510D01*
X039174Y022649D01*
X038922Y022900D01*
X038784Y022900D01*
X038784Y022510D01*
X038704Y022510D01*
X038704Y022900D01*
X038566Y022900D01*
X038389Y022724D01*
X038389Y022738D01*
X038012Y023115D01*
X037477Y023115D01*
X037244Y022883D01*
X037012Y023115D01*
X036477Y023115D01*
X036099Y022738D01*
X036099Y022203D01*
X036332Y021970D01*
X036099Y021738D01*
X036099Y021203D01*
X036477Y020826D01*
X037012Y020826D01*
X037244Y021058D01*
X037299Y021003D01*
X037299Y020392D01*
X036099Y020392D01*
X036002Y020432D01*
X035463Y020432D01*
X035420Y020414D01*
X035377Y020432D01*
X034838Y020432D01*
X034781Y020408D01*
X034772Y020412D01*
X034194Y020412D01*
X034059Y020357D01*
X033957Y020254D01*
X033901Y020120D01*
X033901Y019581D01*
X033928Y019516D01*
X033903Y019454D01*
X033746Y019454D01*
X033539Y019368D01*
X033380Y019210D01*
X033295Y019003D01*
X033295Y018779D01*
X033380Y018572D01*
X033539Y018414D01*
X033746Y018328D01*
X033970Y018328D01*
X034158Y018406D01*
X034283Y018406D01*
X034241Y018364D01*
X034241Y017930D01*
X034548Y017623D01*
X034982Y017623D01*
X035060Y017702D01*
X035305Y017702D01*
X035404Y017602D01*
X035539Y017546D01*
X036744Y017546D01*
X036878Y017602D01*
X036902Y017626D01*
X036902Y017376D01*
X036957Y017242D01*
X037020Y017179D01*
X037020Y016905D01*
X037001Y016860D01*
X037001Y016026D01*
X037016Y015992D01*
X035849Y015992D01*
X034917Y016924D01*
X034753Y016992D01*
X034249Y016992D01*
X033110Y018131D01*
X033110Y020235D01*
X033042Y020399D01*
X032917Y020524D01*
X032589Y020852D01*
X032425Y020920D01*
X030977Y020920D01*
X030977Y021404D01*
X030921Y021538D01*
X030819Y021640D01*
X030766Y021662D01*
X030766Y021867D01*
X030974Y021867D01*
X031055Y021786D01*
X030976Y021866D02*
X030766Y021866D01*
X030766Y021669D02*
X036099Y021669D01*
X036099Y021570D02*
X030889Y021570D01*
X030949Y021472D02*
X036099Y021472D01*
X036099Y021373D02*
X030977Y021373D01*
X030977Y021275D02*
X036099Y021275D01*
X036127Y021176D02*
X030977Y021176D01*
X030977Y021078D02*
X036225Y021078D01*
X036324Y020979D02*
X030977Y020979D01*
X031816Y021767D02*
X036129Y021767D01*
X036227Y021866D02*
X031941Y021866D01*
X031996Y021964D02*
X036326Y021964D01*
X036240Y022063D02*
X032020Y022063D01*
X032020Y022161D02*
X036142Y022161D01*
X036099Y022260D02*
X032020Y022260D01*
X032020Y022358D02*
X036099Y022358D01*
X036099Y022457D02*
X032020Y022457D01*
X032020Y022555D02*
X036099Y022555D01*
X036099Y022654D02*
X031999Y022654D01*
X031948Y022752D02*
X036114Y022752D01*
X036212Y022851D02*
X031832Y022851D01*
X031805Y023030D02*
X031507Y023030D01*
X031507Y023348D01*
X031675Y023348D01*
X031713Y023338D01*
X031747Y023318D01*
X031775Y023290D01*
X031795Y023256D01*
X031805Y023218D01*
X031805Y023030D01*
X031805Y023048D02*
X036409Y023048D01*
X036311Y022949D02*
X031507Y022949D01*
X031507Y023048D02*
X031410Y023048D01*
X031410Y023146D02*
X031507Y023146D01*
X031507Y023245D02*
X031410Y023245D01*
X031410Y023343D02*
X031507Y023343D01*
X031694Y023343D02*
X049744Y023343D01*
X049744Y023245D02*
X031798Y023245D01*
X031805Y023146D02*
X049744Y023146D01*
X049744Y023048D02*
X049704Y023048D01*
X049713Y023045D02*
X049675Y023055D01*
X048705Y023055D01*
X048705Y022505D01*
X049744Y022505D01*
X049744Y022405D01*
X048705Y022405D01*
X048705Y021855D01*
X049675Y021855D01*
X049713Y021866D01*
X049744Y021884D01*
X049744Y021523D01*
X049727Y021530D01*
X047582Y021530D01*
X047448Y021475D01*
X047345Y021372D01*
X047299Y021260D01*
X047189Y021260D01*
X047100Y021297D01*
X046521Y021297D01*
X046476Y021278D01*
X046430Y021297D01*
X045852Y021297D01*
X045718Y021241D01*
X045615Y021139D01*
X045560Y021005D01*
X045560Y020811D01*
X045332Y020474D01*
X045332Y020693D01*
X045277Y020827D01*
X045174Y020930D01*
X045040Y020985D01*
X044501Y020985D01*
X044436Y020958D01*
X044371Y020985D01*
X043951Y020985D01*
X043951Y021129D01*
X043633Y021129D01*
X043633Y021226D01*
X043951Y021226D01*
X043951Y021394D01*
X043941Y021432D01*
X043921Y021466D01*
X043893Y021494D01*
X043859Y021514D01*
X043820Y021524D01*
X043633Y021524D01*
X043633Y021226D01*
X043536Y021226D01*
X043536Y021524D01*
X043464Y021524D01*
X043449Y021561D01*
X043468Y021606D01*
X043539Y021606D01*
X043539Y021904D01*
X043636Y021904D01*
X043636Y022001D01*
X043539Y022001D01*
X043539Y022299D01*
X043468Y022299D01*
X043444Y022356D01*
X043341Y022459D01*
X043207Y022514D01*
X042629Y022514D01*
X042524Y022471D01*
X042171Y022471D01*
X042103Y022403D01*
X042030Y022377D01*
X042020Y022369D01*
X042008Y022364D01*
X041949Y022304D01*
X041887Y022248D01*
X041881Y022236D01*
X041872Y022227D01*
X041840Y022150D01*
X041804Y022074D01*
X041803Y022061D01*
X041798Y022049D01*
X041798Y021965D01*
X041794Y021882D01*
X041798Y021869D01*
X041798Y021856D01*
X041830Y021779D01*
X041858Y021700D01*
X041867Y021690D01*
X041872Y021678D01*
X041931Y021619D01*
X041987Y021556D01*
X041999Y021551D01*
X042008Y021541D01*
X042084Y021510D01*
X042171Y021423D01*
X042333Y021423D01*
X042333Y020908D01*
X042387Y020780D01*
X042346Y020681D01*
X042346Y020103D01*
X042401Y019969D01*
X042504Y019866D01*
X042638Y019811D01*
X043177Y019811D01*
X043242Y019838D01*
X043308Y019811D01*
X043846Y019811D01*
X043854Y019814D01*
X043854Y019762D01*
X043854Y019797D02*
X039453Y019797D01*
X039439Y019896D02*
X042475Y019896D01*
X042391Y019994D02*
X039439Y019994D01*
X039439Y020093D02*
X042350Y020093D01*
X042346Y020191D02*
X039404Y020191D01*
X039351Y020290D02*
X042346Y020290D01*
X042346Y020388D02*
X039253Y020388D01*
X039154Y020487D02*
X042346Y020487D01*
X042346Y020585D02*
X039056Y020585D01*
X038957Y020684D02*
X042347Y020684D01*
X042386Y020782D02*
X038859Y020782D01*
X039067Y020881D02*
X042345Y020881D01*
X042333Y020979D02*
X039165Y020979D01*
X039264Y021078D02*
X042333Y021078D01*
X042333Y021176D02*
X039362Y021176D01*
X039389Y021275D02*
X042333Y021275D01*
X042333Y021373D02*
X039389Y021373D01*
X039389Y021472D02*
X042122Y021472D01*
X041975Y021570D02*
X039389Y021570D01*
X039389Y021669D02*
X041881Y021669D01*
X041834Y021767D02*
X039360Y021767D01*
X039261Y021866D02*
X041798Y021866D01*
X041798Y021964D02*
X039163Y021964D01*
X039064Y022063D02*
X041803Y022063D01*
X041844Y022161D02*
X039043Y022161D01*
X039142Y022260D02*
X041899Y022260D01*
X042003Y022358D02*
X039174Y022358D01*
X039174Y022555D02*
X047505Y022555D01*
X047505Y022505D02*
X048605Y022505D01*
X048605Y022405D01*
X048705Y022405D01*
X048705Y022505D01*
X048605Y022505D01*
X048605Y023055D01*
X047635Y023055D01*
X047597Y023045D01*
X047563Y023025D01*
X047535Y022997D01*
X047515Y022963D01*
X047505Y022925D01*
X047505Y022505D01*
X047505Y022405D02*
X047505Y021986D01*
X047515Y021947D01*
X047535Y021913D01*
X047563Y021885D01*
X047597Y021866D01*
X047635Y021855D01*
X048605Y021855D01*
X048605Y022405D01*
X047505Y022405D01*
X047505Y022358D02*
X043442Y022358D01*
X043539Y022260D02*
X043636Y022260D01*
X043636Y022299D02*
X043636Y022001D01*
X043954Y022001D01*
X043954Y022169D01*
X043944Y022207D01*
X043924Y022241D01*
X043896Y022269D01*
X043862Y022289D01*
X043824Y022299D01*
X043636Y022299D01*
X043636Y022161D02*
X043539Y022161D01*
X043539Y022063D02*
X043636Y022063D01*
X043636Y021964D02*
X047511Y021964D01*
X047505Y022063D02*
X043954Y022063D01*
X043954Y022161D02*
X047505Y022161D01*
X047505Y022260D02*
X043906Y022260D01*
X043954Y021904D02*
X043636Y021904D01*
X043636Y021606D01*
X043824Y021606D01*
X043862Y021616D01*
X043896Y021635D01*
X043924Y021663D01*
X043944Y021698D01*
X043954Y021736D01*
X043954Y021904D01*
X043954Y021866D02*
X047597Y021866D01*
X047445Y021472D02*
X043916Y021472D01*
X043951Y021373D02*
X047346Y021373D01*
X047305Y021275D02*
X047154Y021275D01*
X048605Y021866D02*
X048705Y021866D01*
X048705Y021964D02*
X048605Y021964D01*
X048605Y022063D02*
X048705Y022063D01*
X048705Y022161D02*
X048605Y022161D01*
X048605Y022260D02*
X048705Y022260D01*
X048705Y022358D02*
X048605Y022358D01*
X048605Y022457D02*
X043343Y022457D01*
X042157Y022457D02*
X038784Y022457D01*
X038784Y022555D02*
X038704Y022555D01*
X038704Y022654D02*
X038784Y022654D01*
X038784Y022752D02*
X038704Y022752D01*
X038704Y022851D02*
X038784Y022851D01*
X038972Y022851D02*
X047505Y022851D01*
X047511Y022949D02*
X038178Y022949D01*
X038276Y022851D02*
X038516Y022851D01*
X038418Y022752D02*
X038375Y022752D01*
X038079Y023048D02*
X047606Y023048D01*
X047505Y022752D02*
X039071Y022752D01*
X039169Y022654D02*
X047505Y022654D01*
X048605Y022654D02*
X048705Y022654D01*
X048705Y022752D02*
X048605Y022752D01*
X048605Y022851D02*
X048705Y022851D01*
X048705Y022949D02*
X048605Y022949D01*
X048605Y023048D02*
X048705Y023048D01*
X049713Y023045D02*
X049744Y023027D01*
X049744Y024509D01*
X047776Y024509D01*
X047776Y024903D01*
X006831Y024903D01*
X006831Y023007D01*
X006849Y023025D01*
X006883Y023045D01*
X006921Y023055D01*
X007891Y023055D01*
X007891Y022505D01*
X007891Y022405D01*
X007991Y022405D01*
X007991Y021855D01*
X008961Y021855D01*
X008999Y021866D01*
X009033Y021885D01*
X009061Y021913D01*
X009081Y021947D01*
X009091Y021986D01*
X009091Y022405D01*
X007991Y022405D01*
X007991Y022505D01*
X009091Y022505D01*
X009091Y022925D01*
X009081Y022963D01*
X009061Y022997D01*
X009033Y023025D01*
X008999Y023045D01*
X008961Y023055D01*
X007991Y023055D01*
X007991Y022505D01*
X007891Y022505D01*
X006831Y022505D01*
X006831Y022405D01*
X007891Y022405D01*
X007891Y021855D01*
X006921Y021855D01*
X006883Y021866D01*
X006849Y021885D01*
X006831Y021903D01*
X006831Y021515D01*
X006868Y021530D01*
X008806Y021530D01*
X008867Y021592D01*
X009060Y021672D01*
X009444Y021672D01*
X009557Y021719D01*
X010137Y021719D01*
X010271Y021663D01*
X010374Y021560D01*
X010429Y021426D01*
X010429Y020868D01*
X010374Y020733D01*
X010287Y020647D01*
X010374Y020560D01*
X010429Y020426D01*
X010429Y019868D01*
X010374Y019733D01*
X010271Y019631D01*
X010137Y019575D01*
X009557Y019575D01*
X009422Y019631D01*
X009320Y019733D01*
X009264Y019868D01*
X009264Y020092D01*
X009250Y020059D01*
X009148Y019956D01*
X009014Y019900D01*
X006868Y019900D01*
X006831Y019916D01*
X006831Y019527D01*
X006849Y019545D01*
X006883Y019565D01*
X006921Y019575D01*
X007891Y019575D01*
X007891Y019025D01*
X007891Y018925D01*
X007991Y018925D01*
X007991Y018375D01*
X008961Y018375D01*
X008999Y018386D01*
X009033Y018405D01*
X009061Y018433D01*
X009081Y018467D01*
X009091Y018506D01*
X009091Y018925D01*
X007991Y018925D01*
X007991Y019025D01*
X009091Y019025D01*
X009091Y019445D01*
X009081Y019483D01*
X009061Y019517D01*
X009033Y019545D01*
X008999Y019565D01*
X008961Y019575D01*
X007991Y019575D01*
X007991Y019025D01*
X007891Y019025D01*
X006831Y019025D01*
X006831Y018925D01*
X007891Y018925D01*
X007891Y018375D01*
X006921Y018375D01*
X006883Y018386D01*
X006849Y018405D01*
X006831Y018423D01*
X006831Y004431D01*
X006831Y004530D02*
X049744Y004530D01*
X049744Y004628D02*
X006831Y004628D01*
X006831Y004727D02*
X049744Y004727D01*
X049744Y004825D02*
X020217Y004825D01*
X020297Y004924D02*
X049744Y004924D01*
X049744Y005022D02*
X020302Y005022D01*
X020302Y005121D02*
X043885Y005121D01*
X043790Y005219D02*
X042505Y005219D01*
X042660Y005318D02*
X043322Y005318D01*
X043282Y005416D02*
X042727Y005416D01*
X042760Y005515D02*
X043282Y005515D01*
X043282Y005712D02*
X042760Y005712D01*
X042760Y005810D02*
X043282Y005810D01*
X043291Y005909D02*
X042760Y005909D01*
X042760Y005613D02*
X043580Y005613D01*
X043580Y005685D02*
X043580Y006003D01*
X043458Y006003D01*
X043478Y006019D01*
X043505Y006030D01*
X043540Y006065D01*
X043722Y006065D01*
X043849Y006117D01*
X043792Y006060D01*
X043768Y006003D01*
X043677Y006003D01*
X043677Y005685D01*
X043580Y005685D01*
X043580Y005712D02*
X043677Y005712D01*
X043677Y005810D02*
X043580Y005810D01*
X043580Y005909D02*
X043677Y005909D01*
X043770Y006007D02*
X043463Y006007D01*
X043821Y006106D02*
X043837Y006106D01*
X044929Y005613D02*
X049744Y005613D01*
X049744Y005515D02*
X044862Y005515D01*
X044860Y005416D02*
X049744Y005416D01*
X049744Y005318D02*
X044847Y005318D01*
X044807Y005219D02*
X049744Y005219D01*
X049744Y005121D02*
X044711Y005121D01*
X044970Y005712D02*
X049744Y005712D01*
X049744Y005810D02*
X046645Y005810D01*
X046825Y005909D02*
X049744Y005909D01*
X049744Y006007D02*
X046924Y006007D01*
X046976Y006106D02*
X049744Y006106D01*
X049744Y006204D02*
X047017Y006204D01*
X047030Y006303D02*
X049744Y006303D01*
X049744Y006401D02*
X047030Y006401D01*
X047013Y006500D02*
X049744Y006500D01*
X049744Y006598D02*
X046972Y006598D01*
X046914Y006697D02*
X049744Y006697D01*
X049744Y006795D02*
X046816Y006795D01*
X046680Y006894D02*
X049744Y006894D01*
X049744Y006992D02*
X046195Y006992D01*
X046221Y007091D02*
X049744Y007091D01*
X049744Y007189D02*
X046221Y007189D01*
X046285Y005810D02*
X046117Y005810D01*
X045563Y005810D02*
X045448Y005810D01*
X043677Y005515D02*
X043580Y005515D01*
X043580Y005416D02*
X043677Y005416D01*
X043677Y005318D02*
X043580Y005318D01*
X037666Y007977D02*
X029717Y007977D01*
X029717Y007879D02*
X037567Y007879D01*
X037469Y007780D02*
X029717Y007780D01*
X029717Y007682D02*
X037370Y007682D01*
X037272Y007583D02*
X029717Y007583D01*
X029717Y007485D02*
X035459Y007485D01*
X035275Y007386D02*
X029717Y007386D01*
X029717Y007288D02*
X035176Y007288D01*
X035188Y007299D02*
X035188Y007299D01*
X035078Y007189D02*
X029717Y007189D01*
X029717Y007091D02*
X030520Y007091D01*
X030282Y006992D02*
X029717Y006992D01*
X029801Y006894D02*
X030168Y006894D01*
X030069Y006795D02*
X029899Y006795D01*
X029998Y006697D02*
X030006Y006697D01*
X030890Y007091D02*
X034979Y007091D01*
X034881Y006992D02*
X031128Y006992D01*
X031242Y006894D02*
X034782Y006894D01*
X034684Y006795D02*
X031341Y006795D01*
X030280Y009652D02*
X029717Y009652D01*
X029717Y009750D02*
X030205Y009750D01*
X030160Y009849D02*
X029717Y009849D01*
X029717Y009947D02*
X030134Y009947D01*
X028827Y010637D02*
X023431Y010637D01*
X023333Y010735D02*
X028827Y010735D01*
X028827Y010834D02*
X023234Y010834D01*
X023136Y010932D02*
X028827Y010932D01*
X028827Y011031D02*
X023037Y011031D01*
X022939Y011129D02*
X028827Y011129D01*
X028827Y011228D02*
X022840Y011228D01*
X022636Y011326D02*
X028827Y011326D01*
X025342Y013296D02*
X023858Y013296D01*
X023899Y013337D02*
X023675Y013113D01*
X023383Y012992D01*
X023067Y012992D01*
X022774Y013113D01*
X022551Y013337D01*
X022430Y013629D01*
X022430Y013945D01*
X022551Y014237D01*
X022774Y014461D01*
X023067Y014582D01*
X023383Y014582D01*
X023675Y014461D01*
X023899Y014237D01*
X024020Y013945D01*
X024020Y013629D01*
X023899Y013337D01*
X023923Y013395D02*
X025440Y013395D01*
X025538Y013493D02*
X023963Y013493D01*
X024004Y013592D02*
X025636Y013592D01*
X025734Y013690D02*
X024020Y013690D01*
X024020Y013789D02*
X025832Y013789D01*
X025930Y013887D02*
X024020Y013887D01*
X024003Y013986D02*
X026028Y013986D01*
X026126Y014084D02*
X023962Y014084D01*
X023921Y014183D02*
X026224Y014183D01*
X026322Y014281D02*
X023855Y014281D01*
X023756Y014380D02*
X026420Y014380D01*
X026518Y014478D02*
X023634Y014478D01*
X023396Y014577D02*
X026616Y014577D01*
X026714Y014675D02*
X021335Y014675D01*
X021262Y014602D02*
X021410Y014749D01*
X021411Y014753D01*
X021489Y014830D01*
X021489Y014939D01*
X021490Y014942D01*
X021490Y015151D01*
X021489Y015154D01*
X021489Y015264D01*
X021411Y015341D01*
X021410Y015344D01*
X021262Y015492D01*
X021259Y015493D01*
X021182Y015571D01*
X021072Y015571D01*
X021069Y015572D01*
X020574Y015572D01*
X020574Y015714D01*
X020518Y015848D01*
X020416Y015951D01*
X020282Y016007D01*
X019891Y016007D01*
X019891Y016284D01*
X019909Y016291D01*
X019948Y016331D01*
X019975Y016331D01*
X020183Y016417D01*
X020437Y016671D01*
X020523Y016879D01*
X020523Y017103D01*
X020437Y017311D01*
X020278Y017470D01*
X020070Y017556D01*
X019845Y017556D01*
X019810Y017541D01*
X019775Y017556D01*
X019118Y017556D01*
X018983Y017500D01*
X018881Y017398D01*
X018857Y017341D01*
X018748Y017341D01*
X018748Y016946D01*
X018648Y016946D01*
X018648Y017341D01*
X018422Y017341D01*
X018384Y017331D01*
X018350Y017311D01*
X018322Y017283D01*
X018302Y017249D01*
X018292Y017211D01*
X018292Y016946D01*
X018648Y016946D01*
X018648Y016846D01*
X018292Y016846D01*
X018292Y016581D01*
X018302Y016543D01*
X018322Y016508D01*
X018350Y016480D01*
X018384Y016461D01*
X018422Y016450D01*
X018648Y016450D01*
X018648Y016846D01*
X018748Y016846D01*
X018748Y016450D01*
X018857Y016450D01*
X018881Y016394D01*
X018983Y016291D01*
X019001Y016284D01*
X019001Y015174D01*
X019039Y015084D01*
X019039Y015041D01*
X019057Y014997D01*
X019057Y014073D01*
X019112Y013939D01*
X019215Y013836D01*
X019349Y013781D01*
X020282Y013781D01*
X020416Y013836D01*
X020518Y013939D01*
X020574Y014073D01*
X020574Y014522D01*
X021069Y014522D01*
X021072Y014523D01*
X021182Y014523D01*
X021259Y014601D01*
X021262Y014602D01*
X021235Y014577D02*
X023053Y014577D01*
X022816Y014478D02*
X020574Y014478D01*
X020574Y014380D02*
X022693Y014380D01*
X022594Y014281D02*
X020574Y014281D01*
X020574Y014183D02*
X022528Y014183D01*
X022487Y014084D02*
X020574Y014084D01*
X020538Y013986D02*
X022446Y013986D01*
X022430Y013887D02*
X020467Y013887D01*
X020301Y013789D02*
X022430Y013789D01*
X022430Y013690D02*
X018094Y013690D01*
X018094Y013789D02*
X019330Y013789D01*
X019164Y013887D02*
X018094Y013887D01*
X018094Y013986D02*
X019093Y013986D01*
X019057Y014084D02*
X018094Y014084D01*
X018094Y014183D02*
X019057Y014183D01*
X019057Y014281D02*
X018094Y014281D01*
X018084Y014380D02*
X019057Y014380D01*
X019057Y014478D02*
X018074Y014478D01*
X018094Y014577D02*
X019057Y014577D01*
X019057Y014675D02*
X018094Y014675D01*
X018094Y014774D02*
X019057Y014774D01*
X019057Y014872D02*
X018094Y014872D01*
X018094Y014971D02*
X019057Y014971D01*
X019039Y015069D02*
X018094Y015069D01*
X018094Y015168D02*
X019004Y015168D01*
X019001Y015266D02*
X018092Y015266D01*
X018051Y015365D02*
X019001Y015365D01*
X019001Y015463D02*
X017971Y015463D01*
X017879Y015562D02*
X019001Y015562D01*
X019001Y015660D02*
X017879Y015660D01*
X017879Y015857D02*
X019001Y015857D01*
X019001Y015759D02*
X017385Y015759D01*
X017385Y015857D02*
X017285Y015857D01*
X017285Y015849D02*
X017285Y016244D01*
X016922Y016244D01*
X016883Y016234D01*
X016849Y016214D01*
X016821Y016186D01*
X016802Y016152D01*
X016791Y016114D01*
X016791Y015849D01*
X017285Y015849D01*
X017285Y015759D02*
X013553Y015759D01*
X013553Y015857D02*
X016791Y015857D01*
X016791Y015956D02*
X012390Y015956D01*
X012390Y016000D02*
X013553Y016000D01*
X013553Y017190D01*
X013543Y017228D01*
X013523Y017263D01*
X013496Y017291D01*
X013461Y017310D01*
X013423Y017320D01*
X012390Y017320D01*
X012390Y016000D01*
X012290Y016000D01*
X012290Y015900D01*
X011127Y015900D01*
X011127Y014710D01*
X011138Y014672D01*
X011157Y014637D01*
X011185Y014609D01*
X011220Y014590D01*
X011258Y014580D01*
X012290Y014580D01*
X012290Y015900D01*
X012390Y015900D01*
X012390Y016000D01*
X012390Y016054D02*
X012290Y016054D01*
X012290Y016000D02*
X012290Y017320D01*
X011258Y017320D01*
X011220Y017310D01*
X011185Y017291D01*
X011157Y017263D01*
X011138Y017228D01*
X011127Y017190D01*
X011127Y016000D01*
X012290Y016000D01*
X012290Y015956D02*
X006831Y015956D01*
X006831Y016054D02*
X011127Y016054D01*
X011127Y016153D02*
X006831Y016153D01*
X006831Y016251D02*
X011127Y016251D01*
X011127Y016350D02*
X006831Y016350D01*
X006831Y016448D02*
X011127Y016448D01*
X011127Y016547D02*
X006831Y016547D01*
X006831Y016645D02*
X011127Y016645D01*
X011127Y016744D02*
X006831Y016744D01*
X006831Y016842D02*
X011127Y016842D01*
X011127Y016941D02*
X006831Y016941D01*
X006831Y017039D02*
X011127Y017039D01*
X011127Y017138D02*
X006831Y017138D01*
X006831Y017236D02*
X011142Y017236D01*
X012290Y017236D02*
X012390Y017236D01*
X012390Y017138D02*
X012290Y017138D01*
X012290Y017039D02*
X012390Y017039D01*
X012390Y016941D02*
X012290Y016941D01*
X012290Y016842D02*
X012390Y016842D01*
X012390Y016744D02*
X012290Y016744D01*
X012290Y016645D02*
X012390Y016645D01*
X012390Y016547D02*
X012290Y016547D01*
X012290Y016448D02*
X012390Y016448D01*
X012390Y016350D02*
X012290Y016350D01*
X012290Y016251D02*
X012390Y016251D01*
X012390Y016153D02*
X012290Y016153D01*
X012290Y015857D02*
X012390Y015857D01*
X012390Y015759D02*
X012290Y015759D01*
X012290Y015660D02*
X012390Y015660D01*
X012390Y015562D02*
X012290Y015562D01*
X012290Y015463D02*
X012390Y015463D01*
X012390Y015365D02*
X012290Y015365D01*
X012290Y015266D02*
X012390Y015266D01*
X012390Y015168D02*
X012290Y015168D01*
X012290Y015069D02*
X012390Y015069D01*
X012390Y014971D02*
X012290Y014971D01*
X012290Y014872D02*
X012390Y014872D01*
X012390Y014774D02*
X012290Y014774D01*
X012290Y014675D02*
X012390Y014675D01*
X013544Y014675D02*
X013547Y014675D01*
X013547Y014577D02*
X010542Y014577D01*
X010542Y014675D02*
X011137Y014675D01*
X011127Y014774D02*
X010542Y014774D01*
X010542Y014872D02*
X011127Y014872D01*
X011127Y014971D02*
X010446Y014971D01*
X010347Y015069D02*
X011127Y015069D01*
X011127Y015168D02*
X010249Y015168D01*
X010150Y015266D02*
X011127Y015266D01*
X011127Y015365D02*
X006831Y015365D01*
X006831Y015463D02*
X011127Y015463D01*
X011127Y015562D02*
X006831Y015562D01*
X006831Y015660D02*
X011127Y015660D01*
X011127Y015759D02*
X006831Y015759D01*
X006831Y015857D02*
X011127Y015857D01*
X009354Y015266D02*
X006831Y015266D01*
X006831Y015168D02*
X009256Y015168D01*
X009157Y015069D02*
X006831Y015069D01*
X006831Y014971D02*
X009059Y014971D01*
X008962Y014872D02*
X006831Y014872D01*
X006831Y014774D02*
X008962Y014774D01*
X008962Y014675D02*
X006831Y014675D01*
X006831Y014577D02*
X008962Y014577D01*
X008962Y014478D02*
X006831Y014478D01*
X006831Y014380D02*
X008962Y014380D01*
X008962Y014281D02*
X006831Y014281D01*
X006831Y014183D02*
X008999Y014183D01*
X009098Y014084D02*
X006831Y014084D01*
X006831Y013986D02*
X009137Y013986D01*
X009178Y013887D02*
X006831Y013887D01*
X006831Y013789D02*
X009219Y013789D01*
X009300Y013690D02*
X006831Y013690D01*
X006831Y013592D02*
X009399Y013592D01*
X009497Y013493D02*
X006831Y013493D01*
X006831Y013395D02*
X009596Y013395D01*
X009694Y013296D02*
X006831Y013296D01*
X006831Y013198D02*
X009793Y013198D01*
X009891Y013099D02*
X006831Y013099D01*
X006831Y013001D02*
X009990Y013001D01*
X010088Y012902D02*
X006831Y012902D01*
X006831Y012804D02*
X010187Y012804D01*
X010285Y012705D02*
X006831Y012705D01*
X006831Y012607D02*
X009461Y012607D01*
X009489Y012635D02*
X009249Y012395D01*
X009249Y012255D01*
X009629Y012255D01*
X009629Y012635D01*
X009489Y012635D01*
X009629Y012607D02*
X009689Y012607D01*
X009689Y012635D02*
X009689Y012255D01*
X010069Y012255D01*
X010069Y012395D01*
X009829Y012635D01*
X009689Y012635D01*
X009689Y012508D02*
X009629Y012508D01*
X009629Y012410D02*
X009689Y012410D01*
X009689Y012311D02*
X009629Y012311D01*
X009629Y012213D02*
X006831Y012213D01*
X006831Y012311D02*
X009249Y012311D01*
X009264Y012410D02*
X006831Y012410D01*
X006831Y012508D02*
X009363Y012508D01*
X009249Y012114D02*
X006831Y012114D01*
X006831Y012016D02*
X009289Y012016D01*
X009387Y011917D02*
X006831Y011917D01*
X006831Y011819D02*
X009369Y011819D01*
X009271Y011720D02*
X006831Y011720D01*
X006831Y011622D02*
X009172Y011622D01*
X009074Y011523D02*
X006831Y011523D01*
X006831Y011425D02*
X009034Y011425D01*
X009034Y011326D02*
X006831Y011326D01*
X006831Y011228D02*
X009034Y011228D01*
X009034Y011129D02*
X006831Y011129D01*
X006831Y011031D02*
X009034Y011031D01*
X009068Y010932D02*
X006831Y010932D01*
X006831Y010834D02*
X009167Y010834D01*
X009265Y010735D02*
X006831Y010735D01*
X006831Y010637D02*
X009364Y010637D01*
X009756Y010538D02*
X006831Y010538D01*
X006831Y010440D02*
X009865Y010440D01*
X009969Y010341D02*
X006831Y010341D01*
X006831Y010243D02*
X009969Y010243D01*
X009971Y010144D02*
X006831Y010144D01*
X006831Y010046D02*
X009400Y010046D01*
X009489Y010135D02*
X009249Y009895D01*
X009249Y009755D01*
X009629Y009755D01*
X009629Y010135D01*
X009489Y010135D01*
X009629Y010046D02*
X009689Y010046D01*
X009689Y009947D02*
X009629Y009947D01*
X009629Y009849D02*
X009689Y009849D01*
X009918Y010046D02*
X010012Y010046D01*
X010017Y009947D02*
X010092Y009947D01*
X009302Y009947D02*
X006831Y009947D01*
X006831Y009849D02*
X009249Y009849D01*
X010146Y011622D02*
X011020Y011622D01*
X010935Y011720D02*
X010048Y011720D01*
X009949Y011819D02*
X010894Y011819D01*
X010853Y011917D02*
X009931Y011917D01*
X010030Y012016D02*
X010850Y012016D01*
X010850Y012114D02*
X010069Y012114D01*
X010069Y012311D02*
X010850Y012311D01*
X010850Y012213D02*
X009689Y012213D01*
X009956Y012508D02*
X010571Y012508D01*
X010384Y012607D02*
X009857Y012607D01*
X010054Y012410D02*
X010850Y012410D01*
X010941Y013789D02*
X011330Y013789D01*
X010843Y013887D02*
X013482Y013887D01*
X013482Y013789D02*
X012944Y013789D01*
X013482Y013986D02*
X010744Y013986D01*
X010646Y014084D02*
X013491Y014084D01*
X013491Y014183D02*
X010547Y014183D01*
X010542Y014281D02*
X013493Y014281D01*
X013534Y014380D02*
X010542Y014380D01*
X010542Y014478D02*
X013547Y014478D01*
X013553Y014872D02*
X013574Y014872D01*
X013553Y014971D02*
X013615Y014971D01*
X013553Y015069D02*
X013688Y015069D01*
X013787Y015168D02*
X013553Y015168D01*
X013553Y015266D02*
X013885Y015266D01*
X013984Y015365D02*
X013553Y015365D01*
X013553Y015463D02*
X014082Y015463D01*
X014231Y015562D02*
X013553Y015562D01*
X013553Y015660D02*
X016791Y015660D01*
X016791Y015562D02*
X016099Y015562D01*
X016248Y015463D02*
X016699Y015463D01*
X016619Y015365D02*
X016346Y015365D01*
X016445Y015266D02*
X016578Y015266D01*
X016576Y015168D02*
X016543Y015168D01*
X016791Y016054D02*
X013553Y016054D01*
X013553Y016153D02*
X016802Y016153D01*
X017285Y016153D02*
X017385Y016153D01*
X017385Y016054D02*
X017285Y016054D01*
X017285Y015956D02*
X017385Y015956D01*
X017879Y015956D02*
X019001Y015956D01*
X019001Y016054D02*
X017879Y016054D01*
X017868Y016153D02*
X019001Y016153D01*
X019001Y016251D02*
X013553Y016251D01*
X013553Y016350D02*
X018925Y016350D01*
X018858Y016448D02*
X013553Y016448D01*
X013553Y016547D02*
X018301Y016547D01*
X018292Y016645D02*
X013553Y016645D01*
X013553Y016744D02*
X018292Y016744D01*
X018292Y016842D02*
X013553Y016842D01*
X013553Y016941D02*
X018648Y016941D01*
X018648Y017039D02*
X018748Y017039D01*
X018748Y017138D02*
X018648Y017138D01*
X018648Y017236D02*
X018748Y017236D01*
X018748Y017335D02*
X018648Y017335D01*
X018398Y017335D02*
X006831Y017335D01*
X006831Y017433D02*
X018916Y017433D01*
X019059Y017532D02*
X006831Y017532D01*
X006831Y017630D02*
X021455Y017630D01*
X021455Y017701D02*
X021455Y017359D01*
X021510Y017225D01*
X021579Y017156D01*
X021510Y017087D01*
X021455Y016953D01*
X021455Y016611D01*
X021510Y016477D01*
X021613Y016374D01*
X021747Y016319D01*
X022296Y016319D01*
X022241Y016264D01*
X022241Y015830D01*
X022548Y015523D01*
X022982Y015523D01*
X023289Y015830D01*
X023289Y015941D01*
X023427Y016080D01*
X023495Y016243D01*
X023495Y016371D01*
X023503Y016374D01*
X023605Y016477D01*
X023624Y016523D01*
X023664Y016507D01*
X023748Y016423D01*
X024182Y016423D01*
X024489Y016730D01*
X024489Y017164D01*
X024405Y017247D01*
X024489Y017330D01*
X024489Y017764D01*
X024182Y018071D01*
X023748Y018071D01*
X023669Y017992D01*
X023373Y017992D01*
X023369Y017994D01*
X022731Y017994D01*
X022597Y017938D01*
X022586Y017927D01*
X022578Y017931D01*
X022617Y017970D01*
X022742Y018095D01*
X022788Y018206D01*
X022788Y018206D01*
X022891Y018309D01*
X022946Y018443D01*
X022946Y018982D01*
X022891Y019116D01*
X022788Y019218D01*
X022731Y019242D01*
X022731Y019333D01*
X022413Y019333D01*
X022413Y019430D01*
X022316Y019430D01*
X022316Y019333D01*
X021998Y019333D01*
X021998Y019242D01*
X021942Y019218D01*
X021915Y019192D01*
X021868Y019238D01*
X021812Y019262D01*
X021812Y019333D01*
X021513Y019333D01*
X021513Y019430D01*
X021416Y019430D01*
X021416Y019333D01*
X021118Y019333D01*
X021118Y019323D01*
X021042Y019399D01*
X020908Y019454D01*
X020827Y019454D01*
X020827Y019906D01*
X020936Y019952D01*
X021039Y020054D01*
X021094Y020188D01*
X021094Y020702D01*
X021353Y020702D01*
X021517Y020770D01*
X021642Y020895D01*
X021942Y021195D01*
X022010Y021358D01*
X022010Y022335D01*
X021942Y022499D01*
X021817Y022624D01*
X021343Y023098D01*
X021179Y023166D01*
X020420Y023166D01*
X020376Y023184D01*
X019738Y023184D01*
X019604Y023129D01*
X019565Y023089D01*
X019525Y023129D01*
X019391Y023184D01*
X019148Y023184D01*
X019139Y023188D01*
X018355Y023188D01*
X018294Y023249D01*
X018159Y023305D01*
X017581Y023305D01*
X017453Y023252D01*
X017380Y023282D01*
X016802Y023282D01*
X016668Y023226D01*
X016565Y023124D01*
X016509Y022990D01*
X016509Y022451D01*
X016565Y022316D01*
X016668Y022214D01*
X016724Y022190D01*
X016724Y022099D01*
X017042Y022099D01*
X017042Y022002D01*
X016724Y022002D01*
X016724Y021834D01*
X016726Y021828D01*
X016481Y021828D01*
X016481Y022016D01*
X016425Y022150D01*
X016323Y022253D01*
X016189Y022309D01*
X015610Y022309D01*
X015565Y022290D01*
X015519Y022309D01*
X014941Y022309D01*
X014807Y022253D01*
X014704Y022150D01*
X014649Y022016D01*
X014649Y021828D01*
X014130Y021828D01*
X014065Y021801D01*
X014000Y021828D01*
X013461Y021828D01*
X013327Y021773D01*
X013224Y021670D01*
X013216Y021652D01*
X012940Y021630D01*
X012907Y021663D01*
X012773Y021719D01*
X012193Y021719D01*
X012059Y021663D01*
X011956Y021560D01*
X011900Y021426D01*
X011900Y020868D01*
X011956Y020733D01*
X012043Y020647D01*
X011956Y020560D01*
X011900Y020426D01*
X011900Y019868D01*
X011956Y019733D01*
X012059Y019631D01*
X012193Y019575D01*
X012773Y019575D01*
X012907Y019631D01*
X013001Y019725D01*
X012983Y019682D01*
X012983Y019143D01*
X013039Y019009D01*
X012850Y019009D01*
X012850Y019097D02*
X012533Y019097D01*
X012533Y019197D01*
X012433Y019197D01*
X012433Y019504D01*
X012246Y019504D01*
X012208Y019493D01*
X012173Y019474D01*
X012145Y019446D01*
X012126Y019411D01*
X012115Y019373D01*
X012115Y019197D01*
X012433Y019197D01*
X012433Y019097D01*
X012115Y019097D01*
X012115Y018920D01*
X012126Y018882D01*
X012145Y018848D01*
X012173Y018820D01*
X012208Y018800D01*
X012246Y018790D01*
X012433Y018790D01*
X012433Y019097D01*
X012533Y019097D01*
X012533Y018790D01*
X012720Y018790D01*
X012758Y018800D01*
X012793Y018820D01*
X012820Y018848D01*
X012840Y018882D01*
X012850Y018920D01*
X012850Y019097D01*
X012850Y019197D02*
X012533Y019197D01*
X012533Y019504D01*
X012720Y019504D01*
X012758Y019493D01*
X012793Y019474D01*
X012820Y019446D01*
X012840Y019411D01*
X012850Y019373D01*
X012850Y019197D01*
X012850Y019206D02*
X012983Y019206D01*
X012983Y019305D02*
X012850Y019305D01*
X012842Y019403D02*
X012983Y019403D01*
X012983Y019502D02*
X012728Y019502D01*
X012833Y019600D02*
X012983Y019600D01*
X012975Y019699D02*
X012990Y019699D01*
X012533Y019502D02*
X012433Y019502D01*
X012433Y019403D02*
X012533Y019403D01*
X012533Y019305D02*
X012433Y019305D01*
X012433Y019206D02*
X012533Y019206D01*
X012533Y019108D02*
X012998Y019108D01*
X013039Y019009D02*
X013142Y018906D01*
X013276Y018850D01*
X013854Y018850D01*
X013988Y018906D01*
X014071Y018989D01*
X014182Y019035D01*
X014249Y019102D01*
X014276Y019076D01*
X014310Y019056D01*
X014348Y019046D01*
X014516Y019046D01*
X014516Y019364D01*
X014613Y019364D01*
X014613Y019046D01*
X014781Y019046D01*
X014820Y019056D01*
X014854Y019076D01*
X014882Y019104D01*
X014901Y019138D01*
X014912Y019176D01*
X014912Y019364D01*
X014613Y019364D01*
X014613Y019461D01*
X014912Y019461D01*
X014912Y019532D01*
X014968Y019556D01*
X015049Y019637D01*
X015080Y019637D01*
X015161Y019556D01*
X015218Y019532D01*
X015218Y019461D01*
X015516Y019461D01*
X015516Y019364D01*
X015218Y019364D01*
X015218Y019176D01*
X015228Y019138D01*
X015248Y019104D01*
X015276Y019076D01*
X015310Y019056D01*
X015348Y019046D01*
X015516Y019046D01*
X015516Y019364D01*
X015613Y019364D01*
X015613Y019046D01*
X015781Y019046D01*
X015820Y019056D01*
X015854Y019076D01*
X015882Y019104D01*
X015901Y019138D01*
X015912Y019176D01*
X015912Y019364D01*
X015613Y019364D01*
X015613Y019461D01*
X015912Y019461D01*
X015912Y019532D01*
X015968Y019556D01*
X016049Y019637D01*
X016080Y019637D01*
X016142Y019575D01*
X016198Y019552D01*
X016198Y019461D01*
X016516Y019461D01*
X016516Y019364D01*
X016198Y019364D01*
X016198Y019196D01*
X016209Y019157D01*
X016228Y019123D01*
X016256Y019095D01*
X016290Y019076D01*
X016329Y019065D01*
X016516Y019065D01*
X016516Y019364D01*
X016613Y019364D01*
X016613Y019065D01*
X016801Y019065D01*
X016839Y019076D01*
X016873Y019095D01*
X016880Y019102D01*
X016913Y019070D01*
X017035Y019019D01*
X017039Y019009D01*
X014120Y019009D01*
X013993Y018911D02*
X017137Y018911D01*
X017142Y018906D02*
X017276Y018850D01*
X017854Y018850D01*
X017988Y018906D01*
X018091Y019009D01*
X019329Y019009D01*
X019329Y018911D02*
X017993Y018911D01*
X018091Y019009D02*
X018146Y019143D01*
X018146Y019551D01*
X018195Y019531D01*
X018734Y019531D01*
X018868Y019586D01*
X018971Y019689D01*
X019027Y019823D01*
X019027Y020401D01*
X019008Y020447D01*
X019027Y020492D01*
X019027Y021071D01*
X018971Y021205D01*
X018910Y021266D01*
X018910Y021502D01*
X019120Y021502D01*
X019120Y021243D01*
X019041Y021164D01*
X019041Y020730D01*
X019348Y020423D01*
X019782Y020423D01*
X019931Y020573D01*
X019931Y020506D01*
X019888Y020462D01*
X019820Y020298D01*
X019820Y020224D01*
X019759Y020162D01*
X019703Y020028D01*
X019703Y019454D01*
X019621Y019454D01*
X019487Y019399D01*
X019385Y019296D01*
X019329Y019162D01*
X019329Y018466D01*
X019385Y018331D01*
X019487Y018229D01*
X019621Y018173D01*
X020160Y018173D01*
X020265Y018217D01*
X020369Y018173D01*
X020908Y018173D01*
X021026Y018222D01*
X021061Y018186D01*
X021195Y018131D01*
X021621Y018131D01*
X021621Y017941D01*
X021613Y017938D01*
X021510Y017835D01*
X021455Y017701D01*
X021466Y017729D02*
X006831Y017729D01*
X006831Y017827D02*
X021507Y017827D01*
X021600Y017926D02*
X006831Y017926D01*
X006831Y018024D02*
X021621Y018024D01*
X021621Y018123D02*
X006831Y018123D01*
X006831Y018221D02*
X019506Y018221D01*
X019396Y018320D02*
X006831Y018320D01*
X006831Y018418D02*
X006836Y018418D01*
X006831Y019009D02*
X007891Y019009D01*
X007891Y018911D02*
X007991Y018911D01*
X007991Y019009D02*
X009479Y019009D01*
X009479Y019097D02*
X009479Y018920D01*
X009489Y018882D01*
X009509Y018848D01*
X009537Y018820D01*
X009571Y018800D01*
X009609Y018790D01*
X009797Y018790D01*
X009797Y019097D01*
X009897Y019097D01*
X009897Y019197D01*
X010214Y019197D01*
X010214Y019373D01*
X010204Y019411D01*
X010184Y019446D01*
X010156Y019474D01*
X010122Y019493D01*
X010084Y019504D01*
X009897Y019504D01*
X009897Y019197D01*
X009797Y019197D01*
X009797Y019504D01*
X009609Y019504D01*
X009571Y019493D01*
X009537Y019474D01*
X009509Y019446D01*
X009489Y019411D01*
X009479Y019373D01*
X009479Y019197D01*
X009797Y019197D01*
X009797Y019097D01*
X009479Y019097D01*
X009479Y019206D02*
X009091Y019206D01*
X009091Y019108D02*
X009797Y019108D01*
X009797Y019206D02*
X009897Y019206D01*
X009897Y019108D02*
X012433Y019108D01*
X012433Y019009D02*
X012533Y019009D01*
X012533Y018911D02*
X012433Y018911D01*
X012433Y018812D02*
X012533Y018812D01*
X012779Y018812D02*
X019329Y018812D01*
X019329Y018714D02*
X009091Y018714D01*
X009091Y018812D02*
X009551Y018812D01*
X009482Y018911D02*
X009091Y018911D01*
X009091Y018615D02*
X019329Y018615D01*
X019329Y018517D02*
X009091Y018517D01*
X009046Y018418D02*
X019349Y018418D01*
X019329Y019108D02*
X018132Y019108D01*
X018146Y019206D02*
X019347Y019206D01*
X019393Y019305D02*
X018146Y019305D01*
X018146Y019403D02*
X019498Y019403D01*
X019703Y019502D02*
X018146Y019502D01*
X018882Y019600D02*
X019703Y019600D01*
X019703Y019699D02*
X018975Y019699D01*
X019016Y019797D02*
X019703Y019797D01*
X019703Y019896D02*
X019027Y019896D01*
X019027Y019994D02*
X019703Y019994D01*
X019730Y020093D02*
X019027Y020093D01*
X019027Y020191D02*
X019787Y020191D01*
X019820Y020290D02*
X019027Y020290D01*
X019027Y020388D02*
X019857Y020388D01*
X019845Y020487D02*
X019912Y020487D01*
X019285Y020487D02*
X019024Y020487D01*
X019027Y020585D02*
X019186Y020585D01*
X019088Y020684D02*
X019027Y020684D01*
X019027Y020782D02*
X019041Y020782D01*
X019027Y020881D02*
X019041Y020881D01*
X019027Y020979D02*
X019041Y020979D01*
X019041Y021078D02*
X019024Y021078D01*
X019053Y021176D02*
X018983Y021176D01*
X018910Y021275D02*
X019120Y021275D01*
X019120Y021373D02*
X018910Y021373D01*
X018910Y021472D02*
X019120Y021472D01*
X018020Y021472D02*
X017746Y021472D01*
X017746Y021483D02*
X017739Y021512D01*
X018020Y021512D01*
X018020Y021266D01*
X017959Y021205D01*
X017903Y021071D01*
X017903Y020838D01*
X017817Y020924D01*
X017743Y020998D01*
X017746Y021011D01*
X017746Y021198D01*
X017448Y021198D01*
X017448Y021295D01*
X017746Y021295D01*
X017746Y021483D01*
X017746Y021373D02*
X018020Y021373D01*
X018020Y021275D02*
X017448Y021275D01*
X017448Y021295D02*
X017351Y021295D01*
X017351Y021613D01*
X017260Y021613D01*
X017236Y021670D01*
X017203Y021704D01*
X017327Y021704D01*
X017330Y021705D01*
X017344Y021670D01*
X017447Y021567D01*
X017448Y021567D01*
X017448Y021295D01*
X017448Y021373D02*
X017351Y021373D01*
X017351Y021472D02*
X017448Y021472D01*
X017444Y021570D02*
X017351Y021570D01*
X017346Y021669D02*
X017237Y021669D01*
X017042Y022063D02*
X016462Y022063D01*
X016481Y021964D02*
X016724Y021964D01*
X016724Y021866D02*
X016481Y021866D01*
X016415Y022161D02*
X016724Y022161D01*
X016622Y022260D02*
X016307Y022260D01*
X016548Y022358D02*
X009091Y022358D01*
X009091Y022260D02*
X014823Y022260D01*
X014715Y022161D02*
X009091Y022161D01*
X009091Y022063D02*
X014668Y022063D01*
X014649Y021964D02*
X009085Y021964D01*
X008999Y021866D02*
X014649Y021866D01*
X013321Y021767D02*
X006831Y021767D01*
X006831Y021669D02*
X009053Y021669D01*
X008846Y021570D02*
X006831Y021570D01*
X006831Y021866D02*
X006883Y021866D01*
X007891Y021866D02*
X007991Y021866D01*
X007991Y021964D02*
X007891Y021964D01*
X007891Y022063D02*
X007991Y022063D01*
X007991Y022161D02*
X007891Y022161D01*
X007891Y022260D02*
X007991Y022260D01*
X007991Y022358D02*
X007891Y022358D01*
X007891Y022457D02*
X006831Y022457D01*
X006831Y023048D02*
X006892Y023048D01*
X006831Y023146D02*
X016587Y023146D01*
X016533Y023048D02*
X008990Y023048D01*
X009085Y022949D02*
X016509Y022949D01*
X016509Y022851D02*
X009091Y022851D01*
X009091Y022752D02*
X016509Y022752D01*
X016509Y022654D02*
X009091Y022654D01*
X009091Y022555D02*
X016509Y022555D01*
X016509Y022457D02*
X007991Y022457D01*
X007991Y022555D02*
X007891Y022555D01*
X007891Y022654D02*
X007991Y022654D01*
X007991Y022752D02*
X007891Y022752D01*
X007891Y022851D02*
X007991Y022851D01*
X007991Y022949D02*
X007891Y022949D01*
X007891Y023048D02*
X007991Y023048D01*
X006831Y023245D02*
X016712Y023245D01*
X018298Y023245D02*
X027308Y023245D01*
X027306Y023244D02*
X027272Y023224D01*
X027244Y023196D01*
X027224Y023162D01*
X027214Y023124D01*
X027214Y022936D01*
X027512Y022936D01*
X027512Y023254D01*
X027344Y023254D01*
X027306Y023244D01*
X027220Y023146D02*
X021227Y023146D01*
X021393Y023048D02*
X025025Y023048D01*
X024911Y022949D02*
X021492Y022949D01*
X021590Y022851D02*
X024861Y022851D01*
X024840Y022752D02*
X021689Y022752D01*
X021787Y022654D02*
X024840Y022654D01*
X024840Y022555D02*
X021886Y022555D01*
X021960Y022457D02*
X024840Y022457D01*
X024840Y022358D02*
X022000Y022358D01*
X022010Y022260D02*
X024840Y022260D01*
X024865Y022161D02*
X022010Y022161D01*
X022010Y022063D02*
X024519Y022063D01*
X024457Y021964D02*
X022010Y021964D01*
X022010Y021866D02*
X024455Y021866D01*
X024455Y021669D02*
X022010Y021669D01*
X022010Y021767D02*
X024773Y021767D01*
X024773Y021866D02*
X024870Y021866D01*
X024870Y021964D02*
X024773Y021964D01*
X024773Y022063D02*
X024870Y022063D01*
X024455Y021570D02*
X022010Y021570D01*
X022010Y021472D02*
X023884Y021472D01*
X023770Y021373D02*
X022010Y021373D01*
X021975Y021275D02*
X023309Y021275D01*
X023303Y021271D02*
X023275Y021243D01*
X023255Y021209D01*
X023245Y021171D01*
X023245Y021002D01*
X023563Y021002D01*
X023563Y021301D01*
X023375Y021301D01*
X023337Y021291D01*
X023303Y021271D01*
X023246Y021176D02*
X021923Y021176D01*
X021825Y021078D02*
X023245Y021078D01*
X023245Y020881D02*
X021628Y020881D01*
X021726Y020979D02*
X023563Y020979D01*
X023563Y020881D02*
X023660Y020881D01*
X023660Y020782D02*
X023563Y020782D01*
X023563Y020684D02*
X023660Y020684D01*
X023740Y020585D02*
X021094Y020585D01*
X021094Y020487D02*
X023818Y020487D01*
X024249Y020388D02*
X021094Y020388D01*
X021094Y020290D02*
X024249Y020290D01*
X024249Y020191D02*
X021094Y020191D01*
X021055Y020093D02*
X024249Y020093D01*
X024249Y019994D02*
X020979Y019994D01*
X020827Y019896D02*
X024249Y019896D01*
X024282Y019797D02*
X024155Y019797D01*
X023574Y019797D02*
X020827Y019797D01*
X020827Y019699D02*
X021156Y019699D01*
X021148Y019690D02*
X021128Y019656D01*
X021118Y019618D01*
X021118Y019430D01*
X021416Y019430D01*
X021416Y019748D01*
X021248Y019748D01*
X021210Y019738D01*
X021176Y019718D01*
X021148Y019690D01*
X021118Y019600D02*
X020827Y019600D01*
X020827Y019502D02*
X021118Y019502D01*
X021032Y019403D02*
X021416Y019403D01*
X021513Y019403D02*
X022316Y019403D01*
X022316Y019430D02*
X021998Y019430D01*
X021998Y019598D01*
X022009Y019636D01*
X022028Y019670D01*
X022056Y019698D01*
X022090Y019718D01*
X022129Y019728D01*
X022316Y019728D01*
X022316Y019430D01*
X022316Y019502D02*
X022413Y019502D01*
X022413Y019430D02*
X022413Y019728D01*
X022601Y019728D01*
X022639Y019718D01*
X022673Y019698D01*
X022673Y019699D02*
X023476Y019699D01*
X023377Y019600D02*
X022731Y019600D01*
X022731Y019598D02*
X022721Y019636D01*
X022701Y019670D01*
X022673Y019698D01*
X022731Y019598D02*
X022731Y019430D01*
X022413Y019430D01*
X022413Y019403D02*
X023341Y019403D01*
X023341Y019305D02*
X022731Y019305D01*
X022801Y019206D02*
X023341Y019206D01*
X023364Y019108D02*
X022894Y019108D01*
X022935Y019009D02*
X023462Y019009D01*
X023561Y018911D02*
X022946Y018911D01*
X022946Y018812D02*
X024448Y018812D01*
X025055Y018714D02*
X022946Y018714D01*
X022946Y018615D02*
X025055Y018615D01*
X025055Y018517D02*
X022946Y018517D01*
X022936Y018418D02*
X025055Y018418D01*
X025055Y018320D02*
X022895Y018320D01*
X022803Y018221D02*
X025055Y018221D01*
X025055Y018123D02*
X022754Y018123D01*
X022671Y018024D02*
X023701Y018024D01*
X024228Y018024D02*
X025055Y018024D01*
X025068Y017926D02*
X024327Y017926D01*
X024425Y017827D02*
X025108Y017827D01*
X025187Y017729D02*
X024489Y017729D01*
X024489Y017630D02*
X025286Y017630D01*
X025384Y017532D02*
X024489Y017532D01*
X024489Y017433D02*
X025492Y017433D01*
X025418Y017207D02*
X025350Y017235D01*
X025279Y017249D01*
X025253Y017249D01*
X025253Y016889D01*
X025613Y016889D01*
X025613Y016915D01*
X025598Y016987D01*
X025570Y017054D01*
X025530Y017115D01*
X025478Y017166D01*
X025418Y017207D01*
X025344Y017236D02*
X026772Y017236D01*
X026716Y017138D02*
X025507Y017138D01*
X025577Y017039D02*
X026676Y017039D01*
X026658Y016941D02*
X025608Y016941D01*
X025613Y016869D02*
X025253Y016869D01*
X025253Y016889D01*
X025233Y016889D01*
X025233Y017249D01*
X025206Y017249D01*
X025135Y017235D01*
X025067Y017207D01*
X025007Y017166D01*
X024955Y017115D01*
X024915Y017054D01*
X024887Y016987D01*
X024873Y016915D01*
X024873Y016889D01*
X025233Y016889D01*
X025233Y016869D01*
X025253Y016869D01*
X025253Y016509D01*
X025279Y016509D01*
X025350Y016523D01*
X025418Y016551D01*
X025478Y016592D01*
X025530Y016643D01*
X025570Y016704D01*
X025598Y016771D01*
X025613Y016843D01*
X025613Y016869D01*
X025612Y016842D02*
X026658Y016842D01*
X026665Y016744D02*
X025587Y016744D01*
X025531Y016645D02*
X026706Y016645D01*
X026748Y016547D02*
X025407Y016547D01*
X025253Y016547D02*
X025233Y016547D01*
X025233Y016509D02*
X025233Y016869D01*
X024873Y016869D01*
X024873Y016843D01*
X024887Y016771D01*
X024915Y016704D01*
X024955Y016643D01*
X025007Y016592D01*
X025067Y016551D01*
X025135Y016523D01*
X025206Y016509D01*
X025233Y016509D01*
X025233Y016645D02*
X025253Y016645D01*
X025253Y016744D02*
X025233Y016744D01*
X025233Y016842D02*
X025253Y016842D01*
X025253Y016941D02*
X025233Y016941D01*
X025233Y017039D02*
X025253Y017039D01*
X025253Y017138D02*
X025233Y017138D01*
X025233Y017236D02*
X025253Y017236D01*
X025141Y017236D02*
X024416Y017236D01*
X024489Y017138D02*
X024978Y017138D01*
X024908Y017039D02*
X024489Y017039D01*
X024489Y016941D02*
X024878Y016941D01*
X024873Y016842D02*
X024489Y016842D01*
X024489Y016744D02*
X024898Y016744D01*
X024954Y016645D02*
X024404Y016645D01*
X024305Y016547D02*
X025078Y016547D01*
X025684Y016182D02*
X025674Y016143D01*
X025674Y015975D01*
X025992Y015975D01*
X025992Y016274D01*
X025804Y016274D01*
X025766Y016263D01*
X025732Y016244D01*
X025704Y016216D01*
X025684Y016182D01*
X025676Y016153D02*
X023457Y016153D01*
X023495Y016251D02*
X025744Y016251D01*
X025674Y016054D02*
X023401Y016054D01*
X023303Y015956D02*
X025992Y015956D01*
X025992Y015878D02*
X025674Y015878D01*
X025674Y015710D01*
X025684Y015672D01*
X025704Y015638D01*
X025732Y015610D01*
X025766Y015590D01*
X025804Y015580D01*
X025992Y015580D01*
X025992Y015878D01*
X025992Y015857D02*
X026089Y015857D01*
X026089Y015759D02*
X025992Y015759D01*
X025992Y015660D02*
X026089Y015660D01*
X026168Y015562D02*
X023020Y015562D01*
X023119Y015660D02*
X025691Y015660D01*
X025674Y015759D02*
X023217Y015759D01*
X023289Y015857D02*
X025674Y015857D01*
X025992Y016054D02*
X026089Y016054D01*
X026089Y016153D02*
X025992Y016153D01*
X025992Y016251D02*
X026089Y016251D01*
X026203Y016350D02*
X023495Y016350D01*
X023576Y016448D02*
X023723Y016448D01*
X024207Y016448D02*
X026322Y016448D01*
X026457Y017335D02*
X026871Y017335D01*
X027052Y017433D02*
X026624Y017433D01*
X026722Y017532D02*
X027351Y017532D01*
X027433Y017433D02*
X027449Y017433D01*
X027252Y017630D02*
X026773Y017630D01*
X026813Y017729D02*
X027154Y017729D01*
X027055Y017827D02*
X026828Y017827D01*
X026828Y017926D02*
X026957Y017926D01*
X026858Y018024D02*
X026816Y018024D01*
X026028Y017335D02*
X024489Y017335D01*
X022241Y016251D02*
X019891Y016251D01*
X019891Y016153D02*
X022241Y016153D01*
X022241Y016054D02*
X019891Y016054D01*
X020405Y015956D02*
X022241Y015956D01*
X022241Y015857D02*
X020510Y015857D01*
X020556Y015759D02*
X022313Y015759D01*
X022411Y015660D02*
X020574Y015660D01*
X021191Y015562D02*
X022510Y015562D01*
X021486Y015266D02*
X026806Y015266D01*
X026806Y015168D02*
X021489Y015168D01*
X021490Y015069D02*
X026806Y015069D01*
X026806Y014971D02*
X021490Y014971D01*
X021489Y014872D02*
X026806Y014872D01*
X026806Y014774D02*
X021432Y014774D01*
X021390Y015365D02*
X026806Y015365D01*
X026244Y015463D02*
X021291Y015463D01*
X021673Y016350D02*
X020020Y016350D01*
X020214Y016448D02*
X021539Y016448D01*
X021481Y016547D02*
X020312Y016547D01*
X020411Y016645D02*
X021455Y016645D01*
X021455Y016744D02*
X020467Y016744D01*
X020508Y016842D02*
X021455Y016842D01*
X021455Y016941D02*
X020523Y016941D01*
X020523Y017039D02*
X021490Y017039D01*
X021560Y017138D02*
X020509Y017138D01*
X020468Y017236D02*
X021506Y017236D01*
X021465Y017335D02*
X020413Y017335D01*
X020315Y017433D02*
X021455Y017433D01*
X021455Y017532D02*
X020129Y017532D01*
X021024Y018221D02*
X021026Y018221D01*
X021901Y019206D02*
X021929Y019206D01*
X021998Y019305D02*
X021812Y019305D01*
X021812Y019430D02*
X021812Y019618D01*
X021801Y019656D01*
X021782Y019690D01*
X021754Y019718D01*
X021720Y019738D01*
X021681Y019748D01*
X021513Y019748D01*
X021513Y019430D01*
X021812Y019430D01*
X021812Y019502D02*
X021998Y019502D01*
X021999Y019600D02*
X021812Y019600D01*
X021773Y019699D02*
X022056Y019699D01*
X022316Y019699D02*
X022413Y019699D01*
X022413Y019600D02*
X022316Y019600D01*
X022731Y019502D02*
X023341Y019502D01*
X021513Y019502D02*
X021416Y019502D01*
X021416Y019600D02*
X021513Y019600D01*
X021513Y019699D02*
X021416Y019699D01*
X021094Y020684D02*
X023264Y020684D01*
X023245Y020782D02*
X021529Y020782D01*
X023563Y021078D02*
X023660Y021078D01*
X023660Y021176D02*
X023563Y021176D01*
X023563Y021275D02*
X023660Y021275D01*
X025548Y020195D02*
X025982Y020195D01*
X025982Y020098D01*
X025683Y020098D01*
X025548Y020098D01*
X025548Y020195D01*
X025548Y020191D02*
X025982Y020191D01*
X026651Y021866D02*
X026748Y021866D01*
X026748Y021964D02*
X026651Y021964D01*
X026651Y022063D02*
X026748Y022063D01*
X026608Y022161D02*
X026999Y022161D01*
X026999Y022260D02*
X026633Y022260D01*
X026633Y022358D02*
X026999Y022358D01*
X026999Y022457D02*
X026633Y022457D01*
X026633Y022555D02*
X027019Y022555D01*
X027066Y022654D02*
X026633Y022654D01*
X026633Y022752D02*
X027176Y022752D01*
X027214Y022949D02*
X026562Y022949D01*
X026612Y022851D02*
X027512Y022851D01*
X027609Y022851D02*
X028316Y022851D01*
X028316Y022930D02*
X027998Y022930D01*
X027998Y023098D01*
X028009Y023136D01*
X028028Y023170D01*
X028056Y023198D01*
X028090Y023218D01*
X028129Y023228D01*
X028316Y023228D01*
X028316Y022930D01*
X028316Y022949D02*
X028413Y022949D01*
X028413Y022930D02*
X028413Y023228D01*
X028601Y023228D01*
X028639Y023218D01*
X028673Y023198D01*
X028701Y023170D01*
X028721Y023136D01*
X028731Y023098D01*
X028731Y022930D01*
X028413Y022930D01*
X028413Y022851D02*
X029091Y022851D01*
X028975Y022752D02*
X028731Y022752D01*
X028853Y022654D02*
X028925Y022654D01*
X028731Y022949D02*
X029416Y022949D01*
X029416Y023030D02*
X029118Y023030D01*
X029118Y023218D01*
X029128Y023256D01*
X029148Y023290D01*
X029176Y023318D01*
X029210Y023338D01*
X029248Y023348D01*
X029416Y023348D01*
X029416Y023030D01*
X029416Y023048D02*
X029513Y023048D01*
X029513Y023146D02*
X029416Y023146D01*
X029416Y023245D02*
X029513Y023245D01*
X029513Y023343D02*
X029416Y023343D01*
X029230Y023343D02*
X006831Y023343D01*
X006831Y023442D02*
X029795Y023442D01*
X029721Y023343D02*
X029700Y023343D01*
X029968Y023540D02*
X006831Y023540D01*
X006831Y023639D02*
X049744Y023639D01*
X049744Y023737D02*
X006831Y023737D01*
X006831Y023836D02*
X049744Y023836D01*
X049744Y023934D02*
X006831Y023934D01*
X006831Y024033D02*
X049744Y024033D01*
X049744Y024131D02*
X006831Y024131D01*
X006831Y024230D02*
X049744Y024230D01*
X049744Y024328D02*
X006831Y024328D01*
X006831Y024427D02*
X049744Y024427D01*
X047776Y024525D02*
X006831Y024525D01*
X006831Y024624D02*
X047776Y024624D01*
X047776Y024722D02*
X006831Y024722D01*
X006831Y024821D02*
X047776Y024821D01*
X049744Y023540D02*
X030562Y023540D01*
X031021Y023442D02*
X049744Y023442D01*
X049744Y022457D02*
X048705Y022457D01*
X048705Y022555D02*
X048605Y022555D01*
X049713Y021866D02*
X049744Y021866D01*
X049744Y021767D02*
X043954Y021767D01*
X043927Y021669D02*
X049744Y021669D01*
X049744Y021570D02*
X043453Y021570D01*
X043536Y021472D02*
X043633Y021472D01*
X043633Y021373D02*
X043536Y021373D01*
X043536Y021275D02*
X043633Y021275D01*
X043633Y021176D02*
X045653Y021176D01*
X045590Y021078D02*
X043951Y021078D01*
X043951Y021275D02*
X045798Y021275D01*
X045560Y020979D02*
X045055Y020979D01*
X045223Y020881D02*
X045560Y020881D01*
X045540Y020782D02*
X045295Y020782D01*
X045332Y020684D02*
X045474Y020684D01*
X045407Y020585D02*
X045332Y020585D01*
X045332Y020487D02*
X045341Y020487D01*
X044486Y020979D02*
X044385Y020979D01*
X043636Y021669D02*
X043539Y021669D01*
X043539Y021767D02*
X043636Y021767D01*
X043636Y021866D02*
X043539Y021866D01*
X042641Y019699D02*
X039487Y019699D01*
X039487Y019600D02*
X042489Y019600D01*
X042391Y019502D02*
X039487Y019502D01*
X039487Y019403D02*
X042333Y019403D01*
X042293Y019305D02*
X039487Y019305D01*
X039487Y019206D02*
X042261Y019206D01*
X042261Y019108D02*
X039487Y019108D01*
X039487Y019009D02*
X042261Y019009D01*
X042261Y018911D02*
X039487Y018911D01*
X039459Y018812D02*
X042261Y018812D01*
X042282Y018714D02*
X039399Y018714D01*
X039260Y018615D02*
X042323Y018615D01*
X042366Y018517D02*
X039028Y018517D01*
X039028Y018418D02*
X042465Y018418D01*
X042582Y018320D02*
X039004Y018320D01*
X038951Y018221D02*
X043854Y018221D01*
X042628Y018123D02*
X038829Y018123D01*
X038101Y018123D02*
X037970Y018123D01*
X037984Y018024D02*
X042537Y018024D01*
X042428Y017926D02*
X042331Y017926D01*
X042331Y017980D02*
X042163Y017980D01*
X042125Y017970D01*
X042091Y017950D01*
X042063Y017923D01*
X042043Y017888D01*
X042033Y017850D01*
X042033Y017662D01*
X042331Y017662D01*
X042331Y017980D01*
X042331Y017827D02*
X042428Y017827D01*
X042428Y017729D02*
X042331Y017729D01*
X042331Y017630D02*
X039802Y017630D01*
X039909Y017532D02*
X042033Y017532D01*
X042033Y017565D02*
X042033Y017378D01*
X042043Y017339D01*
X042063Y017305D01*
X042091Y017277D01*
X042125Y017258D01*
X042163Y017247D01*
X042331Y017247D01*
X042331Y017565D01*
X042033Y017565D01*
X042033Y017433D02*
X040008Y017433D01*
X040218Y017335D02*
X042046Y017335D01*
X042331Y017335D02*
X042428Y017335D01*
X042428Y017433D02*
X042331Y017433D01*
X042331Y017532D02*
X042428Y017532D01*
X042524Y017236D02*
X040316Y017236D01*
X040415Y017138D02*
X042596Y017138D01*
X042764Y017039D02*
X040489Y017039D01*
X040489Y016941D02*
X043203Y016941D01*
X043203Y016842D02*
X040489Y016842D01*
X040489Y016744D02*
X043203Y016744D01*
X043203Y016645D02*
X040489Y016645D01*
X040405Y016547D02*
X043219Y016547D01*
X043203Y016448D02*
X040307Y016448D01*
X040208Y016350D02*
X043203Y016350D01*
X043203Y016251D02*
X039272Y016251D01*
X039272Y016153D02*
X043203Y016153D01*
X043203Y016054D02*
X039266Y016054D01*
X039167Y015956D02*
X043203Y015956D01*
X043228Y015857D02*
X038910Y015857D01*
X038910Y015759D02*
X043282Y015759D01*
X041301Y015660D02*
X038869Y015660D01*
X038980Y015956D02*
X039008Y015956D01*
X039008Y016054D02*
X038987Y016054D01*
X038987Y016153D02*
X039008Y016153D01*
X039008Y016251D02*
X038987Y016251D01*
X038987Y016350D02*
X039008Y016350D01*
X039008Y016448D02*
X039623Y016448D01*
X039722Y016350D02*
X039272Y016350D01*
X039272Y016547D02*
X039525Y016547D01*
X039441Y016645D02*
X039272Y016645D01*
X039272Y016744D02*
X039439Y016744D01*
X038028Y017729D02*
X042033Y017729D01*
X042033Y017827D02*
X038028Y017827D01*
X038025Y017926D02*
X042066Y017926D01*
X037132Y018671D02*
X037012Y018671D01*
X036981Y018748D01*
X036878Y018851D01*
X036744Y018906D01*
X036069Y018906D01*
X036069Y018907D01*
X036080Y018945D01*
X036080Y019133D01*
X035781Y019133D01*
X035781Y019230D01*
X036080Y019230D01*
X036080Y019301D01*
X036136Y019325D01*
X036239Y019427D01*
X036270Y019502D01*
X037001Y019502D01*
X037001Y018881D01*
X037057Y018746D01*
X037132Y018671D01*
X037090Y018714D02*
X036995Y018714D01*
X037030Y018812D02*
X036917Y018812D01*
X037001Y018911D02*
X036070Y018911D01*
X036080Y019009D02*
X037001Y019009D01*
X037001Y019108D02*
X036080Y019108D01*
X036088Y019305D02*
X037001Y019305D01*
X037001Y019403D02*
X036215Y019403D01*
X036270Y019502D02*
X037001Y019502D01*
X037001Y019206D02*
X035781Y019206D01*
X035684Y019206D02*
X035156Y019206D01*
X035156Y019230D02*
X035684Y019230D01*
X035684Y019133D01*
X035386Y019133D01*
X035156Y019133D01*
X035156Y018815D01*
X035324Y018815D01*
X035362Y018825D01*
X035397Y018845D01*
X035420Y018868D01*
X035428Y018861D01*
X035404Y018851D01*
X035302Y018748D01*
X035246Y018614D01*
X035246Y018592D01*
X035060Y018592D01*
X034982Y018671D01*
X034916Y018671D01*
X034927Y018696D01*
X035009Y018778D01*
X035024Y018815D01*
X035059Y018815D01*
X035059Y018900D01*
X035064Y018912D01*
X035064Y019133D01*
X035156Y019133D01*
X035156Y019230D01*
X035156Y019108D02*
X035064Y019108D01*
X035064Y019009D02*
X035156Y019009D01*
X035156Y018911D02*
X035064Y018911D01*
X035023Y018812D02*
X035366Y018812D01*
X035287Y018714D02*
X034945Y018714D01*
X035037Y018615D02*
X035247Y018615D01*
X034241Y018320D02*
X033110Y018320D01*
X033110Y018418D02*
X033534Y018418D01*
X033436Y018517D02*
X033110Y018517D01*
X033110Y018615D02*
X033363Y018615D01*
X033322Y018714D02*
X033110Y018714D01*
X033110Y018812D02*
X033295Y018812D01*
X033295Y018911D02*
X033110Y018911D01*
X033110Y019009D02*
X033297Y019009D01*
X033338Y019108D02*
X033110Y019108D01*
X033110Y019206D02*
X033379Y019206D01*
X033475Y019305D02*
X033110Y019305D01*
X033110Y019403D02*
X033623Y019403D01*
X033922Y019502D02*
X033110Y019502D01*
X033110Y019600D02*
X033901Y019600D01*
X033901Y019699D02*
X033110Y019699D01*
X033110Y019797D02*
X033901Y019797D01*
X033901Y019896D02*
X033110Y019896D01*
X033110Y019994D02*
X033901Y019994D01*
X033901Y020093D02*
X033110Y020093D01*
X033110Y020191D02*
X033931Y020191D01*
X033992Y020290D02*
X033087Y020290D01*
X033047Y020388D02*
X034135Y020388D01*
X032954Y020487D02*
X037299Y020487D01*
X037299Y020585D02*
X032856Y020585D01*
X032757Y020684D02*
X037299Y020684D01*
X037299Y020782D02*
X032659Y020782D01*
X032520Y020881D02*
X036422Y020881D01*
X037067Y020881D02*
X037299Y020881D01*
X037299Y020979D02*
X037165Y020979D01*
X037178Y022949D02*
X037311Y022949D01*
X037409Y023048D02*
X037079Y023048D01*
X031223Y023343D02*
X031119Y023343D01*
X029125Y023245D02*
X027814Y023245D01*
X027816Y023244D02*
X027777Y023254D01*
X027609Y023254D01*
X027609Y022936D01*
X027908Y022936D01*
X027908Y023124D01*
X027897Y023162D01*
X027878Y023196D01*
X027850Y023224D01*
X027816Y023244D01*
X027902Y023146D02*
X028014Y023146D01*
X027998Y023048D02*
X027908Y023048D01*
X027908Y022949D02*
X027998Y022949D01*
X027998Y022752D02*
X027946Y022752D01*
X027609Y022949D02*
X027512Y022949D01*
X027512Y023048D02*
X027609Y023048D01*
X027609Y023146D02*
X027512Y023146D01*
X027512Y023245D02*
X027609Y023245D01*
X027214Y023048D02*
X026448Y023048D01*
X028316Y023048D02*
X028413Y023048D01*
X028413Y023146D02*
X028316Y023146D01*
X028715Y023146D02*
X029118Y023146D01*
X029118Y023048D02*
X028731Y023048D01*
X029651Y020093D02*
X029666Y020093D01*
X033110Y018221D02*
X034241Y018221D01*
X034241Y018123D02*
X033118Y018123D01*
X033217Y018024D02*
X034241Y018024D01*
X034246Y017926D02*
X033315Y017926D01*
X033414Y017827D02*
X034344Y017827D01*
X034443Y017729D02*
X033512Y017729D01*
X033611Y017630D02*
X034541Y017630D01*
X034989Y017630D02*
X035376Y017630D01*
X033906Y017335D02*
X036919Y017335D01*
X036902Y017433D02*
X033808Y017433D01*
X033709Y017532D02*
X036902Y017532D01*
X036963Y017236D02*
X034005Y017236D01*
X034103Y017138D02*
X037020Y017138D01*
X037020Y017039D02*
X034202Y017039D01*
X034877Y016941D02*
X037020Y016941D01*
X037001Y016842D02*
X034999Y016842D01*
X035097Y016744D02*
X037001Y016744D01*
X037001Y016645D02*
X035196Y016645D01*
X035294Y016547D02*
X037001Y016547D01*
X037001Y016448D02*
X035393Y016448D01*
X035491Y016350D02*
X037001Y016350D01*
X037001Y016251D02*
X035590Y016251D01*
X035688Y016153D02*
X037001Y016153D01*
X037001Y016054D02*
X035787Y016054D01*
X038725Y014478D02*
X041780Y014478D01*
X041780Y014380D02*
X038710Y014380D01*
X038710Y014281D02*
X041780Y014281D01*
X041780Y014084D02*
X038710Y014084D01*
X038710Y013986D02*
X041780Y013986D01*
X041479Y013789D02*
X041379Y013789D01*
X041379Y013690D02*
X041479Y013690D01*
X041479Y013592D02*
X041379Y013592D01*
X042179Y013789D02*
X042279Y013789D01*
X042279Y013887D02*
X042179Y013887D01*
X042179Y013986D02*
X042279Y013986D01*
X042279Y014084D02*
X042179Y014084D01*
X042179Y014183D02*
X038710Y014183D01*
X038824Y014577D02*
X041789Y014577D01*
X041322Y014675D02*
X038922Y014675D01*
X036900Y013822D02*
X036900Y013524D01*
X036971Y013524D01*
X036986Y013488D01*
X036972Y013454D01*
X036901Y013454D01*
X036901Y013156D01*
X036804Y013156D01*
X036804Y013454D01*
X036616Y013454D01*
X036578Y013444D01*
X036544Y013424D01*
X036516Y013396D01*
X036496Y013362D01*
X036486Y013324D01*
X036486Y013156D01*
X036804Y013156D01*
X036804Y013059D01*
X036486Y013059D01*
X036486Y012985D01*
X036325Y012985D01*
X036325Y013342D01*
X036290Y013426D01*
X036327Y013514D01*
X036327Y014053D01*
X036288Y014148D01*
X036306Y014192D01*
X036306Y014193D01*
X036342Y014104D01*
X036445Y014002D01*
X036485Y013985D01*
X036485Y013919D01*
X036803Y013919D01*
X036803Y013822D01*
X036900Y013822D01*
X036900Y013789D02*
X036803Y013789D01*
X036803Y013822D02*
X036803Y013524D01*
X036615Y013524D01*
X036577Y013534D01*
X036543Y013554D01*
X036515Y013582D01*
X036495Y013616D01*
X036485Y013654D01*
X036485Y013822D01*
X036803Y013822D01*
X036803Y013887D02*
X036327Y013887D01*
X036327Y013789D02*
X036485Y013789D01*
X036485Y013690D02*
X036327Y013690D01*
X036327Y013592D02*
X036509Y013592D01*
X036515Y013395D02*
X036303Y013395D01*
X036318Y013493D02*
X036984Y013493D01*
X036901Y013395D02*
X036804Y013395D01*
X036804Y013296D02*
X036901Y013296D01*
X036901Y013198D02*
X036804Y013198D01*
X036804Y013099D02*
X036325Y013099D01*
X036325Y013001D02*
X036486Y013001D01*
X036486Y013198D02*
X036325Y013198D01*
X036325Y013296D02*
X036486Y013296D01*
X036803Y013592D02*
X036900Y013592D01*
X036900Y013690D02*
X036803Y013690D01*
X036484Y013986D02*
X036327Y013986D01*
X036314Y014084D02*
X036363Y014084D01*
X036310Y014183D02*
X036302Y014183D01*
X042279Y014183D02*
X043179Y014183D01*
X043179Y014084D02*
X043279Y014084D01*
X043279Y013986D02*
X043179Y013986D01*
X043179Y013887D02*
X043279Y013887D01*
X043279Y013789D02*
X043179Y013789D01*
X042867Y013789D02*
X042592Y013789D01*
X042674Y013887D02*
X042785Y013887D01*
X042780Y013986D02*
X042679Y013986D01*
X042679Y014084D02*
X042780Y014084D01*
X042780Y014281D02*
X042679Y014281D01*
X042679Y014380D02*
X042780Y014380D01*
X042780Y014478D02*
X042679Y014478D01*
X042670Y014577D02*
X042789Y014577D01*
X043592Y013789D02*
X043592Y013789D01*
X045179Y013789D02*
X045279Y013789D01*
X045279Y013887D02*
X045179Y013887D01*
X045179Y013986D02*
X045279Y013986D01*
X045279Y014084D02*
X045179Y014084D01*
X045679Y014380D02*
X049744Y014380D01*
X049744Y014478D02*
X045679Y014478D01*
X039644Y010527D02*
X039545Y010568D01*
X039437Y010676D01*
X039437Y010322D01*
X039439Y010322D01*
X039603Y010254D01*
X039728Y010129D01*
X040018Y009839D01*
X040075Y009701D01*
X040075Y009708D01*
X040471Y009708D01*
X040471Y009808D01*
X040075Y009808D01*
X040075Y009917D01*
X040019Y009941D01*
X039916Y010043D01*
X039860Y010177D01*
X039860Y010482D01*
X039752Y010482D01*
X039653Y010523D01*
X039648Y010523D01*
X039644Y010527D01*
X039617Y010538D02*
X039437Y010538D01*
X039437Y010440D02*
X039860Y010440D01*
X039860Y010341D02*
X039437Y010341D01*
X039615Y010243D02*
X039860Y010243D01*
X039874Y010144D02*
X039713Y010144D01*
X039812Y010046D02*
X039915Y010046D01*
X039910Y009947D02*
X040012Y009947D01*
X040009Y009849D02*
X040075Y009849D01*
X040055Y009750D02*
X040471Y009750D01*
X040471Y009652D02*
X040571Y009652D01*
X040571Y009750D02*
X042990Y009750D01*
X043110Y009849D02*
X040966Y009849D01*
X041029Y009947D02*
X041053Y009947D01*
X040966Y009652D02*
X042201Y009652D01*
X042133Y009553D02*
X040966Y009553D01*
X040958Y009455D02*
X042130Y009455D01*
X042130Y009356D02*
X040851Y009356D01*
X040571Y009356D02*
X040471Y009356D01*
X040471Y009455D02*
X040571Y009455D01*
X040571Y009553D02*
X040471Y009553D01*
X040191Y009356D02*
X040086Y009356D01*
X040086Y009258D02*
X042529Y009258D01*
X042529Y009356D02*
X042629Y009356D01*
X042629Y009455D02*
X042529Y009455D01*
X042529Y009553D02*
X042629Y009553D01*
X042629Y009652D02*
X042529Y009652D01*
X042130Y009159D02*
X040086Y009159D01*
X040086Y009061D02*
X042130Y009061D01*
X042130Y008962D02*
X040086Y008962D01*
X040154Y008864D02*
X042143Y008864D01*
X041139Y008765D02*
X040252Y008765D01*
X039476Y010637D02*
X039437Y010637D01*
X046016Y008864D02*
X049744Y008864D01*
X049744Y008962D02*
X046029Y008962D01*
X046029Y009061D02*
X049744Y009061D01*
X049744Y009159D02*
X046029Y009159D01*
X046809Y009849D02*
X049744Y009849D01*
X049744Y009947D02*
X046876Y009947D01*
X046879Y010046D02*
X049744Y010046D01*
X049744Y010144D02*
X046879Y010144D01*
X025244Y013198D02*
X023759Y013198D01*
X023641Y013099D02*
X025146Y013099D01*
X025048Y013001D02*
X023403Y013001D01*
X023046Y013001D02*
X019181Y013001D01*
X019170Y013099D02*
X022808Y013099D01*
X022690Y013198D02*
X018613Y013198D01*
X018543Y013296D02*
X022591Y013296D01*
X022527Y013395D02*
X018380Y013395D01*
X018041Y013493D02*
X022486Y013493D01*
X022445Y013592D02*
X018082Y013592D01*
X018726Y013099D02*
X018826Y013099D01*
X018826Y013001D02*
X018726Y013001D01*
X018726Y012902D02*
X018826Y012902D01*
X018826Y012804D02*
X018726Y012804D01*
X019181Y012804D02*
X020529Y012804D01*
X019897Y012213D02*
X018598Y012213D01*
X019181Y012902D02*
X024950Y012902D01*
X018748Y016547D02*
X018648Y016547D01*
X018648Y016645D02*
X018748Y016645D01*
X018748Y016744D02*
X018648Y016744D01*
X018648Y016842D02*
X018748Y016842D01*
X018292Y017039D02*
X013553Y017039D01*
X013553Y017138D02*
X018292Y017138D01*
X018299Y017236D02*
X013539Y017236D01*
X012187Y018812D02*
X010142Y018812D01*
X010156Y018820D02*
X010184Y018848D01*
X010204Y018882D01*
X010214Y018920D01*
X010214Y019097D01*
X009897Y019097D01*
X009897Y018790D01*
X010084Y018790D01*
X010122Y018800D01*
X010156Y018820D01*
X010212Y018911D02*
X012118Y018911D01*
X012115Y019009D02*
X010214Y019009D01*
X010214Y019206D02*
X012115Y019206D01*
X012115Y019305D02*
X010214Y019305D01*
X010206Y019403D02*
X012123Y019403D01*
X012238Y019502D02*
X010091Y019502D01*
X010197Y019600D02*
X012133Y019600D01*
X011991Y019699D02*
X010339Y019699D01*
X010400Y019797D02*
X011930Y019797D01*
X011900Y019896D02*
X010429Y019896D01*
X010429Y019994D02*
X011900Y019994D01*
X011900Y020093D02*
X010429Y020093D01*
X010429Y020191D02*
X011900Y020191D01*
X011900Y020290D02*
X010429Y020290D01*
X010429Y020388D02*
X011900Y020388D01*
X011925Y020487D02*
X010404Y020487D01*
X010349Y020585D02*
X011981Y020585D01*
X012006Y020684D02*
X010324Y020684D01*
X010394Y020782D02*
X011936Y020782D01*
X011900Y020881D02*
X010429Y020881D01*
X010429Y020979D02*
X011900Y020979D01*
X011900Y021078D02*
X010429Y021078D01*
X010429Y021176D02*
X011900Y021176D01*
X011900Y021275D02*
X010429Y021275D01*
X010429Y021373D02*
X011900Y021373D01*
X011919Y021472D02*
X010410Y021472D01*
X010364Y021570D02*
X011966Y021570D01*
X012072Y021669D02*
X010257Y021669D01*
X012894Y021669D02*
X013223Y021669D01*
X009264Y019994D02*
X009186Y019994D01*
X009264Y019896D02*
X006831Y019896D01*
X006831Y019797D02*
X009293Y019797D01*
X009355Y019699D02*
X006831Y019699D01*
X006831Y019600D02*
X009497Y019600D01*
X009602Y019502D02*
X009070Y019502D01*
X009091Y019403D02*
X009487Y019403D01*
X009479Y019305D02*
X009091Y019305D01*
X009797Y019305D02*
X009897Y019305D01*
X009897Y019403D02*
X009797Y019403D01*
X009797Y019502D02*
X009897Y019502D01*
X009897Y019009D02*
X009797Y019009D01*
X009797Y018911D02*
X009897Y018911D01*
X009897Y018812D02*
X009797Y018812D01*
X007991Y018812D02*
X007891Y018812D01*
X007891Y018714D02*
X007991Y018714D01*
X007991Y018615D02*
X007891Y018615D01*
X007891Y018517D02*
X007991Y018517D01*
X007991Y018418D02*
X007891Y018418D01*
X007891Y019108D02*
X007991Y019108D01*
X007991Y019206D02*
X007891Y019206D01*
X007891Y019305D02*
X007991Y019305D01*
X007991Y019403D02*
X007891Y019403D01*
X007891Y019502D02*
X007991Y019502D01*
X012848Y018911D02*
X013137Y018911D01*
X014516Y019108D02*
X014613Y019108D01*
X014613Y019206D02*
X014516Y019206D01*
X014516Y019305D02*
X014613Y019305D01*
X014613Y019403D02*
X015516Y019403D01*
X015613Y019403D02*
X016516Y019403D01*
X016516Y019305D02*
X016613Y019305D01*
X016613Y019206D02*
X016516Y019206D01*
X016516Y019108D02*
X016613Y019108D01*
X016244Y019108D02*
X015884Y019108D01*
X015912Y019206D02*
X016198Y019206D01*
X016198Y019305D02*
X015912Y019305D01*
X015912Y019502D02*
X016198Y019502D01*
X016117Y019600D02*
X016013Y019600D01*
X015613Y019305D02*
X015516Y019305D01*
X015516Y019206D02*
X015613Y019206D01*
X015613Y019108D02*
X015516Y019108D01*
X015246Y019108D02*
X014884Y019108D01*
X014912Y019206D02*
X015218Y019206D01*
X015218Y019305D02*
X014912Y019305D01*
X014912Y019502D02*
X015218Y019502D01*
X015117Y019600D02*
X015013Y019600D01*
X017039Y019009D02*
X017142Y018906D01*
X017860Y020881D02*
X017903Y020881D01*
X017903Y020979D02*
X017762Y020979D01*
X017746Y021078D02*
X017906Y021078D01*
X017947Y021176D02*
X017746Y021176D01*
X019484Y023146D02*
X019646Y023146D01*
X015635Y014478D02*
X014695Y014478D01*
X014689Y014380D02*
X015700Y014380D01*
X015700Y014281D02*
X015244Y014281D01*
X015265Y014183D02*
X015721Y014183D01*
X015762Y014084D02*
X015265Y014084D01*
X015265Y013986D02*
X015827Y013986D01*
X015926Y013887D02*
X014910Y013887D01*
X014910Y013858D02*
X014910Y013570D01*
X014895Y013570D01*
X014895Y013174D01*
X014795Y013174D01*
X014795Y013463D01*
X014810Y013463D01*
X014810Y013858D01*
X014910Y013858D01*
X014910Y013789D02*
X014810Y013789D01*
X014810Y013690D02*
X014910Y013690D01*
X014910Y013592D02*
X014810Y013592D01*
X014810Y013493D02*
X014895Y013493D01*
X014895Y013395D02*
X014795Y013395D01*
X014795Y013296D02*
X014895Y013296D01*
X014895Y013198D02*
X014795Y013198D01*
X014895Y013099D02*
X016770Y013099D01*
X016770Y013001D02*
X015251Y013001D01*
X015251Y012902D02*
X016770Y012902D01*
X016795Y012804D02*
X015250Y012804D01*
X015186Y012705D02*
X016836Y012705D01*
X016906Y012607D02*
X014647Y012607D01*
X014531Y012508D02*
X017005Y012508D01*
X016770Y013198D02*
X015251Y013198D01*
X015251Y013296D02*
X016770Y013296D01*
X016522Y013395D02*
X015251Y013395D01*
X015232Y013493D02*
X016320Y013493D01*
X016221Y013592D02*
X015265Y013592D01*
X015265Y013690D02*
X016123Y013690D01*
X016024Y013789D02*
X015265Y013789D01*
X014910Y013986D02*
X014810Y013986D01*
X014810Y014084D02*
X014910Y014084D01*
X014910Y014183D02*
X014810Y014183D01*
X014810Y014281D02*
X014910Y014281D01*
X014895Y013001D02*
X014795Y013001D01*
X014795Y012902D02*
X014895Y012902D01*
X014895Y012804D02*
X014795Y012804D01*
X014795Y012705D02*
X014895Y012705D01*
X020982Y008076D02*
X021082Y008076D01*
X021082Y007977D02*
X020982Y007977D01*
X020982Y007879D02*
X021082Y007879D01*
X021434Y007879D02*
X022616Y007879D01*
X022616Y007977D02*
X021477Y007977D01*
X021477Y008076D02*
X022616Y008076D01*
X022616Y008174D02*
X021477Y008174D01*
X019139Y006007D02*
X019039Y006007D01*
X019039Y005909D02*
X019139Y005909D01*
X019139Y005810D02*
X019039Y005810D01*
X019039Y005712D02*
X019139Y005712D01*
X019139Y005613D02*
X019039Y005613D01*
X019039Y005515D02*
X019139Y005515D01*
X019139Y005416D02*
X019039Y005416D01*
X019039Y005318D02*
X019139Y005318D01*
X019139Y005219D02*
X019039Y005219D01*
X019039Y005121D02*
X019139Y005121D01*
X019139Y005022D02*
X019039Y005022D01*
X019039Y004924D02*
X019139Y004924D01*
X019139Y004825D02*
X019039Y004825D01*
X017962Y004825D02*
X006831Y004825D01*
D46*
X021004Y009943D03*
X036340Y012422D03*
X036965Y008547D03*
X037465Y017647D03*
X038465Y018647D03*
X020865Y021947D03*
X011665Y019147D03*
D47*
X019958Y016991D03*
X033858Y018891D03*
X035715Y008672D03*
D48*
X027921Y015497D03*
M02*
