G75*
G70*
%OFA0B0*%
%FSLAX24Y24*%
%IPPOS*%
%LPD*%
%AMOC8*
5,1,8,0,0,1.08239X$1,22.5*
%
%ADD10C,0.0520*%
%ADD11C,0.0594*%
%ADD12C,0.0560*%
%ADD13C,0.0780*%
%ADD14C,0.0440*%
%ADD15C,0.0475*%
%ADD16C,0.0317*%
%ADD17C,0.0396*%
%ADD18C,0.0160*%
D10*
X009659Y006225D03*
X009659Y007225D03*
X009659Y008725D03*
X009659Y009725D03*
X009659Y011225D03*
X009659Y012225D03*
D11*
X023225Y013787D03*
X030705Y013787D03*
X030705Y010047D03*
X030705Y006307D03*
X023225Y006307D03*
D12*
X036744Y021470D03*
X037744Y021470D03*
X038744Y021470D03*
X038744Y022470D03*
X037744Y022470D03*
X036744Y022470D03*
D13*
X009752Y014547D03*
D14*
X025243Y016879D03*
X027243Y016879D03*
X026243Y017879D03*
D15*
X007605Y004920D03*
X007605Y006398D03*
X007605Y008367D03*
X007605Y010335D03*
X007605Y012304D03*
X007605Y014272D03*
X011771Y015115D03*
X011727Y016044D03*
X012344Y016638D03*
X012904Y016039D03*
X012951Y015156D03*
X017244Y016581D03*
X017970Y016879D03*
X008405Y019009D03*
X007205Y019009D03*
X007605Y018209D03*
X007605Y016241D03*
X007305Y022509D03*
X008505Y022509D03*
X008707Y024393D03*
X007605Y024393D03*
X010676Y024393D03*
X012644Y024393D03*
X014613Y024393D03*
X016581Y024393D03*
X018550Y024393D03*
X020518Y024393D03*
X022487Y024393D03*
X024455Y024393D03*
X026424Y024393D03*
X028392Y024393D03*
X030361Y024393D03*
X032329Y024393D03*
X034298Y024393D03*
X036266Y024393D03*
X038235Y024393D03*
X040203Y024393D03*
X042172Y024393D03*
X042833Y023746D03*
X044140Y024393D03*
X044802Y023746D03*
X046109Y024393D03*
X046770Y023746D03*
X045786Y022762D03*
X046770Y021778D03*
X048078Y022471D03*
X049078Y022471D03*
X043818Y022762D03*
X041849Y022762D03*
X046770Y019809D03*
X048078Y018971D03*
X049078Y018971D03*
X046770Y017841D03*
X045786Y016857D03*
X044802Y015872D03*
X046770Y015872D03*
X047755Y014888D03*
X048739Y013904D03*
X047755Y012920D03*
X048739Y011935D03*
X047755Y010951D03*
X048739Y009967D03*
X047755Y008983D03*
X048739Y007998D03*
X047755Y007014D03*
X048739Y006030D03*
X048077Y004920D03*
X046109Y004920D03*
X044140Y004920D03*
X042172Y004920D03*
X040203Y004920D03*
X039219Y005414D03*
X038235Y004920D03*
X037251Y005414D03*
X036266Y004920D03*
X035282Y005414D03*
X034298Y004920D03*
X032329Y004920D03*
X030361Y004920D03*
X028392Y004920D03*
X026424Y004920D03*
X024455Y004920D03*
X022487Y004920D03*
X020315Y004731D03*
X019715Y004731D03*
X019115Y004731D03*
X018515Y004731D03*
X017915Y004731D03*
X017915Y005331D03*
X018515Y005331D03*
X019115Y005331D03*
X019715Y005331D03*
X020315Y005331D03*
X020315Y006031D03*
X019715Y006031D03*
X019115Y006031D03*
X018515Y006031D03*
X017915Y006031D03*
X017915Y006731D03*
X018515Y006731D03*
X019115Y006731D03*
X019715Y006731D03*
X020315Y006731D03*
X020315Y007331D03*
X019715Y007331D03*
X019115Y007331D03*
X018515Y007331D03*
X017915Y007331D03*
X016581Y004920D03*
X014613Y004920D03*
X012644Y004920D03*
X036266Y006398D03*
X038235Y006398D03*
X040203Y006398D03*
X048739Y015872D03*
X047755Y016857D03*
X043428Y018994D03*
X041893Y017660D03*
X040144Y017710D03*
X041128Y018694D03*
X041128Y016726D03*
D16*
X039965Y016847D03*
X042908Y018444D03*
X044782Y019001D03*
X042887Y019533D03*
X044044Y021171D03*
X044014Y021959D03*
X042387Y021947D03*
X036191Y019149D03*
X034765Y018147D03*
X031265Y019147D03*
X030399Y019087D03*
X029899Y018787D03*
X027865Y018947D03*
X025769Y020157D03*
X027299Y020587D03*
X029365Y020547D03*
X026699Y022287D03*
X027569Y023327D03*
X028339Y023317D03*
X029459Y023387D03*
X030745Y022977D03*
X031448Y023446D03*
X024419Y021737D03*
X023189Y020977D03*
X022365Y019847D03*
X021465Y019847D03*
X019398Y018829D03*
X021380Y017171D03*
X022765Y016047D03*
X023965Y016947D03*
X023965Y017547D03*
X025550Y015941D03*
X029865Y017147D03*
X033265Y015447D03*
X034365Y016047D03*
X034565Y015047D03*
X036399Y013835D03*
X036380Y013096D03*
X034590Y013088D03*
X034610Y013790D03*
X034533Y012503D03*
X035865Y011547D03*
X036752Y011359D03*
X038863Y011629D03*
X039865Y011047D03*
X042038Y011380D03*
X042037Y010363D03*
X042588Y009855D03*
X044591Y009821D03*
X045821Y010259D03*
X045839Y011260D03*
X045843Y012265D03*
X045845Y013274D03*
X045226Y013635D03*
X043209Y013643D03*
X042043Y013386D03*
X040531Y013641D03*
X039788Y013632D03*
X038870Y013295D03*
X033465Y011047D03*
X036130Y009846D03*
X037755Y009846D03*
X040536Y009241D03*
X043008Y006929D03*
X043196Y005603D03*
X041026Y005763D03*
X046465Y006347D03*
X046326Y007280D03*
X046321Y007974D03*
X034638Y009058D03*
X033927Y009063D03*
X021035Y007708D03*
X017005Y007698D03*
X014465Y008547D03*
X014165Y009347D03*
X014965Y010047D03*
X018465Y011547D03*
X019342Y012745D03*
X015405Y013138D03*
X015405Y013908D03*
X012397Y011882D03*
X011465Y012047D03*
X020965Y015047D03*
X016565Y018947D03*
X015565Y018947D03*
X014565Y018947D03*
X017865Y021247D03*
X016665Y022047D03*
X018565Y022347D03*
X020065Y023247D03*
X019565Y020947D03*
X023865Y019347D03*
X011207Y006334D03*
D17*
X021004Y009943D03*
X027921Y015497D03*
X033858Y018891D03*
X037465Y017647D03*
X038465Y018647D03*
X036340Y012422D03*
X035715Y008672D03*
X036965Y008547D03*
X019958Y016991D03*
X011665Y019147D03*
X020865Y021947D03*
D18*
X023365Y021947D01*
X024665Y020847D01*
X026065Y020847D01*
X027865Y018947D01*
X028465Y018047D02*
X029365Y018947D01*
X029365Y020547D01*
X030765Y018547D02*
X030765Y023047D01*
X030745Y022977D01*
X030765Y018547D02*
X029865Y017647D01*
X029865Y017147D01*
X028465Y018047D02*
X028465Y014547D01*
X025965Y012047D01*
X017465Y012047D01*
X016965Y011547D01*
X014965Y011547D01*
X014165Y010747D01*
X014165Y009347D01*
X014965Y008547D02*
X015465Y009047D01*
X015465Y010947D01*
X015665Y011147D01*
X033365Y011147D01*
X033465Y011047D01*
X035465Y011947D02*
X035865Y011547D01*
X035465Y011947D02*
X035465Y014247D01*
X038065Y016847D01*
X039965Y016847D01*
X036340Y012422D02*
X036340Y010797D01*
X036965Y010047D01*
X036965Y008547D01*
X022765Y016047D02*
X022165Y016047D01*
X022765Y016047D02*
X020465Y016047D01*
X016465Y012047D01*
X014965Y012047D01*
X013465Y010547D01*
X013465Y006834D01*
X012965Y006334D01*
X011207Y006334D01*
X014465Y008547D02*
X014965Y008547D01*
X020402Y016547D02*
X019958Y016991D01*
X020402Y016547D02*
X021865Y016547D01*
X022265Y016947D01*
X023965Y016947D01*
M02*
