G75*
G70*
%OFA0B0*%
%FSLAX24Y24*%
%IPPOS*%
%LPD*%
%AMOC8*
5,1,8,0,0,1.08239X$1,22.5*
%
%ADD10C,0.0030*%
%ADD11C,0.0040*%
%ADD12C,0.0080*%
%ADD13R,0.0340X0.0300*%
%ADD14C,0.0079*%
%ADD15C,0.0050*%
%ADD16C,0.0060*%
%ADD17C,0.0100*%
%ADD18C,0.0020*%
%ADD19R,0.0827X0.0157*%
D10*
X001529Y001415D02*
X001900Y001415D01*
X001900Y001662D01*
X001900Y001783D02*
X001529Y002030D01*
X001529Y002152D02*
X001529Y002399D01*
X001529Y002275D02*
X001900Y002275D01*
X001900Y002030D02*
X001529Y001783D01*
X001529Y001662D02*
X001529Y001415D01*
X001714Y001415D02*
X001714Y001538D01*
X001776Y002888D02*
X001776Y003073D01*
X001714Y003135D01*
X001591Y003135D01*
X001529Y003073D01*
X001529Y002888D01*
X001900Y002888D01*
X001776Y003012D02*
X001900Y003135D01*
X001900Y003257D02*
X001529Y003257D01*
X001529Y003503D01*
X001529Y003625D02*
X001529Y003872D01*
X001504Y004031D02*
X001751Y004031D01*
X001874Y004154D01*
X001751Y004278D01*
X001504Y004278D01*
X001565Y004399D02*
X001812Y004399D01*
X001874Y004461D01*
X001874Y004584D01*
X001812Y004646D01*
X001812Y004768D02*
X001565Y004768D01*
X001504Y004829D01*
X001504Y004953D01*
X001565Y005014D01*
X001812Y005014D01*
X001874Y004953D01*
X001874Y004829D01*
X001812Y004768D01*
X001565Y004646D02*
X001504Y004584D01*
X001504Y004461D01*
X001565Y004399D01*
X001714Y003748D02*
X001714Y003625D01*
X001529Y003625D02*
X001900Y003625D01*
X001900Y003503D02*
X001900Y003257D01*
X001714Y003257D02*
X001714Y003380D01*
X001874Y005504D02*
X001504Y005504D01*
X001874Y005504D02*
X001874Y005751D01*
X001812Y005872D02*
X001565Y005872D01*
X001504Y005934D01*
X001504Y006058D01*
X001565Y006119D01*
X001812Y006119D01*
X001874Y006058D01*
X001874Y005934D01*
X001812Y005872D01*
X001812Y006241D02*
X001565Y006241D01*
X001504Y006303D01*
X001504Y006426D01*
X001565Y006488D01*
X001504Y006609D02*
X001874Y006609D01*
X001751Y006609D02*
X001504Y006856D01*
X001689Y006671D02*
X001874Y006856D01*
X001862Y007221D02*
X001491Y007221D01*
X001491Y007467D01*
X001491Y007589D02*
X001862Y007836D01*
X001862Y008081D02*
X001491Y008081D01*
X001491Y008204D02*
X001491Y007957D01*
X001491Y007836D02*
X001862Y007589D01*
X001862Y007467D02*
X001862Y007221D01*
X001677Y007221D02*
X001677Y007344D01*
X001812Y006488D02*
X001874Y006426D01*
X001874Y006303D01*
X001812Y006241D01*
X001862Y008694D02*
X001491Y008694D01*
X001862Y008694D02*
X001862Y008941D01*
X001800Y009062D02*
X001553Y009062D01*
X001491Y009124D01*
X001491Y009247D01*
X001553Y009309D01*
X001800Y009309D01*
X001862Y009247D01*
X001862Y009124D01*
X001800Y009062D01*
X001800Y009430D02*
X001553Y009430D01*
X001491Y009492D01*
X001491Y009616D01*
X001553Y009677D01*
X001491Y009799D02*
X001862Y009799D01*
X001738Y009799D02*
X001491Y010046D01*
X001677Y009860D02*
X001862Y010046D01*
X001800Y009677D02*
X001862Y009616D01*
X001862Y009492D01*
X001800Y009430D01*
D11*
X003529Y009949D02*
X003529Y010102D01*
X003529Y010025D02*
X003989Y010025D01*
X003989Y009949D02*
X003989Y010102D01*
X003913Y010256D02*
X003989Y010332D01*
X003989Y010486D01*
X003913Y010563D01*
X003913Y010716D02*
X003989Y010716D01*
X003913Y010716D02*
X003606Y011023D01*
X003529Y011023D01*
X003529Y010716D01*
X003606Y010563D02*
X003529Y010486D01*
X003529Y010332D01*
X003606Y010256D01*
X003913Y010256D01*
X004758Y009175D02*
X004682Y009098D01*
X004682Y008944D01*
X004758Y008868D01*
X004835Y008868D01*
X004912Y008944D01*
X004912Y009175D01*
X005065Y009175D02*
X004758Y009175D01*
X005065Y009175D02*
X005142Y009098D01*
X005142Y008944D01*
X005065Y008868D01*
X005142Y008714D02*
X005142Y008407D01*
X005142Y008561D02*
X004682Y008561D01*
X004835Y008407D01*
X004758Y008254D02*
X004682Y008177D01*
X004682Y008024D01*
X004758Y007947D01*
X005065Y007947D01*
X005142Y008024D01*
X005142Y008177D01*
X005065Y008254D01*
X004321Y007280D02*
X004398Y007203D01*
X004398Y007126D01*
X004321Y007049D01*
X004168Y007049D01*
X004091Y007126D01*
X004091Y007203D01*
X004168Y007280D01*
X004321Y007280D01*
X004321Y007049D02*
X004398Y006973D01*
X004398Y006896D01*
X004321Y006819D01*
X004168Y006819D01*
X004091Y006896D01*
X004091Y006973D01*
X004168Y007049D01*
X003937Y007049D02*
X003861Y006973D01*
X003630Y006973D01*
X003630Y006819D02*
X003630Y007280D01*
X003861Y007280D01*
X003937Y007203D01*
X003937Y007049D01*
X003784Y006973D02*
X003937Y006819D01*
X004577Y006201D02*
X004731Y006201D01*
X004654Y006201D02*
X004654Y005740D01*
X004577Y005740D02*
X004731Y005740D01*
X004884Y005817D02*
X004961Y005740D01*
X005114Y005740D01*
X005191Y005817D01*
X005344Y005817D02*
X005421Y005740D01*
X005575Y005740D01*
X005651Y005817D01*
X005651Y005894D01*
X005575Y005971D01*
X005498Y005971D01*
X005575Y005971D02*
X005651Y006047D01*
X005651Y006124D01*
X005575Y006201D01*
X005421Y006201D01*
X005344Y006124D01*
X005191Y006124D02*
X005114Y006201D01*
X004961Y006201D01*
X004884Y006124D01*
X004884Y005817D01*
X005648Y006809D02*
X005648Y007270D01*
X005878Y007270D01*
X005955Y007193D01*
X005955Y007039D01*
X005878Y006963D01*
X005648Y006963D01*
X005801Y006963D02*
X005955Y006809D01*
X006108Y006809D02*
X006415Y007116D01*
X006415Y007193D01*
X006339Y007270D01*
X006185Y007270D01*
X006108Y007193D01*
X006108Y006809D02*
X006415Y006809D01*
X006569Y006809D02*
X006569Y006886D01*
X006876Y007193D01*
X006876Y007270D01*
X006569Y007270D01*
X007370Y008242D02*
X007524Y008242D01*
X007601Y008319D01*
X007754Y008242D02*
X008061Y008549D01*
X008061Y008625D01*
X007984Y008702D01*
X007831Y008702D01*
X007754Y008625D01*
X007601Y008625D02*
X007524Y008702D01*
X007370Y008702D01*
X007294Y008625D01*
X007294Y008319D01*
X007370Y008242D01*
X007754Y008242D02*
X008061Y008242D01*
X008214Y008319D02*
X008521Y008625D01*
X008521Y008319D01*
X008445Y008242D01*
X008291Y008242D01*
X008214Y008319D01*
X008214Y008625D01*
X008291Y008702D01*
X008445Y008702D01*
X008521Y008625D01*
X010891Y008211D02*
X010891Y007904D01*
X010967Y007827D01*
X011121Y007827D01*
X011197Y007904D01*
X011351Y007827D02*
X011658Y008134D01*
X011658Y008211D01*
X011581Y008288D01*
X011428Y008288D01*
X011351Y008211D01*
X011197Y008211D02*
X011121Y008288D01*
X010967Y008288D01*
X010891Y008211D01*
X011351Y007827D02*
X011658Y007827D01*
X011811Y007904D02*
X011888Y007827D01*
X012042Y007827D01*
X012118Y007904D01*
X012118Y007981D01*
X012042Y008058D01*
X011811Y008058D01*
X011811Y007904D01*
X011811Y008058D02*
X011965Y008211D01*
X012118Y008288D01*
X012663Y009384D02*
X012817Y009384D01*
X012740Y009384D02*
X012740Y009845D01*
X012663Y009845D02*
X012817Y009845D01*
X012970Y009768D02*
X012970Y009461D01*
X013047Y009384D01*
X013201Y009384D01*
X013277Y009461D01*
X013431Y009461D02*
X013431Y009538D01*
X013507Y009614D01*
X013661Y009614D01*
X013738Y009538D01*
X013738Y009461D01*
X013661Y009384D01*
X013507Y009384D01*
X013431Y009461D01*
X013507Y009614D02*
X013431Y009691D01*
X013431Y009768D01*
X013507Y009845D01*
X013661Y009845D01*
X013738Y009768D01*
X013738Y009691D01*
X013661Y009614D01*
X013277Y009768D02*
X013201Y009845D01*
X013047Y009845D01*
X012970Y009768D01*
X014333Y011789D02*
X014486Y011789D01*
X014410Y011789D02*
X014410Y012250D01*
X014486Y012250D02*
X014333Y012250D01*
X014640Y012173D02*
X014640Y011866D01*
X014717Y011789D01*
X014870Y011789D01*
X014947Y011866D01*
X015100Y011789D02*
X015407Y012096D01*
X015407Y012173D01*
X015330Y012250D01*
X015177Y012250D01*
X015100Y012173D01*
X014947Y012173D02*
X014870Y012250D01*
X014717Y012250D01*
X014640Y012173D01*
X015100Y011789D02*
X015407Y011789D01*
X017283Y011887D02*
X017436Y011734D01*
X017590Y011887D01*
X017590Y012194D01*
X017743Y012194D02*
X017973Y012194D01*
X018050Y012117D01*
X018050Y011964D01*
X017973Y011887D01*
X017743Y011887D01*
X017743Y011734D02*
X017743Y012194D01*
X017897Y011887D02*
X018050Y011734D01*
X018204Y011734D02*
X018510Y011734D01*
X018357Y011734D02*
X018357Y012194D01*
X018204Y012041D01*
X017283Y012194D02*
X017283Y011887D01*
X020246Y011807D02*
X020323Y011730D01*
X020476Y011730D01*
X020553Y011807D01*
X020707Y011730D02*
X021013Y012037D01*
X021013Y012114D01*
X020937Y012191D01*
X020783Y012191D01*
X020707Y012114D01*
X020553Y012114D02*
X020476Y012191D01*
X020323Y012191D01*
X020246Y012114D01*
X020246Y011807D01*
X020707Y011730D02*
X021013Y011730D01*
X021167Y011807D02*
X021244Y011730D01*
X021397Y011730D01*
X021474Y011807D01*
X021474Y011884D01*
X021397Y011960D01*
X021320Y011960D01*
X021397Y011960D02*
X021474Y012037D01*
X021474Y012114D01*
X021397Y012191D01*
X021244Y012191D01*
X021167Y012114D01*
X023304Y012980D02*
X023611Y012980D01*
X023764Y013057D02*
X023841Y012980D01*
X023994Y012980D01*
X024071Y013057D01*
X024071Y013133D01*
X023994Y013210D01*
X023918Y013210D01*
X023994Y013210D02*
X024071Y013287D01*
X024071Y013364D01*
X023994Y013440D01*
X023841Y013440D01*
X023764Y013364D01*
X023841Y013730D02*
X023994Y013730D01*
X024071Y013807D01*
X024071Y014114D01*
X023994Y014190D01*
X023841Y014190D01*
X023764Y014114D01*
X023764Y014037D01*
X023841Y013960D01*
X024071Y013960D01*
X023841Y013730D02*
X023764Y013807D01*
X023611Y013807D02*
X023534Y013730D01*
X023381Y013730D01*
X023304Y013807D01*
X023304Y014114D01*
X023381Y014190D01*
X023534Y014190D01*
X023611Y014114D01*
X023741Y014430D02*
X023664Y014507D01*
X023664Y014583D01*
X023741Y014660D01*
X023894Y014660D01*
X023971Y014583D01*
X023971Y014507D01*
X023894Y014430D01*
X023741Y014430D01*
X023741Y014660D02*
X023664Y014737D01*
X023664Y014814D01*
X023741Y014890D01*
X023894Y014890D01*
X023971Y014814D01*
X023971Y014737D01*
X023894Y014660D01*
X023511Y014507D02*
X023434Y014430D01*
X023281Y014430D01*
X023204Y014507D01*
X023204Y014814D01*
X023281Y014890D01*
X023434Y014890D01*
X023511Y014814D01*
X023304Y013440D02*
X023304Y012980D01*
X020150Y014307D02*
X020150Y014383D01*
X020074Y014460D01*
X019920Y014460D01*
X019843Y014537D01*
X019843Y014614D01*
X019920Y014690D01*
X020074Y014690D01*
X020150Y014614D01*
X020150Y014537D01*
X020074Y014460D01*
X019920Y014460D02*
X019843Y014383D01*
X019843Y014307D01*
X019920Y014230D01*
X020074Y014230D01*
X020150Y014307D01*
X019690Y014230D02*
X019383Y014230D01*
X019690Y014537D01*
X019690Y014614D01*
X019613Y014690D01*
X019460Y014690D01*
X019383Y014614D01*
X019230Y014614D02*
X019153Y014690D01*
X018999Y014690D01*
X018923Y014614D01*
X018923Y014307D01*
X018999Y014230D01*
X019153Y014230D01*
X019230Y014307D01*
X018650Y014357D02*
X018574Y014280D01*
X018420Y014280D01*
X018343Y014357D01*
X018190Y014280D02*
X017883Y014280D01*
X017730Y014280D02*
X017576Y014433D01*
X017653Y014433D02*
X017423Y014433D01*
X017423Y014280D02*
X017423Y014740D01*
X017653Y014740D01*
X017730Y014664D01*
X017730Y014510D01*
X017653Y014433D01*
X017883Y014587D02*
X018037Y014740D01*
X018037Y014280D01*
X018497Y014510D02*
X018574Y014510D01*
X018650Y014433D01*
X018650Y014357D01*
X018574Y014510D02*
X018650Y014587D01*
X018650Y014664D01*
X018574Y014740D01*
X018420Y014740D01*
X018343Y014664D01*
X017466Y015850D02*
X017312Y015850D01*
X017236Y015927D01*
X017236Y016080D02*
X017389Y016157D01*
X017466Y016157D01*
X017543Y016080D01*
X017543Y015927D01*
X017466Y015850D01*
X017236Y016080D02*
X017236Y016311D01*
X017543Y016311D01*
X017082Y016234D02*
X017006Y016311D01*
X016852Y016311D01*
X016775Y016234D01*
X016622Y016234D02*
X016545Y016311D01*
X016392Y016311D01*
X016315Y016234D01*
X016315Y015927D01*
X016392Y015850D01*
X016545Y015850D01*
X016622Y015927D01*
X016775Y015850D02*
X017082Y016157D01*
X017082Y016234D01*
X017082Y015850D02*
X016775Y015850D01*
X015985Y016707D02*
X015985Y017167D01*
X015754Y016937D01*
X016061Y016937D01*
X015601Y017014D02*
X015294Y016707D01*
X015601Y016707D01*
X015601Y017014D02*
X015601Y017091D01*
X015524Y017167D01*
X015371Y017167D01*
X015294Y017091D01*
X015141Y017091D02*
X015064Y017167D01*
X014910Y017167D01*
X014834Y017091D01*
X014834Y016784D01*
X014910Y016707D01*
X015064Y016707D01*
X015141Y016784D01*
X014412Y016795D02*
X014335Y016872D01*
X014028Y016872D01*
X013951Y016795D01*
X013951Y016642D01*
X014028Y016565D01*
X014105Y016565D01*
X014182Y016642D01*
X014182Y016872D01*
X014412Y016795D02*
X014412Y016642D01*
X014335Y016565D01*
X014412Y016412D02*
X014412Y016105D01*
X014105Y016412D01*
X014028Y016412D01*
X013951Y016335D01*
X013951Y016181D01*
X014028Y016105D01*
X014028Y015951D02*
X014182Y015951D01*
X014258Y015875D01*
X014258Y015644D01*
X014258Y015798D02*
X014412Y015951D01*
X014412Y015644D02*
X013951Y015644D01*
X013951Y015875D01*
X014028Y015951D01*
X014803Y015470D02*
X014803Y015317D01*
X014880Y015240D01*
X014953Y015226D02*
X014953Y014919D01*
X015184Y014919D01*
X015107Y015073D01*
X015107Y015150D01*
X015184Y015226D01*
X015337Y015226D01*
X015414Y015150D01*
X015414Y014996D01*
X015337Y014919D01*
X015337Y014766D02*
X015414Y014689D01*
X015414Y014536D01*
X015337Y014459D01*
X015030Y014459D01*
X014953Y014536D01*
X014953Y014689D01*
X015030Y014766D01*
X015110Y014780D02*
X015110Y015010D01*
X015034Y015087D01*
X014880Y015087D01*
X014803Y015010D01*
X014803Y014780D01*
X015264Y014780D01*
X015110Y014933D02*
X015264Y015087D01*
X015264Y015240D02*
X014957Y015547D01*
X014880Y015547D01*
X014803Y015470D01*
X015264Y015547D02*
X015264Y015240D01*
X013718Y014340D02*
X013718Y013880D01*
X013871Y013880D02*
X013564Y013880D01*
X013411Y013957D02*
X013411Y014264D01*
X013334Y014340D01*
X013104Y014340D01*
X013104Y013880D01*
X013334Y013880D01*
X013411Y013957D01*
X013564Y014187D02*
X013718Y014340D01*
X012508Y013739D02*
X012201Y013739D01*
X012047Y013662D02*
X011970Y013739D01*
X011817Y013739D01*
X011740Y013662D01*
X011587Y013662D02*
X011510Y013739D01*
X011357Y013739D01*
X011280Y013662D01*
X011280Y013355D01*
X011357Y013279D01*
X011510Y013279D01*
X011587Y013355D01*
X011740Y013279D02*
X012047Y013586D01*
X012047Y013662D01*
X012201Y013355D02*
X012201Y013279D01*
X012201Y013355D02*
X012508Y013662D01*
X012508Y013739D01*
X012047Y013279D02*
X011740Y013279D01*
X010904Y013980D02*
X010443Y013980D01*
X010443Y014210D01*
X010520Y014287D01*
X010674Y014287D01*
X010750Y014210D01*
X010750Y013980D01*
X010750Y014133D02*
X010904Y014287D01*
X010674Y014440D02*
X010674Y014747D01*
X010904Y014670D02*
X010443Y014670D01*
X010674Y014440D01*
X009884Y014300D02*
X009577Y014607D01*
X009500Y014607D01*
X009423Y014530D01*
X009423Y014377D01*
X009500Y014300D01*
X009884Y014300D02*
X009884Y014607D01*
X009884Y014147D02*
X009884Y013840D01*
X009423Y013840D01*
X009004Y013816D02*
X008927Y013739D01*
X008620Y013739D01*
X008543Y013816D01*
X008543Y013969D01*
X008620Y014046D01*
X008774Y014199D02*
X008774Y014430D01*
X008850Y014506D01*
X008927Y014506D01*
X009004Y014430D01*
X009004Y014276D01*
X008927Y014199D01*
X008774Y014199D01*
X008620Y014353D01*
X008543Y014506D01*
X007904Y014319D02*
X007827Y014319D01*
X007520Y014626D01*
X007443Y014626D01*
X007443Y014319D01*
X007520Y014166D02*
X007443Y014089D01*
X007443Y013936D01*
X007520Y013859D01*
X007827Y013859D01*
X007904Y013936D01*
X007904Y014089D01*
X007827Y014166D01*
X006964Y014059D02*
X006503Y014059D01*
X006503Y014289D01*
X006580Y014366D01*
X006734Y014366D01*
X006810Y014289D01*
X006810Y014059D01*
X006810Y014213D02*
X006964Y014366D01*
X006887Y014519D02*
X006964Y014596D01*
X006964Y014750D01*
X006887Y014826D01*
X006810Y014826D01*
X006734Y014750D01*
X006734Y014673D01*
X006734Y014750D02*
X006657Y014826D01*
X006580Y014826D01*
X006503Y014750D01*
X006503Y014596D01*
X006580Y014519D01*
X005428Y014240D02*
X005428Y013780D01*
X005275Y013780D02*
X005582Y013780D01*
X005121Y013780D02*
X004968Y013933D01*
X005044Y013933D02*
X004814Y013933D01*
X004814Y013780D02*
X004814Y014240D01*
X005044Y014240D01*
X005121Y014164D01*
X005121Y014010D01*
X005044Y013933D01*
X005275Y014087D02*
X005428Y014240D01*
X004661Y014240D02*
X004661Y013780D01*
X004354Y013780D02*
X004354Y014240D01*
X004507Y014087D01*
X004661Y014240D01*
X004200Y014240D02*
X003893Y014240D01*
X003893Y013780D01*
X003740Y013780D02*
X003433Y014240D01*
X003280Y014240D02*
X002973Y014240D01*
X003126Y014240D02*
X003126Y013780D01*
X003433Y013780D02*
X003740Y014240D01*
X003893Y014010D02*
X004047Y014010D01*
X008927Y014046D02*
X009004Y013969D01*
X009004Y013816D01*
X011486Y014916D02*
X011562Y014839D01*
X011869Y014839D01*
X011946Y014916D01*
X011946Y015070D01*
X011869Y015146D01*
X011869Y015300D02*
X011946Y015376D01*
X011946Y015530D01*
X011869Y015607D01*
X011793Y015607D01*
X011716Y015530D01*
X011716Y015453D01*
X011716Y015530D02*
X011639Y015607D01*
X011562Y015607D01*
X011486Y015530D01*
X011486Y015376D01*
X011562Y015300D01*
X011562Y015146D02*
X011486Y015070D01*
X011486Y014916D01*
X010674Y016280D02*
X010520Y016280D01*
X010443Y016357D01*
X010443Y016510D02*
X010597Y016587D01*
X010674Y016587D01*
X010750Y016510D01*
X010750Y016357D01*
X010674Y016280D01*
X010443Y016510D02*
X010443Y016740D01*
X010750Y016740D01*
X010290Y016664D02*
X010290Y016510D01*
X010213Y016433D01*
X009983Y016433D01*
X009983Y016280D02*
X009983Y016740D01*
X010213Y016740D01*
X010290Y016664D01*
X010137Y016433D02*
X010290Y016280D01*
X008771Y016430D02*
X008464Y016430D01*
X008771Y016737D01*
X008771Y016814D01*
X008694Y016890D01*
X008541Y016890D01*
X008464Y016814D01*
X008311Y016814D02*
X008234Y016890D01*
X008081Y016890D01*
X008004Y016814D01*
X008004Y016507D01*
X008081Y016430D01*
X008234Y016430D01*
X008311Y016507D01*
X007150Y017680D02*
X006843Y017680D01*
X006690Y017680D02*
X006383Y017680D01*
X006383Y018140D01*
X006843Y017987D02*
X006997Y018140D01*
X006997Y017680D01*
X008104Y018407D02*
X008181Y018330D01*
X008334Y018330D01*
X008411Y018407D01*
X008564Y018330D02*
X008871Y018330D01*
X008718Y018330D02*
X008718Y018790D01*
X008564Y018637D01*
X008411Y018714D02*
X008334Y018790D01*
X008181Y018790D01*
X008104Y018714D01*
X008104Y018407D01*
X009910Y019022D02*
X009910Y019252D01*
X009986Y019329D01*
X010140Y019329D01*
X010217Y019252D01*
X010217Y019022D01*
X010217Y019175D02*
X010370Y019329D01*
X010293Y019482D02*
X010370Y019559D01*
X010370Y019712D01*
X010293Y019789D01*
X010217Y019789D01*
X010140Y019712D01*
X010140Y019482D01*
X010293Y019482D01*
X010140Y019482D02*
X009986Y019635D01*
X009910Y019789D01*
X010709Y019655D02*
X011169Y019655D01*
X011169Y019502D02*
X011169Y019809D01*
X010862Y019502D02*
X010709Y019655D01*
X010786Y019348D02*
X010939Y019348D01*
X011016Y019271D01*
X011016Y019041D01*
X011169Y019041D02*
X010709Y019041D01*
X010709Y019271D01*
X010786Y019348D01*
X011016Y019195D02*
X011169Y019348D01*
X011640Y019280D02*
X011793Y019280D01*
X011717Y019280D02*
X011717Y019740D01*
X011793Y019740D02*
X011640Y019740D01*
X011947Y019664D02*
X011947Y019357D01*
X012024Y019280D01*
X012177Y019280D01*
X012254Y019357D01*
X012407Y019280D02*
X012714Y019280D01*
X012561Y019280D02*
X012561Y019740D01*
X012407Y019587D01*
X012254Y019664D02*
X012177Y019740D01*
X012024Y019740D01*
X011947Y019664D01*
X010370Y019022D02*
X009910Y019022D01*
X015793Y017850D02*
X015793Y017390D01*
X015793Y017543D02*
X016023Y017543D01*
X016100Y017620D01*
X016100Y017774D01*
X016023Y017850D01*
X015793Y017850D01*
X016253Y017697D02*
X016407Y017850D01*
X016407Y017390D01*
X016560Y017390D02*
X016253Y017390D01*
X016100Y017390D02*
X015946Y017543D01*
X016713Y017620D02*
X017020Y017620D01*
X016944Y017390D02*
X016944Y017850D01*
X016713Y017620D01*
X016931Y018185D02*
X017085Y018185D01*
X017161Y018262D01*
X017315Y018415D02*
X017622Y018415D01*
X017775Y018492D02*
X017852Y018415D01*
X018082Y018415D01*
X018082Y018262D02*
X018082Y018569D01*
X018005Y018646D01*
X017852Y018646D01*
X017775Y018569D01*
X017775Y018492D01*
X017775Y018262D02*
X017852Y018185D01*
X018005Y018185D01*
X018082Y018262D01*
X017545Y018185D02*
X017545Y018646D01*
X017315Y018415D01*
X017161Y018569D02*
X017085Y018646D01*
X016931Y018646D01*
X016854Y018569D01*
X016854Y018262D01*
X016931Y018185D01*
X018224Y018954D02*
X018224Y019414D01*
X018455Y019414D01*
X018531Y019337D01*
X018531Y019184D01*
X018455Y019107D01*
X018224Y019107D01*
X018378Y019107D02*
X018531Y018954D01*
X018685Y018954D02*
X018992Y019261D01*
X018992Y019337D01*
X018915Y019414D01*
X018761Y019414D01*
X018685Y019337D01*
X018685Y018954D02*
X018992Y018954D01*
X019145Y019030D02*
X019145Y019107D01*
X019222Y019184D01*
X019375Y019184D01*
X019452Y019107D01*
X019452Y019030D01*
X019375Y018954D01*
X019222Y018954D01*
X019145Y019030D01*
X019222Y019184D02*
X019145Y019261D01*
X019145Y019337D01*
X019222Y019414D01*
X019375Y019414D01*
X019452Y019337D01*
X019452Y019261D01*
X019375Y019184D01*
X019720Y019148D02*
X019873Y018994D01*
X019796Y018841D02*
X019720Y018764D01*
X019720Y018611D01*
X019796Y018534D01*
X020103Y018534D01*
X020180Y018611D01*
X020180Y018764D01*
X020103Y018841D01*
X020180Y018994D02*
X020180Y019301D01*
X020180Y019148D02*
X019720Y019148D01*
X019873Y019455D02*
X019720Y019608D01*
X020180Y019608D01*
X020180Y019455D02*
X020180Y019762D01*
X020499Y019706D02*
X020499Y019553D01*
X020576Y019476D01*
X020883Y019476D01*
X020960Y019553D01*
X020960Y019706D01*
X020883Y019783D01*
X020960Y019937D02*
X020960Y020243D01*
X020960Y020090D02*
X020499Y020090D01*
X020653Y019937D01*
X020576Y019783D02*
X020499Y019706D01*
X021793Y019760D02*
X021793Y019530D01*
X022254Y019530D01*
X022100Y019530D02*
X022100Y019760D01*
X022024Y019837D01*
X021870Y019837D01*
X021793Y019760D01*
X021947Y019990D02*
X021793Y020144D01*
X022254Y020144D01*
X022254Y020297D02*
X022254Y019990D01*
X022254Y019837D02*
X022100Y019683D01*
X022453Y019627D02*
X022530Y019550D01*
X022837Y019550D01*
X022914Y019627D01*
X022914Y019780D01*
X022837Y019857D01*
X022914Y020010D02*
X022914Y020317D01*
X022914Y020164D02*
X022453Y020164D01*
X022607Y020010D01*
X022530Y019857D02*
X022453Y019780D01*
X022453Y019627D01*
X022530Y020471D02*
X022453Y020547D01*
X022453Y020701D01*
X022530Y020778D01*
X022607Y020778D01*
X022914Y020471D01*
X022914Y020778D01*
X022254Y020758D02*
X022254Y020451D01*
X021947Y020758D01*
X021870Y020758D01*
X021793Y020681D01*
X021793Y020527D01*
X021870Y020451D01*
X020960Y020474D02*
X020883Y020397D01*
X020576Y020704D01*
X020883Y020704D01*
X020960Y020627D01*
X020960Y020474D01*
X020883Y020397D02*
X020576Y020397D01*
X020499Y020474D01*
X020499Y020627D01*
X020576Y020704D01*
X025147Y019131D02*
X025147Y018977D01*
X025224Y018901D01*
X025377Y019054D02*
X025377Y019131D01*
X025454Y019208D01*
X025531Y019208D01*
X025608Y019131D01*
X025608Y018977D01*
X025531Y018901D01*
X025608Y018747D02*
X025608Y018440D01*
X025608Y018594D02*
X025147Y018594D01*
X025301Y018440D01*
X025224Y018287D02*
X025147Y018210D01*
X025147Y018057D01*
X025224Y017980D01*
X025531Y017980D01*
X025608Y018057D01*
X025608Y018210D01*
X025531Y018287D01*
X023727Y017734D02*
X023421Y017734D01*
X023651Y017964D01*
X023651Y017504D01*
X023267Y017504D02*
X022960Y017504D01*
X022960Y017964D01*
X025147Y019131D02*
X025224Y019208D01*
X025301Y019208D01*
X025377Y019131D01*
X022738Y016540D02*
X022507Y016310D01*
X022814Y016310D01*
X022738Y016080D02*
X022738Y016540D01*
X022354Y016464D02*
X022277Y016540D01*
X022124Y016540D01*
X022047Y016464D01*
X022047Y016157D01*
X022124Y016080D01*
X022277Y016080D01*
X022354Y016157D01*
X021893Y016080D02*
X021740Y016080D01*
X021817Y016080D02*
X021817Y016540D01*
X021893Y016540D02*
X021740Y016540D01*
X026621Y015795D02*
X026621Y015489D01*
X026852Y015489D01*
X026775Y015642D01*
X026775Y015719D01*
X026852Y015795D01*
X027005Y015795D01*
X027082Y015719D01*
X027082Y015565D01*
X027005Y015489D01*
X027082Y015335D02*
X027082Y015028D01*
X026621Y015028D01*
X028096Y014619D02*
X028327Y014389D01*
X028327Y014695D01*
X028557Y014619D02*
X028096Y014619D01*
X028096Y014082D02*
X028557Y014082D01*
X028557Y014235D02*
X028557Y013928D01*
X028480Y013775D02*
X028557Y013698D01*
X028557Y013544D01*
X028480Y013468D01*
X028173Y013468D01*
X028096Y013544D01*
X028096Y013698D01*
X028173Y013775D01*
X028250Y013928D02*
X028096Y014082D01*
X029421Y014744D02*
X029498Y014668D01*
X029805Y014668D01*
X029882Y014744D01*
X029882Y014898D01*
X029805Y014975D01*
X029882Y015128D02*
X029882Y015435D01*
X029882Y015282D02*
X029421Y015282D01*
X029575Y015128D01*
X029498Y014975D02*
X029421Y014898D01*
X029421Y014744D01*
X029421Y015589D02*
X029652Y015589D01*
X029575Y015742D01*
X029575Y015819D01*
X029652Y015895D01*
X029805Y015895D01*
X029882Y015819D01*
X029882Y015665D01*
X029805Y015589D01*
X029421Y015589D02*
X029421Y015895D01*
X032783Y015214D02*
X032783Y014907D01*
X033013Y014907D01*
X032936Y015060D01*
X032936Y015137D01*
X033013Y015214D01*
X033167Y015214D01*
X033243Y015137D01*
X033243Y014984D01*
X033167Y014907D01*
X033167Y014753D02*
X033243Y014677D01*
X033243Y014523D01*
X033167Y014447D01*
X032860Y014447D01*
X032783Y014523D01*
X032783Y014677D01*
X032860Y014753D01*
X032783Y014293D02*
X032783Y014140D01*
X032783Y014216D02*
X033243Y014216D01*
X033243Y014140D02*
X033243Y014293D01*
X034405Y013154D02*
X034636Y013154D01*
X034712Y013077D01*
X034712Y012923D01*
X034636Y012847D01*
X034405Y012847D01*
X034559Y012847D02*
X034712Y012693D01*
X034866Y012693D02*
X035173Y012693D01*
X035019Y012693D02*
X035019Y013154D01*
X034866Y013000D01*
X035326Y012923D02*
X035326Y013154D01*
X035633Y013154D01*
X035556Y013000D02*
X035633Y012923D01*
X035633Y012770D01*
X035556Y012693D01*
X035403Y012693D01*
X035326Y012770D01*
X035326Y012923D02*
X035480Y013000D01*
X035556Y013000D01*
X036023Y013281D02*
X036100Y013128D01*
X036253Y012974D01*
X036253Y013204D01*
X036330Y013281D01*
X036407Y013281D01*
X036484Y013204D01*
X036484Y013051D01*
X036407Y012974D01*
X036253Y012974D01*
X036484Y012821D02*
X036484Y012514D01*
X036484Y012667D02*
X036023Y012667D01*
X036177Y012514D01*
X036253Y012360D02*
X036330Y012283D01*
X036330Y012053D01*
X036484Y012053D02*
X036023Y012053D01*
X036023Y012283D01*
X036100Y012360D01*
X036253Y012360D01*
X036330Y012207D02*
X036484Y012360D01*
X037294Y012877D02*
X037370Y012800D01*
X037524Y012800D01*
X037601Y012877D01*
X037754Y013030D02*
X038061Y013030D01*
X038214Y013107D02*
X038368Y013260D01*
X038368Y012800D01*
X038521Y012800D02*
X038214Y012800D01*
X037984Y012800D02*
X037984Y013260D01*
X037754Y013030D01*
X037601Y013184D02*
X037524Y013260D01*
X037370Y013260D01*
X037294Y013184D01*
X037294Y012877D01*
X034405Y012693D02*
X034405Y013154D01*
X035130Y014680D02*
X035053Y014757D01*
X035053Y014910D01*
X035130Y014987D01*
X035437Y014987D01*
X035514Y014910D01*
X035514Y014757D01*
X035437Y014680D01*
X035130Y014680D01*
X035360Y014833D02*
X035514Y014987D01*
X035514Y015140D02*
X035514Y015447D01*
X035514Y015294D02*
X035053Y015294D01*
X035207Y015140D01*
X037082Y016135D02*
X037389Y016135D01*
X037542Y016135D02*
X037542Y016212D01*
X037849Y016519D01*
X037849Y016595D01*
X037542Y016595D01*
X037508Y016737D02*
X037508Y017197D01*
X037354Y017044D01*
X037289Y016937D02*
X037365Y016860D01*
X037519Y016860D01*
X037596Y016937D01*
X037749Y016937D02*
X037826Y016860D01*
X037979Y016860D01*
X038056Y016937D01*
X038056Y017014D01*
X037979Y017091D01*
X037902Y017091D01*
X037979Y017091D02*
X038056Y017167D01*
X038056Y017244D01*
X037979Y017321D01*
X037826Y017321D01*
X037749Y017244D01*
X037815Y017197D02*
X038121Y017197D01*
X038121Y017120D01*
X037815Y016813D01*
X037815Y016737D01*
X037661Y016737D02*
X037354Y016737D01*
X037201Y016737D02*
X037047Y016890D01*
X037124Y016890D02*
X036894Y016890D01*
X036894Y016737D02*
X036894Y017197D01*
X037124Y017197D01*
X037201Y017120D01*
X037201Y016967D01*
X037124Y016890D01*
X037289Y016937D02*
X037289Y017244D01*
X037365Y017321D01*
X037519Y017321D01*
X037596Y017244D01*
X038209Y017244D02*
X038209Y016937D01*
X038516Y017244D01*
X038516Y016937D01*
X038440Y016860D01*
X038286Y016860D01*
X038209Y016937D01*
X038209Y017244D02*
X038286Y017321D01*
X038440Y017321D01*
X038516Y017244D01*
X038519Y017735D02*
X038213Y017735D01*
X038366Y017735D02*
X038366Y018196D01*
X038213Y018042D01*
X038059Y018042D02*
X038059Y018119D01*
X037982Y018196D01*
X037829Y018196D01*
X037752Y018119D01*
X037599Y018119D02*
X037522Y018196D01*
X037369Y018196D01*
X037292Y018119D01*
X037292Y017812D01*
X037369Y017735D01*
X037522Y017735D01*
X037599Y017812D01*
X037752Y017812D02*
X037829Y017735D01*
X037982Y017735D01*
X038059Y017812D01*
X038059Y017889D01*
X037982Y017966D01*
X037906Y017966D01*
X037982Y017966D02*
X038059Y018042D01*
X039315Y017402D02*
X039315Y017095D01*
X039392Y017018D01*
X039545Y017018D01*
X039622Y017095D01*
X039775Y017095D02*
X039852Y017018D01*
X040005Y017018D01*
X040082Y017095D01*
X040082Y017172D01*
X040005Y017248D01*
X039929Y017248D01*
X040005Y017248D02*
X040082Y017325D01*
X040082Y017402D01*
X040005Y017479D01*
X039852Y017479D01*
X039775Y017402D01*
X039622Y017402D02*
X039545Y017479D01*
X039392Y017479D01*
X039315Y017402D01*
X040236Y017402D02*
X040236Y017325D01*
X040312Y017248D01*
X040466Y017248D01*
X040543Y017172D01*
X040543Y017095D01*
X040466Y017018D01*
X040312Y017018D01*
X040236Y017095D01*
X040236Y017172D01*
X040312Y017248D01*
X040466Y017248D02*
X040543Y017325D01*
X040543Y017402D01*
X040466Y017479D01*
X040312Y017479D01*
X040236Y017402D01*
X037082Y016595D02*
X037082Y016135D01*
X033178Y011167D02*
X033178Y010860D01*
X032872Y011167D01*
X032795Y011167D01*
X032718Y011090D01*
X032718Y010937D01*
X032795Y010860D01*
X032795Y010706D02*
X032718Y010630D01*
X032718Y010476D01*
X032795Y010400D01*
X032795Y010246D02*
X032718Y010169D01*
X032718Y010016D01*
X032795Y009939D01*
X033102Y009939D01*
X033178Y010016D01*
X033178Y010169D01*
X033102Y010246D01*
X033102Y010400D02*
X033178Y010476D01*
X033178Y010630D01*
X033102Y010706D01*
X033025Y010706D01*
X032948Y010630D01*
X032948Y010553D01*
X032948Y010630D02*
X032872Y010706D01*
X032795Y010706D01*
X033416Y010742D02*
X033416Y010895D01*
X033493Y010972D01*
X033570Y010972D01*
X033647Y010895D01*
X033723Y010972D01*
X033800Y010972D01*
X033877Y010895D01*
X033877Y010742D01*
X033800Y010665D01*
X033800Y010511D02*
X033877Y010435D01*
X033877Y010281D01*
X033800Y010205D01*
X033800Y010051D02*
X033877Y009974D01*
X033877Y009821D01*
X033800Y009744D01*
X033493Y009744D01*
X033416Y009821D01*
X033416Y009974D01*
X033493Y010051D01*
X033493Y010205D02*
X033416Y010281D01*
X033416Y010435D01*
X033493Y010511D01*
X033570Y010511D01*
X033647Y010435D01*
X033723Y010511D01*
X033800Y010511D01*
X033647Y010435D02*
X033647Y010358D01*
X033493Y010665D02*
X033416Y010742D01*
X033647Y010818D02*
X033647Y010895D01*
X034241Y010745D02*
X034241Y010438D01*
X034318Y010361D01*
X034472Y010361D01*
X034548Y010438D01*
X034702Y010591D02*
X035009Y010591D01*
X035162Y010745D02*
X035239Y010821D01*
X035392Y010821D01*
X035469Y010745D01*
X035469Y010668D01*
X035162Y010361D01*
X035469Y010361D01*
X035471Y010408D02*
X035471Y010869D01*
X035702Y010869D01*
X035778Y010792D01*
X035778Y010639D01*
X035702Y010562D01*
X035471Y010562D01*
X035625Y010562D02*
X035778Y010408D01*
X035932Y010408D02*
X036239Y010408D01*
X036085Y010408D02*
X036085Y010869D01*
X035932Y010715D01*
X036392Y010715D02*
X036392Y010792D01*
X036469Y010869D01*
X036622Y010869D01*
X036699Y010792D01*
X036699Y010715D01*
X036622Y010639D01*
X036469Y010639D01*
X036392Y010715D01*
X036469Y010639D02*
X036392Y010562D01*
X036392Y010485D01*
X036469Y010408D01*
X036622Y010408D01*
X036699Y010485D01*
X036699Y010562D01*
X036622Y010639D01*
X034932Y010821D02*
X034932Y010361D01*
X034702Y010591D02*
X034932Y010821D01*
X034548Y010745D02*
X034472Y010821D01*
X034318Y010821D01*
X034241Y010745D01*
X032343Y010147D02*
X032189Y010070D01*
X032036Y009916D01*
X032266Y009916D01*
X032343Y009840D01*
X032343Y009763D01*
X032266Y009686D01*
X032113Y009686D01*
X032036Y009763D01*
X032036Y009916D01*
X031882Y009840D02*
X031882Y009763D01*
X031806Y009686D01*
X031652Y009686D01*
X031575Y009763D01*
X031422Y009763D02*
X031345Y009686D01*
X031192Y009686D01*
X031115Y009763D01*
X031115Y010070D01*
X031192Y010147D01*
X031345Y010147D01*
X031422Y010070D01*
X031575Y010070D02*
X031652Y010147D01*
X031806Y010147D01*
X031882Y010070D01*
X031882Y009993D01*
X031806Y009916D01*
X031882Y009840D01*
X031806Y009916D02*
X031729Y009916D01*
X031655Y010379D02*
X031578Y010456D01*
X031578Y010533D01*
X031655Y010609D01*
X031808Y010609D01*
X031885Y010533D01*
X031885Y010456D01*
X031808Y010379D01*
X031655Y010379D01*
X031425Y010379D02*
X031118Y010379D01*
X031118Y010840D01*
X031578Y010763D02*
X031578Y010686D01*
X031655Y010609D01*
X031808Y010609D02*
X031885Y010686D01*
X031885Y010763D01*
X031808Y010840D01*
X031655Y010840D01*
X031578Y010763D01*
X031551Y009410D02*
X031705Y009410D01*
X031781Y009333D01*
X031781Y009256D01*
X031705Y009180D01*
X031781Y009103D01*
X031781Y009026D01*
X031705Y008950D01*
X031551Y008950D01*
X031474Y009026D01*
X031321Y009026D02*
X031244Y008950D01*
X031091Y008950D01*
X031014Y009026D01*
X031014Y009333D01*
X031091Y009410D01*
X031244Y009410D01*
X031321Y009333D01*
X031474Y009333D02*
X031551Y009410D01*
X031628Y009180D02*
X031705Y009180D01*
X031935Y009026D02*
X031935Y008950D01*
X031935Y009026D02*
X032242Y009333D01*
X032242Y009410D01*
X031935Y009410D01*
X031676Y008639D02*
X031369Y008639D01*
X031293Y008563D01*
X031293Y008409D01*
X031369Y008332D01*
X031446Y008332D01*
X031523Y008409D01*
X031523Y008639D01*
X031676Y008639D02*
X031753Y008563D01*
X031753Y008409D01*
X031676Y008332D01*
X031753Y008179D02*
X031753Y007872D01*
X031753Y007719D02*
X031600Y007565D01*
X031600Y007642D02*
X031600Y007412D01*
X031753Y007412D02*
X031293Y007412D01*
X031293Y007642D01*
X031369Y007719D01*
X031523Y007719D01*
X031600Y007642D01*
X031446Y007872D02*
X031293Y008026D01*
X031753Y008026D01*
X032439Y007929D02*
X032439Y007468D01*
X032746Y007468D01*
X032900Y007545D02*
X032976Y007468D01*
X033130Y007468D01*
X033207Y007545D01*
X033207Y007622D01*
X033130Y007699D01*
X032900Y007699D01*
X032900Y007545D01*
X032900Y007699D02*
X033053Y007852D01*
X033207Y007929D01*
X033432Y007351D02*
X033201Y007121D01*
X033508Y007121D01*
X033432Y006891D02*
X033432Y007351D01*
X033048Y007121D02*
X032741Y007121D01*
X032971Y007351D01*
X032971Y006891D01*
X032970Y006729D02*
X032817Y006729D01*
X032740Y006652D01*
X032587Y006652D02*
X032587Y006499D01*
X032510Y006422D01*
X032280Y006422D01*
X032433Y006422D02*
X032587Y006269D01*
X032740Y006269D02*
X033047Y006576D01*
X033047Y006652D01*
X032970Y006729D01*
X033200Y006652D02*
X033277Y006729D01*
X033431Y006729D01*
X033507Y006652D01*
X033200Y006345D01*
X033277Y006269D01*
X033431Y006269D01*
X033507Y006345D01*
X033507Y006652D01*
X033200Y006652D02*
X033200Y006345D01*
X033047Y006269D02*
X032740Y006269D01*
X032777Y005995D02*
X032700Y005918D01*
X032700Y005765D01*
X032777Y005688D01*
X032777Y005535D02*
X032700Y005458D01*
X032700Y005305D01*
X032777Y005228D01*
X032777Y005074D02*
X032700Y004998D01*
X032700Y004844D01*
X032777Y004767D01*
X033084Y004767D01*
X033160Y004844D01*
X033160Y004998D01*
X033084Y005074D01*
X033160Y005228D02*
X032853Y005535D01*
X032777Y005535D01*
X033160Y005535D02*
X033160Y005228D01*
X033160Y005688D02*
X032853Y005995D01*
X032777Y005995D01*
X033160Y005995D02*
X033160Y005688D01*
X032280Y006269D02*
X032280Y006729D01*
X032510Y006729D01*
X032587Y006652D01*
X032511Y006891D02*
X032588Y006968D01*
X032511Y006891D02*
X032357Y006891D01*
X032281Y006968D01*
X032281Y007275D01*
X032357Y007351D01*
X032511Y007351D01*
X032588Y007275D01*
X029823Y007414D02*
X029823Y007721D01*
X029747Y007797D01*
X029593Y007797D01*
X029516Y007721D01*
X029516Y007644D01*
X029593Y007567D01*
X029823Y007567D01*
X029823Y007414D02*
X029747Y007337D01*
X029593Y007337D01*
X029516Y007414D01*
X029363Y007414D02*
X029286Y007337D01*
X029133Y007337D01*
X029056Y007414D01*
X029056Y007721D01*
X029133Y007797D01*
X029286Y007797D01*
X029363Y007721D01*
X028903Y007797D02*
X028749Y007797D01*
X028826Y007797D02*
X028826Y007337D01*
X028749Y007337D02*
X028903Y007337D01*
X027262Y008685D02*
X027262Y009145D01*
X027032Y008915D01*
X027339Y008915D01*
X026878Y008991D02*
X026878Y009068D01*
X026802Y009145D01*
X026648Y009145D01*
X026571Y009068D01*
X026418Y009068D02*
X026341Y009145D01*
X026188Y009145D01*
X026111Y009068D01*
X026111Y008761D01*
X026188Y008685D01*
X026341Y008685D01*
X026418Y008761D01*
X026571Y008761D02*
X026648Y008685D01*
X026802Y008685D01*
X026878Y008761D01*
X026878Y008838D01*
X026802Y008915D01*
X026725Y008915D01*
X026802Y008915D02*
X026878Y008991D01*
X026800Y009373D02*
X026646Y009373D01*
X026570Y009450D01*
X026416Y009450D02*
X026339Y009373D01*
X026186Y009373D01*
X026109Y009450D01*
X026109Y009757D01*
X026186Y009834D01*
X026339Y009834D01*
X026416Y009757D01*
X026570Y009757D02*
X026646Y009834D01*
X026800Y009834D01*
X026877Y009757D01*
X026877Y009680D01*
X026800Y009603D01*
X026877Y009527D01*
X026877Y009450D01*
X026800Y009373D01*
X026800Y009603D02*
X026723Y009603D01*
X027030Y009603D02*
X027030Y009834D01*
X027337Y009834D01*
X027260Y009680D02*
X027337Y009603D01*
X027337Y009450D01*
X027260Y009373D01*
X027107Y009373D01*
X027030Y009450D01*
X027030Y009603D02*
X027183Y009680D01*
X027260Y009680D01*
X027278Y010226D02*
X026971Y010226D01*
X027124Y010226D02*
X027124Y010687D01*
X026971Y010533D01*
X026817Y010226D02*
X026510Y010226D01*
X026510Y010687D01*
X027431Y010610D02*
X027431Y010303D01*
X027738Y010610D01*
X027738Y010303D01*
X027661Y010226D01*
X027508Y010226D01*
X027431Y010303D01*
X027431Y010610D02*
X027508Y010687D01*
X027661Y010687D01*
X027738Y010610D01*
X029105Y005424D02*
X029335Y005424D01*
X029412Y005348D01*
X029412Y005194D01*
X029335Y005117D01*
X029105Y005117D01*
X029258Y005117D02*
X029412Y004964D01*
X029565Y004964D02*
X029872Y005271D01*
X029872Y005348D01*
X029795Y005424D01*
X029642Y005424D01*
X029565Y005348D01*
X030025Y005348D02*
X030102Y005424D01*
X030256Y005424D01*
X030332Y005348D01*
X030332Y005271D01*
X030256Y005194D01*
X030332Y005117D01*
X030332Y005041D01*
X030256Y004964D01*
X030102Y004964D01*
X030025Y005041D01*
X029872Y004964D02*
X029565Y004964D01*
X029105Y004964D02*
X029105Y005424D01*
X030179Y005194D02*
X030256Y005194D01*
X030902Y005241D02*
X030902Y004934D01*
X030979Y004857D01*
X031132Y004857D01*
X031209Y004934D01*
X031363Y005088D02*
X031669Y005088D01*
X031823Y005088D02*
X031823Y005318D01*
X032130Y005318D01*
X032053Y005164D02*
X032130Y005088D01*
X032130Y004934D01*
X032053Y004857D01*
X031900Y004857D01*
X031823Y004934D01*
X031823Y005088D02*
X031976Y005164D01*
X032053Y005164D01*
X031593Y005318D02*
X031593Y004857D01*
X031363Y005088D02*
X031593Y005318D01*
X031209Y005241D02*
X031132Y005318D01*
X030979Y005318D01*
X030902Y005241D01*
X030827Y004016D02*
X030674Y004016D01*
X030597Y003939D01*
X030444Y003939D02*
X030367Y004016D01*
X030214Y004016D01*
X030137Y003939D01*
X030137Y003632D01*
X030214Y003555D01*
X030367Y003555D01*
X030444Y003632D01*
X030597Y003555D02*
X030904Y003862D01*
X030904Y003939D01*
X030827Y004016D01*
X031058Y003939D02*
X031134Y004016D01*
X031288Y004016D01*
X031365Y003939D01*
X031365Y003632D01*
X031288Y003555D01*
X031134Y003555D01*
X031058Y003632D01*
X031134Y003785D02*
X031365Y003785D01*
X031134Y003785D02*
X031058Y003862D01*
X031058Y003939D01*
X030904Y003555D02*
X030597Y003555D01*
X028819Y003697D02*
X028819Y003390D01*
X028359Y003390D01*
X028187Y003455D02*
X028187Y003608D01*
X028110Y003685D01*
X027956Y003838D02*
X027956Y004145D01*
X028110Y004299D02*
X028187Y004299D01*
X028110Y004299D02*
X027803Y004606D01*
X027726Y004606D01*
X027726Y004299D01*
X027726Y004069D02*
X027956Y003838D01*
X027803Y003685D02*
X027726Y003608D01*
X027726Y003455D01*
X027803Y003378D01*
X028110Y003378D01*
X028187Y003455D01*
X028512Y003851D02*
X028359Y004004D01*
X028819Y004004D01*
X028819Y003851D02*
X028819Y004157D01*
X028819Y004311D02*
X028819Y004618D01*
X028819Y004464D02*
X028359Y004464D01*
X028512Y004311D01*
X028187Y004069D02*
X027726Y004069D01*
X027383Y004068D02*
X026923Y004068D01*
X027153Y003837D01*
X027153Y004144D01*
X027230Y004298D02*
X027153Y004374D01*
X027153Y004528D01*
X027230Y004605D01*
X027306Y004605D01*
X027383Y004528D01*
X027383Y004374D01*
X027306Y004298D01*
X027230Y004298D01*
X027153Y004374D02*
X027076Y004298D01*
X026999Y004298D01*
X026923Y004374D01*
X026923Y004528D01*
X026999Y004605D01*
X027076Y004605D01*
X027153Y004528D01*
X027306Y003684D02*
X027383Y003607D01*
X027383Y003454D01*
X027306Y003377D01*
X026999Y003377D01*
X026923Y003454D01*
X026923Y003607D01*
X026999Y003684D01*
X032884Y002710D02*
X032884Y002250D01*
X032884Y002403D02*
X033115Y002403D01*
X033191Y002480D01*
X033191Y002634D01*
X033115Y002710D01*
X032884Y002710D01*
X033038Y002403D02*
X033191Y002250D01*
X033345Y002250D02*
X033652Y002557D01*
X033652Y002634D01*
X033575Y002710D01*
X033422Y002710D01*
X033345Y002634D01*
X033345Y002250D02*
X033652Y002250D01*
X033805Y002250D02*
X034112Y002557D01*
X034112Y002634D01*
X034035Y002710D01*
X033882Y002710D01*
X033805Y002634D01*
X033805Y002250D02*
X034112Y002250D01*
X034103Y001772D02*
X033950Y001695D01*
X033796Y001542D01*
X034027Y001542D01*
X034103Y001465D01*
X034103Y001388D01*
X034027Y001312D01*
X033873Y001312D01*
X033796Y001388D01*
X033796Y001542D01*
X033643Y001542D02*
X033336Y001542D01*
X033566Y001772D01*
X033566Y001312D01*
X033183Y001388D02*
X033106Y001312D01*
X032952Y001312D01*
X032876Y001388D01*
X032876Y001695D01*
X032952Y001772D01*
X033106Y001772D01*
X033183Y001695D01*
X033203Y003056D02*
X033280Y003133D01*
X033203Y003056D02*
X033050Y003056D01*
X032973Y003133D01*
X032973Y003440D01*
X033050Y003517D01*
X033203Y003517D01*
X033280Y003440D01*
X033433Y003287D02*
X033663Y003517D01*
X033663Y003056D01*
X033740Y003287D02*
X033433Y003287D01*
X033894Y003440D02*
X033970Y003517D01*
X034124Y003517D01*
X034201Y003440D01*
X034201Y003363D01*
X034124Y003287D01*
X034201Y003210D01*
X034201Y003133D01*
X034124Y003056D01*
X033970Y003056D01*
X033894Y003133D01*
X034047Y003287D02*
X034124Y003287D01*
X034099Y003950D02*
X034099Y004410D01*
X033946Y004257D01*
X033792Y004257D02*
X033485Y003950D01*
X033792Y003950D01*
X033946Y003950D02*
X034253Y003950D01*
X033792Y004257D02*
X033792Y004334D01*
X033715Y004410D01*
X033562Y004410D01*
X033485Y004334D01*
X033332Y004334D02*
X033332Y004180D01*
X033255Y004104D01*
X033025Y004104D01*
X033178Y004104D02*
X033332Y003950D01*
X033025Y003950D02*
X033025Y004410D01*
X033255Y004410D01*
X033332Y004334D01*
X035735Y004375D02*
X035888Y004221D01*
X035811Y004068D02*
X035735Y003991D01*
X035735Y003838D01*
X035811Y003761D01*
X036118Y003761D01*
X036195Y003838D01*
X036195Y003991D01*
X036118Y004068D01*
X036195Y004221D02*
X036195Y004528D01*
X036195Y004375D02*
X035735Y004375D01*
X035811Y004682D02*
X035735Y004758D01*
X035735Y004912D01*
X035811Y004988D01*
X036118Y004682D01*
X036195Y004758D01*
X036195Y004912D01*
X036118Y004988D01*
X035811Y004988D01*
X035811Y004682D02*
X036118Y004682D01*
X037716Y004730D02*
X037716Y004270D01*
X037716Y004423D02*
X037946Y004423D01*
X038023Y004500D01*
X038023Y004654D01*
X037946Y004730D01*
X037716Y004730D01*
X037869Y004423D02*
X038023Y004270D01*
X038176Y004270D02*
X038483Y004577D01*
X038483Y004654D01*
X038406Y004730D01*
X038253Y004730D01*
X038176Y004654D01*
X038176Y004270D02*
X038483Y004270D01*
X038637Y004500D02*
X038944Y004500D01*
X038867Y004270D02*
X038867Y004730D01*
X038637Y004500D01*
X039669Y004238D02*
X039669Y003931D01*
X039746Y003855D01*
X039899Y003855D01*
X039976Y003931D01*
X040129Y004085D02*
X040436Y004085D01*
X040590Y004238D02*
X040666Y004315D01*
X040820Y004315D01*
X040897Y004238D01*
X040590Y003931D01*
X040666Y003855D01*
X040820Y003855D01*
X040897Y003931D01*
X040897Y004238D01*
X040590Y004238D02*
X040590Y003931D01*
X040359Y003855D02*
X040359Y004315D01*
X040129Y004085D01*
X039976Y004238D02*
X039899Y004315D01*
X039746Y004315D01*
X039669Y004238D01*
X039835Y003517D02*
X039759Y003440D01*
X039759Y003133D01*
X039835Y003056D01*
X039989Y003056D01*
X040066Y003133D01*
X040219Y003133D02*
X040296Y003056D01*
X040449Y003056D01*
X040526Y003133D01*
X040526Y003210D01*
X040449Y003286D01*
X040372Y003286D01*
X040449Y003286D02*
X040526Y003363D01*
X040526Y003440D01*
X040449Y003517D01*
X040296Y003517D01*
X040219Y003440D01*
X040066Y003440D02*
X039989Y003517D01*
X039835Y003517D01*
X040679Y003440D02*
X040679Y003363D01*
X040756Y003286D01*
X040986Y003286D01*
X040986Y003133D02*
X040986Y003440D01*
X040910Y003517D01*
X040756Y003517D01*
X040679Y003440D01*
X040679Y003133D02*
X040756Y003056D01*
X040910Y003056D01*
X040986Y003133D01*
X040835Y002582D02*
X040681Y002582D01*
X040605Y002505D01*
X040605Y002428D01*
X040681Y002352D01*
X040912Y002352D01*
X040912Y002505D02*
X040912Y002198D01*
X040835Y002121D01*
X040681Y002121D01*
X040605Y002198D01*
X040451Y002121D02*
X040144Y002121D01*
X040144Y002582D01*
X040835Y002582D02*
X040912Y002505D01*
X038965Y001831D02*
X038658Y001831D01*
X038658Y001600D01*
X038812Y001677D01*
X038889Y001677D01*
X038965Y001600D01*
X038965Y001447D01*
X038889Y001370D01*
X038735Y001370D01*
X038658Y001447D01*
X038505Y001370D02*
X038198Y001370D01*
X038505Y001677D01*
X038505Y001754D01*
X038428Y001831D01*
X038275Y001831D01*
X038198Y001754D01*
X038044Y001754D02*
X038044Y001600D01*
X037968Y001524D01*
X037738Y001524D01*
X037891Y001524D02*
X038044Y001370D01*
X037738Y001370D02*
X037738Y001831D01*
X037968Y001831D01*
X038044Y001754D01*
X036195Y003454D02*
X036195Y003607D01*
X036195Y003531D02*
X035735Y003531D01*
X035735Y003607D02*
X035735Y003454D01*
X014614Y002718D02*
X014614Y002411D01*
X014614Y002564D02*
X014153Y002564D01*
X014307Y002411D01*
X014394Y002403D02*
X014471Y002326D01*
X014471Y002172D01*
X014394Y002096D01*
X014087Y002096D01*
X014010Y002172D01*
X014010Y002326D01*
X014087Y002403D01*
X014164Y002556D02*
X014010Y002709D01*
X014471Y002709D01*
X014471Y002556D02*
X014471Y002863D01*
X014394Y003016D02*
X014471Y003093D01*
X014471Y003247D01*
X014394Y003323D01*
X014317Y003323D01*
X014241Y003247D01*
X014241Y003016D01*
X014394Y003016D01*
X014241Y003016D02*
X014087Y003170D01*
X014010Y003323D01*
X014230Y002258D02*
X014153Y002181D01*
X014153Y002027D01*
X014230Y001951D01*
X014537Y001951D01*
X014614Y002027D01*
X014614Y002181D01*
X014537Y002258D01*
X014537Y001797D02*
X014614Y001720D01*
X014614Y001567D01*
X014537Y001490D01*
X014537Y001337D02*
X014230Y001337D01*
X014153Y001260D01*
X014153Y001107D01*
X014230Y001030D01*
X014537Y001030D01*
X014614Y001107D01*
X014614Y001260D01*
X014537Y001337D01*
X014307Y001490D02*
X014384Y001567D01*
X014384Y001720D01*
X014460Y001797D01*
X014537Y001797D01*
X014230Y001797D02*
X014153Y001720D01*
X014153Y001567D01*
X014230Y001490D01*
X014307Y001490D01*
X012943Y000243D02*
X012790Y000167D01*
X012636Y000013D01*
X012867Y000013D01*
X012943Y-000064D01*
X012943Y-000140D01*
X012867Y-000217D01*
X012713Y-000217D01*
X012636Y-000140D01*
X012636Y000013D01*
X012483Y-000140D02*
X012406Y-000217D01*
X012253Y-000217D01*
X012176Y-000140D01*
X012176Y000167D01*
X012253Y000243D01*
X012406Y000243D01*
X012483Y000167D01*
X012023Y000243D02*
X011869Y000243D01*
X011946Y000243D02*
X011946Y-000217D01*
X011869Y-000217D02*
X012023Y-000217D01*
X010424Y002096D02*
X010117Y002096D01*
X010040Y002172D01*
X010040Y002326D01*
X010117Y002403D01*
X010194Y002556D02*
X010040Y002709D01*
X010501Y002709D01*
X010501Y002556D02*
X010501Y002863D01*
X010501Y003016D02*
X010424Y003016D01*
X010117Y003323D01*
X010040Y003323D01*
X010040Y003016D01*
X009431Y003043D02*
X009431Y002736D01*
X009431Y002889D02*
X008970Y002889D01*
X009124Y002736D01*
X009047Y002583D02*
X008970Y002506D01*
X008970Y002352D01*
X009047Y002276D01*
X009354Y002276D01*
X009431Y002352D01*
X009431Y002506D01*
X009354Y002583D01*
X009354Y003196D02*
X009277Y003196D01*
X009201Y003273D01*
X009201Y003427D01*
X009277Y003503D01*
X009354Y003503D01*
X009431Y003427D01*
X009431Y003273D01*
X009354Y003196D01*
X009201Y003273D02*
X009124Y003196D01*
X009047Y003196D01*
X008970Y003273D01*
X008970Y003427D01*
X009047Y003503D01*
X009124Y003503D01*
X009201Y003427D01*
X010424Y002403D02*
X010501Y002326D01*
X010501Y002172D01*
X010424Y002096D01*
X006417Y002903D02*
X006417Y002980D01*
X006341Y003057D01*
X006110Y003057D01*
X006110Y002903D01*
X006187Y002827D01*
X006341Y002827D01*
X006417Y002903D01*
X006264Y003210D02*
X006110Y003057D01*
X005957Y003134D02*
X005650Y002827D01*
X005957Y002827D01*
X005957Y003134D02*
X005957Y003210D01*
X005880Y003287D01*
X005727Y003287D01*
X005650Y003210D01*
X005497Y003210D02*
X005497Y003057D01*
X005420Y002980D01*
X005190Y002980D01*
X005343Y002980D02*
X005497Y002827D01*
X005190Y002827D02*
X005190Y003287D01*
X005420Y003287D01*
X005497Y003210D01*
X005481Y003389D02*
X005328Y003389D01*
X005251Y003466D01*
X005328Y003619D02*
X005558Y003619D01*
X005558Y003466D02*
X005558Y003773D01*
X005481Y003850D01*
X005328Y003850D01*
X005251Y003773D01*
X005251Y003696D01*
X005328Y003619D01*
X005097Y003619D02*
X005021Y003543D01*
X004790Y003543D01*
X004790Y003389D02*
X004790Y003850D01*
X005021Y003850D01*
X005097Y003773D01*
X005097Y003619D01*
X004944Y003543D02*
X005097Y003389D01*
X005481Y003389D02*
X005558Y003466D01*
X006264Y003210D02*
X006417Y003287D01*
X004358Y002550D02*
X004358Y002473D01*
X004051Y002166D01*
X004051Y002089D01*
X003897Y002089D02*
X003744Y002243D01*
X003821Y002243D02*
X003590Y002243D01*
X003590Y002089D02*
X003590Y002550D01*
X003821Y002550D01*
X003897Y002473D01*
X003897Y002319D01*
X003821Y002243D01*
X004051Y002550D02*
X004358Y002550D01*
X007202Y010444D02*
X007355Y010444D01*
X007432Y010521D01*
X007585Y010444D02*
X007892Y010751D01*
X007892Y010828D01*
X007815Y010905D01*
X007662Y010905D01*
X007585Y010828D01*
X007432Y010828D02*
X007355Y010905D01*
X007202Y010905D01*
X007125Y010828D01*
X007125Y010521D01*
X007202Y010444D01*
X007585Y010444D02*
X007892Y010444D01*
X008046Y010444D02*
X008353Y010444D01*
X008199Y010444D02*
X008199Y010905D01*
X008046Y010751D01*
D12*
X006800Y010079D02*
X004219Y010079D01*
X004219Y012439D01*
X006799Y012439D02*
X006800Y010079D01*
X011044Y009566D02*
X011044Y012147D01*
X012444Y012147D01*
X012444Y009566D01*
X011044Y009566D01*
X000061Y014848D02*
X-000510Y014848D01*
X-000510Y015891D01*
X-001357Y015891D01*
X-001652Y015596D01*
X-003148Y015596D01*
X-003148Y015930D01*
X-003611Y015930D01*
X-003611Y017426D01*
X-003148Y017426D01*
X-003148Y017761D01*
X-001652Y017761D01*
X-001357Y017466D01*
X-000510Y017466D01*
X-000510Y018509D01*
X000061Y018509D01*
X000061Y018194D02*
X000061Y015163D01*
X010968Y003979D02*
X013548Y003979D01*
X013548Y001619D01*
X010968Y001619D02*
X010968Y003979D01*
X042873Y014848D02*
X043444Y014848D01*
X043444Y015891D01*
X044291Y015891D01*
X044586Y015596D01*
X046082Y015596D01*
X046082Y015930D01*
X046544Y015930D01*
X046544Y017426D01*
X046082Y017426D01*
X046082Y017761D01*
X044586Y017761D01*
X044291Y017466D01*
X043444Y017466D01*
X043444Y018509D01*
X042873Y018509D01*
X042873Y018194D02*
X042873Y015163D01*
D13*
X012258Y004169D03*
X005509Y009889D03*
D14*
X014989Y013730D02*
X015481Y013730D01*
X015619Y013690D02*
X015619Y012548D01*
X015835Y012548D01*
X015835Y013690D01*
X015619Y013690D01*
X021606Y015326D02*
X021606Y017294D01*
X023062Y017294D01*
X023062Y015326D01*
X021606Y015326D01*
X021468Y017432D02*
X020887Y017432D01*
X012842Y017739D02*
X012626Y017739D01*
X012626Y018881D01*
X012842Y018881D01*
X012842Y017739D01*
X012488Y018920D02*
X011996Y018920D01*
X005296Y017659D02*
X005296Y014561D01*
X003371Y014561D01*
X003371Y017659D01*
X005296Y017659D01*
X003233Y017454D02*
X002798Y017454D01*
X005433Y005471D02*
X005649Y005471D01*
X005649Y004330D01*
X005433Y004330D01*
X005433Y005471D01*
X005787Y004290D02*
X006279Y004290D01*
X028615Y006583D02*
X028615Y008551D01*
X030071Y008551D01*
X030071Y006583D01*
X028615Y006583D01*
X030209Y006445D02*
X030790Y006445D01*
X030398Y012062D02*
X030398Y012751D01*
X030382Y012889D02*
X032445Y012889D01*
X032445Y014778D01*
X030382Y014778D01*
X030382Y012889D01*
D15*
X029825Y013264D02*
X029525Y013264D01*
X029675Y013264D02*
X029675Y013715D01*
X029525Y013565D01*
X029365Y013715D02*
X029215Y013715D01*
X029290Y013715D02*
X029290Y013339D01*
X029215Y013264D01*
X029140Y013264D01*
X029064Y013339D01*
X028904Y013339D02*
X028829Y013264D01*
X028679Y013264D01*
X028604Y013339D01*
X028679Y013490D02*
X028829Y013490D01*
X028904Y013414D01*
X028904Y013339D01*
X028679Y013490D02*
X028604Y013565D01*
X028604Y013640D01*
X028679Y013715D01*
X028829Y013715D01*
X028904Y013640D01*
X030863Y016358D02*
X031014Y016358D01*
X031089Y016434D01*
X031089Y016509D01*
X031014Y016584D01*
X030788Y016584D01*
X030788Y016434D01*
X030863Y016358D01*
X030788Y016584D02*
X030939Y016734D01*
X031089Y016809D01*
X029239Y017208D02*
X028938Y017208D01*
X029089Y017208D02*
X029089Y017659D01*
X028938Y017509D01*
X028938Y018208D02*
X029239Y018509D01*
X029239Y018584D01*
X029164Y018659D01*
X029013Y018659D01*
X028938Y018584D01*
X028938Y018208D02*
X029239Y018208D01*
X025055Y010931D02*
X015213Y010931D01*
X015213Y001089D01*
X025055Y001089D01*
X025055Y010931D01*
X034598Y010188D02*
X034598Y009688D01*
X034598Y010188D02*
X035098Y010188D01*
X039098Y010188D02*
X039598Y010188D01*
X039598Y009688D01*
X039598Y005688D02*
X039598Y005188D01*
X039098Y005188D01*
X037509Y003635D02*
X036760Y003633D01*
X036582Y003635D02*
X036584Y003661D01*
X036590Y003687D01*
X036600Y003712D01*
X036613Y003735D01*
X036629Y003755D01*
X036649Y003773D01*
X036671Y003788D01*
X036694Y003800D01*
X036720Y003808D01*
X036746Y003812D01*
X036772Y003812D01*
X036798Y003808D01*
X036824Y003800D01*
X036848Y003788D01*
X036869Y003773D01*
X036889Y003755D01*
X036905Y003735D01*
X036918Y003712D01*
X036928Y003687D01*
X036934Y003661D01*
X036936Y003635D01*
X036934Y003609D01*
X036928Y003583D01*
X036918Y003558D01*
X036905Y003535D01*
X036889Y003515D01*
X036869Y003497D01*
X036847Y003482D01*
X036824Y003470D01*
X036798Y003462D01*
X036772Y003458D01*
X036746Y003458D01*
X036720Y003462D01*
X036694Y003470D01*
X036670Y003482D01*
X036649Y003497D01*
X036629Y003515D01*
X036613Y003535D01*
X036600Y003558D01*
X036590Y003583D01*
X036584Y003609D01*
X036582Y003635D01*
X036759Y003635D02*
X036759Y003510D01*
X037509Y003510D02*
X037509Y003635D01*
X037509Y002260D02*
X037509Y002135D01*
X036759Y002135D01*
X036759Y002260D01*
X035098Y005188D02*
X034598Y005188D01*
X034598Y005688D01*
X004028Y011035D02*
X003727Y011035D01*
X003878Y011035D02*
X003878Y011485D01*
X003727Y011335D01*
X003567Y011410D02*
X003567Y011260D01*
X003492Y011185D01*
X003267Y011185D01*
X003267Y011035D02*
X003267Y011485D01*
X003492Y011485D01*
X003567Y011410D01*
X003107Y011410D02*
X003032Y011485D01*
X002882Y011485D01*
X002807Y011410D01*
X002807Y011335D01*
X002882Y011260D01*
X003032Y011260D01*
X003107Y011185D01*
X003107Y011110D01*
X003032Y011035D01*
X002882Y011035D01*
X002807Y011110D01*
X002647Y011035D02*
X002346Y011035D01*
X002346Y011485D01*
D16*
X002321Y010610D02*
X002471Y010610D01*
X002321Y010610D02*
X002321Y010410D01*
X002471Y010410D01*
X003371Y010410D02*
X003521Y010410D01*
X003521Y010610D01*
X003371Y010610D01*
X003428Y007688D02*
X003426Y007643D01*
X003421Y007597D01*
X003413Y007553D01*
X003401Y007509D01*
X003385Y007466D01*
X003367Y007424D01*
X003345Y007384D01*
X003321Y007346D01*
X003294Y007310D01*
X003264Y007275D01*
X003231Y007244D01*
X003196Y007214D01*
X002228Y007688D02*
X002230Y007735D01*
X002236Y007783D01*
X002245Y007829D01*
X002258Y007875D01*
X002274Y007919D01*
X002295Y007963D01*
X002318Y008004D01*
X002344Y008043D01*
X002374Y008080D01*
X002407Y008115D01*
X002442Y008147D01*
X002479Y008176D01*
X002228Y007688D02*
X002230Y007642D01*
X002235Y007596D01*
X002244Y007550D01*
X002256Y007505D01*
X002272Y007462D01*
X002291Y007420D01*
X002314Y007379D01*
X002339Y007340D01*
X002367Y007304D01*
X002398Y007269D01*
X002432Y007237D01*
X002468Y007208D01*
X003428Y007688D02*
X003426Y007733D01*
X003421Y007779D01*
X003413Y007823D01*
X003401Y007867D01*
X003385Y007910D01*
X003367Y007952D01*
X003345Y007992D01*
X003321Y008030D01*
X003294Y008066D01*
X003264Y008101D01*
X003231Y008132D01*
X003196Y008162D01*
X003428Y005188D02*
X003426Y005143D01*
X003421Y005097D01*
X003413Y005053D01*
X003401Y005009D01*
X003385Y004966D01*
X003367Y004924D01*
X003345Y004884D01*
X003321Y004846D01*
X003294Y004810D01*
X003264Y004775D01*
X003231Y004744D01*
X003196Y004714D01*
X002228Y005188D02*
X002230Y005235D01*
X002236Y005283D01*
X002245Y005329D01*
X002258Y005375D01*
X002274Y005419D01*
X002295Y005463D01*
X002318Y005504D01*
X002344Y005543D01*
X002374Y005580D01*
X002407Y005615D01*
X002442Y005647D01*
X002479Y005676D01*
X002228Y005188D02*
X002230Y005142D01*
X002235Y005096D01*
X002244Y005050D01*
X002256Y005005D01*
X002272Y004962D01*
X002291Y004920D01*
X002314Y004879D01*
X002339Y004840D01*
X002367Y004804D01*
X002398Y004769D01*
X002432Y004737D01*
X002468Y004708D01*
X003428Y005188D02*
X003426Y005233D01*
X003421Y005279D01*
X003413Y005323D01*
X003401Y005367D01*
X003385Y005410D01*
X003367Y005452D01*
X003345Y005492D01*
X003321Y005530D01*
X003294Y005566D01*
X003264Y005601D01*
X003231Y005632D01*
X003196Y005662D01*
X003428Y002688D02*
X003426Y002643D01*
X003421Y002597D01*
X003413Y002553D01*
X003401Y002509D01*
X003385Y002466D01*
X003367Y002424D01*
X003345Y002384D01*
X003321Y002346D01*
X003294Y002310D01*
X003264Y002275D01*
X003231Y002244D01*
X003196Y002214D01*
X002228Y002688D02*
X002230Y002735D01*
X002236Y002783D01*
X002245Y002829D01*
X002258Y002875D01*
X002274Y002919D01*
X002295Y002963D01*
X002318Y003004D01*
X002344Y003043D01*
X002374Y003080D01*
X002407Y003115D01*
X002442Y003147D01*
X002479Y003176D01*
X002228Y002688D02*
X002230Y002642D01*
X002235Y002596D01*
X002244Y002550D01*
X002256Y002505D01*
X002272Y002462D01*
X002291Y002420D01*
X002314Y002379D01*
X002339Y002340D01*
X002367Y002304D01*
X002398Y002269D01*
X002432Y002237D01*
X002468Y002208D01*
X003428Y002688D02*
X003426Y002733D01*
X003421Y002779D01*
X003413Y002823D01*
X003401Y002867D01*
X003385Y002910D01*
X003367Y002952D01*
X003345Y002992D01*
X003321Y003030D01*
X003294Y003066D01*
X003264Y003101D01*
X003231Y003132D01*
X003196Y003162D01*
X017660Y013590D02*
X017662Y013631D01*
X017668Y013672D01*
X017678Y013712D01*
X017691Y013751D01*
X017708Y013788D01*
X017729Y013824D01*
X017753Y013858D01*
X017780Y013889D01*
X017809Y013917D01*
X017842Y013943D01*
X017876Y013965D01*
X017913Y013984D01*
X017951Y013999D01*
X017991Y014011D01*
X018031Y014019D01*
X018072Y014023D01*
X018114Y014023D01*
X018155Y014019D01*
X018195Y014011D01*
X018235Y013999D01*
X018273Y013984D01*
X018309Y013965D01*
X018344Y013943D01*
X018377Y013917D01*
X018406Y013889D01*
X018433Y013858D01*
X018457Y013824D01*
X018478Y013788D01*
X018495Y013751D01*
X018508Y013712D01*
X018518Y013672D01*
X018524Y013631D01*
X018526Y013590D01*
X018524Y013549D01*
X018518Y013508D01*
X018508Y013468D01*
X018495Y013429D01*
X018478Y013392D01*
X018457Y013356D01*
X018433Y013322D01*
X018406Y013291D01*
X018377Y013263D01*
X018344Y013237D01*
X018310Y013215D01*
X018273Y013196D01*
X018235Y013181D01*
X018195Y013169D01*
X018155Y013161D01*
X018114Y013157D01*
X018072Y013157D01*
X018031Y013161D01*
X017991Y013169D01*
X017951Y013181D01*
X017913Y013196D01*
X017877Y013215D01*
X017842Y013237D01*
X017809Y013263D01*
X017780Y013291D01*
X017753Y013322D01*
X017729Y013356D01*
X017708Y013392D01*
X017691Y013429D01*
X017678Y013468D01*
X017668Y013508D01*
X017662Y013549D01*
X017660Y013590D01*
X013994Y015150D02*
X013994Y015470D01*
X013774Y015470D01*
X013094Y015470D02*
X012874Y015470D01*
X012874Y015150D01*
X002741Y019208D02*
X002314Y019208D01*
X002527Y019208D02*
X002527Y019849D01*
X002314Y019635D01*
X002096Y019849D02*
X001669Y019422D01*
X001776Y019529D02*
X002096Y019208D01*
X001669Y019208D02*
X001669Y019849D01*
X001452Y019742D02*
X001345Y019849D01*
X001131Y019849D01*
X001025Y019742D01*
X001025Y019315D01*
X001131Y019208D01*
X001345Y019208D01*
X001452Y019315D01*
X000807Y019315D02*
X000807Y019422D01*
X000700Y019529D01*
X000487Y019529D01*
X000380Y019635D01*
X000380Y019742D01*
X000487Y019849D01*
X000700Y019849D01*
X000807Y019742D01*
X000807Y019315D02*
X000700Y019208D01*
X000487Y019208D01*
X000380Y019315D01*
X027913Y019683D02*
X027913Y016183D01*
X029413Y016183D01*
X029413Y016233D01*
X029913Y016233D01*
X029913Y016183D01*
X030113Y016183D01*
X030113Y016583D01*
X030113Y016683D01*
X028413Y016683D01*
X028413Y019183D01*
X033413Y019183D01*
X033413Y016683D01*
X031713Y016683D01*
X031713Y016583D01*
X031713Y016183D01*
X030113Y016183D01*
X030113Y016683D02*
X030113Y016983D01*
X031713Y016983D01*
X031713Y016683D01*
X031713Y016183D02*
X033913Y016183D01*
X033913Y019683D01*
X033413Y019683D01*
X033413Y019783D01*
X032913Y019783D01*
X032913Y019683D01*
X031163Y019683D01*
X031163Y019783D01*
X030663Y019783D01*
X030663Y019683D01*
X028913Y019683D01*
X028913Y019783D01*
X028413Y019783D01*
X028413Y019683D01*
X027913Y019683D01*
X028760Y014589D02*
X029860Y014589D01*
X029877Y014587D01*
X029894Y014583D01*
X029910Y014576D01*
X029924Y014566D01*
X029937Y014553D01*
X029947Y014539D01*
X029954Y014523D01*
X029958Y014506D01*
X029960Y014489D01*
X029960Y013889D01*
X029958Y013872D01*
X029954Y013855D01*
X029947Y013839D01*
X029937Y013825D01*
X029924Y013812D01*
X029910Y013802D01*
X029894Y013795D01*
X029877Y013791D01*
X029860Y013789D01*
X028760Y013789D01*
X028743Y013791D01*
X028726Y013795D01*
X028710Y013802D01*
X028696Y013812D01*
X028683Y013825D01*
X028673Y013839D01*
X028666Y013855D01*
X028662Y013872D01*
X028660Y013889D01*
X028660Y014489D01*
X028662Y014506D01*
X028666Y014523D01*
X028673Y014539D01*
X028683Y014553D01*
X028696Y014566D01*
X028710Y014576D01*
X028726Y014583D01*
X028743Y014587D01*
X028760Y014589D01*
X040036Y014042D02*
X040036Y013935D01*
X040142Y013829D01*
X040356Y013829D01*
X040463Y013722D01*
X040463Y013615D01*
X040356Y013508D01*
X040142Y013508D01*
X040036Y013615D01*
X040036Y014042D02*
X040142Y014149D01*
X040356Y014149D01*
X040463Y014042D01*
X040680Y014042D02*
X040680Y013615D01*
X040787Y013508D01*
X041000Y013508D01*
X041107Y013615D01*
X041325Y013508D02*
X041325Y014149D01*
X041107Y014042D02*
X041000Y014149D01*
X040787Y014149D01*
X040680Y014042D01*
X041325Y013722D02*
X041752Y014149D01*
X041969Y014042D02*
X042076Y014149D01*
X042290Y014149D01*
X042396Y014042D01*
X042396Y013935D01*
X041969Y013508D01*
X042396Y013508D01*
X041752Y013508D02*
X041432Y013829D01*
D17*
X021301Y014141D02*
X021301Y012429D01*
X020671Y012429D01*
X020671Y012527D01*
X018152Y012527D01*
X018152Y012429D01*
X017522Y012429D01*
X017522Y014141D01*
X021301Y014141D01*
X002452Y006982D02*
X002405Y007009D01*
X002360Y007039D01*
X002317Y007072D01*
X002277Y007108D01*
X002239Y007147D01*
X002204Y007188D01*
X002171Y007231D01*
X002142Y007276D01*
X002116Y007324D01*
X002093Y007373D01*
X002073Y007423D01*
X002057Y007474D01*
X002044Y007527D01*
X002035Y007580D01*
X002030Y007634D01*
X002028Y007688D01*
X003225Y006993D02*
X003273Y007023D01*
X003318Y007056D01*
X003361Y007092D01*
X003402Y007130D01*
X003439Y007172D01*
X003474Y007216D01*
X003505Y007262D01*
X003534Y007311D01*
X003558Y007361D01*
X003579Y007413D01*
X003597Y007467D01*
X003610Y007521D01*
X003620Y007576D01*
X003626Y007632D01*
X003628Y007688D01*
X003626Y007741D01*
X003621Y007795D01*
X003612Y007847D01*
X003600Y007899D01*
X003584Y007950D01*
X003565Y008000D01*
X003542Y008049D01*
X003516Y008096D01*
X003488Y008141D01*
X003456Y008184D01*
X003422Y008224D01*
X003384Y008263D01*
X003345Y008299D01*
X002316Y008303D02*
X002276Y008267D01*
X002238Y008228D01*
X002203Y008187D01*
X002171Y008144D01*
X002141Y008099D01*
X002115Y008052D01*
X002093Y008003D01*
X002073Y007952D01*
X002057Y007901D01*
X002044Y007849D01*
X002035Y007795D01*
X002030Y007742D01*
X002028Y007688D01*
X002028Y005188D02*
X002030Y005134D01*
X002035Y005080D01*
X002044Y005027D01*
X002057Y004974D01*
X002073Y004923D01*
X002093Y004873D01*
X002116Y004824D01*
X002142Y004776D01*
X002171Y004731D01*
X002204Y004688D01*
X002239Y004647D01*
X002277Y004608D01*
X002317Y004572D01*
X002360Y004539D01*
X002405Y004509D01*
X002452Y004482D01*
X003225Y004493D02*
X003273Y004523D01*
X003318Y004556D01*
X003361Y004592D01*
X003402Y004630D01*
X003439Y004672D01*
X003474Y004716D01*
X003505Y004762D01*
X003534Y004811D01*
X003558Y004861D01*
X003579Y004913D01*
X003597Y004967D01*
X003610Y005021D01*
X003620Y005076D01*
X003626Y005132D01*
X003628Y005188D01*
X003626Y005241D01*
X003621Y005295D01*
X003612Y005347D01*
X003600Y005399D01*
X003584Y005450D01*
X003565Y005500D01*
X003542Y005549D01*
X003516Y005596D01*
X003488Y005641D01*
X003456Y005684D01*
X003422Y005724D01*
X003384Y005763D01*
X003345Y005799D01*
X002316Y005803D02*
X002276Y005767D01*
X002238Y005728D01*
X002203Y005687D01*
X002171Y005644D01*
X002141Y005599D01*
X002115Y005552D01*
X002093Y005503D01*
X002073Y005452D01*
X002057Y005401D01*
X002044Y005349D01*
X002035Y005295D01*
X002030Y005242D01*
X002028Y005188D01*
X002028Y002688D02*
X002030Y002634D01*
X002035Y002580D01*
X002044Y002527D01*
X002057Y002474D01*
X002073Y002423D01*
X002093Y002373D01*
X002116Y002324D01*
X002142Y002276D01*
X002171Y002231D01*
X002204Y002188D01*
X002239Y002147D01*
X002277Y002108D01*
X002317Y002072D01*
X002360Y002039D01*
X002405Y002009D01*
X002452Y001982D01*
X003225Y001993D02*
X003273Y002023D01*
X003318Y002056D01*
X003361Y002092D01*
X003402Y002130D01*
X003439Y002172D01*
X003474Y002216D01*
X003505Y002262D01*
X003534Y002311D01*
X003558Y002361D01*
X003579Y002413D01*
X003597Y002467D01*
X003610Y002521D01*
X003620Y002576D01*
X003626Y002632D01*
X003628Y002688D01*
X003626Y002741D01*
X003621Y002795D01*
X003612Y002847D01*
X003600Y002899D01*
X003584Y002950D01*
X003565Y003000D01*
X003542Y003049D01*
X003516Y003096D01*
X003488Y003141D01*
X003456Y003184D01*
X003422Y003224D01*
X003384Y003263D01*
X003345Y003299D01*
X002316Y003303D02*
X002276Y003267D01*
X002238Y003228D01*
X002203Y003187D01*
X002171Y003144D01*
X002141Y003099D01*
X002115Y003052D01*
X002093Y003003D01*
X002073Y002952D01*
X002057Y002901D01*
X002044Y002849D01*
X002035Y002795D01*
X002030Y002742D01*
X002028Y002688D01*
D18*
X028313Y016583D02*
X030113Y016583D01*
X031713Y016583D02*
X033513Y016583D01*
X033513Y019283D01*
X028313Y019283D01*
X028313Y016583D01*
D19*
X018093Y013590D03*
M02*
