G75*
G70*
%OFA0B0*%
%FSLAX24Y24*%
%IPPOS*%
%LPD*%
%AMOC8*
5,1,8,0,0,1.08239X$1,22.5*
%
%ADD10R,2.8346X0.1575*%
%ADD11R,1.3780X0.1575*%
%ADD12R,0.1969X1.3780*%
%ADD13OC8,0.0600*%
%ADD14R,0.2080X0.0980*%
%ADD15C,0.0940*%
%ADD16OC8,0.0640*%
%ADD17OC8,0.0930*%
%ADD18R,0.0555X0.0555*%
%ADD19R,0.0476X0.0476*%
%ADD20R,0.0397X0.0397*%
%ADD21OC8,0.0397*%
%ADD22C,0.0476*%
D10*
X035592Y004829D03*
X033623Y024144D03*
X020958Y024144D03*
D11*
X015871Y004845D03*
X015706Y004845D03*
X042855Y004824D03*
D12*
X048703Y011027D03*
X048703Y017653D03*
X007769Y017946D03*
X007769Y011320D03*
D13*
X008872Y011437D03*
X008872Y010437D03*
X008872Y008937D03*
X008872Y007937D03*
X008872Y006437D03*
X008872Y005437D03*
D14*
X007941Y018975D03*
X007941Y022455D03*
X048655Y022455D03*
X048655Y018975D03*
D15*
X030705Y013787D03*
X030705Y010047D03*
X023225Y013787D03*
X023225Y006307D03*
X030705Y006307D03*
D16*
X036744Y021470D03*
X037744Y021470D03*
X038744Y021470D03*
X038744Y022470D03*
X037744Y022470D03*
X036744Y022470D03*
D17*
X008965Y014547D03*
D18*
X007605Y004920D03*
X007605Y006398D03*
X007605Y008367D03*
X007605Y010335D03*
X007605Y012304D03*
X007605Y014272D03*
X011771Y015115D03*
X011727Y016044D03*
X012344Y016638D03*
X012904Y016039D03*
X012951Y015156D03*
X015507Y013883D03*
X015507Y013083D03*
X019350Y012739D03*
X018581Y010430D03*
X017981Y010430D03*
X017381Y010430D03*
X016781Y010430D03*
X016181Y010430D03*
X016181Y009830D03*
X016781Y009830D03*
X017381Y009830D03*
X017981Y009830D03*
X018581Y009830D03*
X018581Y009130D03*
X017981Y009130D03*
X017381Y009130D03*
X016781Y009130D03*
X016181Y009130D03*
X016181Y008430D03*
X016781Y008430D03*
X017381Y008430D03*
X017981Y008430D03*
X018581Y008430D03*
X018581Y007830D03*
X017981Y007830D03*
X017381Y007830D03*
X016781Y007830D03*
X016181Y007830D03*
X016581Y004920D03*
X014613Y004920D03*
X012644Y004920D03*
X018550Y004920D03*
X020518Y004920D03*
X022487Y004920D03*
X024455Y004920D03*
X026424Y004920D03*
X028392Y004920D03*
X030361Y004920D03*
X032329Y004920D03*
X034298Y004920D03*
X035282Y005414D03*
X036266Y004920D03*
X037251Y005414D03*
X038235Y004920D03*
X039219Y005414D03*
X040203Y004920D03*
X042172Y004920D03*
X044140Y004920D03*
X046109Y004920D03*
X048077Y004920D03*
X048739Y006030D03*
X047755Y007014D03*
X048739Y007998D03*
X047755Y008983D03*
X048739Y009967D03*
X047755Y010951D03*
X048739Y011935D03*
X047755Y012920D03*
X048739Y013904D03*
X047755Y014888D03*
X048739Y015872D03*
X047755Y016857D03*
X046770Y017841D03*
X045786Y016857D03*
X044802Y015872D03*
X046770Y015872D03*
X041893Y017660D03*
X040144Y017710D03*
X041128Y018694D03*
X043428Y018994D03*
X046770Y019809D03*
X048078Y018971D03*
X049078Y018971D03*
X046770Y021778D03*
X048078Y022471D03*
X049078Y022471D03*
X046770Y023746D03*
X046109Y024393D03*
X044802Y023746D03*
X044140Y024393D03*
X042833Y023746D03*
X042172Y024393D03*
X040203Y024393D03*
X038235Y024393D03*
X036266Y024393D03*
X034298Y024393D03*
X032329Y024393D03*
X030361Y024393D03*
X028392Y024393D03*
X026424Y024393D03*
X024455Y024393D03*
X022487Y024393D03*
X020518Y024393D03*
X018550Y024393D03*
X016581Y024393D03*
X014613Y024393D03*
X012644Y024393D03*
X010676Y024393D03*
X008707Y024393D03*
X007605Y024393D03*
X007305Y022509D03*
X008505Y022509D03*
X008405Y019009D03*
X007205Y019009D03*
X007605Y018209D03*
X007605Y016241D03*
X017244Y016581D03*
X017970Y016879D03*
X036266Y006398D03*
X038235Y006398D03*
X040203Y006398D03*
X041128Y016726D03*
X044802Y021778D03*
X045786Y022762D03*
X043818Y022762D03*
X041849Y022762D03*
D19*
X038465Y018647D03*
X037465Y017647D03*
X036340Y012422D03*
X040547Y009181D03*
X036965Y008547D03*
X011665Y019147D03*
X020865Y021947D03*
D20*
X018565Y022347D03*
X020065Y023247D03*
X016665Y022047D03*
X017865Y021247D03*
X021465Y019847D03*
X022365Y019847D03*
X025799Y020187D03*
X027299Y020587D03*
X026699Y022287D03*
X024899Y022987D03*
X025599Y023087D03*
X030399Y019087D03*
X029899Y018787D03*
X026480Y017171D03*
X023480Y015571D03*
X021380Y017171D03*
X016565Y018947D03*
X015565Y018947D03*
X014565Y018947D03*
X010428Y011882D03*
X033927Y009063D03*
X034638Y009058D03*
X036130Y009846D03*
X037755Y009846D03*
X036752Y011359D03*
X034533Y012503D03*
X034590Y013088D03*
X034610Y013790D03*
X036380Y013096D03*
X036399Y013835D03*
X038870Y013295D03*
X039788Y013632D03*
X040531Y013641D03*
X042043Y013386D03*
X043209Y013643D03*
X045226Y013635D03*
X045845Y013274D03*
X045843Y012265D03*
X045839Y011260D03*
X045821Y010259D03*
X044591Y009821D03*
X042588Y009855D03*
X042037Y010363D03*
X042038Y011380D03*
X046321Y007974D03*
X046326Y007280D03*
X043008Y006929D03*
X043196Y005603D03*
X042908Y018444D03*
X044782Y019001D03*
X042887Y019533D03*
X042106Y020383D03*
X042106Y021092D03*
X036191Y019149D03*
D21*
X034765Y018147D03*
X031265Y019147D03*
X029365Y020547D03*
X027865Y018947D03*
X029865Y017147D03*
X033265Y015447D03*
X034365Y016047D03*
X034565Y015047D03*
X039965Y016847D03*
X043065Y021947D03*
X030265Y023547D03*
X023865Y019347D03*
X023965Y017547D03*
X023965Y016947D03*
X022765Y016047D03*
X020965Y015047D03*
X027123Y015147D03*
X033465Y011047D03*
X035865Y011547D03*
X038863Y011629D03*
X039865Y011047D03*
X046465Y006347D03*
X018465Y011547D03*
X014965Y010047D03*
X014165Y009347D03*
X014465Y008547D03*
X014465Y006547D03*
X011965Y005547D03*
X011465Y012047D03*
X019565Y020947D03*
D22*
X019958Y016991D03*
X033858Y018891D03*
X035715Y008672D03*
M02*
