G75*
G70*
%OFA0B0*%
%FSLAX24Y24*%
%IPPOS*%
%LPD*%
%AMOC8*
5,1,8,0,0,1.08239X$1,22.5*
%
%ADD10R,0.0671X0.0592*%
%ADD11R,0.0513X0.0474*%
%ADD12R,0.2206X0.2521*%
%ADD13R,0.0474X0.0710*%
%ADD14R,0.0592X0.0671*%
%ADD15R,0.0592X0.0592*%
%ADD16R,0.0592X0.0867*%
%ADD17R,0.0867X0.0671*%
%ADD18R,0.0867X0.1576*%
%ADD19R,0.0661X0.0257*%
%ADD20R,0.0474X0.0513*%
%ADD21R,0.0513X0.0316*%
%ADD22R,0.0631X0.0395*%
%ADD23C,0.0660*%
%ADD24R,0.0630X0.0394*%
%ADD25R,0.0678X0.0678*%
%ADD26R,0.0572X0.0277*%
%ADD27R,0.0474X0.0631*%
%ADD28OC8,0.0600*%
%ADD29R,0.0515X0.0493*%
%ADD30R,0.2080X0.0980*%
%ADD31C,0.0940*%
%ADD32OC8,0.0640*%
%ADD33R,0.0540X0.0710*%
%ADD34R,0.0060X0.0720*%
%ADD35R,0.0336X0.0769*%
%ADD36OC8,0.0930*%
%ADD37R,0.0555X0.0555*%
%ADD38R,0.0476X0.0476*%
%ADD39R,0.0397X0.0397*%
%ADD40OC8,0.0397*%
%ADD41C,0.0476*%
D10*
X016032Y008240D03*
X017032Y008240D03*
X017032Y008988D03*
X016032Y008988D03*
X021032Y008988D03*
X021032Y008240D03*
X012429Y012488D03*
X012429Y013236D03*
X040521Y010506D03*
X040521Y009758D03*
D11*
X038879Y009874D03*
X038210Y009874D03*
X038114Y008572D03*
X037444Y008572D03*
X035342Y009501D03*
X035342Y010170D03*
X038207Y011208D03*
X038876Y011208D03*
X040533Y011193D03*
X040533Y011862D03*
X038854Y012225D03*
X038854Y012895D03*
X037522Y013107D03*
X036852Y013107D03*
X035743Y013072D03*
X035074Y013072D03*
X035076Y013784D03*
X035745Y013784D03*
X036851Y013871D03*
X037521Y013871D03*
X041749Y015178D03*
X042418Y015178D03*
X043785Y016186D03*
X043785Y016855D03*
X043720Y017617D03*
X044389Y017617D03*
X045165Y017642D03*
X045165Y018311D03*
X043198Y020374D03*
X042528Y020374D03*
X042531Y021168D03*
X043201Y021168D03*
X046141Y020735D03*
X046811Y020735D03*
X034483Y019851D03*
X034483Y019181D03*
X029399Y018747D03*
X028730Y018747D03*
X028730Y017947D03*
X029399Y017947D03*
X026699Y019347D03*
X026030Y019347D03*
X025499Y020147D03*
X024830Y020147D03*
X024280Y020954D03*
X023611Y020954D03*
X024822Y021742D03*
X025491Y021742D03*
X026030Y021747D03*
X026699Y021747D03*
X028365Y022212D03*
X028365Y022881D03*
X030265Y022981D03*
X030265Y022312D03*
X022365Y019381D03*
X022365Y018712D03*
X017565Y019412D03*
X017565Y020081D03*
X016565Y020081D03*
X016565Y019412D03*
X013565Y019412D03*
X013565Y020081D03*
X015230Y021247D03*
X015899Y021247D03*
X015899Y021747D03*
X015230Y021747D03*
X017091Y022051D03*
X017870Y022074D03*
X017870Y022743D03*
X017091Y022720D03*
X023980Y015647D03*
X024649Y015647D03*
X041512Y007301D03*
X042182Y007301D03*
X042179Y005855D03*
X041509Y005855D03*
X045185Y007273D03*
X045854Y007273D03*
X045865Y007972D03*
X045195Y007972D03*
D12*
X019089Y006181D03*
X012340Y015950D03*
D13*
X011443Y013076D03*
X013238Y013076D03*
X018192Y009056D03*
X019987Y009056D03*
D14*
X018776Y012744D03*
X018027Y012744D03*
X014845Y013124D03*
X014097Y013124D03*
X014112Y013908D03*
X014860Y013908D03*
X018698Y016896D03*
X019446Y016896D03*
D15*
X027123Y017219D03*
X027123Y016314D03*
D16*
X024958Y016766D03*
D17*
X017335Y015799D03*
X017335Y014894D03*
X017335Y013988D03*
D18*
X019815Y014894D03*
D19*
X028008Y019451D03*
X028008Y019707D03*
X028008Y019963D03*
X028008Y020219D03*
X028008Y020475D03*
X028008Y020731D03*
X028008Y020987D03*
X028008Y021243D03*
X030322Y021243D03*
X030322Y020987D03*
X030322Y020731D03*
X030322Y020475D03*
X030322Y020219D03*
X030322Y019963D03*
X030322Y019707D03*
X030322Y019451D03*
X035017Y012500D03*
X035017Y012244D03*
X035017Y011988D03*
X035017Y011732D03*
X035017Y011476D03*
X035017Y011220D03*
X035017Y010964D03*
X035017Y010708D03*
X037331Y010708D03*
X037331Y010964D03*
X037331Y011220D03*
X037331Y011476D03*
X037331Y011732D03*
X037331Y011988D03*
X037331Y012244D03*
X037331Y012500D03*
D20*
X039829Y012472D03*
X040528Y012476D03*
X040528Y013146D03*
X039829Y013141D03*
X037518Y014528D03*
X036849Y014528D03*
X035744Y014481D03*
X035075Y014481D03*
X029399Y017147D03*
X028730Y017147D03*
X025499Y019347D03*
X024830Y019347D03*
X026030Y020147D03*
X026699Y020147D03*
X026699Y020947D03*
X026030Y020947D03*
X025499Y020947D03*
X024830Y020947D03*
X027561Y022219D03*
X027561Y022888D03*
X026071Y022511D03*
X025402Y022511D03*
X029465Y022312D03*
X029465Y022981D03*
X031459Y022981D03*
X031459Y022312D03*
X035108Y019851D03*
X035733Y019851D03*
X035733Y019181D03*
X035108Y019181D03*
X042380Y017614D03*
X043049Y017614D03*
X043079Y015175D03*
X043748Y015175D03*
X038875Y010536D03*
X038206Y010536D03*
X037281Y009931D03*
X036612Y009931D03*
X034638Y010161D03*
X033934Y010160D03*
X033934Y009491D03*
X034638Y009492D03*
X041560Y008257D03*
X042230Y008257D03*
X043550Y008237D03*
X044220Y008237D03*
X042170Y006557D03*
X041501Y006557D03*
X043629Y005637D03*
X044298Y005637D03*
X045171Y006388D03*
X045840Y006388D03*
X021465Y018712D03*
X021465Y019381D03*
X020565Y020512D03*
X020565Y021181D03*
X018465Y020781D03*
X017399Y021247D03*
X016730Y021247D03*
X015565Y020081D03*
X015565Y019412D03*
X014565Y019412D03*
X014565Y020081D03*
X014399Y021247D03*
X013730Y021247D03*
X018465Y020112D03*
X013465Y010336D03*
X012796Y010336D03*
X011200Y010437D03*
X010531Y010437D03*
X010531Y008037D03*
X011200Y008037D03*
X012797Y007594D03*
X013466Y007594D03*
X011200Y005537D03*
X010531Y005537D03*
X043796Y020382D03*
X044465Y020382D03*
D21*
X044496Y007296D03*
X043433Y007296D03*
X043433Y006922D03*
X043433Y006548D03*
X044496Y006548D03*
D22*
X044495Y018407D03*
X044495Y019587D03*
D23*
X043773Y019107D02*
X043773Y018887D01*
X042917Y018887D01*
X042917Y019107D01*
X043773Y019107D01*
D24*
X044494Y018997D03*
D25*
X044229Y014225D03*
X043229Y014225D03*
X042229Y014225D03*
X041429Y013375D03*
X041429Y012375D03*
X041429Y011375D03*
X041429Y010375D03*
X042579Y009225D03*
X043579Y009225D03*
X044579Y009225D03*
X045579Y009225D03*
X046429Y010275D03*
X046429Y011275D03*
X046429Y012275D03*
X046429Y013275D03*
X045229Y014225D03*
D26*
X023050Y016782D03*
X023050Y017156D03*
X023050Y017530D03*
X022066Y017530D03*
X022066Y017156D03*
X022066Y016782D03*
X020057Y021973D03*
X020057Y022347D03*
X020057Y022721D03*
X019073Y022721D03*
X019073Y022347D03*
X019073Y021973D03*
X012864Y009311D03*
X012864Y008937D03*
X012864Y008563D03*
X011880Y008563D03*
X011880Y008937D03*
X011880Y009311D03*
D27*
X019891Y018814D03*
X020639Y018814D03*
X020265Y019680D03*
D28*
X009659Y012225D03*
X009659Y011225D03*
X009659Y009725D03*
X009659Y008725D03*
X009659Y007225D03*
X009659Y006225D03*
D29*
X009847Y019147D03*
X009847Y020147D03*
X009847Y021147D03*
X012483Y021147D03*
X012483Y020147D03*
X012483Y019147D03*
D30*
X007941Y018975D03*
X007941Y020715D03*
X007941Y022455D03*
X048655Y022455D03*
X048655Y020715D03*
X048655Y018975D03*
D31*
X030705Y013787D03*
X023225Y013787D03*
X030705Y010047D03*
X030705Y006307D03*
X023225Y006307D03*
D32*
X036744Y021470D03*
X037744Y021470D03*
X038744Y021470D03*
X038744Y022470D03*
X037744Y022470D03*
X036744Y022470D03*
D33*
X036441Y018226D03*
X035841Y018226D03*
D34*
X036141Y018226D03*
D35*
X037494Y019298D03*
X037994Y019298D03*
X038494Y019298D03*
X038994Y019298D03*
X038994Y016443D03*
X038494Y016443D03*
X037994Y016443D03*
X037494Y016443D03*
D36*
X009752Y014547D03*
D37*
X007605Y004920D03*
X007605Y006398D03*
X007605Y008367D03*
X007605Y010335D03*
X007605Y012304D03*
X007605Y014272D03*
X011771Y015115D03*
X011727Y016044D03*
X012344Y016638D03*
X012904Y016039D03*
X012951Y015156D03*
X015507Y013883D03*
X015507Y013083D03*
X019350Y012739D03*
X017244Y016581D03*
X017970Y016879D03*
X008405Y019009D03*
X007205Y019009D03*
X007605Y018209D03*
X007605Y016241D03*
X007305Y022509D03*
X008505Y022509D03*
X008707Y024393D03*
X007605Y024393D03*
X010676Y024393D03*
X012644Y024393D03*
X014613Y024393D03*
X016581Y024393D03*
X018550Y024393D03*
X020518Y024393D03*
X022487Y024393D03*
X024455Y024393D03*
X026424Y024393D03*
X028392Y024393D03*
X030361Y024393D03*
X032329Y024393D03*
X034298Y024393D03*
X036266Y024393D03*
X038235Y024393D03*
X040203Y024393D03*
X042172Y024393D03*
X042833Y023746D03*
X044140Y024393D03*
X044802Y023746D03*
X046109Y024393D03*
X046770Y023746D03*
X045786Y022762D03*
X044802Y021778D03*
X043818Y022762D03*
X041849Y022762D03*
X046770Y021778D03*
X048078Y022471D03*
X049078Y022471D03*
X046770Y019809D03*
X048078Y018971D03*
X049078Y018971D03*
X046770Y017841D03*
X045786Y016857D03*
X044802Y015872D03*
X046770Y015872D03*
X047755Y014888D03*
X048739Y013904D03*
X047755Y012920D03*
X048739Y011935D03*
X047755Y010951D03*
X048739Y009967D03*
X047755Y008983D03*
X048739Y007998D03*
X047755Y007014D03*
X048739Y006030D03*
X048077Y004920D03*
X046109Y004920D03*
X044140Y004920D03*
X042172Y004920D03*
X040203Y004920D03*
X039219Y005414D03*
X038235Y004920D03*
X037251Y005414D03*
X036266Y004920D03*
X035282Y005414D03*
X034298Y004920D03*
X032329Y004920D03*
X030361Y004920D03*
X028392Y004920D03*
X026424Y004920D03*
X024455Y004920D03*
X022487Y004920D03*
X020315Y004731D03*
X019715Y004731D03*
X019115Y004731D03*
X018515Y004731D03*
X017915Y004731D03*
X017915Y005331D03*
X018515Y005331D03*
X019115Y005331D03*
X019715Y005331D03*
X020315Y005331D03*
X020315Y006031D03*
X019715Y006031D03*
X019115Y006031D03*
X018515Y006031D03*
X017915Y006031D03*
X017915Y006731D03*
X018515Y006731D03*
X019115Y006731D03*
X019715Y006731D03*
X020315Y006731D03*
X020315Y007331D03*
X019715Y007331D03*
X019115Y007331D03*
X018515Y007331D03*
X017915Y007331D03*
X016990Y007529D03*
X021024Y007526D03*
X016581Y004920D03*
X014613Y004920D03*
X012644Y004920D03*
X036266Y006398D03*
X038235Y006398D03*
X040203Y006398D03*
X048739Y015872D03*
X047755Y016857D03*
X043428Y018994D03*
X041893Y017660D03*
X040144Y017710D03*
X041128Y018694D03*
X041128Y016726D03*
D38*
X037465Y017647D03*
X038465Y018647D03*
X036340Y012422D03*
X040547Y009181D03*
X036965Y008547D03*
X021004Y009943D03*
X011665Y019147D03*
X020865Y021947D03*
D39*
X018565Y022347D03*
X016665Y022047D03*
X017865Y021247D03*
X021465Y019847D03*
X022365Y019847D03*
X023189Y020977D03*
X024419Y021737D03*
X026699Y022287D03*
X027569Y023327D03*
X028339Y023317D03*
X029459Y023387D03*
X031448Y023446D03*
X027299Y020587D03*
X025799Y020187D03*
X029899Y018787D03*
X030399Y019087D03*
X026480Y017171D03*
X023480Y015571D03*
X021380Y017171D03*
X016565Y018947D03*
X015565Y018947D03*
X014565Y018947D03*
X020065Y023247D03*
X036191Y019149D03*
X042106Y020383D03*
X042086Y021182D03*
X042887Y019533D03*
X044782Y019001D03*
X042908Y018444D03*
X036399Y013835D03*
X036380Y013096D03*
X034590Y013088D03*
X034610Y013790D03*
X034533Y012503D03*
X036752Y011359D03*
X036130Y009846D03*
X037755Y009846D03*
X034638Y009058D03*
X033927Y009063D03*
X042037Y010363D03*
X042588Y009855D03*
X044591Y009821D03*
X045821Y010259D03*
X045839Y011260D03*
X045843Y012265D03*
X045845Y013274D03*
X045226Y013635D03*
X043209Y013643D03*
X042043Y013386D03*
X040531Y013641D03*
X039788Y013632D03*
X038870Y013295D03*
X042038Y011380D03*
X046321Y007974D03*
X046326Y007280D03*
X043008Y006929D03*
X043196Y005603D03*
X012397Y011882D03*
D40*
X011465Y012047D03*
X014965Y010047D03*
X014165Y009347D03*
X014465Y008547D03*
X011207Y006334D03*
X018465Y011547D03*
X020965Y015047D03*
X022765Y016047D03*
X023965Y016947D03*
X023965Y017547D03*
X023865Y019347D03*
X027865Y018947D03*
X029365Y020547D03*
X031265Y019147D03*
X034765Y018147D03*
X034365Y016047D03*
X033265Y015447D03*
X034565Y015047D03*
X029865Y017147D03*
X027123Y015147D03*
X033465Y011047D03*
X035865Y011547D03*
X038863Y011629D03*
X039865Y011047D03*
X046465Y006347D03*
X039965Y016847D03*
X043065Y021947D03*
X030745Y022977D03*
X019565Y020947D03*
D41*
X019958Y016991D03*
X033858Y018891D03*
X035715Y008672D03*
M02*
