%
M48
M72
T01C0.0157
T02C0.0236
T03C0.0240
T04C0.0315
T05C0.0320
T06C0.0360
T07C0.0394
T08C0.0520
%
T01
X11207Y6334
X14465Y8547
X14165Y9347
X14965Y10047
X18465Y11547
X12397Y11882
X11465Y12047
X20965Y15047
X22765Y16047
X23965Y16947
X23965Y17547
X21380Y17171
X19398Y18829
X21465Y19847
X22365Y19847
X23865Y19347
X25799Y20187
X27299Y20587
X29365Y20547
X31265Y19147
X30399Y19087
X29899Y18787
X27865Y18947
X29865Y17147
X33265Y15447
X34365Y16047
X34565Y15047
X36399Y13835
X36380Y13096
X34590Y13088
X34610Y13790
X34533Y12503
X35865Y11547
X36752Y11359
X38863Y11629
X39865Y11047
X42038Y11380
X42037Y10363
X42588Y9855
X44591Y9821
X45821Y10259
X45839Y11260
X45843Y12265
X45845Y13274
X45226Y13635
X43209Y13643
X42043Y13386
X40531Y13641
X39788Y13632
X38870Y13295
X33465Y11047
X36130Y9846
X37755Y9846
X34638Y9058
X33927Y9063
X43008Y6929
X43196Y5603
X46465Y6347
X46326Y7280
X46321Y7974
X39965Y16847
X42908Y18444
X44782Y19001
X42887Y19533
X44044Y21171
X44014Y21959
X42387Y21947
X36191Y19149
X34765Y18147
X27123Y15147
X25550Y15941
X16565Y18947
X15565Y18947
X14565Y18947
X17865Y21247
X16665Y22047
X18565Y22347
X20065Y23247
X24419Y21737
X23189Y20977
X26699Y22287
X27569Y23327
X28339Y23317
X29459Y23387
X30745Y22977
X31448Y23446
X19565Y20947
T02
X20865Y21947
X11665Y19147
X19958Y16991
X33858Y18891
X37465Y17647
X38465Y18647
X36340Y12422
X40547Y9181
X36965Y8547
X35715Y8672
X21004Y9943
T03
X25243Y16879
X27243Y16879
X26243Y17879
T04
X7605Y4920
X7605Y6398
X7605Y8367
X7605Y10335
X7605Y12304
X7605Y14272
X11771Y15115
X11727Y16044
X12344Y16638
X12904Y16039
X12951Y15156
X15507Y13883
X15507Y13083
X19350Y12739
X17244Y16581
X17970Y16879
X8405Y19009
X7205Y19009
X7605Y18209
X7605Y16241
X7305Y22509
X8505Y22509
X8707Y24393
X7605Y24393
X10676Y24393
X12644Y24393
X14613Y24393
X16581Y24393
X18550Y24393
X20518Y24393
X22487Y24393
X24455Y24393
X26424Y24393
X28392Y24393
X30361Y24393
X32329Y24393
X34298Y24393
X36266Y24393
X38235Y24393
X40203Y24393
X42172Y24393
X42833Y23746
X44140Y24393
X44802Y23746
X46109Y24393
X46770Y23746
X45786Y22762
X46770Y21778
X48078Y22471
X49078Y22471
X43818Y22762
X41849Y22762
X46770Y19809
X48078Y18971
X49078Y18971
X46770Y17841
X45786Y16857
X44802Y15872
X46770Y15872
X47755Y14888
X48739Y13904
X47755Y12920
X48739Y11935
X47755Y10951
X48739Y9967
X47755Y8983
X48739Y7998
X47755Y7014
X48739Y6030
X48077Y4920
X46109Y4920
X44140Y4920
X42172Y4920
X40203Y4920
X39219Y5414
X38235Y4920
X37251Y5414
X36266Y4920
X35282Y5414
X34298Y4920
X32329Y4920
X30361Y4920
X28392Y4920
X26424Y4920
X24455Y4920
X22487Y4920
X20315Y4731
X19715Y4731
X19115Y4731
X18515Y4731
X17915Y4731
X17915Y5331
X18515Y5331
X19115Y5331
X19715Y5331
X20315Y5331
X20315Y6031
X19715Y6031
X19115Y6031
X18515Y6031
X17915Y6031
X17915Y6731
X18515Y6731
X19115Y6731
X19715Y6731
X20315Y6731
X20315Y7331
X19715Y7331
X19115Y7331
X18515Y7331
X17915Y7331
X16990Y7529
X21024Y7526
X16581Y4920
X14613Y4920
X12644Y4920
X36266Y6398
X38235Y6398
X40203Y6398
X48739Y15872
X47755Y16857
X43428Y18994
X41893Y17660
X40144Y17710
X41128Y18694
X41128Y16726
T05
X9659Y12225
X9659Y11225
X9659Y9725
X9659Y8725
X9659Y7225
X9659Y6225
T06
X36744Y21470
X37744Y21470
X38744Y21470
X38744Y22470
X37744Y22470
X36744Y22470
T07
X30705Y13787
X23225Y13787
X30705Y10047
X30705Y6307
X23225Y6307
T08
X9752Y14547
M30
