G75*
G70*
%OFA0B0*%
%FSLAX24Y24*%
%IPPOS*%
%LPD*%
%AMOC8*
5,1,8,0,0,1.08239X$1,22.5*
%
%ADD10R,0.0671X0.0592*%
%ADD11R,0.0513X0.0474*%
%ADD12R,0.2206X0.2521*%
%ADD13R,0.0474X0.0710*%
%ADD14R,0.0592X0.0671*%
%ADD15R,0.0867X0.0671*%
%ADD16R,0.0867X0.1576*%
%ADD17R,0.0661X0.0257*%
%ADD18R,0.0474X0.0513*%
%ADD19R,0.0513X0.0316*%
%ADD20R,0.0631X0.0395*%
%ADD21C,0.0660*%
%ADD22R,0.0630X0.0394*%
%ADD23R,0.0678X0.0678*%
%ADD24R,0.0572X0.0277*%
%ADD25R,0.0474X0.0631*%
%ADD26OC8,0.0600*%
%ADD27R,0.0515X0.0493*%
%ADD28R,0.2080X0.0980*%
%ADD29C,0.0940*%
%ADD30OC8,0.0640*%
%ADD31R,0.0540X0.0710*%
%ADD32R,0.0060X0.0720*%
%ADD33R,0.0336X0.0769*%
%ADD34OC8,0.0930*%
%ADD35C,0.0520*%
%ADD36R,0.0555X0.0555*%
%ADD37R,0.0397X0.0397*%
%ADD38OC8,0.0397*%
%ADD39R,0.0476X0.0476*%
%ADD40C,0.0476*%
%ADD41OC8,0.0476*%
D10*
X009201Y004203D03*
X010201Y004203D03*
X010201Y004951D03*
X009201Y004951D03*
X014201Y004951D03*
X014201Y004203D03*
X005598Y008451D03*
X005598Y009199D03*
X033690Y006469D03*
X033690Y005721D03*
D11*
X032048Y005837D03*
X031379Y005837D03*
X031283Y004535D03*
X030613Y004535D03*
X028511Y005464D03*
X028511Y006133D03*
X031376Y007171D03*
X032045Y007171D03*
X033702Y007156D03*
X033702Y007825D03*
X032023Y008188D03*
X032023Y008858D03*
X030691Y009070D03*
X030021Y009070D03*
X028912Y009035D03*
X028243Y009035D03*
X028245Y009747D03*
X028914Y009747D03*
X030020Y009834D03*
X030690Y009834D03*
X034918Y011141D03*
X035587Y011141D03*
X036954Y012149D03*
X036954Y012818D03*
X036889Y013580D03*
X037558Y013580D03*
X039310Y016698D03*
X039980Y016698D03*
X036753Y017140D03*
X036084Y017140D03*
X036087Y017915D03*
X036756Y017915D03*
X027652Y015814D03*
X027652Y015144D03*
X022569Y014710D03*
X021899Y014710D03*
X021899Y013910D03*
X022569Y013910D03*
X019869Y015310D03*
X019199Y015310D03*
X018669Y016110D03*
X017999Y016110D03*
X017449Y016917D03*
X016780Y016917D03*
X017991Y017705D03*
X018660Y017705D03*
X019199Y017710D03*
X019869Y017710D03*
X021534Y018175D03*
X021534Y018844D03*
X023434Y018944D03*
X023434Y018275D03*
X015534Y015344D03*
X015534Y014675D03*
X013682Y016421D03*
X013682Y017090D03*
X011039Y018037D03*
X010260Y018014D03*
X009069Y017710D03*
X008399Y017710D03*
X008399Y017210D03*
X009069Y017210D03*
X009734Y016044D03*
X009734Y015375D03*
X010734Y015375D03*
X010734Y016044D03*
X006734Y016044D03*
X006734Y015375D03*
X010260Y018683D03*
X011039Y018706D03*
X019209Y011890D03*
X019879Y011890D03*
X034681Y003264D03*
X035351Y003264D03*
X038354Y003236D03*
X039023Y003236D03*
X039034Y003935D03*
X038364Y003935D03*
X035348Y001728D03*
X034679Y001728D03*
D12*
X012258Y002144D03*
X005509Y011913D03*
D13*
X004612Y009039D03*
X006407Y009039D03*
X011361Y005019D03*
X013156Y005019D03*
D14*
X011945Y008707D03*
X011197Y008707D03*
X008014Y009087D03*
X007266Y009087D03*
X007281Y009871D03*
X008029Y009871D03*
X011867Y012859D03*
X012615Y012859D03*
D15*
X010504Y011762D03*
X010504Y010857D03*
X010504Y009951D03*
D16*
X012984Y010857D03*
D17*
X021177Y015414D03*
X021177Y015670D03*
X021177Y015926D03*
X021177Y016182D03*
X021177Y016438D03*
X021177Y016694D03*
X021177Y016950D03*
X021177Y017206D03*
X023491Y017206D03*
X023491Y016950D03*
X023491Y016694D03*
X023491Y016438D03*
X023491Y016182D03*
X023491Y015926D03*
X023491Y015670D03*
X023491Y015414D03*
X028186Y008463D03*
X028186Y008207D03*
X028186Y007951D03*
X028186Y007695D03*
X028186Y007439D03*
X028186Y007183D03*
X028186Y006927D03*
X028186Y006671D03*
X030500Y006671D03*
X030500Y006927D03*
X030500Y007183D03*
X030500Y007439D03*
X030500Y007695D03*
X030500Y007951D03*
X030500Y008207D03*
X030500Y008463D03*
D18*
X032998Y008435D03*
X033697Y008439D03*
X033697Y009109D03*
X032998Y009104D03*
X030687Y010491D03*
X030018Y010491D03*
X028913Y010444D03*
X028244Y010444D03*
X022569Y013110D03*
X021899Y013110D03*
X018669Y015310D03*
X017999Y015310D03*
X019199Y016110D03*
X019869Y016110D03*
X019869Y016910D03*
X019199Y016910D03*
X018669Y016910D03*
X017999Y016910D03*
X020730Y018181D03*
X020730Y018851D03*
X019240Y018474D03*
X018571Y018474D03*
X022634Y018275D03*
X022634Y018944D03*
X024628Y018944D03*
X024628Y018275D03*
X028277Y015814D03*
X028902Y015814D03*
X028902Y015144D03*
X028277Y015144D03*
X035549Y013577D03*
X036218Y013577D03*
X036248Y011138D03*
X036917Y011138D03*
X032044Y006499D03*
X031375Y006499D03*
X030450Y005894D03*
X029781Y005894D03*
X027807Y006124D03*
X027103Y006123D03*
X027103Y005453D03*
X027807Y005455D03*
X034729Y004220D03*
X035399Y004220D03*
X036720Y004200D03*
X037389Y004200D03*
X035339Y002520D03*
X034670Y002520D03*
X036798Y001600D03*
X037467Y001600D03*
X038340Y002351D03*
X039009Y002351D03*
X014634Y014675D03*
X014634Y015344D03*
X011634Y016075D03*
X011634Y016744D03*
X010569Y017210D03*
X009899Y017210D03*
X008734Y016044D03*
X008734Y015375D03*
X007734Y015375D03*
X007734Y016044D03*
X007569Y017210D03*
X006899Y017210D03*
X006634Y006299D03*
X005965Y006299D03*
X004369Y006400D03*
X003700Y006400D03*
X003700Y004000D03*
X004369Y004000D03*
X005966Y003557D03*
X006635Y003557D03*
X004369Y001500D03*
X003700Y001500D03*
X036077Y016355D03*
X036746Y016355D03*
X037270Y016367D03*
X037940Y016367D03*
D19*
X037665Y003259D03*
X036602Y003259D03*
X036602Y002885D03*
X036602Y002511D03*
X037665Y002511D03*
D20*
X037664Y014370D03*
X037664Y015550D03*
D21*
X036942Y015070D02*
X036942Y014850D01*
X036086Y014850D01*
X036086Y015070D01*
X036942Y015070D01*
D22*
X037663Y014960D03*
D23*
X037398Y010188D03*
X036398Y010188D03*
X035398Y010188D03*
X034598Y009338D03*
X034598Y008338D03*
X034598Y007338D03*
X034598Y006338D03*
X035748Y005188D03*
X036748Y005188D03*
X037748Y005188D03*
X038748Y005188D03*
X039598Y006238D03*
X039598Y007238D03*
X039598Y008238D03*
X039598Y009238D03*
X038398Y010188D03*
D24*
X016219Y012745D03*
X016219Y013119D03*
X016219Y013493D03*
X015235Y013493D03*
X015235Y013119D03*
X015235Y012745D03*
X013226Y017936D03*
X013226Y018310D03*
X013226Y018684D03*
X012242Y018684D03*
X012242Y018310D03*
X012242Y017936D03*
X006033Y005274D03*
X006033Y004900D03*
X006033Y004526D03*
X005049Y004526D03*
X005049Y004900D03*
X005049Y005274D03*
D25*
X013060Y014777D03*
X013808Y014777D03*
X013434Y015643D03*
D26*
X002828Y008188D03*
X002828Y007188D03*
X002828Y005688D03*
X002828Y004688D03*
X002828Y003188D03*
X002828Y002188D03*
D27*
X003016Y015110D03*
X003016Y016110D03*
X003016Y017110D03*
X005652Y017110D03*
X005652Y016110D03*
X005652Y015110D03*
D28*
X001110Y014938D03*
X001110Y016678D03*
X001110Y018418D03*
X041824Y018418D03*
X041824Y016678D03*
X041824Y014938D03*
D29*
X023874Y009750D03*
X016394Y009750D03*
X023874Y006010D03*
X023874Y002270D03*
X016394Y002270D03*
D30*
X029913Y017433D03*
X030913Y017433D03*
X031913Y017433D03*
X031913Y018433D03*
X030913Y018433D03*
X029913Y018433D03*
D31*
X029610Y014189D03*
X029010Y014189D03*
D32*
X029310Y014189D03*
D33*
X030663Y015261D03*
X031163Y015261D03*
X031663Y015261D03*
X032163Y015261D03*
X032163Y012406D03*
X031663Y012406D03*
X031163Y012406D03*
X030663Y012406D03*
D34*
X002921Y010510D03*
D35*
X018412Y012842D03*
X020412Y012842D03*
X019412Y013842D03*
D36*
X000774Y000883D03*
X000774Y002361D03*
X000774Y004330D03*
X000774Y006298D03*
X000774Y008267D03*
X000774Y010235D03*
X004940Y011078D03*
X004896Y012007D03*
X005513Y012601D03*
X006073Y012002D03*
X006120Y011119D03*
X010413Y012544D03*
X011139Y012842D03*
X001574Y014972D03*
X000374Y014972D03*
X000774Y014172D03*
X000774Y012204D03*
X000474Y018472D03*
X001674Y018472D03*
X001876Y020356D03*
X000774Y020356D03*
X003845Y020356D03*
X005813Y020356D03*
X007782Y020356D03*
X009750Y020356D03*
X011719Y020356D03*
X013687Y020356D03*
X015656Y020356D03*
X017624Y020356D03*
X019593Y020356D03*
X021561Y020356D03*
X023530Y020356D03*
X025498Y020356D03*
X027467Y020356D03*
X029435Y020356D03*
X031404Y020356D03*
X033372Y020356D03*
X035341Y020356D03*
X036002Y019709D03*
X037309Y020356D03*
X037971Y019709D03*
X039278Y020356D03*
X039939Y019709D03*
X038955Y018725D03*
X039939Y017741D03*
X041247Y018434D03*
X042247Y018434D03*
X036987Y018725D03*
X035018Y018725D03*
X039939Y015772D03*
X041247Y014934D03*
X042247Y014934D03*
X039939Y013804D03*
X038955Y012820D03*
X037971Y011835D03*
X039939Y011835D03*
X040924Y010851D03*
X041908Y009867D03*
X040924Y008883D03*
X041908Y007898D03*
X040924Y006914D03*
X041908Y005930D03*
X040924Y004946D03*
X041908Y003961D03*
X040924Y002977D03*
X041908Y001993D03*
X041246Y000883D03*
X039278Y000883D03*
X037309Y000883D03*
X035341Y000883D03*
X033372Y000883D03*
X032388Y001377D03*
X031404Y000883D03*
X030420Y001377D03*
X029435Y000883D03*
X028451Y001377D03*
X027467Y000883D03*
X025498Y000883D03*
X023530Y000883D03*
X021561Y000883D03*
X019593Y000883D03*
X017624Y000883D03*
X015656Y000883D03*
X013484Y000694D03*
X012884Y000694D03*
X012284Y000694D03*
X011684Y000694D03*
X011084Y000694D03*
X011084Y001294D03*
X011684Y001294D03*
X012284Y001294D03*
X012884Y001294D03*
X013484Y001294D03*
X013484Y001994D03*
X012884Y001994D03*
X012284Y001994D03*
X011684Y001994D03*
X011084Y001994D03*
X011084Y002694D03*
X011684Y002694D03*
X012284Y002694D03*
X012884Y002694D03*
X013484Y002694D03*
X013484Y003294D03*
X012884Y003294D03*
X012284Y003294D03*
X011684Y003294D03*
X011084Y003294D03*
X009750Y000883D03*
X007782Y000883D03*
X005813Y000883D03*
X029435Y002361D03*
X031404Y002361D03*
X033372Y002361D03*
X041908Y011835D03*
X040924Y012820D03*
X036597Y014957D03*
X035062Y013623D03*
X033313Y013673D03*
X034297Y014657D03*
X034297Y012689D03*
D37*
X036077Y014407D03*
X037951Y014964D03*
X036056Y015496D03*
X037213Y017134D03*
X037183Y017922D03*
X029361Y015112D03*
X023568Y015050D03*
X023068Y014750D03*
X020468Y016550D03*
X018938Y016120D03*
X016358Y016940D03*
X017588Y017700D03*
X019868Y018250D03*
X020738Y019290D03*
X021508Y019280D03*
X022628Y019350D03*
X024617Y019409D03*
X015534Y015810D03*
X014634Y015810D03*
X012567Y014792D03*
X014549Y013134D03*
X018719Y011904D03*
X012511Y008708D03*
X008574Y009101D03*
X008574Y009871D03*
X005566Y007845D03*
X010174Y003661D03*
X014204Y003671D03*
X027096Y005026D03*
X027807Y005021D03*
X029299Y005809D03*
X030924Y005809D03*
X033705Y005204D03*
X035757Y005818D03*
X035206Y006326D03*
X035207Y007343D03*
X037760Y005784D03*
X038990Y006222D03*
X039008Y007223D03*
X039012Y008228D03*
X039014Y009237D03*
X038395Y009598D03*
X036378Y009606D03*
X035212Y009349D03*
X033700Y009604D03*
X032957Y009595D03*
X032039Y009258D03*
X029568Y009798D03*
X029549Y009059D03*
X027759Y009051D03*
X027779Y009753D03*
X027702Y008466D03*
X029922Y007321D03*
X036177Y002892D03*
X036365Y001566D03*
X034195Y001726D03*
X039495Y003243D03*
X039490Y003937D03*
X011034Y017210D03*
X009834Y018010D03*
X011734Y018310D03*
X013234Y019210D03*
X009734Y014910D03*
X008734Y014910D03*
X007734Y014910D03*
D38*
X012734Y016910D03*
X017034Y015310D03*
X017134Y013510D03*
X017134Y012910D03*
X015934Y012010D03*
X014134Y011010D03*
X011634Y007510D03*
X008134Y006010D03*
X007334Y005310D03*
X007634Y004510D03*
X004376Y002297D03*
X004634Y008010D03*
X021034Y014910D03*
X022534Y016510D03*
X024434Y015110D03*
X027934Y014110D03*
X027534Y012010D03*
X026434Y011410D03*
X027734Y011010D03*
X023034Y013110D03*
X033134Y012810D03*
X035556Y017910D03*
X023914Y018940D03*
X032032Y007592D03*
X033034Y007010D03*
X029034Y007510D03*
X026634Y007010D03*
X039634Y002310D03*
D39*
X030134Y004510D03*
X029509Y008385D03*
X030634Y013610D03*
X031634Y014610D03*
X014034Y017910D03*
X004834Y015110D03*
X014173Y005906D03*
D40*
X028884Y004635D03*
X013127Y012954D03*
X027027Y014854D03*
D41*
X021090Y011460D03*
M02*
