G75*
G70*
%OFA0B0*%
%FSLAX24Y24*%
%IPPOS*%
%LPD*%
%AMOC8*
5,1,8,0,0,1.08239X$1,22.5*
%
%ADD10OC8,0.0520*%
%ADD11R,0.2000X0.0900*%
%ADD12C,0.0860*%
%ADD13OC8,0.0560*%
%ADD14OC8,0.0850*%
%ADD15C,0.0440*%
%ADD16C,0.0100*%
%ADD17R,0.0475X0.0475*%
%ADD18R,0.0317X0.0317*%
%ADD19OC8,0.0317*%
%ADD20C,0.0400*%
%ADD21C,0.0396*%
%ADD22C,0.0500*%
%ADD23C,0.0160*%
%ADD24C,0.0320*%
%ADD25R,0.0396X0.0396*%
%ADD26C,0.0240*%
%ADD27OC8,0.0396*%
D10*
X002828Y002188D03*
X002828Y003188D03*
X002828Y004688D03*
X002828Y005688D03*
X002828Y007188D03*
X002828Y008188D03*
D11*
X001110Y014938D03*
X001110Y018418D03*
X041824Y018418D03*
X041824Y014938D03*
D12*
X023874Y009750D03*
X016394Y009750D03*
X023874Y006010D03*
X023874Y002270D03*
X016394Y002270D03*
D13*
X029913Y017433D03*
X030913Y017433D03*
X031913Y017433D03*
X031913Y018433D03*
X030913Y018433D03*
X029913Y018433D03*
D14*
X007048Y009139D03*
D15*
X018412Y012842D03*
X020412Y012842D03*
X019412Y013842D03*
D16*
X000000Y014386D02*
X000000Y000394D01*
X042913Y000394D01*
X042913Y000296D02*
X001969Y000296D01*
X001969Y000394D02*
X000000Y000394D01*
X000000Y000493D02*
X042913Y000493D01*
X042913Y000591D02*
X000000Y000591D01*
X000000Y000690D02*
X042913Y000690D01*
X042913Y000788D02*
X000000Y000788D01*
X000000Y000887D02*
X042913Y000887D01*
X042913Y000985D02*
X000000Y000985D01*
X000000Y001084D02*
X042913Y001084D01*
X042913Y001182D02*
X000000Y001182D01*
X000000Y001281D02*
X042913Y001281D01*
X042913Y001379D02*
X000000Y001379D01*
X000000Y001478D02*
X016229Y001478D01*
X016236Y001475D02*
X016552Y001475D01*
X016844Y001596D01*
X017068Y001819D01*
X017189Y002112D01*
X017189Y002428D01*
X017068Y002720D01*
X016844Y002944D01*
X016552Y003065D01*
X016236Y003065D01*
X015943Y002944D01*
X015720Y002720D01*
X015599Y002428D01*
X015599Y002112D01*
X015720Y001819D01*
X015943Y001596D01*
X016236Y001475D01*
X015991Y001576D02*
X003100Y001576D01*
X003087Y001563D02*
X003453Y001929D01*
X003453Y002447D01*
X003087Y002813D01*
X003033Y002813D01*
X003238Y003018D01*
X003238Y003158D01*
X002858Y003158D01*
X002858Y003218D01*
X002798Y003218D01*
X002798Y003158D01*
X002418Y003158D01*
X002418Y003018D01*
X002624Y002813D01*
X002569Y002813D01*
X002203Y002447D01*
X002203Y001929D01*
X002569Y001563D01*
X003087Y001563D01*
X003199Y001675D02*
X015865Y001675D01*
X015766Y001773D02*
X003297Y001773D01*
X003396Y001872D02*
X004062Y001872D01*
X004160Y001774D02*
X004593Y001774D01*
X004900Y002080D01*
X004900Y002514D01*
X004593Y002821D01*
X004160Y002821D01*
X003853Y002514D01*
X003853Y002080D01*
X004160Y001774D01*
X003963Y001970D02*
X003453Y001970D01*
X003453Y002069D02*
X003865Y002069D01*
X003853Y002167D02*
X003453Y002167D01*
X003453Y002266D02*
X003853Y002266D01*
X003853Y002364D02*
X003453Y002364D01*
X003437Y002463D02*
X003853Y002463D01*
X003900Y002561D02*
X003339Y002561D01*
X003240Y002660D02*
X003998Y002660D01*
X004097Y002758D02*
X003142Y002758D01*
X003077Y002857D02*
X015856Y002857D01*
X015758Y002758D02*
X004656Y002758D01*
X004755Y002660D02*
X015695Y002660D01*
X015654Y002561D02*
X004853Y002561D01*
X004900Y002463D02*
X015613Y002463D01*
X015599Y002364D02*
X004900Y002364D01*
X004900Y002266D02*
X015599Y002266D01*
X015599Y002167D02*
X004900Y002167D01*
X004888Y002069D02*
X015617Y002069D01*
X015657Y001970D02*
X004790Y001970D01*
X004691Y001872D02*
X015698Y001872D01*
X016559Y001478D02*
X023709Y001478D01*
X023716Y001475D02*
X024032Y001475D01*
X024324Y001596D01*
X024548Y001819D01*
X024669Y002112D01*
X024669Y002428D01*
X024548Y002720D01*
X024324Y002944D01*
X024032Y003065D01*
X023716Y003065D01*
X023424Y002944D01*
X023200Y002720D01*
X023079Y002428D01*
X023079Y002112D01*
X023200Y001819D01*
X023424Y001596D01*
X023716Y001475D01*
X023471Y001576D02*
X016796Y001576D01*
X016923Y001675D02*
X023345Y001675D01*
X023246Y001773D02*
X017021Y001773D01*
X017089Y001872D02*
X023178Y001872D01*
X023138Y001970D02*
X017130Y001970D01*
X017171Y002069D02*
X023097Y002069D01*
X023079Y002167D02*
X017189Y002167D01*
X017189Y002266D02*
X023079Y002266D01*
X023079Y002364D02*
X017189Y002364D01*
X017174Y002463D02*
X023093Y002463D01*
X023134Y002561D02*
X017133Y002561D01*
X017093Y002660D02*
X023175Y002660D01*
X023238Y002758D02*
X017030Y002758D01*
X016931Y002857D02*
X023337Y002857D01*
X023451Y002955D02*
X016817Y002955D01*
X016579Y003054D02*
X023689Y003054D01*
X024059Y003054D02*
X025791Y003054D01*
X025814Y003031D02*
X025655Y003190D01*
X025155Y003690D01*
X025069Y003897D01*
X025069Y005776D01*
X024155Y006690D01*
X024069Y006897D01*
X024069Y006945D01*
X011521Y006945D01*
X011422Y006986D01*
X011417Y006986D01*
X011413Y006990D01*
X011314Y007031D01*
X011155Y007190D01*
X011114Y007289D01*
X009042Y007289D01*
X008944Y007191D02*
X011155Y007191D01*
X011114Y007289D02*
X011110Y007293D01*
X011110Y007298D01*
X011069Y007397D01*
X011069Y007622D01*
X011110Y007722D01*
X011110Y007727D01*
X011114Y007730D01*
X011155Y007830D01*
X011314Y007989D01*
X011413Y008030D01*
X011417Y008034D01*
X011422Y008034D01*
X011521Y008075D01*
X014754Y008075D01*
X014250Y008651D01*
X014189Y008712D01*
X014182Y008729D01*
X014170Y008743D01*
X014142Y008825D01*
X014109Y008905D01*
X014109Y008923D01*
X014103Y008941D01*
X014109Y009027D01*
X014109Y010292D01*
X013936Y010465D01*
X013936Y010465D01*
X013689Y010712D01*
X013688Y010716D01*
X013610Y010793D01*
X013610Y010902D01*
X013609Y010905D01*
X013609Y011114D01*
X013610Y011117D01*
X013610Y011227D01*
X013688Y011304D01*
X013689Y011307D01*
X013836Y011455D01*
X013840Y011456D01*
X013917Y011534D01*
X014026Y011534D01*
X014029Y011535D01*
X014238Y011535D01*
X014241Y011534D01*
X014351Y011534D01*
X014428Y011456D01*
X014431Y011455D01*
X014451Y011435D01*
X014938Y011435D01*
X015131Y011355D01*
X015279Y011207D01*
X015479Y011007D01*
X015559Y010814D01*
X015559Y009427D01*
X015751Y009235D01*
X015785Y009235D01*
X015720Y009300D01*
X015599Y009592D01*
X015599Y009908D01*
X015720Y010200D01*
X015943Y010424D01*
X016236Y010545D01*
X016552Y010545D01*
X016844Y010424D01*
X017068Y010200D01*
X017189Y009908D01*
X017189Y009592D01*
X017068Y009300D01*
X017003Y009235D01*
X023265Y009235D01*
X023200Y009300D01*
X023198Y009305D01*
X018805Y009305D01*
X018642Y009373D01*
X017382Y010633D01*
X017382Y010633D01*
X017257Y010758D01*
X017189Y010921D01*
X017189Y011826D01*
X016950Y012065D01*
X016545Y012065D01*
X016458Y012101D01*
X016458Y011793D01*
X016151Y011486D01*
X015717Y011486D01*
X015410Y011793D01*
X015410Y012227D01*
X015717Y012534D01*
X015981Y012534D01*
X015882Y012633D01*
X015757Y012758D01*
X015689Y012921D01*
X015689Y014498D01*
X015757Y014662D01*
X016510Y015415D01*
X016510Y015527D01*
X016680Y015697D01*
X016053Y015697D01*
X015890Y015765D01*
X015765Y015890D01*
X015564Y016090D01*
X014358Y016090D01*
X014079Y015812D01*
X014079Y013373D01*
X014011Y013209D01*
X013690Y012888D01*
X013690Y012842D01*
X013604Y012635D01*
X013446Y012477D01*
X013239Y012391D01*
X013193Y012391D01*
X011079Y010277D01*
X011079Y009921D01*
X011011Y009758D01*
X010886Y009633D01*
X010579Y009326D01*
X010579Y008921D01*
X010511Y008758D01*
X010386Y008633D01*
X008579Y006826D01*
X008579Y006306D01*
X008658Y006227D01*
X008658Y005793D01*
X008351Y005486D01*
X007917Y005486D01*
X007610Y005793D01*
X007610Y006227D01*
X007689Y006306D01*
X007689Y007098D01*
X007757Y007262D01*
X009689Y009194D01*
X009689Y009598D01*
X009757Y009762D01*
X010189Y010194D01*
X010189Y010550D01*
X010257Y010713D01*
X012564Y013020D01*
X012564Y013066D01*
X012649Y013273D01*
X012682Y013305D01*
X012682Y016261D01*
X012582Y016386D01*
X012517Y016386D01*
X012210Y016693D01*
X012210Y017127D01*
X012517Y017434D01*
X012694Y017434D01*
X012745Y017455D01*
X012922Y017455D01*
X013086Y017387D01*
X013211Y017262D01*
X013279Y017098D01*
X013279Y016940D01*
X013459Y016714D01*
X013504Y016669D01*
X013514Y016645D01*
X013530Y016625D01*
X013547Y016564D01*
X013555Y016546D01*
X013796Y016787D01*
X013921Y016913D01*
X014085Y016980D01*
X015837Y016980D01*
X016000Y016913D01*
X016326Y016587D01*
X017139Y016587D01*
X017858Y017306D01*
X018022Y017374D01*
X019501Y017374D01*
X020220Y018094D01*
X020384Y018161D01*
X022650Y018161D01*
X023099Y018610D01*
X023390Y018989D01*
X023390Y019157D01*
X023697Y019464D01*
X024131Y019464D01*
X024438Y019157D01*
X024438Y018723D01*
X024131Y018416D01*
X024072Y018416D01*
X023822Y018091D01*
X023811Y018064D01*
X023769Y018022D01*
X023733Y017974D01*
X023707Y017960D01*
X023212Y017464D01*
X023087Y017339D01*
X022923Y017272D01*
X020657Y017272D01*
X020062Y016677D01*
X019937Y016552D01*
X019774Y016484D01*
X018295Y016484D01*
X017700Y015890D01*
X017575Y015765D01*
X017411Y015697D01*
X017388Y015697D01*
X017558Y015527D01*
X017558Y015093D01*
X017251Y014786D01*
X017139Y014786D01*
X016579Y014226D01*
X016579Y013194D01*
X016628Y013145D01*
X016693Y013210D01*
X016610Y013293D01*
X016610Y013727D01*
X016689Y013806D01*
X016689Y014073D01*
X016757Y014236D01*
X017339Y014819D01*
X017464Y014944D01*
X017628Y015012D01*
X020167Y015012D01*
X020331Y014944D01*
X020510Y014765D01*
X020510Y015127D01*
X020817Y015434D01*
X021251Y015434D01*
X021558Y015127D01*
X021558Y014693D01*
X021310Y014445D01*
X023940Y014445D01*
X023989Y014494D01*
X023989Y014814D01*
X023910Y014893D01*
X023910Y015327D01*
X024217Y015634D01*
X024651Y015634D01*
X024958Y015327D01*
X024958Y014893D01*
X024879Y014814D01*
X024879Y014221D01*
X024811Y014058D01*
X024534Y013780D01*
X024511Y013758D01*
X024511Y013758D01*
X024376Y013623D01*
X024213Y013555D01*
X023329Y013555D01*
X023558Y013327D01*
X023558Y012893D01*
X023251Y012586D01*
X022817Y012586D01*
X022510Y012893D01*
X022510Y013327D01*
X022738Y013555D01*
X020561Y013555D01*
X020398Y013623D01*
X020273Y013748D01*
X020228Y013793D01*
X020220Y013796D01*
X020095Y013921D01*
X019953Y014063D01*
X019997Y013958D01*
X019997Y013726D01*
X019907Y013511D01*
X019743Y013346D01*
X019528Y013257D01*
X019295Y013257D01*
X019080Y013346D01*
X018916Y013511D01*
X018827Y013726D01*
X018827Y013958D01*
X018894Y014122D01*
X017901Y014122D01*
X017582Y013803D01*
X017658Y013727D01*
X017658Y013293D01*
X017574Y013210D01*
X017658Y013127D01*
X017658Y012693D01*
X017619Y012654D01*
X018011Y012262D01*
X018079Y012098D01*
X018079Y011194D01*
X019078Y010195D01*
X023198Y010195D01*
X023200Y010200D01*
X023424Y010424D01*
X023716Y010545D01*
X024032Y010545D01*
X024324Y010424D01*
X024548Y010200D01*
X024609Y010053D01*
X024609Y011614D01*
X024689Y011807D01*
X024836Y011955D01*
X026502Y013620D01*
X026502Y014135D01*
X023779Y011412D01*
X023631Y011265D01*
X023438Y011185D01*
X021611Y011185D01*
X021323Y010897D01*
X020857Y010897D01*
X020527Y011227D01*
X020527Y011693D01*
X020857Y012023D01*
X020911Y012023D01*
X021042Y012155D01*
X021235Y012235D01*
X023116Y012235D01*
X025609Y014727D01*
X025609Y018514D01*
X025689Y018707D01*
X025836Y018855D01*
X026743Y019761D01*
X026936Y019841D01*
X032932Y019841D01*
X033125Y019761D01*
X033273Y019614D01*
X034451Y018435D01*
X035661Y018435D01*
X035664Y018434D01*
X035773Y018434D01*
X035851Y018356D01*
X035854Y018355D01*
X036001Y018207D01*
X036003Y018204D01*
X036080Y018127D01*
X036080Y018017D01*
X036081Y018014D01*
X036081Y017805D01*
X036080Y017802D01*
X036080Y017693D01*
X036003Y017616D01*
X036001Y017612D01*
X035854Y017465D01*
X035851Y017464D01*
X035773Y017386D01*
X035664Y017386D01*
X035661Y017385D01*
X034129Y017385D01*
X033936Y017465D01*
X032610Y018791D01*
X032164Y018791D01*
X032343Y018612D01*
X032343Y018473D01*
X031953Y018473D01*
X031953Y018393D01*
X032343Y018393D01*
X032343Y018255D01*
X032166Y018078D01*
X032181Y018078D01*
X032381Y017878D01*
X032399Y017878D01*
X032562Y017811D01*
X033286Y017087D01*
X033411Y016962D01*
X033479Y016798D01*
X033479Y014321D01*
X033411Y014158D01*
X032911Y013658D01*
X032786Y013533D01*
X032622Y013465D01*
X031197Y013465D01*
X031197Y013339D01*
X031141Y013205D01*
X031039Y013102D01*
X030905Y013047D01*
X030363Y013047D01*
X030229Y013102D01*
X030126Y013205D01*
X030071Y013339D01*
X030071Y013881D01*
X030126Y014015D01*
X030229Y014117D01*
X030363Y014173D01*
X030568Y014173D01*
X030682Y014287D01*
X030714Y014300D01*
X029536Y015478D01*
X029468Y015642D01*
X029468Y016966D01*
X029268Y017166D01*
X029268Y017701D01*
X029463Y017895D01*
X027889Y017895D01*
X027642Y017648D01*
X027642Y014732D01*
X027552Y014514D01*
X027552Y014468D01*
X027717Y014634D01*
X028151Y014634D01*
X028458Y014327D01*
X028458Y013893D01*
X028151Y013586D01*
X028039Y013586D01*
X027979Y013526D01*
X027979Y012306D01*
X028058Y012227D01*
X028058Y011793D01*
X027799Y011535D01*
X027838Y011535D01*
X027841Y011534D01*
X027951Y011534D01*
X028028Y011456D01*
X028031Y011455D01*
X028179Y011307D01*
X028180Y011304D01*
X028258Y011227D01*
X028258Y011117D01*
X028259Y011114D01*
X028259Y010505D01*
X028179Y010312D01*
X028079Y010212D01*
X027931Y010065D01*
X027738Y009985D01*
X027351Y009985D01*
X026141Y008775D01*
X026746Y008775D01*
X026954Y008689D01*
X028054Y007589D01*
X028213Y007430D01*
X028299Y007222D01*
X028299Y006544D01*
X029154Y005689D01*
X029313Y005530D01*
X029399Y005322D01*
X029399Y004868D01*
X029449Y004747D01*
X029449Y004522D01*
X029363Y004315D01*
X029204Y004156D01*
X029008Y004075D01*
X029657Y004075D01*
X029626Y004105D01*
X029571Y004239D01*
X029571Y004781D01*
X029626Y004915D01*
X029729Y005017D01*
X029863Y005073D01*
X030405Y005073D01*
X030539Y005017D01*
X030641Y004915D01*
X030697Y004781D01*
X030697Y004239D01*
X030641Y004105D01*
X030611Y004075D01*
X031900Y004075D01*
X032069Y004244D01*
X032069Y006722D01*
X032155Y006930D01*
X032714Y007489D01*
X032813Y007530D01*
X032817Y007534D01*
X032822Y007534D01*
X032921Y007575D01*
X033146Y007575D01*
X033246Y007534D01*
X033251Y007534D01*
X033254Y007530D01*
X033354Y007489D01*
X033513Y007330D01*
X033513Y007330D01*
X035113Y005730D01*
X035199Y005522D01*
X035199Y003244D01*
X035565Y002878D01*
X036006Y002865D01*
X036315Y002872D01*
X036321Y002875D01*
X036427Y002875D01*
X036533Y002877D01*
X036539Y002875D01*
X039746Y002875D01*
X039846Y002834D01*
X039851Y002834D01*
X039854Y002830D01*
X039954Y002789D01*
X040113Y002630D01*
X040154Y002530D01*
X040158Y002527D01*
X040158Y002522D01*
X040199Y002422D01*
X040199Y002197D01*
X040158Y002098D01*
X040158Y002093D01*
X040154Y002089D01*
X040113Y001990D01*
X039954Y001831D01*
X039854Y001790D01*
X039851Y001786D01*
X039846Y001786D01*
X039746Y001745D01*
X036440Y001745D01*
X036114Y001737D01*
X036100Y001732D01*
X036002Y001735D01*
X035905Y001732D01*
X035890Y001738D01*
X035316Y001755D01*
X035211Y001755D01*
X035204Y001758D01*
X035195Y001758D01*
X035100Y001801D01*
X035004Y001841D01*
X034998Y001847D01*
X034990Y001851D01*
X034918Y001926D01*
X034155Y002690D01*
X034069Y002897D01*
X034069Y005176D01*
X033199Y006046D01*
X033199Y003897D01*
X033113Y003690D01*
X032954Y003531D01*
X032454Y003031D01*
X032246Y002945D01*
X026021Y002945D01*
X025814Y003031D01*
X025693Y003152D02*
X009140Y003152D01*
X009238Y003251D02*
X025594Y003251D01*
X025496Y003349D02*
X009337Y003349D01*
X009435Y003448D02*
X025397Y003448D01*
X025299Y003546D02*
X009534Y003546D01*
X009632Y003645D02*
X025200Y003645D01*
X025133Y003743D02*
X009731Y003743D01*
X009829Y003842D02*
X025092Y003842D01*
X025069Y003940D02*
X009928Y003940D01*
X010026Y004039D02*
X025069Y004039D01*
X025069Y004137D02*
X010125Y004137D01*
X010223Y004236D02*
X025069Y004236D01*
X025069Y004334D02*
X010322Y004334D01*
X010420Y004433D02*
X025069Y004433D01*
X025069Y004531D02*
X010519Y004531D01*
X010617Y004630D02*
X025069Y004630D01*
X025069Y004728D02*
X010716Y004728D01*
X010814Y004827D02*
X025069Y004827D01*
X025069Y004925D02*
X010913Y004925D01*
X011011Y005024D02*
X025069Y005024D01*
X025069Y005122D02*
X011110Y005122D01*
X011208Y005221D02*
X025069Y005221D01*
X025069Y005319D02*
X014364Y005319D01*
X014421Y005342D02*
X014444Y005342D01*
X014578Y005398D01*
X014681Y005501D01*
X014736Y005635D01*
X014736Y005658D01*
X014788Y005783D01*
X014788Y006028D01*
X014736Y006153D01*
X014736Y006176D01*
X014681Y006310D01*
X014578Y006413D01*
X014444Y006469D01*
X014421Y006469D01*
X014296Y006520D01*
X010901Y006520D01*
X010675Y006427D01*
X010502Y006254D01*
X008407Y004158D01*
X008023Y004158D01*
X008158Y004293D01*
X008158Y004727D01*
X007851Y005034D01*
X007798Y005034D01*
X007858Y005093D01*
X007858Y005527D01*
X007551Y005834D01*
X007117Y005834D01*
X006810Y005527D01*
X006810Y005093D01*
X007117Y004786D01*
X007170Y004786D01*
X007110Y004727D01*
X007110Y004389D01*
X006749Y004751D01*
X006749Y006368D01*
X006829Y006533D01*
X006876Y006607D01*
X006882Y006642D01*
X006897Y006674D01*
X006903Y006762D01*
X006947Y007016D01*
X006969Y007071D01*
X006968Y007135D01*
X006979Y007198D01*
X006966Y007256D01*
X006947Y008349D01*
X007375Y008349D01*
X007838Y008812D01*
X007838Y009466D01*
X007375Y009929D01*
X006919Y009929D01*
X006918Y010024D01*
X007318Y010028D01*
X007325Y010025D01*
X007415Y010029D01*
X007504Y010029D01*
X007511Y010032D01*
X007518Y010032D01*
X007599Y010070D01*
X007682Y010105D01*
X007687Y010110D01*
X007693Y010113D01*
X007754Y010178D01*
X007817Y010243D01*
X007820Y010249D01*
X008589Y011077D01*
X008721Y011077D01*
X008855Y011132D01*
X008958Y011235D01*
X009013Y011369D01*
X009013Y011911D01*
X008958Y012045D01*
X008855Y012148D01*
X008721Y012203D01*
X008484Y012203D01*
X008555Y012232D01*
X008658Y012335D01*
X008713Y012469D01*
X008713Y013011D01*
X008658Y013145D01*
X008555Y013248D01*
X008421Y013303D01*
X007879Y013303D01*
X007745Y013248D01*
X007642Y013145D01*
X007587Y013011D01*
X007587Y012469D01*
X007642Y012335D01*
X007745Y012232D01*
X007879Y012177D01*
X008116Y012177D01*
X008045Y012148D01*
X007942Y012045D01*
X007887Y011911D01*
X007887Y011746D01*
X007190Y010996D01*
X006735Y010992D01*
X006716Y011011D01*
X006582Y011067D01*
X006552Y011067D01*
X006496Y011097D01*
X006253Y011124D01*
X006055Y011067D01*
X006041Y011067D01*
X005906Y011011D01*
X005804Y010908D01*
X005748Y010774D01*
X005748Y010759D01*
X005709Y010688D01*
X005694Y010548D01*
X005679Y010511D01*
X005681Y010428D01*
X005671Y010345D01*
X005683Y010307D01*
X005736Y007231D01*
X005700Y007024D01*
X005626Y006872D01*
X005613Y006858D01*
X005573Y006762D01*
X005527Y006669D01*
X005526Y006650D01*
X005519Y006632D01*
X005519Y006528D01*
X005513Y006424D01*
X005519Y006406D01*
X005519Y004374D01*
X005613Y004148D01*
X006565Y003195D01*
X006738Y003022D01*
X006964Y002928D01*
X008784Y002928D01*
X009010Y003022D01*
X011278Y005291D01*
X014296Y005291D01*
X014421Y005342D01*
X014598Y005418D02*
X025069Y005418D01*
X025069Y005516D02*
X024181Y005516D01*
X024178Y005514D02*
X024252Y005567D01*
X024316Y005632D01*
X024370Y005706D01*
X024412Y005787D01*
X024440Y005874D01*
X024454Y005961D01*
X023922Y005961D01*
X023922Y005430D01*
X024010Y005444D01*
X024097Y005472D01*
X024178Y005514D01*
X024299Y005615D02*
X025069Y005615D01*
X025069Y005713D02*
X024374Y005713D01*
X024419Y005812D02*
X025033Y005812D01*
X024935Y005910D02*
X024445Y005910D01*
X024454Y006058D02*
X023922Y006058D01*
X023826Y006058D01*
X023826Y006589D01*
X023738Y006576D01*
X023651Y006547D01*
X023570Y006506D01*
X023496Y006452D01*
X023432Y006388D01*
X023378Y006314D01*
X023337Y006232D01*
X023308Y006146D01*
X023294Y006058D01*
X023826Y006058D01*
X023826Y005961D01*
X023922Y005961D01*
X023922Y006058D01*
X023922Y006589D01*
X024010Y006576D01*
X024097Y006547D01*
X024178Y006506D01*
X024252Y006452D01*
X024316Y006388D01*
X024370Y006314D01*
X024412Y006232D01*
X024440Y006146D01*
X024454Y006058D01*
X024446Y006107D02*
X024738Y006107D01*
X024836Y006009D02*
X023922Y006009D01*
X023826Y006009D02*
X014788Y006009D01*
X014788Y005910D02*
X023303Y005910D01*
X023308Y005874D02*
X023337Y005787D01*
X023378Y005706D01*
X023432Y005632D01*
X023496Y005567D01*
X023570Y005514D01*
X023651Y005472D01*
X023738Y005444D01*
X023826Y005430D01*
X023826Y005961D01*
X023294Y005961D01*
X023308Y005874D01*
X023329Y005812D02*
X014788Y005812D01*
X014759Y005713D02*
X023374Y005713D01*
X023449Y005615D02*
X014728Y005615D01*
X014687Y005516D02*
X023567Y005516D01*
X023826Y005516D02*
X023922Y005516D01*
X023922Y005615D02*
X023826Y005615D01*
X023826Y005713D02*
X023922Y005713D01*
X023922Y005812D02*
X023826Y005812D01*
X023826Y005910D02*
X023922Y005910D01*
X023922Y006107D02*
X023826Y006107D01*
X023826Y006206D02*
X023922Y006206D01*
X023922Y006304D02*
X023826Y006304D01*
X023826Y006403D02*
X023922Y006403D01*
X023922Y006501D02*
X023826Y006501D01*
X023563Y006501D02*
X014343Y006501D01*
X014589Y006403D02*
X023446Y006403D01*
X023373Y006304D02*
X014683Y006304D01*
X014724Y006206D02*
X023328Y006206D01*
X023302Y006107D02*
X014755Y006107D01*
X011404Y006994D02*
X008747Y006994D01*
X008845Y007092D02*
X011253Y007092D01*
X011073Y007388D02*
X009141Y007388D01*
X009239Y007486D02*
X011069Y007486D01*
X011069Y007585D02*
X009338Y007585D01*
X009436Y007683D02*
X011094Y007683D01*
X011135Y007782D02*
X009535Y007782D01*
X009633Y007880D02*
X011205Y007880D01*
X011304Y007979D02*
X009732Y007979D01*
X009830Y008077D02*
X014753Y008077D01*
X014666Y008176D02*
X009929Y008176D01*
X010027Y008274D02*
X014580Y008274D01*
X014494Y008373D02*
X010126Y008373D01*
X010224Y008471D02*
X014408Y008471D01*
X014322Y008570D02*
X010323Y008570D01*
X010421Y008668D02*
X014233Y008668D01*
X014162Y008767D02*
X010515Y008767D01*
X010555Y008865D02*
X014126Y008865D01*
X014105Y008964D02*
X010579Y008964D01*
X010579Y009062D02*
X014109Y009062D01*
X014109Y009161D02*
X010579Y009161D01*
X010579Y009259D02*
X014109Y009259D01*
X014109Y009358D02*
X010611Y009358D01*
X010709Y009456D02*
X014109Y009456D01*
X014109Y009555D02*
X010808Y009555D01*
X010906Y009653D02*
X014109Y009653D01*
X014109Y009752D02*
X011005Y009752D01*
X011049Y009850D02*
X014109Y009850D01*
X014109Y009949D02*
X011079Y009949D01*
X011079Y010047D02*
X014109Y010047D01*
X014109Y010146D02*
X011079Y010146D01*
X011079Y010244D02*
X014109Y010244D01*
X014059Y010343D02*
X011145Y010343D01*
X011243Y010441D02*
X013960Y010441D01*
X013862Y010540D02*
X011342Y010540D01*
X011440Y010638D02*
X013763Y010638D01*
X013667Y010737D02*
X011539Y010737D01*
X011637Y010835D02*
X013610Y010835D01*
X013609Y010934D02*
X011736Y010934D01*
X011834Y011032D02*
X013609Y011032D01*
X013610Y011131D02*
X011933Y011131D01*
X012031Y011229D02*
X013612Y011229D01*
X013709Y011328D02*
X012130Y011328D01*
X012228Y011426D02*
X013808Y011426D01*
X013908Y011525D02*
X012327Y011525D01*
X012425Y011623D02*
X015580Y011623D01*
X015482Y011722D02*
X012524Y011722D01*
X012622Y011820D02*
X015410Y011820D01*
X015410Y011919D02*
X012721Y011919D01*
X012819Y012017D02*
X015410Y012017D01*
X015410Y012116D02*
X012918Y012116D01*
X013016Y012214D02*
X015410Y012214D01*
X015496Y012313D02*
X013115Y012313D01*
X013287Y012411D02*
X015594Y012411D01*
X015693Y012510D02*
X013479Y012510D01*
X013577Y012608D02*
X015906Y012608D01*
X015808Y012707D02*
X013634Y012707D01*
X013675Y012805D02*
X015737Y012805D01*
X015696Y012904D02*
X013706Y012904D01*
X013804Y013002D02*
X015689Y013002D01*
X015689Y013101D02*
X013903Y013101D01*
X014001Y013199D02*
X015689Y013199D01*
X015689Y013298D02*
X014048Y013298D01*
X014079Y013396D02*
X015689Y013396D01*
X015689Y013495D02*
X014079Y013495D01*
X014079Y013593D02*
X015689Y013593D01*
X015689Y013692D02*
X014079Y013692D01*
X014079Y013790D02*
X015689Y013790D01*
X015689Y013889D02*
X014079Y013889D01*
X014079Y013987D02*
X015689Y013987D01*
X015689Y014086D02*
X014079Y014086D01*
X014079Y014184D02*
X015689Y014184D01*
X015689Y014283D02*
X014079Y014283D01*
X014079Y014381D02*
X015689Y014381D01*
X015689Y014480D02*
X014079Y014480D01*
X014079Y014578D02*
X015722Y014578D01*
X015771Y014677D02*
X014079Y014677D01*
X014079Y014775D02*
X015870Y014775D01*
X015968Y014874D02*
X014079Y014874D01*
X014079Y014972D02*
X016067Y014972D01*
X016165Y015071D02*
X014079Y015071D01*
X014079Y015169D02*
X016264Y015169D01*
X016362Y015268D02*
X014079Y015268D01*
X014079Y015366D02*
X016461Y015366D01*
X016510Y015465D02*
X014079Y015465D01*
X014079Y015563D02*
X016546Y015563D01*
X016645Y015662D02*
X014079Y015662D01*
X014079Y015760D02*
X015900Y015760D01*
X015796Y015859D02*
X014126Y015859D01*
X014224Y015957D02*
X015697Y015957D01*
X015599Y016056D02*
X014323Y016056D01*
X013557Y016548D02*
X013554Y016548D01*
X013513Y016647D02*
X013655Y016647D01*
X013754Y016745D02*
X013434Y016745D01*
X013356Y016844D02*
X013852Y016844D01*
X013992Y016942D02*
X013279Y016942D01*
X013279Y017041D02*
X017592Y017041D01*
X017691Y017139D02*
X013262Y017139D01*
X013221Y017238D02*
X017789Y017238D01*
X017930Y017336D02*
X013137Y017336D01*
X012971Y017435D02*
X013597Y017435D01*
X013629Y017402D02*
X013763Y017347D01*
X014305Y017347D01*
X014439Y017402D01*
X014541Y017505D01*
X014597Y017639D01*
X014597Y018181D01*
X014541Y018315D01*
X014439Y018417D01*
X014305Y018473D01*
X013763Y018473D01*
X013629Y018417D01*
X013526Y018315D01*
X013471Y018181D01*
X013471Y017639D01*
X013526Y017505D01*
X013629Y017402D01*
X013515Y017533D02*
X000000Y017533D01*
X000000Y017435D02*
X012696Y017435D01*
X012419Y017336D02*
X000000Y017336D01*
X000000Y017238D02*
X012321Y017238D01*
X012222Y017139D02*
X000000Y017139D01*
X000000Y017041D02*
X012210Y017041D01*
X012210Y016942D02*
X000000Y016942D01*
X000000Y016844D02*
X012210Y016844D01*
X012210Y016745D02*
X000000Y016745D01*
X000000Y016647D02*
X012257Y016647D01*
X012355Y016548D02*
X000000Y016548D01*
X000000Y016450D02*
X012454Y016450D01*
X012610Y016351D02*
X000000Y016351D01*
X000000Y016253D02*
X012682Y016253D01*
X012682Y016154D02*
X000000Y016154D01*
X000000Y016056D02*
X012682Y016056D01*
X012682Y015957D02*
X000000Y015957D01*
X000000Y015859D02*
X012682Y015859D01*
X012682Y015760D02*
X000000Y015760D01*
X000000Y015662D02*
X012682Y015662D01*
X012682Y015563D02*
X000000Y015563D01*
X000018Y015508D02*
X000000Y015490D01*
X000000Y017866D01*
X000018Y017848D01*
X000052Y017829D01*
X000090Y017818D01*
X001060Y017818D01*
X001060Y018368D01*
X001160Y018368D01*
X001160Y017818D01*
X002130Y017818D01*
X002168Y017829D01*
X002202Y017848D01*
X002230Y017876D01*
X002250Y017910D01*
X002260Y017949D01*
X002260Y018368D01*
X001160Y018368D01*
X001160Y018468D01*
X002260Y018468D01*
X002260Y018888D01*
X002250Y018926D01*
X002230Y018960D01*
X002202Y018988D01*
X002168Y019008D01*
X002130Y019018D01*
X001160Y019018D01*
X001160Y018468D01*
X001060Y018468D01*
X001060Y018368D01*
X000000Y018368D01*
X000000Y018468D01*
X001060Y018468D01*
X001060Y019018D01*
X000090Y019018D01*
X000052Y019008D01*
X000018Y018988D01*
X000000Y018970D01*
X000000Y020866D01*
X040945Y020866D01*
X040945Y020472D01*
X042913Y020472D01*
X042913Y018990D01*
X042882Y019008D01*
X042844Y019018D01*
X041874Y019018D01*
X041874Y018468D01*
X042913Y018468D01*
X042913Y018368D01*
X041874Y018368D01*
X041874Y017818D01*
X042844Y017818D01*
X042882Y017829D01*
X042913Y017847D01*
X042913Y015510D01*
X042882Y015528D01*
X042844Y015538D01*
X041874Y015538D01*
X041874Y014988D01*
X042913Y014988D01*
X042913Y014888D01*
X041874Y014888D01*
X041874Y014338D01*
X042844Y014338D01*
X042882Y014349D01*
X042913Y014367D01*
X042913Y000000D01*
X001969Y000000D01*
X001969Y000394D01*
X001969Y000197D02*
X042913Y000197D01*
X042913Y000099D02*
X001969Y000099D01*
X001969Y000000D02*
X042913Y000000D01*
X042913Y001478D02*
X024039Y001478D01*
X024277Y001576D02*
X042913Y001576D01*
X042913Y001675D02*
X024403Y001675D01*
X024502Y001773D02*
X035162Y001773D01*
X034970Y001872D02*
X024570Y001872D01*
X024610Y001970D02*
X034875Y001970D01*
X034776Y002069D02*
X024651Y002069D01*
X024669Y002167D02*
X034678Y002167D01*
X034579Y002266D02*
X024669Y002266D01*
X024669Y002364D02*
X034481Y002364D01*
X034382Y002463D02*
X024655Y002463D01*
X024614Y002561D02*
X034284Y002561D01*
X034185Y002660D02*
X024573Y002660D01*
X024510Y002758D02*
X034127Y002758D01*
X034086Y002857D02*
X024411Y002857D01*
X024297Y002955D02*
X025997Y002955D01*
X026368Y004075D02*
X026199Y004244D01*
X026199Y006122D01*
X026113Y006330D01*
X025954Y006489D01*
X025199Y007244D01*
X025199Y007622D01*
X025189Y007645D01*
X026400Y007645D01*
X026511Y007534D01*
X026417Y007534D01*
X026110Y007227D01*
X026110Y006793D01*
X026417Y006486D01*
X026851Y006486D01*
X027158Y006793D01*
X027158Y006887D01*
X027169Y006876D01*
X027169Y006197D01*
X027255Y005990D01*
X028269Y004976D01*
X028269Y004572D01*
X028355Y004365D01*
X028564Y004156D01*
X028760Y004075D01*
X026368Y004075D01*
X026306Y004137D02*
X028609Y004137D01*
X028484Y004236D02*
X026207Y004236D01*
X026199Y004334D02*
X028386Y004334D01*
X028327Y004433D02*
X026199Y004433D01*
X026199Y004531D02*
X028286Y004531D01*
X028269Y004630D02*
X026199Y004630D01*
X026199Y004728D02*
X028269Y004728D01*
X028269Y004827D02*
X026199Y004827D01*
X026199Y004925D02*
X028269Y004925D01*
X028221Y005024D02*
X026199Y005024D01*
X026199Y005122D02*
X028123Y005122D01*
X028024Y005221D02*
X026199Y005221D01*
X026199Y005319D02*
X027926Y005319D01*
X027827Y005418D02*
X026199Y005418D01*
X026199Y005516D02*
X027729Y005516D01*
X027630Y005615D02*
X026199Y005615D01*
X026199Y005713D02*
X027532Y005713D01*
X027433Y005812D02*
X026199Y005812D01*
X026199Y005910D02*
X027335Y005910D01*
X027247Y006009D02*
X026199Y006009D01*
X026199Y006107D02*
X027206Y006107D01*
X027169Y006206D02*
X026164Y006206D01*
X026124Y006304D02*
X027169Y006304D01*
X027169Y006403D02*
X026040Y006403D01*
X025942Y006501D02*
X026402Y006501D01*
X026304Y006600D02*
X025843Y006600D01*
X025745Y006698D02*
X026205Y006698D01*
X026110Y006797D02*
X025646Y006797D01*
X025548Y006895D02*
X026110Y006895D01*
X026110Y006994D02*
X025449Y006994D01*
X025351Y007092D02*
X026110Y007092D01*
X026110Y007191D02*
X025252Y007191D01*
X025199Y007289D02*
X026172Y007289D01*
X026271Y007388D02*
X025199Y007388D01*
X025199Y007486D02*
X026369Y007486D01*
X026460Y007585D02*
X025199Y007585D01*
X024070Y006895D02*
X008648Y006895D01*
X008579Y006797D02*
X024111Y006797D01*
X024152Y006698D02*
X008579Y006698D01*
X008579Y006600D02*
X024245Y006600D01*
X024185Y006501D02*
X024344Y006501D01*
X024302Y006403D02*
X024442Y006403D01*
X024375Y006304D02*
X024541Y006304D01*
X024639Y006206D02*
X024420Y006206D01*
X026866Y006501D02*
X027169Y006501D01*
X027169Y006600D02*
X026964Y006600D01*
X027063Y006698D02*
X027169Y006698D01*
X027158Y006797D02*
X027169Y006797D01*
X028299Y006797D02*
X032100Y006797D01*
X032069Y006698D02*
X028299Y006698D01*
X028299Y006600D02*
X032069Y006600D01*
X032069Y006501D02*
X028342Y006501D01*
X028440Y006403D02*
X032069Y006403D01*
X032069Y006304D02*
X028539Y006304D01*
X028637Y006206D02*
X032069Y006206D01*
X032069Y006107D02*
X028736Y006107D01*
X028834Y006009D02*
X032069Y006009D01*
X032069Y005910D02*
X028933Y005910D01*
X029031Y005812D02*
X032069Y005812D01*
X032069Y005713D02*
X029130Y005713D01*
X029228Y005615D02*
X032069Y005615D01*
X032069Y005516D02*
X029319Y005516D01*
X029359Y005418D02*
X032069Y005418D01*
X032069Y005319D02*
X029399Y005319D01*
X029399Y005221D02*
X032069Y005221D01*
X032069Y005122D02*
X029399Y005122D01*
X029399Y005024D02*
X029744Y005024D01*
X029637Y004925D02*
X029399Y004925D01*
X029416Y004827D02*
X029590Y004827D01*
X029571Y004728D02*
X029449Y004728D01*
X029449Y004630D02*
X029571Y004630D01*
X029571Y004531D02*
X029449Y004531D01*
X029412Y004433D02*
X029571Y004433D01*
X029571Y004334D02*
X029371Y004334D01*
X029284Y004236D02*
X029572Y004236D01*
X029613Y004137D02*
X029158Y004137D01*
X030655Y004137D02*
X031962Y004137D01*
X032061Y004236D02*
X030695Y004236D01*
X030697Y004334D02*
X032069Y004334D01*
X032069Y004433D02*
X030697Y004433D01*
X030697Y004531D02*
X032069Y004531D01*
X032069Y004630D02*
X030697Y004630D01*
X030697Y004728D02*
X032069Y004728D01*
X032069Y004827D02*
X030678Y004827D01*
X030631Y004925D02*
X032069Y004925D01*
X032069Y005024D02*
X030524Y005024D01*
X033199Y005024D02*
X034069Y005024D01*
X034069Y005122D02*
X033199Y005122D01*
X033199Y005221D02*
X034024Y005221D01*
X033926Y005319D02*
X033199Y005319D01*
X033199Y005418D02*
X033827Y005418D01*
X033729Y005516D02*
X033199Y005516D01*
X033199Y005615D02*
X033630Y005615D01*
X033532Y005713D02*
X033199Y005713D01*
X033199Y005812D02*
X033433Y005812D01*
X033335Y005910D02*
X033199Y005910D01*
X033199Y006009D02*
X033236Y006009D01*
X034342Y006501D02*
X042913Y006501D01*
X042913Y006403D02*
X034440Y006403D01*
X034539Y006304D02*
X042913Y006304D01*
X042913Y006206D02*
X034637Y006206D01*
X034736Y006107D02*
X042913Y006107D01*
X042913Y006009D02*
X034834Y006009D01*
X034933Y005910D02*
X042913Y005910D01*
X042913Y005812D02*
X035031Y005812D01*
X035120Y005713D02*
X042913Y005713D01*
X042913Y005615D02*
X035161Y005615D01*
X035199Y005516D02*
X042913Y005516D01*
X042913Y005418D02*
X035199Y005418D01*
X035199Y005319D02*
X042913Y005319D01*
X042913Y005221D02*
X035199Y005221D01*
X035199Y005122D02*
X042913Y005122D01*
X042913Y005024D02*
X035199Y005024D01*
X035199Y004925D02*
X042913Y004925D01*
X042913Y004827D02*
X035199Y004827D01*
X035199Y004728D02*
X042913Y004728D01*
X042913Y004630D02*
X035199Y004630D01*
X035199Y004531D02*
X042913Y004531D01*
X042913Y004433D02*
X035199Y004433D01*
X035199Y004334D02*
X042913Y004334D01*
X042913Y004236D02*
X035199Y004236D01*
X035199Y004137D02*
X042913Y004137D01*
X042913Y004039D02*
X035199Y004039D01*
X035199Y003940D02*
X042913Y003940D01*
X042913Y003842D02*
X035199Y003842D01*
X035199Y003743D02*
X042913Y003743D01*
X042913Y003645D02*
X035199Y003645D01*
X035199Y003546D02*
X042913Y003546D01*
X042913Y003448D02*
X035199Y003448D01*
X035199Y003349D02*
X042913Y003349D01*
X042913Y003251D02*
X035199Y003251D01*
X035291Y003152D02*
X042913Y003152D01*
X042913Y003054D02*
X035389Y003054D01*
X035488Y002955D02*
X042913Y002955D01*
X042913Y002857D02*
X039790Y002857D01*
X039985Y002758D02*
X042913Y002758D01*
X042913Y002660D02*
X040083Y002660D01*
X040141Y002561D02*
X042913Y002561D01*
X042913Y002463D02*
X040182Y002463D01*
X040199Y002364D02*
X042913Y002364D01*
X042913Y002266D02*
X040199Y002266D01*
X040186Y002167D02*
X042913Y002167D01*
X042913Y002069D02*
X040145Y002069D01*
X040093Y001970D02*
X042913Y001970D01*
X042913Y001872D02*
X039994Y001872D01*
X039814Y001773D02*
X042913Y001773D01*
X034069Y002955D02*
X032271Y002955D01*
X032476Y003054D02*
X034069Y003054D01*
X034069Y003152D02*
X032575Y003152D01*
X032673Y003251D02*
X034069Y003251D01*
X034069Y003349D02*
X032772Y003349D01*
X032870Y003448D02*
X034069Y003448D01*
X034069Y003546D02*
X032969Y003546D01*
X033067Y003645D02*
X034069Y003645D01*
X034069Y003743D02*
X033135Y003743D01*
X033176Y003842D02*
X034069Y003842D01*
X034069Y003940D02*
X033199Y003940D01*
X033199Y004039D02*
X034069Y004039D01*
X034069Y004137D02*
X033199Y004137D01*
X033199Y004236D02*
X034069Y004236D01*
X034069Y004334D02*
X033199Y004334D01*
X033199Y004433D02*
X034069Y004433D01*
X034069Y004531D02*
X033199Y004531D01*
X033199Y004630D02*
X034069Y004630D01*
X034069Y004728D02*
X033199Y004728D01*
X033199Y004827D02*
X034069Y004827D01*
X034069Y004925D02*
X033199Y004925D01*
X034243Y006600D02*
X042913Y006600D01*
X042913Y006698D02*
X034145Y006698D01*
X034046Y006797D02*
X042913Y006797D01*
X042913Y006895D02*
X033948Y006895D01*
X033849Y006994D02*
X042913Y006994D01*
X042913Y007092D02*
X033751Y007092D01*
X033652Y007191D02*
X042913Y007191D01*
X042913Y007289D02*
X033554Y007289D01*
X033455Y007388D02*
X042913Y007388D01*
X042913Y007486D02*
X033357Y007486D01*
X032711Y007486D02*
X029558Y007486D01*
X029558Y007388D02*
X032613Y007388D01*
X032514Y007289D02*
X029554Y007289D01*
X029558Y007293D02*
X029558Y007727D01*
X029463Y007822D01*
X029780Y007822D01*
X029914Y007877D01*
X030016Y007980D01*
X030072Y008114D01*
X030072Y008656D01*
X030016Y008790D01*
X029914Y008892D01*
X029780Y008948D01*
X029238Y008948D01*
X029104Y008892D01*
X029001Y008790D01*
X028946Y008656D01*
X028946Y008114D01*
X028979Y008034D01*
X028817Y008034D01*
X028510Y007727D01*
X028510Y007293D01*
X028817Y006986D01*
X029251Y006986D01*
X029558Y007293D01*
X029455Y007191D02*
X032416Y007191D01*
X032317Y007092D02*
X029357Y007092D01*
X029258Y006994D02*
X032219Y006994D01*
X032140Y006895D02*
X028299Y006895D01*
X028299Y006994D02*
X028810Y006994D01*
X028711Y007092D02*
X028299Y007092D01*
X028299Y007191D02*
X028613Y007191D01*
X028514Y007289D02*
X028271Y007289D01*
X028230Y007388D02*
X028510Y007388D01*
X028510Y007486D02*
X028157Y007486D01*
X028058Y007585D02*
X028510Y007585D01*
X028510Y007683D02*
X027960Y007683D01*
X027861Y007782D02*
X028565Y007782D01*
X028663Y007880D02*
X027763Y007880D01*
X027664Y007979D02*
X028762Y007979D01*
X028961Y008077D02*
X027566Y008077D01*
X027467Y008176D02*
X028946Y008176D01*
X028946Y008274D02*
X027369Y008274D01*
X027270Y008373D02*
X028946Y008373D01*
X028946Y008471D02*
X027172Y008471D01*
X027073Y008570D02*
X028946Y008570D01*
X028951Y008668D02*
X026975Y008668D01*
X026766Y008767D02*
X028992Y008767D01*
X029077Y008865D02*
X026231Y008865D01*
X026330Y008964D02*
X042913Y008964D01*
X042913Y009062D02*
X026428Y009062D01*
X026527Y009161D02*
X042913Y009161D01*
X042913Y009259D02*
X026625Y009259D01*
X026724Y009358D02*
X042913Y009358D01*
X042913Y009456D02*
X026822Y009456D01*
X026921Y009555D02*
X042913Y009555D01*
X042913Y009653D02*
X027019Y009653D01*
X027118Y009752D02*
X042913Y009752D01*
X042913Y009850D02*
X027216Y009850D01*
X027315Y009949D02*
X042913Y009949D01*
X042913Y010047D02*
X027888Y010047D01*
X028012Y010146D02*
X042913Y010146D01*
X042913Y010244D02*
X028110Y010244D01*
X028191Y010343D02*
X042913Y010343D01*
X042913Y010441D02*
X028232Y010441D01*
X028259Y010540D02*
X042913Y010540D01*
X042913Y010638D02*
X028259Y010638D01*
X028259Y010737D02*
X042913Y010737D01*
X042913Y010835D02*
X028259Y010835D01*
X028259Y010934D02*
X042913Y010934D01*
X042913Y011032D02*
X028259Y011032D01*
X028258Y011131D02*
X042913Y011131D01*
X042913Y011229D02*
X028255Y011229D01*
X028159Y011328D02*
X042913Y011328D01*
X042913Y011426D02*
X028060Y011426D01*
X027960Y011525D02*
X042913Y011525D01*
X042913Y011623D02*
X027888Y011623D01*
X027986Y011722D02*
X042913Y011722D01*
X042913Y011820D02*
X028058Y011820D01*
X028058Y011919D02*
X042913Y011919D01*
X042913Y012017D02*
X028058Y012017D01*
X028058Y012116D02*
X042913Y012116D01*
X042913Y012214D02*
X028058Y012214D01*
X027979Y012313D02*
X032891Y012313D01*
X032917Y012286D02*
X032610Y012593D01*
X032610Y013027D01*
X032917Y013334D01*
X033351Y013334D01*
X033658Y013027D01*
X033658Y012593D01*
X033351Y012286D01*
X032917Y012286D01*
X032792Y012411D02*
X027979Y012411D01*
X027979Y012510D02*
X032694Y012510D01*
X032610Y012608D02*
X027979Y012608D01*
X027979Y012707D02*
X032610Y012707D01*
X032610Y012805D02*
X027979Y012805D01*
X027979Y012904D02*
X032610Y012904D01*
X032610Y013002D02*
X027979Y013002D01*
X027979Y013101D02*
X030233Y013101D01*
X030132Y013199D02*
X027979Y013199D01*
X027979Y013298D02*
X030088Y013298D01*
X030071Y013396D02*
X027979Y013396D01*
X027979Y013495D02*
X030071Y013495D01*
X030071Y013593D02*
X028158Y013593D01*
X028256Y013692D02*
X030071Y013692D01*
X030071Y013790D02*
X028355Y013790D01*
X028453Y013889D02*
X030074Y013889D01*
X030115Y013987D02*
X028458Y013987D01*
X028458Y014086D02*
X030197Y014086D01*
X030579Y014184D02*
X028458Y014184D01*
X028458Y014283D02*
X030677Y014283D01*
X030633Y014381D02*
X028403Y014381D01*
X028305Y014480D02*
X030535Y014480D01*
X030436Y014578D02*
X028206Y014578D01*
X027661Y014578D02*
X027578Y014578D01*
X027563Y014480D02*
X027552Y014480D01*
X027619Y014677D02*
X030338Y014677D01*
X030239Y014775D02*
X027642Y014775D01*
X027642Y014874D02*
X030141Y014874D01*
X030042Y014972D02*
X027642Y014972D01*
X027642Y015071D02*
X029944Y015071D01*
X029845Y015169D02*
X027642Y015169D01*
X027642Y015268D02*
X029747Y015268D01*
X029648Y015366D02*
X027642Y015366D01*
X027642Y015465D02*
X029550Y015465D01*
X029501Y015563D02*
X027642Y015563D01*
X027642Y015662D02*
X029468Y015662D01*
X029468Y015760D02*
X027642Y015760D01*
X027642Y015859D02*
X029468Y015859D01*
X029468Y015957D02*
X027642Y015957D01*
X027642Y016056D02*
X029468Y016056D01*
X029468Y016154D02*
X027642Y016154D01*
X027642Y016253D02*
X029468Y016253D01*
X029468Y016351D02*
X027642Y016351D01*
X027642Y016450D02*
X029468Y016450D01*
X029468Y016548D02*
X027642Y016548D01*
X027642Y016647D02*
X029468Y016647D01*
X029468Y016745D02*
X027642Y016745D01*
X027642Y016844D02*
X029468Y016844D01*
X029468Y016942D02*
X027642Y016942D01*
X027642Y017041D02*
X029394Y017041D01*
X029296Y017139D02*
X027642Y017139D01*
X027642Y017238D02*
X029268Y017238D01*
X029268Y017336D02*
X027642Y017336D01*
X027642Y017435D02*
X029268Y017435D01*
X029268Y017533D02*
X027642Y017533D01*
X027642Y017632D02*
X029268Y017632D01*
X029298Y017730D02*
X027724Y017730D01*
X027822Y017829D02*
X029396Y017829D01*
X031953Y018420D02*
X032982Y018420D01*
X032883Y018518D02*
X032343Y018518D01*
X032338Y018617D02*
X032785Y018617D01*
X032686Y018715D02*
X032240Y018715D01*
X032343Y018321D02*
X033080Y018321D01*
X033179Y018223D02*
X032311Y018223D01*
X032212Y018124D02*
X033277Y018124D01*
X033376Y018026D02*
X032233Y018026D01*
X032332Y017927D02*
X033474Y017927D01*
X033573Y017829D02*
X032519Y017829D01*
X032643Y017730D02*
X033671Y017730D01*
X033770Y017632D02*
X032741Y017632D01*
X032840Y017533D02*
X033868Y017533D01*
X034010Y017435D02*
X032938Y017435D01*
X033037Y017336D02*
X042913Y017336D01*
X042913Y017238D02*
X033135Y017238D01*
X033234Y017139D02*
X042913Y017139D01*
X042913Y017041D02*
X033332Y017041D01*
X033419Y016942D02*
X042913Y016942D01*
X042913Y016844D02*
X033460Y016844D01*
X033479Y016745D02*
X042913Y016745D01*
X042913Y016647D02*
X033479Y016647D01*
X033479Y016548D02*
X042913Y016548D01*
X042913Y016450D02*
X033479Y016450D01*
X033479Y016351D02*
X042913Y016351D01*
X042913Y016253D02*
X033479Y016253D01*
X033479Y016154D02*
X042913Y016154D01*
X042913Y016056D02*
X033479Y016056D01*
X033479Y015957D02*
X042913Y015957D01*
X042913Y015859D02*
X033479Y015859D01*
X033479Y015760D02*
X042913Y015760D01*
X042913Y015662D02*
X033479Y015662D01*
X033479Y015563D02*
X042913Y015563D01*
X041874Y015465D02*
X041774Y015465D01*
X041774Y015538D02*
X040804Y015538D01*
X040766Y015528D01*
X040732Y015508D01*
X040704Y015480D01*
X040684Y015446D01*
X040674Y015408D01*
X040674Y014988D01*
X041774Y014988D01*
X041774Y014888D01*
X041874Y014888D01*
X041874Y014988D01*
X041774Y014988D01*
X041774Y015538D01*
X041774Y015366D02*
X041874Y015366D01*
X041874Y015268D02*
X041774Y015268D01*
X041774Y015169D02*
X041874Y015169D01*
X041874Y015071D02*
X041774Y015071D01*
X041774Y014972D02*
X033479Y014972D01*
X033479Y014874D02*
X040674Y014874D01*
X040674Y014888D02*
X040674Y014469D01*
X040684Y014430D01*
X040704Y014396D01*
X040732Y014368D01*
X040766Y014349D01*
X040804Y014338D01*
X041774Y014338D01*
X041774Y014888D01*
X040674Y014888D01*
X040674Y014775D02*
X033479Y014775D01*
X033479Y014677D02*
X040674Y014677D01*
X040674Y014578D02*
X033479Y014578D01*
X033479Y014480D02*
X040674Y014480D01*
X040719Y014381D02*
X033479Y014381D01*
X033463Y014283D02*
X042913Y014283D01*
X042913Y014184D02*
X033422Y014184D01*
X033339Y014086D02*
X042913Y014086D01*
X042913Y013987D02*
X033240Y013987D01*
X033142Y013889D02*
X042913Y013889D01*
X042913Y013790D02*
X033043Y013790D01*
X032945Y013692D02*
X042913Y013692D01*
X042913Y013593D02*
X032846Y013593D01*
X032694Y013495D02*
X042913Y013495D01*
X042913Y013396D02*
X031197Y013396D01*
X031180Y013298D02*
X032881Y013298D01*
X032782Y013199D02*
X031135Y013199D01*
X031034Y013101D02*
X032684Y013101D01*
X033387Y013298D02*
X042913Y013298D01*
X042913Y013199D02*
X033485Y013199D01*
X033584Y013101D02*
X042913Y013101D01*
X042913Y013002D02*
X033658Y013002D01*
X033658Y012904D02*
X042913Y012904D01*
X042913Y012805D02*
X033658Y012805D01*
X033658Y012707D02*
X042913Y012707D01*
X042913Y012608D02*
X033658Y012608D01*
X033574Y012510D02*
X042913Y012510D01*
X042913Y012411D02*
X033476Y012411D01*
X033377Y012313D02*
X042913Y012313D01*
X041874Y014381D02*
X041774Y014381D01*
X041774Y014480D02*
X041874Y014480D01*
X041874Y014578D02*
X041774Y014578D01*
X041774Y014677D02*
X041874Y014677D01*
X041874Y014775D02*
X041774Y014775D01*
X041774Y014874D02*
X041874Y014874D01*
X041874Y014972D02*
X042913Y014972D01*
X040674Y015071D02*
X033479Y015071D01*
X033479Y015169D02*
X040674Y015169D01*
X040674Y015268D02*
X033479Y015268D01*
X033479Y015366D02*
X040674Y015366D01*
X040695Y015465D02*
X033479Y015465D01*
X035822Y017435D02*
X042913Y017435D01*
X042913Y017533D02*
X035922Y017533D01*
X036019Y017632D02*
X042913Y017632D01*
X042913Y017730D02*
X036080Y017730D01*
X036081Y017829D02*
X040766Y017829D01*
X040804Y017818D01*
X041774Y017818D01*
X041774Y018368D01*
X041874Y018368D01*
X041874Y018468D01*
X041774Y018468D01*
X041774Y018368D01*
X040674Y018368D01*
X040674Y017949D01*
X040684Y017910D01*
X040704Y017876D01*
X040732Y017848D01*
X040766Y017829D01*
X040680Y017927D02*
X036081Y017927D01*
X036080Y018026D02*
X040674Y018026D01*
X040674Y018124D02*
X036080Y018124D01*
X035986Y018223D02*
X040674Y018223D01*
X040674Y018321D02*
X035888Y018321D01*
X035787Y018420D02*
X041774Y018420D01*
X041774Y018468D02*
X040674Y018468D01*
X040674Y018888D01*
X040684Y018926D01*
X040704Y018960D01*
X040732Y018988D01*
X040766Y019008D01*
X040804Y019018D01*
X041774Y019018D01*
X041774Y018468D01*
X041774Y018518D02*
X041874Y018518D01*
X041874Y018420D02*
X042913Y018420D01*
X041874Y018321D02*
X041774Y018321D01*
X041774Y018223D02*
X041874Y018223D01*
X041874Y018124D02*
X041774Y018124D01*
X041774Y018026D02*
X041874Y018026D01*
X041874Y017927D02*
X041774Y017927D01*
X041774Y017829D02*
X041874Y017829D01*
X042882Y017829D02*
X042913Y017829D01*
X041874Y018617D02*
X041774Y018617D01*
X041774Y018715D02*
X041874Y018715D01*
X041874Y018814D02*
X041774Y018814D01*
X041774Y018912D02*
X041874Y018912D01*
X041874Y019011D02*
X041774Y019011D01*
X040775Y019011D02*
X033876Y019011D01*
X033777Y019109D02*
X042913Y019109D01*
X042913Y019011D02*
X042873Y019011D01*
X042913Y019208D02*
X033679Y019208D01*
X033580Y019306D02*
X042913Y019306D01*
X042913Y019405D02*
X033482Y019405D01*
X033383Y019503D02*
X042913Y019503D01*
X042913Y019602D02*
X033285Y019602D01*
X033186Y019700D02*
X042913Y019700D01*
X042913Y019799D02*
X033035Y019799D01*
X033974Y018912D02*
X040680Y018912D01*
X040674Y018814D02*
X034073Y018814D01*
X034171Y018715D02*
X040674Y018715D01*
X040674Y018617D02*
X034270Y018617D01*
X034368Y018518D02*
X040674Y018518D01*
X042913Y019897D02*
X000000Y019897D01*
X000000Y019799D02*
X026833Y019799D01*
X026682Y019700D02*
X000000Y019700D01*
X000000Y019602D02*
X026583Y019602D01*
X026485Y019503D02*
X000000Y019503D01*
X000000Y019405D02*
X023638Y019405D01*
X023539Y019306D02*
X000000Y019306D01*
X000000Y019208D02*
X023441Y019208D01*
X023390Y019109D02*
X000000Y019109D01*
X000000Y019011D02*
X000061Y019011D01*
X000000Y018420D02*
X001060Y018420D01*
X001060Y018518D02*
X001160Y018518D01*
X001160Y018420D02*
X013634Y018420D01*
X013533Y018321D02*
X002260Y018321D01*
X002260Y018223D02*
X013488Y018223D01*
X013471Y018124D02*
X002260Y018124D01*
X002260Y018026D02*
X013471Y018026D01*
X013471Y017927D02*
X002254Y017927D01*
X002168Y017829D02*
X013471Y017829D01*
X013471Y017730D02*
X000000Y017730D01*
X000000Y017632D02*
X013474Y017632D01*
X014471Y017435D02*
X019561Y017435D01*
X019660Y017533D02*
X014553Y017533D01*
X014594Y017632D02*
X019758Y017632D01*
X019857Y017730D02*
X014597Y017730D01*
X014597Y017829D02*
X019955Y017829D01*
X020054Y017927D02*
X014597Y017927D01*
X014597Y018026D02*
X020152Y018026D01*
X020294Y018124D02*
X014597Y018124D01*
X014580Y018223D02*
X022711Y018223D01*
X022810Y018321D02*
X014535Y018321D01*
X014433Y018420D02*
X022908Y018420D01*
X023007Y018518D02*
X002260Y018518D01*
X002260Y018617D02*
X023104Y018617D01*
X023180Y018715D02*
X002260Y018715D01*
X002260Y018814D02*
X023255Y018814D01*
X023331Y018912D02*
X002254Y018912D01*
X002159Y019011D02*
X023390Y019011D01*
X024190Y019405D02*
X026386Y019405D01*
X026288Y019306D02*
X024288Y019306D01*
X024387Y019208D02*
X026189Y019208D01*
X026091Y019109D02*
X024438Y019109D01*
X024438Y019011D02*
X025992Y019011D01*
X025894Y018912D02*
X024438Y018912D01*
X024438Y018814D02*
X025795Y018814D01*
X025697Y018715D02*
X024430Y018715D01*
X024331Y018617D02*
X025651Y018617D01*
X025610Y018518D02*
X024233Y018518D01*
X024134Y018420D02*
X025609Y018420D01*
X025609Y018321D02*
X023999Y018321D01*
X023924Y018223D02*
X025609Y018223D01*
X025609Y018124D02*
X023848Y018124D01*
X023773Y018026D02*
X025609Y018026D01*
X025609Y017927D02*
X023674Y017927D01*
X023576Y017829D02*
X025609Y017829D01*
X025609Y017730D02*
X023477Y017730D01*
X023379Y017632D02*
X025609Y017632D01*
X025609Y017533D02*
X023280Y017533D01*
X023182Y017435D02*
X025609Y017435D01*
X025609Y017336D02*
X023079Y017336D01*
X022751Y017034D02*
X022317Y017034D01*
X022010Y016727D01*
X022010Y016293D01*
X022317Y015986D01*
X022751Y015986D01*
X023058Y016293D01*
X023058Y016727D01*
X022751Y017034D01*
X022842Y016942D02*
X025609Y016942D01*
X025609Y016844D02*
X022941Y016844D01*
X023039Y016745D02*
X025609Y016745D01*
X025609Y016647D02*
X023058Y016647D01*
X023058Y016548D02*
X025609Y016548D01*
X025609Y016450D02*
X023058Y016450D01*
X023058Y016351D02*
X025609Y016351D01*
X025609Y016253D02*
X023017Y016253D01*
X022919Y016154D02*
X025609Y016154D01*
X025609Y016056D02*
X022820Y016056D01*
X022248Y016056D02*
X017866Y016056D01*
X017964Y016154D02*
X022149Y016154D01*
X022051Y016253D02*
X018063Y016253D01*
X018161Y016351D02*
X022010Y016351D01*
X022010Y016450D02*
X018260Y016450D01*
X017297Y016745D02*
X016168Y016745D01*
X016266Y016647D02*
X017198Y016647D01*
X017395Y016844D02*
X016069Y016844D01*
X015929Y016942D02*
X017494Y016942D01*
X017767Y015957D02*
X025609Y015957D01*
X025609Y015859D02*
X017669Y015859D01*
X017564Y015760D02*
X025609Y015760D01*
X025609Y015662D02*
X017423Y015662D01*
X017521Y015563D02*
X024146Y015563D01*
X024048Y015465D02*
X017558Y015465D01*
X017558Y015366D02*
X020749Y015366D01*
X020651Y015268D02*
X017558Y015268D01*
X017558Y015169D02*
X020552Y015169D01*
X020510Y015071D02*
X017535Y015071D01*
X017532Y014972D02*
X017437Y014972D01*
X017394Y014874D02*
X017338Y014874D01*
X017295Y014775D02*
X017128Y014775D01*
X017197Y014677D02*
X017030Y014677D01*
X017098Y014578D02*
X016931Y014578D01*
X017000Y014480D02*
X016833Y014480D01*
X016901Y014381D02*
X016734Y014381D01*
X016803Y014283D02*
X016636Y014283D01*
X016579Y014184D02*
X016735Y014184D01*
X016694Y014086D02*
X016579Y014086D01*
X016579Y013987D02*
X016689Y013987D01*
X016689Y013889D02*
X016579Y013889D01*
X016579Y013790D02*
X016673Y013790D01*
X016610Y013692D02*
X016579Y013692D01*
X016579Y013593D02*
X016610Y013593D01*
X016610Y013495D02*
X016579Y013495D01*
X016579Y013396D02*
X016610Y013396D01*
X016610Y013298D02*
X016579Y013298D01*
X016579Y013199D02*
X016682Y013199D01*
X017585Y013199D02*
X018310Y013199D01*
X018304Y013198D02*
X018236Y013170D01*
X018176Y013129D01*
X018124Y013078D01*
X018084Y013017D01*
X018056Y012950D01*
X018042Y012878D01*
X018042Y012852D01*
X018402Y012852D01*
X018402Y013212D01*
X018375Y013212D01*
X018304Y013198D01*
X018402Y013199D02*
X018422Y013199D01*
X018422Y013212D02*
X018422Y012852D01*
X018782Y012852D01*
X018782Y012878D01*
X018767Y012950D01*
X018739Y013017D01*
X018699Y013078D01*
X018647Y013129D01*
X018587Y013170D01*
X018519Y013198D01*
X018448Y013212D01*
X018422Y013212D01*
X018513Y013199D02*
X019941Y013199D01*
X019916Y013173D02*
X019827Y012958D01*
X019827Y012726D01*
X019916Y012511D01*
X020080Y012346D01*
X020295Y012257D01*
X020528Y012257D01*
X020743Y012346D01*
X020907Y012511D01*
X020997Y012726D01*
X020997Y012958D01*
X020907Y013173D01*
X020743Y013338D01*
X020528Y013427D01*
X020295Y013427D01*
X020080Y013338D01*
X019916Y013173D01*
X019886Y013101D02*
X018676Y013101D01*
X018746Y013002D02*
X019845Y013002D01*
X019827Y012904D02*
X018777Y012904D01*
X018782Y012832D02*
X018422Y012832D01*
X018422Y012852D01*
X018402Y012852D01*
X018402Y012832D01*
X018422Y012832D01*
X018422Y012472D01*
X018448Y012472D01*
X018519Y012486D01*
X018587Y012514D01*
X018647Y012555D01*
X018699Y012606D01*
X018739Y012667D01*
X018767Y012734D01*
X018782Y012806D01*
X018782Y012832D01*
X018781Y012805D02*
X019827Y012805D01*
X019835Y012707D02*
X018756Y012707D01*
X018700Y012608D02*
X019875Y012608D01*
X019917Y012510D02*
X018576Y012510D01*
X018422Y012510D02*
X018402Y012510D01*
X018402Y012472D02*
X018402Y012832D01*
X018042Y012832D01*
X018042Y012806D01*
X018056Y012734D01*
X018084Y012667D01*
X018124Y012606D01*
X018176Y012555D01*
X018236Y012514D01*
X018304Y012486D01*
X018375Y012472D01*
X018402Y012472D01*
X018402Y012608D02*
X018422Y012608D01*
X018422Y012707D02*
X018402Y012707D01*
X018402Y012805D02*
X018422Y012805D01*
X018422Y012904D02*
X018402Y012904D01*
X018402Y013002D02*
X018422Y013002D01*
X018422Y013101D02*
X018402Y013101D01*
X018147Y013101D02*
X017658Y013101D01*
X017658Y013002D02*
X018077Y013002D01*
X018047Y012904D02*
X017658Y012904D01*
X017658Y012805D02*
X018042Y012805D01*
X018067Y012707D02*
X017658Y012707D01*
X017665Y012608D02*
X018123Y012608D01*
X018247Y012510D02*
X017763Y012510D01*
X017862Y012411D02*
X020015Y012411D01*
X020161Y012313D02*
X017960Y012313D01*
X018031Y012214D02*
X021185Y012214D01*
X021003Y012116D02*
X018072Y012116D01*
X018079Y012017D02*
X020851Y012017D01*
X020752Y011919D02*
X018079Y011919D01*
X018079Y011820D02*
X020654Y011820D01*
X020555Y011722D02*
X018079Y011722D01*
X018079Y011623D02*
X020527Y011623D01*
X020527Y011525D02*
X018079Y011525D01*
X018079Y011426D02*
X020527Y011426D01*
X020527Y011328D02*
X018079Y011328D01*
X018079Y011229D02*
X020527Y011229D01*
X020623Y011131D02*
X018142Y011131D01*
X018241Y011032D02*
X020722Y011032D01*
X020820Y010934D02*
X018339Y010934D01*
X018438Y010835D02*
X024609Y010835D01*
X024609Y010737D02*
X018536Y010737D01*
X018635Y010638D02*
X024609Y010638D01*
X024609Y010540D02*
X024045Y010540D01*
X024283Y010441D02*
X024609Y010441D01*
X024609Y010343D02*
X024406Y010343D01*
X024504Y010244D02*
X024609Y010244D01*
X024609Y010146D02*
X024571Y010146D01*
X023703Y010540D02*
X018733Y010540D01*
X018832Y010441D02*
X023465Y010441D01*
X023342Y010343D02*
X018930Y010343D01*
X019029Y010244D02*
X023244Y010244D01*
X024609Y010934D02*
X021360Y010934D01*
X021458Y011032D02*
X024609Y011032D01*
X024609Y011131D02*
X021557Y011131D01*
X023545Y011229D02*
X024609Y011229D01*
X024609Y011328D02*
X023694Y011328D01*
X023792Y011426D02*
X024609Y011426D01*
X024609Y011525D02*
X023891Y011525D01*
X023989Y011623D02*
X024613Y011623D01*
X024653Y011722D02*
X024088Y011722D01*
X024186Y011820D02*
X024702Y011820D01*
X024800Y011919D02*
X024285Y011919D01*
X024383Y012017D02*
X024899Y012017D01*
X024997Y012116D02*
X024482Y012116D01*
X024580Y012214D02*
X025096Y012214D01*
X025194Y012313D02*
X024679Y012313D01*
X024777Y012411D02*
X025293Y012411D01*
X025391Y012510D02*
X024876Y012510D01*
X024974Y012608D02*
X025490Y012608D01*
X025588Y012707D02*
X025073Y012707D01*
X025171Y012805D02*
X025687Y012805D01*
X025785Y012904D02*
X025270Y012904D01*
X025368Y013002D02*
X025884Y013002D01*
X025982Y013101D02*
X025467Y013101D01*
X025565Y013199D02*
X026081Y013199D01*
X026179Y013298D02*
X025664Y013298D01*
X025762Y013396D02*
X026278Y013396D01*
X026376Y013495D02*
X025861Y013495D01*
X025959Y013593D02*
X026475Y013593D01*
X026502Y013692D02*
X026058Y013692D01*
X026156Y013790D02*
X026502Y013790D01*
X026502Y013889D02*
X026255Y013889D01*
X026353Y013987D02*
X026502Y013987D01*
X026502Y014086D02*
X026452Y014086D01*
X025558Y014677D02*
X024879Y014677D01*
X024879Y014775D02*
X025609Y014775D01*
X025609Y014874D02*
X024938Y014874D01*
X024958Y014972D02*
X025609Y014972D01*
X025609Y015071D02*
X024958Y015071D01*
X024958Y015169D02*
X025609Y015169D01*
X025609Y015268D02*
X024958Y015268D01*
X024918Y015366D02*
X025609Y015366D01*
X025609Y015465D02*
X024820Y015465D01*
X024721Y015563D02*
X025609Y015563D01*
X025460Y014578D02*
X024879Y014578D01*
X024879Y014480D02*
X025361Y014480D01*
X025263Y014381D02*
X024879Y014381D01*
X024879Y014283D02*
X025164Y014283D01*
X025066Y014184D02*
X024863Y014184D01*
X024823Y014086D02*
X024967Y014086D01*
X024869Y013987D02*
X024740Y013987D01*
X024770Y013889D02*
X024642Y013889D01*
X024672Y013790D02*
X024543Y013790D01*
X024573Y013692D02*
X024445Y013692D01*
X024475Y013593D02*
X024304Y013593D01*
X024376Y013495D02*
X023390Y013495D01*
X023488Y013396D02*
X024278Y013396D01*
X024179Y013298D02*
X023558Y013298D01*
X023558Y013199D02*
X024081Y013199D01*
X023982Y013101D02*
X023558Y013101D01*
X023558Y013002D02*
X023884Y013002D01*
X023785Y012904D02*
X023558Y012904D01*
X023470Y012805D02*
X023687Y012805D01*
X023588Y012707D02*
X023371Y012707D01*
X023273Y012608D02*
X023490Y012608D01*
X023391Y012510D02*
X020906Y012510D01*
X020948Y012608D02*
X022795Y012608D01*
X022697Y012707D02*
X020989Y012707D01*
X020997Y012805D02*
X022598Y012805D01*
X022510Y012904D02*
X020997Y012904D01*
X020978Y013002D02*
X022510Y013002D01*
X022510Y013101D02*
X020938Y013101D01*
X020882Y013199D02*
X022510Y013199D01*
X022510Y013298D02*
X020783Y013298D01*
X020603Y013396D02*
X022579Y013396D01*
X022678Y013495D02*
X019891Y013495D01*
X019942Y013593D02*
X020470Y013593D01*
X020329Y013692D02*
X019982Y013692D01*
X019997Y013790D02*
X020231Y013790D01*
X020128Y013889D02*
X019997Y013889D01*
X019985Y013987D02*
X020029Y013987D01*
X020221Y013396D02*
X019793Y013396D01*
X019626Y013298D02*
X020040Y013298D01*
X019197Y013298D02*
X017658Y013298D01*
X017658Y013396D02*
X019030Y013396D01*
X018932Y013495D02*
X017658Y013495D01*
X017658Y013593D02*
X018882Y013593D01*
X018841Y013692D02*
X017658Y013692D01*
X017594Y013790D02*
X018827Y013790D01*
X018827Y013889D02*
X017667Y013889D01*
X017766Y013987D02*
X018839Y013987D01*
X018879Y014086D02*
X017864Y014086D01*
X020263Y014972D02*
X020510Y014972D01*
X020510Y014874D02*
X020401Y014874D01*
X020500Y014775D02*
X020510Y014775D01*
X021344Y014480D02*
X023974Y014480D01*
X023989Y014578D02*
X021443Y014578D01*
X021541Y014677D02*
X023989Y014677D01*
X023989Y014775D02*
X021558Y014775D01*
X021558Y014874D02*
X023930Y014874D01*
X023910Y014972D02*
X021558Y014972D01*
X021558Y015071D02*
X023910Y015071D01*
X023910Y015169D02*
X021515Y015169D01*
X021417Y015268D02*
X023910Y015268D01*
X023949Y015366D02*
X021318Y015366D01*
X022010Y016548D02*
X019928Y016548D01*
X020032Y016647D02*
X022010Y016647D01*
X022028Y016745D02*
X020130Y016745D01*
X020229Y016844D02*
X022127Y016844D01*
X022225Y016942D02*
X020327Y016942D01*
X020426Y017041D02*
X025609Y017041D01*
X025609Y017139D02*
X020524Y017139D01*
X020623Y017238D02*
X025609Y017238D01*
X023293Y012411D02*
X020808Y012411D01*
X020662Y012313D02*
X023194Y012313D01*
X018164Y009850D02*
X017189Y009850D01*
X017189Y009752D02*
X018263Y009752D01*
X018361Y009653D02*
X017189Y009653D01*
X017173Y009555D02*
X018460Y009555D01*
X018558Y009456D02*
X017132Y009456D01*
X017092Y009358D02*
X018678Y009358D01*
X018066Y009949D02*
X017172Y009949D01*
X017131Y010047D02*
X017967Y010047D01*
X017869Y010146D02*
X017090Y010146D01*
X017024Y010244D02*
X017770Y010244D01*
X017672Y010343D02*
X016925Y010343D01*
X016803Y010441D02*
X017573Y010441D01*
X017475Y010540D02*
X016565Y010540D01*
X016222Y010540D02*
X015559Y010540D01*
X015559Y010638D02*
X017376Y010638D01*
X017278Y010737D02*
X015559Y010737D01*
X015550Y010835D02*
X017225Y010835D01*
X017189Y010934D02*
X015509Y010934D01*
X015454Y011032D02*
X017189Y011032D01*
X017189Y011131D02*
X015356Y011131D01*
X015257Y011229D02*
X017189Y011229D01*
X017189Y011328D02*
X015159Y011328D01*
X014959Y011426D02*
X017189Y011426D01*
X017189Y011525D02*
X016189Y011525D01*
X016288Y011623D02*
X017189Y011623D01*
X017189Y011722D02*
X016386Y011722D01*
X016458Y011820D02*
X017189Y011820D01*
X017096Y011919D02*
X016458Y011919D01*
X016458Y012017D02*
X016997Y012017D01*
X015679Y011525D02*
X014360Y011525D01*
X015559Y010441D02*
X015985Y010441D01*
X015862Y010343D02*
X015559Y010343D01*
X015559Y010244D02*
X015763Y010244D01*
X015697Y010146D02*
X015559Y010146D01*
X015559Y010047D02*
X015656Y010047D01*
X015615Y009949D02*
X015559Y009949D01*
X015559Y009850D02*
X015599Y009850D01*
X015599Y009752D02*
X015559Y009752D01*
X015559Y009653D02*
X015599Y009653D01*
X015614Y009555D02*
X015559Y009555D01*
X015559Y009456D02*
X015655Y009456D01*
X015629Y009358D02*
X015696Y009358D01*
X015727Y009259D02*
X015760Y009259D01*
X017027Y009259D02*
X023241Y009259D01*
X029503Y007782D02*
X042913Y007782D01*
X042913Y007880D02*
X029916Y007880D01*
X030015Y007979D02*
X042913Y007979D01*
X042913Y008077D02*
X030057Y008077D01*
X030072Y008176D02*
X042913Y008176D01*
X042913Y008274D02*
X030072Y008274D01*
X030072Y008373D02*
X042913Y008373D01*
X042913Y008471D02*
X030072Y008471D01*
X030072Y008570D02*
X042913Y008570D01*
X042913Y008668D02*
X030067Y008668D01*
X030026Y008767D02*
X042913Y008767D01*
X042913Y008865D02*
X029941Y008865D01*
X029558Y007683D02*
X042913Y007683D01*
X042913Y007585D02*
X029558Y007585D01*
X016209Y003054D02*
X009041Y003054D01*
X008848Y002955D02*
X015971Y002955D01*
X009961Y005713D02*
X008578Y005713D01*
X008658Y005812D02*
X010060Y005812D01*
X010158Y005910D02*
X008658Y005910D01*
X008658Y006009D02*
X010257Y006009D01*
X010355Y006107D02*
X008658Y006107D01*
X008658Y006206D02*
X010454Y006206D01*
X010552Y006304D02*
X008580Y006304D01*
X008579Y006403D02*
X010651Y006403D01*
X010854Y006501D02*
X008579Y006501D01*
X007689Y006501D02*
X006813Y006501D01*
X006765Y006403D02*
X007689Y006403D01*
X007687Y006304D02*
X006749Y006304D01*
X006749Y006206D02*
X007610Y006206D01*
X007610Y006107D02*
X006749Y006107D01*
X006749Y006009D02*
X007610Y006009D01*
X007610Y005910D02*
X006749Y005910D01*
X006749Y005812D02*
X007095Y005812D01*
X006996Y005713D02*
X006749Y005713D01*
X006749Y005615D02*
X006898Y005615D01*
X006810Y005516D02*
X006749Y005516D01*
X006749Y005418D02*
X006810Y005418D01*
X006810Y005319D02*
X006749Y005319D01*
X006749Y005221D02*
X006810Y005221D01*
X006810Y005122D02*
X006749Y005122D01*
X006749Y005024D02*
X006880Y005024D01*
X006978Y004925D02*
X006749Y004925D01*
X006749Y004827D02*
X007077Y004827D01*
X007111Y004728D02*
X006772Y004728D01*
X006870Y004630D02*
X007110Y004630D01*
X007110Y004531D02*
X006969Y004531D01*
X007067Y004433D02*
X007110Y004433D01*
X008100Y004236D02*
X008484Y004236D01*
X008582Y004334D02*
X008158Y004334D01*
X008158Y004433D02*
X008681Y004433D01*
X008779Y004531D02*
X008158Y004531D01*
X008158Y004630D02*
X008878Y004630D01*
X008976Y004728D02*
X008156Y004728D01*
X008058Y004827D02*
X009075Y004827D01*
X009173Y004925D02*
X007959Y004925D01*
X007861Y005024D02*
X009272Y005024D01*
X009370Y005122D02*
X007858Y005122D01*
X007858Y005221D02*
X009469Y005221D01*
X009567Y005319D02*
X007858Y005319D01*
X007858Y005418D02*
X009666Y005418D01*
X009764Y005516D02*
X008381Y005516D01*
X008479Y005615D02*
X009863Y005615D01*
X007887Y005516D02*
X007858Y005516D01*
X007789Y005615D02*
X007770Y005615D01*
X007690Y005713D02*
X007671Y005713D01*
X007610Y005812D02*
X007573Y005812D01*
X007689Y006600D02*
X006871Y006600D01*
X006899Y006698D02*
X007689Y006698D01*
X007689Y006797D02*
X006909Y006797D01*
X006926Y006895D02*
X007689Y006895D01*
X007689Y006994D02*
X006943Y006994D01*
X006968Y007092D02*
X007689Y007092D01*
X007727Y007191D02*
X006977Y007191D01*
X006965Y007289D02*
X007784Y007289D01*
X007882Y007388D02*
X006963Y007388D01*
X006962Y007486D02*
X007981Y007486D01*
X008079Y007585D02*
X006960Y007585D01*
X006958Y007683D02*
X008178Y007683D01*
X008276Y007782D02*
X006956Y007782D01*
X006955Y007880D02*
X008375Y007880D01*
X008473Y007979D02*
X006953Y007979D01*
X006951Y008077D02*
X008572Y008077D01*
X008670Y008176D02*
X006950Y008176D01*
X006948Y008274D02*
X008769Y008274D01*
X008867Y008373D02*
X007399Y008373D01*
X007497Y008471D02*
X008966Y008471D01*
X009064Y008570D02*
X007596Y008570D01*
X007694Y008668D02*
X009163Y008668D01*
X009261Y008767D02*
X007793Y008767D01*
X007838Y008865D02*
X009360Y008865D01*
X009458Y008964D02*
X007838Y008964D01*
X007838Y009062D02*
X009557Y009062D01*
X009655Y009161D02*
X007838Y009161D01*
X007838Y009259D02*
X009689Y009259D01*
X009689Y009358D02*
X007838Y009358D01*
X007838Y009456D02*
X009689Y009456D01*
X009689Y009555D02*
X007749Y009555D01*
X007650Y009653D02*
X009712Y009653D01*
X009752Y009752D02*
X007552Y009752D01*
X007453Y009850D02*
X009845Y009850D01*
X009943Y009949D02*
X006919Y009949D01*
X007550Y010047D02*
X010042Y010047D01*
X010140Y010146D02*
X007724Y010146D01*
X007818Y010244D02*
X010189Y010244D01*
X010189Y010343D02*
X007907Y010343D01*
X007998Y010441D02*
X010189Y010441D01*
X010189Y010540D02*
X008090Y010540D01*
X008181Y010638D02*
X010226Y010638D01*
X010280Y010737D02*
X008273Y010737D01*
X008364Y010835D02*
X010379Y010835D01*
X010477Y010934D02*
X008456Y010934D01*
X008547Y011032D02*
X010576Y011032D01*
X010674Y011131D02*
X008850Y011131D01*
X008951Y011229D02*
X010773Y011229D01*
X010871Y011328D02*
X008996Y011328D01*
X009013Y011426D02*
X010970Y011426D01*
X011068Y011525D02*
X009013Y011525D01*
X009013Y011623D02*
X011167Y011623D01*
X011265Y011722D02*
X009013Y011722D01*
X009013Y011820D02*
X011364Y011820D01*
X011462Y011919D02*
X009010Y011919D01*
X008969Y012017D02*
X011561Y012017D01*
X011659Y012116D02*
X008887Y012116D01*
X008635Y012313D02*
X011856Y012313D01*
X011955Y012411D02*
X008689Y012411D01*
X008713Y012510D02*
X012053Y012510D01*
X012152Y012608D02*
X008713Y012608D01*
X008713Y012707D02*
X012250Y012707D01*
X012349Y012805D02*
X008713Y012805D01*
X008713Y012904D02*
X012447Y012904D01*
X012546Y013002D02*
X008713Y013002D01*
X008676Y013101D02*
X012578Y013101D01*
X012619Y013199D02*
X008603Y013199D01*
X008434Y013298D02*
X012674Y013298D01*
X012682Y013396D02*
X000000Y013396D01*
X000000Y013298D02*
X007866Y013298D01*
X007697Y013199D02*
X000000Y013199D01*
X000000Y013101D02*
X007624Y013101D01*
X007587Y013002D02*
X000000Y013002D01*
X000000Y012904D02*
X007587Y012904D01*
X007587Y012805D02*
X000000Y012805D01*
X000000Y012707D02*
X007587Y012707D01*
X007587Y012608D02*
X000000Y012608D01*
X000000Y012510D02*
X007587Y012510D01*
X007611Y012411D02*
X000000Y012411D01*
X000000Y012313D02*
X007665Y012313D01*
X007790Y012214D02*
X000000Y012214D01*
X000000Y012116D02*
X008013Y012116D01*
X007931Y012017D02*
X000000Y012017D01*
X000000Y011919D02*
X007890Y011919D01*
X007887Y011820D02*
X000000Y011820D01*
X000000Y011722D02*
X007864Y011722D01*
X007772Y011623D02*
X000000Y011623D01*
X000000Y011525D02*
X007681Y011525D01*
X007589Y011426D02*
X000000Y011426D01*
X000000Y011328D02*
X007498Y011328D01*
X007406Y011229D02*
X000000Y011229D01*
X000000Y011131D02*
X007315Y011131D01*
X007223Y011032D02*
X006665Y011032D01*
X005957Y011032D02*
X000000Y011032D01*
X000000Y010934D02*
X005829Y010934D01*
X005773Y010835D02*
X000000Y010835D01*
X000000Y010737D02*
X005736Y010737D01*
X005704Y010638D02*
X000000Y010638D01*
X000000Y010540D02*
X005690Y010540D01*
X005680Y010441D02*
X000000Y010441D01*
X000000Y010343D02*
X005672Y010343D01*
X005684Y010244D02*
X000000Y010244D01*
X000000Y010146D02*
X005685Y010146D01*
X005687Y010047D02*
X000000Y010047D01*
X000000Y009949D02*
X005689Y009949D01*
X005691Y009850D02*
X000000Y009850D01*
X000000Y009752D02*
X005692Y009752D01*
X005694Y009653D02*
X000000Y009653D01*
X000000Y009555D02*
X005696Y009555D01*
X005697Y009456D02*
X000000Y009456D01*
X000000Y009358D02*
X005699Y009358D01*
X005701Y009259D02*
X000000Y009259D01*
X000000Y009161D02*
X005702Y009161D01*
X005704Y009062D02*
X000000Y009062D01*
X000000Y008964D02*
X005706Y008964D01*
X005708Y008865D02*
X000000Y008865D01*
X000000Y008767D02*
X005709Y008767D01*
X005711Y008668D02*
X000000Y008668D01*
X000000Y008570D02*
X002630Y008570D01*
X002659Y008598D02*
X002418Y008358D01*
X002418Y008218D01*
X002798Y008218D01*
X002798Y008158D01*
X002418Y008158D01*
X002418Y008018D01*
X002624Y007813D01*
X002569Y007813D01*
X002203Y007447D01*
X002203Y006929D01*
X002569Y006563D01*
X003087Y006563D01*
X003453Y006929D01*
X003453Y007447D01*
X003087Y007813D01*
X003033Y007813D01*
X003238Y008018D01*
X003238Y008158D01*
X002858Y008158D01*
X002858Y008218D01*
X002798Y008218D01*
X002798Y008598D01*
X002659Y008598D01*
X002798Y008570D02*
X002858Y008570D01*
X002858Y008598D02*
X002858Y008218D01*
X003238Y008218D01*
X003238Y008358D01*
X002998Y008598D01*
X002858Y008598D01*
X002858Y008471D02*
X002798Y008471D01*
X002798Y008373D02*
X002858Y008373D01*
X002858Y008274D02*
X002798Y008274D01*
X002798Y008176D02*
X000000Y008176D01*
X000000Y008274D02*
X002418Y008274D01*
X002433Y008373D02*
X000000Y008373D01*
X000000Y008471D02*
X002532Y008471D01*
X002418Y008077D02*
X000000Y008077D01*
X000000Y007979D02*
X002458Y007979D01*
X002556Y007880D02*
X000000Y007880D01*
X000000Y007782D02*
X002538Y007782D01*
X002440Y007683D02*
X000000Y007683D01*
X000000Y007585D02*
X002341Y007585D01*
X002243Y007486D02*
X000000Y007486D01*
X000000Y007388D02*
X002203Y007388D01*
X002203Y007289D02*
X000000Y007289D01*
X000000Y007191D02*
X002203Y007191D01*
X002203Y007092D02*
X000000Y007092D01*
X000000Y006994D02*
X002203Y006994D01*
X002237Y006895D02*
X000000Y006895D01*
X000000Y006797D02*
X002336Y006797D01*
X002434Y006698D02*
X000000Y006698D01*
X000000Y006600D02*
X002533Y006600D01*
X003124Y006600D02*
X005519Y006600D01*
X005517Y006501D02*
X000000Y006501D01*
X000000Y006403D02*
X005519Y006403D01*
X005519Y006304D02*
X000000Y006304D01*
X000000Y006206D02*
X005519Y006206D01*
X005519Y006107D02*
X000000Y006107D01*
X000000Y006009D02*
X002569Y006009D01*
X002659Y006098D02*
X002418Y005858D01*
X002418Y005718D01*
X002798Y005718D01*
X002798Y005658D01*
X002418Y005658D01*
X002418Y005518D01*
X002624Y005313D01*
X002569Y005313D01*
X002203Y004947D01*
X002203Y004429D01*
X002569Y004063D01*
X003087Y004063D01*
X003453Y004429D01*
X003453Y004947D01*
X003087Y005313D01*
X003033Y005313D01*
X003238Y005518D01*
X003238Y005658D01*
X002858Y005658D01*
X002858Y005718D01*
X002798Y005718D01*
X002798Y006098D01*
X002659Y006098D01*
X002798Y006009D02*
X002858Y006009D01*
X002858Y006098D02*
X002858Y005718D01*
X003238Y005718D01*
X003238Y005858D01*
X002998Y006098D01*
X002858Y006098D01*
X002858Y005910D02*
X002798Y005910D01*
X002798Y005812D02*
X002858Y005812D01*
X002858Y005713D02*
X005519Y005713D01*
X005519Y005615D02*
X003238Y005615D01*
X003236Y005516D02*
X005519Y005516D01*
X005519Y005418D02*
X003138Y005418D01*
X003039Y005319D02*
X005519Y005319D01*
X005519Y005221D02*
X003179Y005221D01*
X003278Y005122D02*
X005519Y005122D01*
X005519Y005024D02*
X003376Y005024D01*
X003453Y004925D02*
X005519Y004925D01*
X005519Y004827D02*
X003453Y004827D01*
X003453Y004728D02*
X005519Y004728D01*
X005519Y004630D02*
X003453Y004630D01*
X003453Y004531D02*
X005519Y004531D01*
X005519Y004433D02*
X003453Y004433D01*
X003358Y004334D02*
X005535Y004334D01*
X005576Y004236D02*
X003260Y004236D01*
X003161Y004137D02*
X005623Y004137D01*
X005722Y004039D02*
X000000Y004039D01*
X000000Y004137D02*
X002495Y004137D01*
X002397Y004236D02*
X000000Y004236D01*
X000000Y004334D02*
X002298Y004334D01*
X002203Y004433D02*
X000000Y004433D01*
X000000Y004531D02*
X002203Y004531D01*
X002203Y004630D02*
X000000Y004630D01*
X000000Y004728D02*
X002203Y004728D01*
X002203Y004827D02*
X000000Y004827D01*
X000000Y004925D02*
X002203Y004925D01*
X002280Y005024D02*
X000000Y005024D01*
X000000Y005122D02*
X002379Y005122D01*
X002477Y005221D02*
X000000Y005221D01*
X000000Y005319D02*
X002617Y005319D01*
X002519Y005418D02*
X000000Y005418D01*
X000000Y005516D02*
X002420Y005516D01*
X002418Y005615D02*
X000000Y005615D01*
X000000Y005713D02*
X002798Y005713D01*
X002471Y005910D02*
X000000Y005910D01*
X000000Y005812D02*
X002418Y005812D01*
X003087Y006009D02*
X005519Y006009D01*
X005519Y005910D02*
X003186Y005910D01*
X003238Y005812D02*
X005519Y005812D01*
X005542Y006698D02*
X003222Y006698D01*
X003321Y006797D02*
X005587Y006797D01*
X005637Y006895D02*
X003419Y006895D01*
X003453Y006994D02*
X005685Y006994D01*
X005712Y007092D02*
X003453Y007092D01*
X003453Y007191D02*
X005729Y007191D01*
X005735Y007289D02*
X003453Y007289D01*
X003453Y007388D02*
X005733Y007388D01*
X005732Y007486D02*
X003414Y007486D01*
X003315Y007585D02*
X005730Y007585D01*
X005728Y007683D02*
X003217Y007683D01*
X003118Y007782D02*
X005726Y007782D01*
X005725Y007880D02*
X003100Y007880D01*
X003199Y007979D02*
X005723Y007979D01*
X005721Y008077D02*
X003238Y008077D01*
X003238Y008274D02*
X005718Y008274D01*
X005720Y008176D02*
X002858Y008176D01*
X003125Y008471D02*
X005714Y008471D01*
X005716Y008373D02*
X003223Y008373D01*
X003026Y008570D02*
X005713Y008570D01*
X008510Y012214D02*
X011758Y012214D01*
X012682Y013495D02*
X000000Y013495D01*
X000000Y013593D02*
X012682Y013593D01*
X012682Y013692D02*
X000000Y013692D01*
X000000Y013790D02*
X012682Y013790D01*
X012682Y013889D02*
X000000Y013889D01*
X000000Y013987D02*
X012682Y013987D01*
X012682Y014086D02*
X000000Y014086D01*
X000000Y014184D02*
X012682Y014184D01*
X012682Y014283D02*
X000000Y014283D01*
X000052Y014349D02*
X000090Y014338D01*
X001060Y014338D01*
X001060Y014888D01*
X001160Y014888D01*
X001160Y014338D01*
X002130Y014338D01*
X002168Y014349D01*
X002202Y014368D01*
X002230Y014396D01*
X002250Y014430D01*
X002260Y014469D01*
X002260Y014888D01*
X001160Y014888D01*
X001160Y014988D01*
X002260Y014988D01*
X002260Y015408D01*
X002250Y015446D01*
X002230Y015480D01*
X002202Y015508D01*
X002168Y015528D01*
X002130Y015538D01*
X001160Y015538D01*
X001160Y014988D01*
X001060Y014988D01*
X001060Y014888D01*
X000000Y014888D01*
X000000Y014988D01*
X001060Y014988D01*
X001060Y015538D01*
X000090Y015538D01*
X000052Y015528D01*
X000018Y015508D01*
X000000Y014972D02*
X001060Y014972D01*
X001060Y014874D02*
X001160Y014874D01*
X001160Y014972D02*
X012682Y014972D01*
X012682Y014874D02*
X002260Y014874D01*
X002260Y014775D02*
X012682Y014775D01*
X012682Y014677D02*
X002260Y014677D01*
X002260Y014578D02*
X012682Y014578D01*
X012682Y014480D02*
X002260Y014480D01*
X002215Y014381D02*
X012682Y014381D01*
X012682Y015071D02*
X002260Y015071D01*
X002260Y015169D02*
X012682Y015169D01*
X012682Y015268D02*
X002260Y015268D01*
X002260Y015366D02*
X012682Y015366D01*
X012682Y015465D02*
X002239Y015465D01*
X001160Y015465D02*
X001060Y015465D01*
X001060Y015366D02*
X001160Y015366D01*
X001160Y015268D02*
X001060Y015268D01*
X001060Y015169D02*
X001160Y015169D01*
X001160Y015071D02*
X001060Y015071D01*
X001060Y014775D02*
X001160Y014775D01*
X001160Y014677D02*
X001060Y014677D01*
X001060Y014578D02*
X001160Y014578D01*
X001160Y014480D02*
X001060Y014480D01*
X001060Y014381D02*
X001160Y014381D01*
X000052Y014349D02*
X000018Y014368D01*
X000000Y014386D01*
X000000Y014381D02*
X000005Y014381D01*
X000000Y017829D02*
X000052Y017829D01*
X001060Y017829D02*
X001160Y017829D01*
X001160Y017927D02*
X001060Y017927D01*
X001060Y018026D02*
X001160Y018026D01*
X001160Y018124D02*
X001060Y018124D01*
X001060Y018223D02*
X001160Y018223D01*
X001160Y018321D02*
X001060Y018321D01*
X001060Y018617D02*
X001160Y018617D01*
X001160Y018715D02*
X001060Y018715D01*
X001060Y018814D02*
X001160Y018814D01*
X001160Y018912D02*
X001060Y018912D01*
X001060Y019011D02*
X001160Y019011D01*
X000000Y019996D02*
X042913Y019996D01*
X042913Y020094D02*
X000000Y020094D01*
X000000Y020193D02*
X042913Y020193D01*
X042913Y020291D02*
X000000Y020291D01*
X000000Y020390D02*
X042913Y020390D01*
X040945Y020488D02*
X000000Y020488D01*
X000000Y020587D02*
X040945Y020587D01*
X040945Y020685D02*
X000000Y020685D01*
X000000Y020784D02*
X040945Y020784D01*
X005919Y003842D02*
X000000Y003842D01*
X000000Y003940D02*
X005820Y003940D01*
X006017Y003743D02*
X000000Y003743D01*
X000000Y003645D02*
X006116Y003645D01*
X006214Y003546D02*
X003050Y003546D01*
X002998Y003598D02*
X003238Y003358D01*
X003238Y003218D01*
X002858Y003218D01*
X002858Y003598D01*
X002998Y003598D01*
X002858Y003546D02*
X002798Y003546D01*
X002798Y003598D02*
X002659Y003598D01*
X002418Y003358D01*
X002418Y003218D01*
X002798Y003218D01*
X002798Y003598D01*
X002798Y003448D02*
X002858Y003448D01*
X002858Y003349D02*
X002798Y003349D01*
X002798Y003251D02*
X002858Y003251D01*
X003148Y003448D02*
X006313Y003448D01*
X006411Y003349D02*
X003238Y003349D01*
X003238Y003251D02*
X006510Y003251D01*
X006608Y003152D02*
X003238Y003152D01*
X003238Y003054D02*
X006707Y003054D01*
X006900Y002955D02*
X003175Y002955D01*
X002580Y002857D02*
X000000Y002857D01*
X000000Y002955D02*
X002481Y002955D01*
X002418Y003054D02*
X000000Y003054D01*
X000000Y003152D02*
X002418Y003152D01*
X002418Y003251D02*
X000000Y003251D01*
X000000Y003349D02*
X002418Y003349D01*
X002508Y003448D02*
X000000Y003448D01*
X000000Y003546D02*
X002607Y003546D01*
X002515Y002758D02*
X000000Y002758D01*
X000000Y002660D02*
X002416Y002660D01*
X002318Y002561D02*
X000000Y002561D01*
X000000Y002463D02*
X002219Y002463D01*
X002203Y002364D02*
X000000Y002364D01*
X000000Y002266D02*
X002203Y002266D01*
X002203Y002167D02*
X000000Y002167D01*
X000000Y002069D02*
X002203Y002069D01*
X002203Y001970D02*
X000000Y001970D01*
X000000Y001872D02*
X002261Y001872D01*
X002359Y001773D02*
X000000Y001773D01*
X000000Y001675D02*
X002458Y001675D01*
X002556Y001576D02*
X000000Y001576D01*
D17*
X000774Y000883D03*
X000774Y002361D03*
X000774Y004330D03*
X000774Y006298D03*
X000774Y008267D03*
X000774Y010235D03*
X002560Y010802D03*
X001966Y011419D03*
X002565Y011978D03*
X003448Y012026D03*
X003489Y010846D03*
X000774Y012204D03*
X000374Y014972D03*
X001574Y014972D03*
X001674Y018472D03*
X000474Y018472D03*
X000774Y020356D03*
X001876Y020356D03*
X003845Y020356D03*
X005813Y020356D03*
X007782Y020356D03*
X009750Y020356D03*
X011719Y020356D03*
X013687Y020356D03*
X015656Y020356D03*
X017624Y020356D03*
X019593Y020356D03*
X021561Y020356D03*
X023530Y020356D03*
X025498Y020356D03*
X027467Y020356D03*
X029435Y020356D03*
X031404Y020356D03*
X033372Y020356D03*
X035341Y020356D03*
X036002Y019709D03*
X037309Y020356D03*
X037971Y019709D03*
X039278Y020356D03*
X039939Y019709D03*
X038955Y018725D03*
X039939Y017741D03*
X041247Y018434D03*
X042247Y018434D03*
X036987Y018725D03*
X035018Y018725D03*
X039939Y015772D03*
X041247Y014934D03*
X042247Y014934D03*
X039939Y013804D03*
X038955Y012820D03*
X037971Y011835D03*
X039939Y011835D03*
X040924Y010851D03*
X041908Y009867D03*
X040924Y008883D03*
X041908Y007898D03*
X040924Y006914D03*
X041908Y005930D03*
X040924Y004946D03*
X041908Y003961D03*
X040924Y002977D03*
X041908Y001993D03*
X041246Y000883D03*
X039278Y000883D03*
X037309Y000883D03*
X035341Y000883D03*
X033372Y000883D03*
X032388Y001377D03*
X031404Y000883D03*
X030420Y001377D03*
X029435Y000883D03*
X028451Y001377D03*
X027467Y000883D03*
X025498Y000883D03*
X023530Y000883D03*
X021561Y000883D03*
X019593Y000883D03*
X017624Y000883D03*
X015656Y000883D03*
X013484Y000694D03*
X012884Y000694D03*
X012284Y000694D03*
X011684Y000694D03*
X011084Y000694D03*
X011084Y001294D03*
X011684Y001294D03*
X012284Y001294D03*
X012884Y001294D03*
X013484Y001294D03*
X013484Y001994D03*
X012884Y001994D03*
X012284Y001994D03*
X011684Y001994D03*
X011084Y001994D03*
X011084Y002694D03*
X011684Y002694D03*
X012284Y002694D03*
X012884Y002694D03*
X013484Y002694D03*
X013484Y003294D03*
X012884Y003294D03*
X012284Y003294D03*
X011684Y003294D03*
X011084Y003294D03*
X009750Y000883D03*
X007782Y000883D03*
X005813Y000883D03*
X029435Y002361D03*
X031404Y002361D03*
X033372Y002361D03*
X041908Y011835D03*
X040924Y012820D03*
X036597Y014957D03*
X035062Y013623D03*
X033313Y013673D03*
X034297Y014657D03*
X034297Y012689D03*
D18*
X036077Y014407D03*
X036056Y015496D03*
X038131Y014964D03*
X037213Y017134D03*
X037183Y017922D03*
X029361Y015112D03*
X023568Y015050D03*
X023068Y014750D03*
X020468Y016550D03*
X018938Y016120D03*
X016358Y016940D03*
X017588Y017700D03*
X019868Y018250D03*
X020738Y019290D03*
X021508Y019280D03*
X022628Y019350D03*
X024617Y019409D03*
X015534Y015810D03*
X014634Y015810D03*
X012567Y014792D03*
X014549Y013134D03*
X011331Y012856D03*
X010489Y012309D03*
X009664Y012433D03*
X009861Y011770D03*
X009954Y013123D03*
X009734Y014910D03*
X008734Y014910D03*
X007734Y014910D03*
X005466Y014479D03*
X004696Y014479D03*
X006410Y013469D03*
X011034Y017210D03*
X009834Y018010D03*
X011734Y018310D03*
X013234Y019210D03*
X005171Y018673D03*
X003661Y018703D03*
X018719Y011904D03*
X012511Y008708D03*
X003552Y009141D03*
X010174Y003661D03*
X014204Y003671D03*
X014511Y001388D03*
X027096Y005026D03*
X027807Y005021D03*
X029299Y005809D03*
X030924Y005809D03*
X033705Y005204D03*
X035757Y005818D03*
X035206Y006326D03*
X035207Y007343D03*
X037760Y005784D03*
X038990Y006222D03*
X039008Y007223D03*
X039012Y008228D03*
X039014Y009237D03*
X038395Y009598D03*
X036378Y009606D03*
X035212Y009349D03*
X033700Y009604D03*
X032957Y009595D03*
X032039Y009258D03*
X029568Y009798D03*
X029549Y009059D03*
X027759Y009051D03*
X027779Y009753D03*
X027702Y008466D03*
X029922Y007321D03*
X036177Y002892D03*
X036365Y001566D03*
X034235Y001736D03*
X039495Y003243D03*
X039490Y003937D03*
D19*
X039634Y002310D03*
X033034Y007010D03*
X032032Y007592D03*
X029034Y007510D03*
X026634Y007010D03*
X027734Y011010D03*
X026434Y011410D03*
X027534Y012010D03*
X027934Y014110D03*
X024434Y015110D03*
X022534Y016510D03*
X021034Y014910D03*
X023034Y013110D03*
X017134Y012910D03*
X017134Y013510D03*
X015934Y012010D03*
X014134Y011010D03*
X011634Y007510D03*
X008134Y006010D03*
X007334Y005310D03*
X007634Y004510D03*
X004376Y002297D03*
X006307Y010499D03*
X017034Y015310D03*
X012734Y016910D03*
X023914Y018940D03*
X035556Y017910D03*
X033134Y012810D03*
D20*
X027734Y007110D02*
X026634Y008210D01*
X024834Y008210D01*
X024634Y007510D02*
X024634Y007010D01*
X025634Y006010D01*
X025634Y004010D01*
X026134Y003510D01*
X032134Y003510D01*
X032634Y004010D01*
X032634Y006610D01*
X033034Y007010D01*
X034634Y005410D01*
X034634Y003010D01*
X035324Y002320D01*
X036004Y002300D01*
X036434Y002310D01*
X039634Y002310D01*
X028884Y004635D02*
X028834Y004685D01*
X028834Y005210D01*
X027734Y006310D01*
X027734Y007110D01*
X024634Y007510D02*
X011634Y007510D01*
D21*
X013127Y012954D03*
X027027Y014854D03*
X028884Y004635D03*
D22*
X014173Y005906D02*
X011024Y005906D01*
X008661Y003543D01*
X007087Y003543D01*
X006134Y004496D01*
X006134Y006510D01*
X006291Y006833D01*
X006352Y007183D01*
X006296Y010399D01*
X006307Y010499D01*
X027027Y014854D02*
X027027Y017903D01*
X027634Y018510D01*
X029837Y018510D01*
X029913Y018433D01*
D23*
X029913Y017433D02*
X029913Y015730D01*
X031134Y014510D01*
X031534Y014510D01*
X031634Y014610D01*
X030934Y013910D02*
X030634Y013610D01*
X030934Y013910D02*
X032534Y013910D01*
X033034Y014410D01*
X033034Y016710D01*
X032310Y017433D01*
X031913Y017433D01*
X027934Y014110D02*
X027534Y013710D01*
X027534Y012010D01*
X026934Y011410D01*
X026434Y011410D01*
X023874Y009750D02*
X018894Y009750D01*
X017634Y011010D01*
X017634Y012010D01*
X017134Y012510D01*
X016634Y012510D01*
X016134Y013010D01*
X016134Y014410D01*
X017034Y015310D01*
X017717Y014567D02*
X020079Y014567D01*
X020472Y014173D01*
X020477Y014173D01*
X020650Y014000D01*
X024124Y014000D01*
X024134Y014010D01*
X024156Y014032D01*
X024434Y014310D01*
X024434Y015110D01*
X020472Y017717D02*
X019685Y016929D01*
X018110Y016929D01*
X017323Y016142D01*
X016142Y016142D01*
X015748Y016535D01*
X014173Y016535D01*
X013648Y016010D01*
X013634Y016010D01*
X013634Y013461D01*
X013127Y012954D01*
X013127Y016417D01*
X012734Y016910D01*
X012834Y017010D01*
X017134Y013984D02*
X017717Y014567D01*
X017134Y013984D02*
X017134Y013510D01*
X013127Y012954D02*
X010634Y010461D01*
X010634Y010010D01*
X010134Y009510D01*
X010134Y009010D01*
X008134Y007010D01*
X008134Y006010D01*
X020472Y017717D02*
X022835Y017717D01*
X023434Y018316D01*
X023914Y018940D01*
D24*
X026134Y018410D02*
X026134Y014510D01*
X023334Y011710D01*
X021340Y011710D01*
X021090Y011460D01*
X025134Y011510D02*
X025134Y009210D01*
X024634Y008710D01*
X015534Y008710D01*
X015034Y009210D01*
X015034Y010710D01*
X014834Y010910D01*
X014234Y010910D01*
X014134Y011010D01*
X014634Y010510D01*
X014634Y009010D01*
X015334Y008210D01*
X024834Y008210D01*
X027134Y010510D01*
X027634Y010510D01*
X027734Y010610D01*
X027734Y011010D01*
X027027Y013403D02*
X025134Y011510D01*
X027027Y013403D02*
X027027Y014854D01*
X032828Y019316D02*
X034234Y017910D01*
X035556Y017910D01*
X032828Y019316D02*
X027040Y019316D01*
X026134Y018410D01*
D25*
X031634Y014610D03*
X030634Y013610D03*
X029509Y008385D03*
X030134Y004510D03*
X014173Y005906D03*
X006311Y010503D03*
X008450Y011640D03*
X008150Y012740D03*
X014034Y017910D03*
D26*
X008450Y011640D02*
X007403Y010513D01*
X006311Y010503D01*
D27*
X021090Y011460D03*
M02*
