G75*
G70*
%OFA0B0*%
%FSLAX24Y24*%
%IPPOS*%
%LPD*%
%AMOC8*
5,1,8,0,0,1.08239X$1,22.5*
%
%ADD10C,0.0520*%
%ADD11C,0.0594*%
%ADD12C,0.0560*%
%ADD13C,0.0780*%
%ADD14C,0.0440*%
%ADD15C,0.0475*%
%ADD16C,0.0317*%
%ADD17C,0.0160*%
%ADD18C,0.0396*%
D10*
X009659Y006225D03*
X009659Y007225D03*
X009659Y008725D03*
X009659Y009725D03*
X009659Y011225D03*
X009659Y012225D03*
D11*
X023225Y013787D03*
X030705Y013787D03*
X030705Y010047D03*
X030705Y006307D03*
X023225Y006307D03*
D12*
X036744Y021470D03*
X037744Y021470D03*
X038744Y021470D03*
X038744Y022470D03*
X037744Y022470D03*
X036744Y022470D03*
D13*
X009752Y014547D03*
D14*
X025243Y016879D03*
X027243Y016879D03*
X026243Y017879D03*
D15*
X017970Y016879D03*
X017244Y016581D03*
X012904Y016039D03*
X012344Y016638D03*
X011727Y016044D03*
X011771Y015115D03*
X012951Y015156D03*
X007605Y014272D03*
X007605Y012304D03*
X007605Y010335D03*
X007605Y008367D03*
X007605Y006398D03*
X007605Y004920D03*
X012644Y004920D03*
X014613Y004920D03*
X016581Y004920D03*
X017915Y004731D03*
X018515Y004731D03*
X019115Y004731D03*
X019715Y004731D03*
X020315Y004731D03*
X020315Y005331D03*
X019715Y005331D03*
X019115Y005331D03*
X018515Y005331D03*
X017915Y005331D03*
X017915Y006031D03*
X018515Y006031D03*
X019115Y006031D03*
X019715Y006031D03*
X020315Y006031D03*
X020315Y006731D03*
X019715Y006731D03*
X019115Y006731D03*
X018515Y006731D03*
X017915Y006731D03*
X017915Y007331D03*
X018515Y007331D03*
X019115Y007331D03*
X019715Y007331D03*
X020315Y007331D03*
X022487Y004920D03*
X024455Y004920D03*
X026424Y004920D03*
X028392Y004920D03*
X030361Y004920D03*
X032329Y004920D03*
X034298Y004920D03*
X035282Y005414D03*
X036266Y004920D03*
X037251Y005414D03*
X038235Y004920D03*
X039219Y005414D03*
X040203Y004920D03*
X042172Y004920D03*
X044140Y004920D03*
X046109Y004920D03*
X048077Y004920D03*
X048739Y006030D03*
X047755Y007014D03*
X048739Y007998D03*
X047755Y008983D03*
X048739Y009967D03*
X047755Y010951D03*
X048739Y011935D03*
X047755Y012920D03*
X048739Y013904D03*
X047755Y014888D03*
X048739Y015872D03*
X047755Y016857D03*
X046770Y017841D03*
X045786Y016857D03*
X044802Y015872D03*
X046770Y015872D03*
X041893Y017660D03*
X040144Y017710D03*
X041128Y018694D03*
X043428Y018994D03*
X046770Y019809D03*
X048078Y018971D03*
X049078Y018971D03*
X046770Y021778D03*
X048078Y022471D03*
X049078Y022471D03*
X046770Y023746D03*
X046109Y024393D03*
X044802Y023746D03*
X044140Y024393D03*
X042833Y023746D03*
X042172Y024393D03*
X040203Y024393D03*
X038235Y024393D03*
X036266Y024393D03*
X034298Y024393D03*
X032329Y024393D03*
X030361Y024393D03*
X028392Y024393D03*
X026424Y024393D03*
X024455Y024393D03*
X022487Y024393D03*
X020518Y024393D03*
X018550Y024393D03*
X016581Y024393D03*
X014613Y024393D03*
X012644Y024393D03*
X010676Y024393D03*
X008707Y024393D03*
X007605Y024393D03*
X007305Y022509D03*
X008505Y022509D03*
X008405Y019009D03*
X007205Y019009D03*
X007605Y018209D03*
X007605Y016241D03*
X036266Y006398D03*
X038235Y006398D03*
X040203Y006398D03*
X041128Y016726D03*
X041849Y022762D03*
X043818Y022762D03*
X045786Y022762D03*
D16*
X044014Y021959D03*
X044044Y021171D03*
X042387Y021947D03*
X042887Y019533D03*
X044782Y019001D03*
X042908Y018444D03*
X039965Y016847D03*
X036191Y019149D03*
X034765Y018147D03*
X031265Y019147D03*
X030399Y019087D03*
X029899Y018787D03*
X027865Y018947D03*
X025769Y020157D03*
X027299Y020587D03*
X029365Y020547D03*
X026699Y022287D03*
X027569Y023327D03*
X028339Y023317D03*
X029459Y023387D03*
X030745Y022977D03*
X031448Y023446D03*
X024419Y021737D03*
X023189Y020977D03*
X022365Y019847D03*
X021465Y019847D03*
X019398Y018829D03*
X021380Y017171D03*
X022765Y016047D03*
X023965Y016947D03*
X023965Y017547D03*
X025550Y015941D03*
X029865Y017147D03*
X033265Y015447D03*
X034365Y016047D03*
X034565Y015047D03*
X036399Y013835D03*
X036380Y013096D03*
X034590Y013088D03*
X034610Y013790D03*
X034533Y012503D03*
X035865Y011547D03*
X036752Y011359D03*
X038863Y011629D03*
X039865Y011047D03*
X042038Y011380D03*
X042037Y010363D03*
X042588Y009855D03*
X044591Y009821D03*
X045821Y010259D03*
X045839Y011260D03*
X045843Y012265D03*
X045845Y013274D03*
X045226Y013635D03*
X043209Y013643D03*
X042043Y013386D03*
X040531Y013641D03*
X039788Y013632D03*
X038870Y013295D03*
X033465Y011047D03*
X036130Y009846D03*
X037755Y009846D03*
X040536Y009241D03*
X043008Y006929D03*
X043196Y005603D03*
X041026Y005763D03*
X046465Y006347D03*
X046326Y007280D03*
X046321Y007974D03*
X034638Y009058D03*
X033927Y009063D03*
X021035Y007708D03*
X017005Y007698D03*
X014465Y008547D03*
X014165Y009347D03*
X014965Y010047D03*
X018465Y011547D03*
X019342Y012745D03*
X015405Y013138D03*
X015405Y013908D03*
X012397Y011882D03*
X011465Y012047D03*
X020965Y015047D03*
X016565Y018947D03*
X015565Y018947D03*
X014565Y018947D03*
X017865Y021247D03*
X016665Y022047D03*
X018565Y022347D03*
X020065Y023247D03*
X019565Y020947D03*
X023865Y019347D03*
X011207Y006334D03*
D17*
X006831Y004431D02*
X006831Y024903D01*
X047776Y024903D01*
X047776Y024509D01*
X049744Y024509D01*
X049744Y004037D01*
X009193Y004037D01*
X009193Y004431D01*
X006831Y004431D01*
X006831Y004513D02*
X049744Y004513D01*
X049744Y004671D02*
X006831Y004671D01*
X006831Y004830D02*
X049744Y004830D01*
X049744Y004988D02*
X006831Y004988D01*
X006831Y005147D02*
X049744Y005147D01*
X049744Y005305D02*
X006831Y005305D01*
X006831Y005464D02*
X049744Y005464D01*
X049744Y005622D02*
X030860Y005622D01*
X030843Y005615D02*
X031097Y005720D01*
X031291Y005915D01*
X031397Y006169D01*
X031397Y006444D01*
X031291Y006699D01*
X031097Y006893D01*
X030843Y006999D01*
X030567Y006999D01*
X030313Y006893D01*
X030118Y006699D01*
X030013Y006444D01*
X030013Y006169D01*
X030118Y005915D01*
X030313Y005720D01*
X030567Y005615D01*
X030843Y005615D01*
X030550Y005622D02*
X023379Y005622D01*
X023362Y005615D02*
X023617Y005720D01*
X023811Y005915D01*
X023916Y006169D01*
X023916Y006444D01*
X023811Y006699D01*
X023617Y006893D01*
X023362Y006999D01*
X023087Y006999D01*
X022833Y006893D01*
X022638Y006699D01*
X022533Y006444D01*
X022533Y006169D01*
X022638Y005915D01*
X022833Y005720D01*
X023087Y005615D01*
X023362Y005615D01*
X023070Y005622D02*
X009916Y005622D01*
X010030Y005670D02*
X010215Y005854D01*
X010314Y006095D01*
X010314Y006355D01*
X010215Y006596D01*
X010030Y006780D01*
X009879Y006843D01*
X009890Y006848D01*
X009946Y006889D01*
X009995Y006938D01*
X010036Y006994D01*
X010067Y007056D01*
X010088Y007122D01*
X010099Y007190D01*
X010099Y007225D01*
X010099Y007259D01*
X010088Y007328D01*
X010067Y007394D01*
X010036Y007455D01*
X009995Y007511D01*
X009946Y007560D01*
X009890Y007601D01*
X009828Y007633D01*
X009762Y007654D01*
X009694Y007665D01*
X009659Y007665D01*
X009625Y007665D01*
X009556Y007654D01*
X009490Y007633D01*
X009429Y007601D01*
X009373Y007560D01*
X009324Y007511D01*
X009283Y007455D01*
X009252Y007394D01*
X009230Y007328D01*
X009219Y007259D01*
X009219Y007225D01*
X009659Y007225D01*
X009659Y007225D01*
X009659Y007665D01*
X009659Y007225D01*
X009659Y007225D01*
X009219Y007225D01*
X009219Y007190D01*
X009230Y007122D01*
X009252Y007056D01*
X009283Y006994D01*
X009324Y006938D01*
X009373Y006889D01*
X009429Y006848D01*
X009440Y006843D01*
X009288Y006780D01*
X009104Y006596D01*
X009004Y006355D01*
X009004Y006095D01*
X009104Y005854D01*
X009288Y005670D01*
X009529Y005570D01*
X009790Y005570D01*
X010030Y005670D01*
X010141Y005781D02*
X022772Y005781D01*
X022628Y005939D02*
X011595Y005939D01*
X011521Y005865D02*
X011677Y006021D01*
X011761Y006224D01*
X011761Y006444D01*
X011677Y006648D01*
X011521Y006804D01*
X011318Y006888D01*
X011097Y006888D01*
X010894Y006804D01*
X010738Y006648D01*
X010654Y006444D01*
X010654Y006224D01*
X010738Y006021D01*
X010894Y005865D01*
X011097Y005781D01*
X011318Y005781D01*
X011521Y005865D01*
X011709Y006098D02*
X022563Y006098D01*
X022533Y006256D02*
X011761Y006256D01*
X011761Y006415D02*
X022533Y006415D01*
X022586Y006573D02*
X011708Y006573D01*
X011593Y006732D02*
X022671Y006732D01*
X022830Y006890D02*
X009947Y006890D01*
X010063Y007049D02*
X049744Y007049D01*
X049744Y007207D02*
X010099Y007207D01*
X010099Y007225D02*
X009659Y007225D01*
X010099Y007225D01*
X010076Y007366D02*
X049744Y007366D01*
X049744Y007524D02*
X009982Y007524D01*
X009659Y007524D02*
X009659Y007524D01*
X009659Y007366D02*
X009659Y007366D01*
X009659Y007225D02*
X009659Y007225D01*
X009242Y007366D02*
X006831Y007366D01*
X006831Y007524D02*
X009336Y007524D01*
X009219Y007207D02*
X006831Y007207D01*
X006831Y007049D02*
X009255Y007049D01*
X009372Y006890D02*
X006831Y006890D01*
X006831Y006732D02*
X009240Y006732D01*
X009095Y006573D02*
X006831Y006573D01*
X006831Y006415D02*
X009029Y006415D01*
X009004Y006256D02*
X006831Y006256D01*
X006831Y006098D02*
X009004Y006098D01*
X009069Y005939D02*
X006831Y005939D01*
X006831Y005781D02*
X009177Y005781D01*
X009403Y005622D02*
X006831Y005622D01*
X009193Y004354D02*
X049744Y004354D01*
X049744Y004196D02*
X009193Y004196D01*
X009193Y004037D02*
X049744Y004037D01*
X049744Y005781D02*
X031157Y005781D01*
X031301Y005939D02*
X046090Y005939D01*
X046151Y005877D02*
X046355Y005793D01*
X046575Y005793D01*
X046778Y005877D01*
X046934Y006033D01*
X047019Y006237D01*
X047019Y006457D01*
X046934Y006660D01*
X046778Y006816D01*
X046575Y006901D01*
X046355Y006901D01*
X046151Y006816D01*
X045995Y006660D01*
X045911Y006457D01*
X045911Y006237D01*
X045995Y006033D01*
X046151Y005877D01*
X045969Y006098D02*
X031367Y006098D01*
X031397Y006256D02*
X045911Y006256D01*
X045911Y006415D02*
X031397Y006415D01*
X031343Y006573D02*
X045959Y006573D01*
X046066Y006732D02*
X031259Y006732D01*
X031100Y006890D02*
X046329Y006890D01*
X046600Y006890D02*
X049744Y006890D01*
X049744Y006732D02*
X046863Y006732D01*
X046970Y006573D02*
X049744Y006573D01*
X049744Y006415D02*
X047019Y006415D01*
X047019Y006256D02*
X049744Y006256D01*
X049744Y006098D02*
X046961Y006098D01*
X046840Y005939D02*
X049744Y005939D01*
X049744Y007683D02*
X006831Y007683D01*
X006831Y007841D02*
X049744Y007841D01*
X049744Y008000D02*
X037193Y008000D01*
X037301Y008044D02*
X037468Y008211D01*
X037558Y008429D01*
X037558Y008665D01*
X037468Y008883D01*
X037301Y009050D01*
X037083Y009140D01*
X036847Y009140D01*
X036629Y009050D01*
X036462Y008883D01*
X036372Y008665D01*
X036372Y008429D01*
X036462Y008211D01*
X036629Y008044D01*
X036847Y007954D01*
X037083Y007954D01*
X037301Y008044D01*
X037415Y008158D02*
X049744Y008158D01*
X049744Y008317D02*
X037511Y008317D01*
X037558Y008475D02*
X049744Y008475D01*
X049744Y008634D02*
X037558Y008634D01*
X037505Y008792D02*
X049744Y008792D01*
X049744Y008951D02*
X037400Y008951D01*
X037157Y009109D02*
X049744Y009109D01*
X049744Y009268D02*
X014719Y009268D01*
X014719Y009237D02*
X014719Y009457D01*
X014672Y009569D01*
X014855Y009493D01*
X015075Y009493D01*
X015278Y009577D01*
X015434Y009733D01*
X015519Y009937D01*
X015519Y010157D01*
X015434Y010360D01*
X015278Y010516D01*
X015075Y010601D01*
X014855Y010601D01*
X014651Y010516D01*
X014495Y010360D01*
X014411Y010157D01*
X014411Y009937D01*
X014457Y009825D01*
X014275Y009901D01*
X014055Y009901D01*
X013851Y009816D01*
X013695Y009660D01*
X013611Y009457D01*
X013611Y009237D01*
X013695Y009033D01*
X013851Y008877D01*
X013980Y008824D01*
X013911Y008657D01*
X013911Y008437D01*
X013995Y008233D01*
X014151Y008077D01*
X014355Y007993D01*
X014575Y007993D01*
X014778Y008077D01*
X014934Y008233D01*
X015019Y008437D01*
X015019Y008657D01*
X014934Y008860D01*
X014778Y009016D01*
X014649Y009070D01*
X014719Y009237D01*
X014666Y009109D02*
X035313Y009109D01*
X035379Y009175D02*
X035212Y009008D01*
X035122Y008790D01*
X035122Y008554D01*
X035212Y008336D01*
X035379Y008169D01*
X035597Y008079D01*
X035833Y008079D01*
X036051Y008169D01*
X036218Y008336D01*
X036308Y008554D01*
X036308Y008790D01*
X036218Y009008D01*
X036051Y009175D01*
X035833Y009265D01*
X035597Y009265D01*
X035379Y009175D01*
X035188Y008951D02*
X014844Y008951D01*
X014963Y008792D02*
X035123Y008792D01*
X035122Y008634D02*
X015019Y008634D01*
X015019Y008475D02*
X035154Y008475D01*
X035231Y008317D02*
X014969Y008317D01*
X014859Y008158D02*
X035406Y008158D01*
X036024Y008158D02*
X036515Y008158D01*
X036418Y008317D02*
X036198Y008317D01*
X036275Y008475D02*
X036372Y008475D01*
X036372Y008634D02*
X036308Y008634D01*
X036307Y008792D02*
X036424Y008792D01*
X036530Y008951D02*
X036241Y008951D01*
X036116Y009109D02*
X036772Y009109D01*
X036736Y008000D02*
X014590Y008000D01*
X014339Y008000D02*
X006831Y008000D01*
X006831Y008158D02*
X009316Y008158D01*
X009288Y008170D02*
X009529Y008070D01*
X009790Y008070D01*
X010030Y008170D01*
X010215Y008354D01*
X010314Y008595D01*
X010314Y008855D01*
X010215Y009096D01*
X010030Y009280D01*
X009879Y009343D01*
X009890Y009348D01*
X009946Y009389D01*
X009995Y009438D01*
X010036Y009494D01*
X010067Y009556D01*
X010088Y009622D01*
X010099Y009690D01*
X010099Y009725D01*
X010099Y009759D01*
X010088Y009828D01*
X010067Y009894D01*
X010036Y009955D01*
X009995Y010011D01*
X009946Y010060D01*
X014411Y010060D01*
X014426Y009902D02*
X010063Y009902D01*
X010099Y009743D02*
X013778Y009743D01*
X013664Y009585D02*
X010076Y009585D01*
X010099Y009725D02*
X009659Y009725D01*
X009659Y009725D01*
X009219Y009725D01*
X009219Y009759D01*
X009230Y009828D01*
X009252Y009894D01*
X009283Y009955D01*
X009324Y010011D01*
X009373Y010060D01*
X009429Y010101D01*
X009490Y010133D01*
X009556Y010154D01*
X009625Y010165D01*
X009659Y010165D01*
X009659Y009725D01*
X009659Y009725D01*
X009219Y009725D01*
X009219Y009690D01*
X009230Y009622D01*
X009252Y009556D01*
X009283Y009494D01*
X009324Y009438D01*
X009373Y009389D01*
X009429Y009348D01*
X009440Y009343D01*
X009288Y009280D01*
X009104Y009096D01*
X009004Y008855D01*
X009004Y008595D01*
X009104Y008354D01*
X009288Y008170D01*
X009141Y008317D02*
X006831Y008317D01*
X006831Y008475D02*
X009054Y008475D01*
X009004Y008634D02*
X006831Y008634D01*
X006831Y008792D02*
X009004Y008792D01*
X009044Y008951D02*
X006831Y008951D01*
X006831Y009109D02*
X009117Y009109D01*
X009276Y009268D02*
X006831Y009268D01*
X006831Y009426D02*
X009336Y009426D01*
X009242Y009585D02*
X006831Y009585D01*
X006831Y009743D02*
X009219Y009743D01*
X009256Y009902D02*
X006831Y009902D01*
X006831Y010060D02*
X009372Y010060D01*
X009659Y010060D02*
X009659Y010060D01*
X009659Y010165D02*
X009659Y009725D01*
X010099Y009725D01*
X009983Y009426D02*
X013611Y009426D01*
X013611Y009268D02*
X010043Y009268D01*
X010201Y009109D02*
X013664Y009109D01*
X013778Y008951D02*
X010275Y008951D01*
X010314Y008792D02*
X013967Y008792D01*
X013911Y008634D02*
X010314Y008634D01*
X010265Y008475D02*
X013911Y008475D01*
X013961Y008317D02*
X010177Y008317D01*
X010002Y008158D02*
X014071Y008158D01*
X014719Y009426D02*
X020701Y009426D01*
X020668Y009440D02*
X020886Y009349D01*
X021122Y009349D01*
X021340Y009440D01*
X021507Y009607D01*
X021597Y009825D01*
X021597Y010060D01*
X030687Y010060D01*
X030687Y010065D02*
X030687Y010028D01*
X030723Y010028D01*
X030723Y009570D01*
X030743Y009570D01*
X030817Y009582D01*
X030888Y009605D01*
X030955Y009639D01*
X031016Y009683D01*
X031069Y009736D01*
X031113Y009797D01*
X031147Y009864D01*
X031170Y009935D01*
X031182Y010009D01*
X031182Y010028D01*
X030723Y010028D01*
X030723Y010065D01*
X030687Y010065D01*
X030687Y010524D01*
X030667Y010524D01*
X030593Y010512D01*
X030522Y010489D01*
X030455Y010455D01*
X030394Y010411D01*
X030341Y010357D01*
X030297Y010297D01*
X030263Y010230D01*
X030240Y010159D01*
X030228Y010084D01*
X030228Y010065D01*
X030687Y010065D01*
X030723Y010065D02*
X030723Y010524D01*
X030743Y010524D01*
X030817Y010512D01*
X030888Y010489D01*
X030955Y010455D01*
X031016Y010411D01*
X031069Y010357D01*
X031113Y010297D01*
X031147Y010230D01*
X031170Y010159D01*
X031182Y010084D01*
X031182Y010065D01*
X030723Y010065D01*
X030723Y010060D02*
X049744Y010060D01*
X049744Y009902D02*
X031159Y009902D01*
X031074Y009743D02*
X049744Y009743D01*
X049744Y009585D02*
X030825Y009585D01*
X030723Y009585D02*
X030687Y009585D01*
X030687Y009570D02*
X030687Y010028D01*
X030228Y010028D01*
X030228Y010009D01*
X030240Y009935D01*
X030263Y009864D01*
X030297Y009797D01*
X030341Y009736D01*
X030394Y009683D01*
X030455Y009639D01*
X030522Y009605D01*
X030593Y009582D01*
X030667Y009570D01*
X030687Y009570D01*
X030585Y009585D02*
X021485Y009585D01*
X021563Y009743D02*
X030336Y009743D01*
X030251Y009902D02*
X021597Y009902D01*
X021597Y010060D02*
X021507Y010278D01*
X021340Y010445D01*
X021122Y010536D01*
X020886Y010536D01*
X020668Y010445D01*
X020501Y010278D01*
X020411Y010060D01*
X015519Y010060D01*
X015504Y009902D02*
X020411Y009902D01*
X020411Y009825D02*
X020501Y009607D01*
X020668Y009440D01*
X020523Y009585D02*
X015286Y009585D01*
X015438Y009743D02*
X020445Y009743D01*
X020411Y009825D02*
X020411Y010060D01*
X020477Y010219D02*
X015493Y010219D01*
X015418Y010377D02*
X020600Y010377D01*
X020886Y010536D02*
X015232Y010536D01*
X014698Y010536D02*
X006831Y010536D01*
X006831Y010694D02*
X009264Y010694D01*
X009288Y010670D02*
X009529Y010570D01*
X009790Y010570D01*
X010030Y010670D01*
X010215Y010854D01*
X010314Y011095D01*
X010314Y011355D01*
X010215Y011596D01*
X010030Y011780D01*
X009879Y011843D01*
X009890Y011848D01*
X009946Y011889D01*
X009995Y011938D01*
X010036Y011994D01*
X010067Y012056D01*
X010088Y012122D01*
X010099Y012190D01*
X010099Y012225D01*
X010099Y012259D01*
X010088Y012328D01*
X010067Y012394D01*
X010036Y012455D01*
X009995Y012511D01*
X009946Y012560D01*
X009890Y012601D01*
X009828Y012633D01*
X009762Y012654D01*
X009694Y012665D01*
X009659Y012665D01*
X009625Y012665D01*
X009556Y012654D01*
X009490Y012633D01*
X009429Y012601D01*
X009373Y012560D01*
X009324Y012511D01*
X009283Y012455D01*
X009252Y012394D01*
X009230Y012328D01*
X009219Y012259D01*
X009219Y012225D01*
X009659Y012225D01*
X009659Y012225D01*
X009659Y012665D01*
X009659Y012225D01*
X009659Y012225D01*
X009219Y012225D01*
X009219Y012190D01*
X009230Y012122D01*
X009252Y012056D01*
X009283Y011994D01*
X009324Y011938D01*
X009373Y011889D01*
X009429Y011848D01*
X009440Y011843D01*
X009288Y011780D01*
X009104Y011596D01*
X009004Y011355D01*
X009004Y011095D01*
X009104Y010854D01*
X009288Y010670D01*
X009105Y010853D02*
X006831Y010853D01*
X006831Y011011D02*
X009039Y011011D01*
X009004Y011170D02*
X006831Y011170D01*
X006831Y011328D02*
X009004Y011328D01*
X009059Y011487D02*
X006831Y011487D01*
X006831Y011645D02*
X009153Y011645D01*
X009345Y011804D02*
X006831Y011804D01*
X006831Y011962D02*
X009306Y011962D01*
X009231Y012121D02*
X006831Y012121D01*
X006831Y012279D02*
X009222Y012279D01*
X009274Y012438D02*
X006831Y012438D01*
X006831Y012596D02*
X009422Y012596D01*
X009659Y012596D02*
X009659Y012596D01*
X009659Y012438D02*
X009659Y012438D01*
X009659Y012279D02*
X009659Y012279D01*
X009659Y012225D02*
X010099Y012225D01*
X009659Y012225D01*
X009659Y012225D01*
X010012Y011962D02*
X010911Y011962D01*
X010911Y011937D02*
X010995Y011733D01*
X011151Y011577D01*
X011355Y011493D01*
X011575Y011493D01*
X011778Y011577D01*
X011934Y011733D01*
X012019Y011937D01*
X012019Y012157D01*
X011934Y012360D01*
X011778Y012516D01*
X011575Y012601D01*
X011355Y012601D01*
X011151Y012516D01*
X010995Y012360D01*
X010911Y012157D01*
X010911Y011937D01*
X010966Y011804D02*
X009974Y011804D01*
X010165Y011645D02*
X011084Y011645D01*
X010314Y011328D02*
X017956Y011328D01*
X017995Y011233D02*
X017911Y011437D01*
X017911Y011657D01*
X017995Y011860D01*
X018151Y012016D01*
X018355Y012101D01*
X018575Y012101D01*
X018778Y012016D01*
X018934Y011860D01*
X019019Y011657D01*
X019019Y011437D01*
X018934Y011233D01*
X018778Y011077D01*
X018575Y010993D01*
X018355Y010993D01*
X018151Y011077D01*
X017995Y011233D01*
X018059Y011170D02*
X010314Y011170D01*
X010280Y011011D02*
X018312Y011011D01*
X018618Y011011D02*
X032911Y011011D01*
X032911Y010937D02*
X032995Y010733D01*
X033151Y010577D01*
X033355Y010493D01*
X033575Y010493D01*
X033778Y010577D01*
X033934Y010733D01*
X034019Y010937D01*
X034019Y011157D01*
X033934Y011360D01*
X033778Y011516D01*
X033575Y011601D01*
X033355Y011601D01*
X033151Y011516D01*
X032995Y011360D01*
X032911Y011157D01*
X032911Y010937D01*
X032946Y010853D02*
X010213Y010853D01*
X010055Y010694D02*
X033035Y010694D01*
X033252Y010536D02*
X021122Y010536D01*
X021408Y010377D02*
X030361Y010377D01*
X030259Y010219D02*
X021532Y010219D01*
X021307Y009426D02*
X049744Y009426D01*
X049744Y010219D02*
X031151Y010219D01*
X031049Y010377D02*
X049744Y010377D01*
X049744Y010536D02*
X040077Y010536D01*
X040178Y010577D02*
X039975Y010493D01*
X039755Y010493D01*
X039551Y010577D01*
X039395Y010733D01*
X039311Y010937D01*
X039311Y011157D01*
X039395Y011360D01*
X039551Y011516D01*
X039755Y011601D01*
X039975Y011601D01*
X040178Y011516D01*
X040334Y011360D01*
X040419Y011157D01*
X040419Y010937D01*
X040334Y010733D01*
X040178Y010577D01*
X040295Y010694D02*
X049744Y010694D01*
X049744Y010853D02*
X040384Y010853D01*
X040419Y011011D02*
X049744Y011011D01*
X049744Y011170D02*
X040413Y011170D01*
X040348Y011328D02*
X049744Y011328D01*
X049744Y011487D02*
X040208Y011487D01*
X039521Y011487D02*
X036419Y011487D01*
X036419Y011437D02*
X036419Y011657D01*
X036347Y011829D01*
X036458Y011829D01*
X036676Y011919D01*
X036843Y012086D01*
X036933Y012304D01*
X036933Y012540D01*
X036843Y012758D01*
X036676Y012925D01*
X036458Y013015D01*
X036222Y013015D01*
X036004Y012925D01*
X035837Y012758D01*
X035747Y012540D01*
X035747Y012304D01*
X035831Y012101D01*
X035755Y012101D01*
X035551Y012016D01*
X035395Y011860D01*
X035311Y011657D01*
X035311Y011437D01*
X035395Y011233D01*
X035551Y011077D01*
X035755Y010993D01*
X035975Y010993D01*
X036178Y011077D01*
X036334Y011233D01*
X036419Y011437D01*
X036374Y011328D02*
X039382Y011328D01*
X039316Y011170D02*
X036271Y011170D01*
X036018Y011011D02*
X039311Y011011D01*
X039346Y010853D02*
X033984Y010853D01*
X034019Y011011D02*
X035712Y011011D01*
X035459Y011170D02*
X034013Y011170D01*
X033948Y011328D02*
X035356Y011328D01*
X035311Y011487D02*
X033808Y011487D01*
X033121Y011487D02*
X019019Y011487D01*
X019019Y011645D02*
X035311Y011645D01*
X035372Y011804D02*
X018958Y011804D01*
X018833Y011962D02*
X035497Y011962D01*
X035823Y012121D02*
X012019Y012121D01*
X012019Y011962D02*
X018097Y011962D01*
X017972Y011804D02*
X011963Y011804D01*
X011846Y011645D02*
X017911Y011645D01*
X017911Y011487D02*
X010260Y011487D01*
X010088Y012121D02*
X010911Y012121D01*
X010962Y012279D02*
X010096Y012279D01*
X010045Y012438D02*
X011072Y012438D01*
X011344Y012596D02*
X009897Y012596D01*
X011586Y012596D02*
X035770Y012596D01*
X035747Y012438D02*
X011857Y012438D01*
X011968Y012279D02*
X035757Y012279D01*
X035836Y012755D02*
X006831Y012755D01*
X006831Y012913D02*
X035992Y012913D01*
X036687Y012913D02*
X049744Y012913D01*
X049744Y012755D02*
X036844Y012755D01*
X036910Y012596D02*
X049744Y012596D01*
X049744Y012438D02*
X036933Y012438D01*
X036923Y012279D02*
X049744Y012279D01*
X049744Y012121D02*
X036857Y012121D01*
X036719Y011962D02*
X049744Y011962D01*
X049744Y011804D02*
X036358Y011804D01*
X036419Y011645D02*
X049744Y011645D01*
X049744Y013072D02*
X006831Y013072D01*
X006831Y013230D02*
X022803Y013230D01*
X022833Y013201D02*
X023087Y013095D01*
X023362Y013095D01*
X023617Y013201D01*
X023811Y013395D01*
X023916Y013649D01*
X023916Y013925D01*
X023811Y014179D01*
X023617Y014373D01*
X023362Y014479D01*
X023087Y014479D01*
X022833Y014373D01*
X022638Y014179D01*
X022533Y013925D01*
X022533Y013649D01*
X022638Y013395D01*
X022833Y013201D01*
X022645Y013389D02*
X006831Y013389D01*
X006831Y013547D02*
X022575Y013547D01*
X022533Y013706D02*
X006831Y013706D01*
X006831Y013864D02*
X009350Y013864D01*
X009308Y013881D02*
X009596Y013762D01*
X009908Y013762D01*
X010197Y013881D01*
X010418Y014102D01*
X010537Y014391D01*
X010537Y014703D01*
X010418Y014991D01*
X010197Y015212D01*
X009908Y015332D01*
X009596Y015332D01*
X009308Y015212D01*
X009087Y014991D01*
X008967Y014703D01*
X008967Y014391D01*
X009087Y014102D01*
X009308Y013881D01*
X009166Y014023D02*
X006831Y014023D01*
X006831Y014181D02*
X009054Y014181D01*
X008988Y014340D02*
X006831Y014340D01*
X006831Y014498D02*
X008967Y014498D01*
X008967Y014657D02*
X006831Y014657D01*
X006831Y014815D02*
X009014Y014815D01*
X009079Y014974D02*
X006831Y014974D01*
X006831Y015132D02*
X009227Y015132D01*
X009496Y015291D02*
X006831Y015291D01*
X006831Y015449D02*
X020584Y015449D01*
X020651Y015516D02*
X020495Y015360D01*
X020411Y015157D01*
X020411Y014937D01*
X020495Y014733D01*
X020651Y014577D01*
X020855Y014493D01*
X021075Y014493D01*
X021278Y014577D01*
X021434Y014733D01*
X021519Y014937D01*
X021519Y015157D01*
X021434Y015360D01*
X021278Y015516D01*
X021075Y015601D01*
X020855Y015601D01*
X020651Y015516D01*
X020466Y015291D02*
X010008Y015291D01*
X010277Y015132D02*
X020411Y015132D01*
X020411Y014974D02*
X010425Y014974D01*
X010491Y014815D02*
X020462Y014815D01*
X020572Y014657D02*
X010537Y014657D01*
X010537Y014498D02*
X020843Y014498D01*
X021087Y014498D02*
X034443Y014498D01*
X034455Y014493D02*
X034675Y014493D01*
X034878Y014577D01*
X035034Y014733D01*
X035119Y014937D01*
X035119Y015157D01*
X035034Y015360D01*
X034878Y015516D01*
X034694Y015593D01*
X034834Y015733D01*
X034919Y015937D01*
X034919Y016157D01*
X034834Y016360D01*
X034678Y016516D01*
X034475Y016601D01*
X034255Y016601D01*
X034051Y016516D01*
X033895Y016360D01*
X033811Y016157D01*
X033811Y015937D01*
X033895Y015733D01*
X034051Y015577D01*
X034236Y015501D01*
X034095Y015360D01*
X034011Y015157D01*
X034011Y014937D01*
X034095Y014733D01*
X034251Y014577D01*
X034455Y014493D01*
X034687Y014498D02*
X049744Y014498D01*
X049744Y014340D02*
X031131Y014340D01*
X031097Y014373D02*
X030843Y014479D01*
X030567Y014479D01*
X030313Y014373D01*
X030118Y014179D01*
X030013Y013925D01*
X030013Y013649D01*
X030118Y013395D01*
X030313Y013201D01*
X030567Y013095D01*
X030843Y013095D01*
X031097Y013201D01*
X031291Y013395D01*
X031397Y013649D01*
X031397Y013925D01*
X031291Y014179D01*
X031097Y014373D01*
X031289Y014181D02*
X049744Y014181D01*
X049744Y014023D02*
X031356Y014023D01*
X031397Y013864D02*
X049744Y013864D01*
X049744Y013706D02*
X031397Y013706D01*
X031354Y013547D02*
X049744Y013547D01*
X049744Y013389D02*
X031285Y013389D01*
X031126Y013230D02*
X049744Y013230D01*
X049744Y014657D02*
X034958Y014657D01*
X035068Y014815D02*
X049744Y014815D01*
X049744Y014974D02*
X035119Y014974D01*
X035119Y015132D02*
X049744Y015132D01*
X049744Y015291D02*
X035063Y015291D01*
X034946Y015449D02*
X049744Y015449D01*
X049744Y015608D02*
X034709Y015608D01*
X034848Y015766D02*
X049744Y015766D01*
X049744Y015925D02*
X034913Y015925D01*
X034919Y016083D02*
X049744Y016083D01*
X049744Y016242D02*
X034884Y016242D01*
X034795Y016400D02*
X039629Y016400D01*
X039651Y016377D02*
X039855Y016293D01*
X040075Y016293D01*
X040278Y016377D01*
X040434Y016533D01*
X040519Y016737D01*
X040519Y016957D01*
X040434Y017160D01*
X040278Y017316D01*
X040075Y017401D01*
X039855Y017401D01*
X039651Y017316D01*
X039495Y017160D01*
X039411Y016957D01*
X039411Y016737D01*
X039495Y016533D01*
X039651Y016377D01*
X039485Y016559D02*
X034576Y016559D01*
X034153Y016559D02*
X027775Y016559D01*
X027764Y016531D02*
X027858Y016757D01*
X027858Y017001D01*
X027764Y017227D01*
X027591Y017400D01*
X027365Y017494D01*
X027120Y017494D01*
X026894Y017400D01*
X026721Y017227D01*
X026628Y017001D01*
X026628Y016757D01*
X026721Y016531D01*
X026894Y016358D01*
X027120Y016264D01*
X027365Y016264D01*
X027591Y016358D01*
X027764Y016531D01*
X027633Y016400D02*
X033935Y016400D01*
X033846Y016242D02*
X023284Y016242D01*
X023319Y016157D02*
X023234Y016360D01*
X023078Y016516D01*
X022875Y016601D01*
X022655Y016601D01*
X022451Y016516D01*
X022295Y016360D01*
X022211Y016157D01*
X022211Y015937D01*
X022295Y015733D01*
X022451Y015577D01*
X022655Y015493D01*
X022875Y015493D01*
X023078Y015577D01*
X023234Y015733D01*
X023319Y015937D01*
X023319Y016157D01*
X023319Y016083D02*
X027786Y016083D01*
X027803Y016090D02*
X027585Y016000D01*
X027418Y015833D01*
X027328Y015615D01*
X027328Y015379D01*
X027418Y015161D01*
X027585Y014994D01*
X027803Y014904D01*
X028039Y014904D01*
X028257Y014994D01*
X028424Y015161D01*
X028514Y015379D01*
X028514Y015615D01*
X028424Y015833D01*
X028257Y016000D01*
X028039Y016090D01*
X027803Y016090D01*
X028056Y016083D02*
X033811Y016083D01*
X033816Y015925D02*
X033559Y015925D01*
X033578Y015916D02*
X033375Y016001D01*
X033155Y016001D01*
X032951Y015916D01*
X032795Y015760D01*
X032711Y015557D01*
X032711Y015337D01*
X032795Y015133D01*
X032951Y014977D01*
X033155Y014893D01*
X033375Y014893D01*
X033578Y014977D01*
X033734Y015133D01*
X033819Y015337D01*
X033819Y015557D01*
X033734Y015760D01*
X033578Y015916D01*
X033729Y015766D02*
X033882Y015766D01*
X033798Y015608D02*
X034021Y015608D01*
X034184Y015449D02*
X033819Y015449D01*
X033799Y015291D02*
X034066Y015291D01*
X034011Y015132D02*
X033733Y015132D01*
X033569Y014974D02*
X034011Y014974D01*
X034062Y014815D02*
X021468Y014815D01*
X021519Y014974D02*
X027635Y014974D01*
X027447Y015132D02*
X021519Y015132D01*
X021463Y015291D02*
X027365Y015291D01*
X027328Y015449D02*
X021346Y015449D01*
X022282Y015766D02*
X006831Y015766D01*
X006831Y015608D02*
X022421Y015608D01*
X022216Y015925D02*
X006831Y015925D01*
X006831Y016083D02*
X022211Y016083D01*
X022246Y016242D02*
X006831Y016242D01*
X006831Y016400D02*
X019835Y016400D01*
X019840Y016398D02*
X020076Y016398D01*
X020294Y016488D01*
X020461Y016655D01*
X020551Y016873D01*
X020551Y017109D01*
X020461Y017327D01*
X020294Y017494D01*
X020076Y017584D01*
X019840Y017584D01*
X019622Y017494D01*
X019455Y017327D01*
X019365Y017109D01*
X019365Y016873D01*
X019455Y016655D01*
X019622Y016488D01*
X019840Y016398D01*
X020081Y016400D02*
X022335Y016400D01*
X022553Y016559D02*
X020364Y016559D01*
X020486Y016717D02*
X023461Y016717D01*
X023495Y016633D02*
X023651Y016477D01*
X023855Y016393D01*
X024075Y016393D01*
X024278Y016477D01*
X024434Y016633D01*
X024519Y016837D01*
X024519Y017057D01*
X024440Y017247D01*
X024519Y017437D01*
X024519Y017657D01*
X024434Y017860D01*
X024278Y018016D01*
X024075Y018101D01*
X023855Y018101D01*
X023651Y018016D01*
X023495Y017860D01*
X023411Y017657D01*
X023411Y017437D01*
X023490Y017247D01*
X023411Y017057D01*
X023411Y016837D01*
X023495Y016633D01*
X023570Y016559D02*
X022976Y016559D01*
X023195Y016400D02*
X023838Y016400D01*
X024092Y016400D02*
X026852Y016400D01*
X026710Y016559D02*
X025483Y016559D01*
X025498Y016568D02*
X025553Y016624D01*
X025597Y016690D01*
X025627Y016762D01*
X025643Y016840D01*
X025643Y016879D01*
X025643Y016918D01*
X025627Y016996D01*
X025597Y017068D01*
X025553Y017134D01*
X025498Y017190D01*
X025432Y017233D01*
X025359Y017264D01*
X025282Y017279D01*
X025243Y017279D01*
X025243Y016879D01*
X025643Y016879D01*
X025243Y016879D01*
X025243Y016879D01*
X025243Y016879D01*
X025243Y016479D01*
X025282Y016479D01*
X025359Y016494D01*
X025432Y016525D01*
X025498Y016568D01*
X025608Y016717D02*
X026644Y016717D01*
X026628Y016876D02*
X025643Y016876D01*
X025611Y017034D02*
X026641Y017034D01*
X026707Y017193D02*
X025493Y017193D01*
X025243Y017193D02*
X025243Y017193D01*
X025243Y017279D02*
X025203Y017279D01*
X025126Y017264D01*
X025053Y017233D01*
X024988Y017190D01*
X024932Y017134D01*
X024888Y017068D01*
X024858Y016996D01*
X024843Y016918D01*
X024843Y016879D01*
X024843Y016840D01*
X024858Y016762D01*
X024888Y016690D01*
X024932Y016624D01*
X024988Y016568D01*
X025053Y016525D01*
X025126Y016494D01*
X025203Y016479D01*
X025243Y016479D01*
X025243Y016879D01*
X025243Y016879D01*
X025243Y017279D01*
X025243Y017034D02*
X025243Y017034D01*
X025243Y016879D02*
X025243Y016879D01*
X024843Y016879D01*
X025243Y016879D01*
X025243Y016876D02*
X025243Y016876D01*
X025243Y016717D02*
X025243Y016717D01*
X025243Y016559D02*
X025243Y016559D01*
X025002Y016559D02*
X024360Y016559D01*
X024469Y016717D02*
X024877Y016717D01*
X024843Y016876D02*
X024519Y016876D01*
X024519Y017034D02*
X024874Y017034D01*
X024992Y017193D02*
X024462Y017193D01*
X024483Y017351D02*
X025910Y017351D01*
X025894Y017358D02*
X026120Y017264D01*
X026365Y017264D01*
X026591Y017358D01*
X026764Y017531D01*
X026858Y017757D01*
X026858Y018001D01*
X026764Y018227D01*
X026591Y018400D01*
X026365Y018494D01*
X026120Y018494D01*
X025894Y018400D01*
X025721Y018227D01*
X025628Y018001D01*
X025628Y017757D01*
X025721Y017531D01*
X025894Y017358D01*
X025742Y017510D02*
X024519Y017510D01*
X024514Y017668D02*
X025664Y017668D01*
X025628Y017827D02*
X024448Y017827D01*
X024310Y017985D02*
X025628Y017985D01*
X025686Y018144D02*
X006831Y018144D01*
X006831Y018302D02*
X025796Y018302D01*
X026040Y018461D02*
X006831Y018461D01*
X006831Y018619D02*
X027410Y018619D01*
X027395Y018633D02*
X027551Y018477D01*
X027755Y018393D01*
X027975Y018393D01*
X028178Y018477D01*
X028334Y018633D01*
X028419Y018837D01*
X028419Y019057D01*
X028334Y019260D01*
X028178Y019416D01*
X027975Y019501D01*
X027755Y019501D01*
X027551Y019416D01*
X027395Y019260D01*
X027311Y019057D01*
X027311Y018837D01*
X027395Y018633D01*
X027336Y018778D02*
X006831Y018778D01*
X006831Y018936D02*
X023493Y018936D01*
X023551Y018877D02*
X023395Y019033D01*
X023311Y019237D01*
X023311Y019457D01*
X023395Y019660D01*
X023551Y019816D01*
X023755Y019901D01*
X023975Y019901D01*
X024178Y019816D01*
X024334Y019660D01*
X024419Y019457D01*
X024419Y019237D01*
X024334Y019033D01*
X024178Y018877D01*
X023975Y018793D01*
X023755Y018793D01*
X023551Y018877D01*
X023370Y019095D02*
X006831Y019095D01*
X006831Y019253D02*
X023311Y019253D01*
X023311Y019412D02*
X006831Y019412D01*
X006831Y019570D02*
X023358Y019570D01*
X023463Y019729D02*
X006831Y019729D01*
X006831Y019887D02*
X023722Y019887D01*
X024008Y019887D02*
X049744Y019887D01*
X049744Y019729D02*
X024266Y019729D01*
X024372Y019570D02*
X030905Y019570D01*
X030951Y019616D02*
X030795Y019460D01*
X030711Y019257D01*
X030711Y019037D01*
X030795Y018833D01*
X030951Y018677D01*
X031155Y018593D01*
X031375Y018593D01*
X031578Y018677D01*
X031734Y018833D01*
X031819Y019037D01*
X031819Y019257D01*
X031734Y019460D01*
X031578Y019616D01*
X031375Y019701D01*
X031155Y019701D01*
X030951Y019616D01*
X030775Y019412D02*
X028183Y019412D01*
X028337Y019253D02*
X030711Y019253D01*
X030711Y019095D02*
X028403Y019095D01*
X028419Y018936D02*
X030753Y018936D01*
X030851Y018778D02*
X028394Y018778D01*
X028320Y018619D02*
X031092Y018619D01*
X031437Y018619D02*
X033328Y018619D01*
X033355Y018555D02*
X033265Y018773D01*
X033265Y019009D01*
X033355Y019227D01*
X033522Y019394D01*
X033740Y019484D01*
X033976Y019484D01*
X034194Y019394D01*
X034361Y019227D01*
X034451Y019009D01*
X034451Y018773D01*
X034361Y018555D01*
X034194Y018388D01*
X033976Y018298D01*
X033740Y018298D01*
X033522Y018388D01*
X033355Y018555D01*
X033449Y018461D02*
X028138Y018461D01*
X027592Y018461D02*
X026446Y018461D01*
X026689Y018302D02*
X033730Y018302D01*
X033986Y018302D02*
X034230Y018302D01*
X034211Y018257D02*
X034211Y018037D01*
X034295Y017833D01*
X034451Y017677D01*
X034655Y017593D01*
X034875Y017593D01*
X035078Y017677D01*
X035234Y017833D01*
X035319Y018037D01*
X035319Y018257D01*
X035234Y018460D01*
X035078Y018616D01*
X034875Y018701D01*
X034655Y018701D01*
X034451Y018616D01*
X034295Y018460D01*
X034211Y018257D01*
X034211Y018144D02*
X026799Y018144D01*
X026858Y017985D02*
X034233Y017985D01*
X034302Y017827D02*
X026858Y017827D01*
X026821Y017668D02*
X029676Y017668D01*
X029755Y017701D02*
X029551Y017616D01*
X029395Y017460D01*
X029311Y017257D01*
X029311Y017037D01*
X029395Y016833D01*
X029551Y016677D01*
X029755Y016593D01*
X029975Y016593D01*
X030178Y016677D01*
X030334Y016833D01*
X030419Y017037D01*
X030419Y017257D01*
X030334Y017460D01*
X030178Y017616D01*
X029975Y017701D01*
X029755Y017701D01*
X030053Y017668D02*
X034474Y017668D01*
X035056Y017668D02*
X036872Y017668D01*
X036872Y017765D02*
X036872Y017529D01*
X036962Y017311D01*
X037129Y017144D01*
X037347Y017054D01*
X037583Y017054D01*
X037801Y017144D01*
X037968Y017311D01*
X038058Y017529D01*
X038058Y017765D01*
X037968Y017983D01*
X037801Y018150D01*
X037583Y018240D01*
X037347Y018240D01*
X037129Y018150D01*
X036962Y017983D01*
X036872Y017765D01*
X036897Y017827D02*
X035228Y017827D01*
X035297Y017985D02*
X036964Y017985D01*
X037123Y018144D02*
X035319Y018144D01*
X035300Y018302D02*
X037971Y018302D01*
X037962Y018311D02*
X038129Y018144D01*
X038347Y018054D01*
X038583Y018054D01*
X038801Y018144D01*
X038968Y018311D01*
X039058Y018529D01*
X039058Y018765D01*
X038968Y018983D01*
X038801Y019150D01*
X038583Y019240D01*
X038347Y019240D01*
X038129Y019150D01*
X037962Y018983D01*
X037872Y018765D01*
X037872Y018529D01*
X037962Y018311D01*
X037900Y018461D02*
X035234Y018461D01*
X035072Y018619D02*
X037872Y018619D01*
X037877Y018778D02*
X034451Y018778D01*
X034451Y018936D02*
X037943Y018936D01*
X038074Y019095D02*
X034415Y019095D01*
X034334Y019253D02*
X049744Y019253D01*
X049744Y019095D02*
X038856Y019095D01*
X038987Y018936D02*
X049744Y018936D01*
X049744Y018778D02*
X039053Y018778D01*
X039058Y018619D02*
X049744Y018619D01*
X049744Y018461D02*
X039030Y018461D01*
X038959Y018302D02*
X049744Y018302D01*
X049744Y018144D02*
X038799Y018144D01*
X038130Y018144D02*
X037807Y018144D01*
X037965Y017985D02*
X049744Y017985D01*
X049744Y017827D02*
X038032Y017827D01*
X038058Y017668D02*
X049744Y017668D01*
X049744Y017510D02*
X038050Y017510D01*
X037984Y017351D02*
X039735Y017351D01*
X039527Y017193D02*
X037849Y017193D01*
X037080Y017193D02*
X030419Y017193D01*
X030417Y017034D02*
X039443Y017034D01*
X039411Y016876D02*
X030352Y016876D01*
X030218Y016717D02*
X039419Y016717D01*
X040301Y016400D02*
X049744Y016400D01*
X049744Y016559D02*
X040445Y016559D01*
X040510Y016717D02*
X049744Y016717D01*
X049744Y016876D02*
X040519Y016876D01*
X040487Y017034D02*
X049744Y017034D01*
X049744Y017193D02*
X040402Y017193D01*
X040195Y017351D02*
X049744Y017351D01*
X049744Y019412D02*
X034151Y019412D01*
X033565Y019412D02*
X031755Y019412D01*
X031819Y019253D02*
X033381Y019253D01*
X033300Y019095D02*
X031819Y019095D01*
X031777Y018936D02*
X033265Y018936D01*
X033265Y018778D02*
X031679Y018778D01*
X031625Y019570D02*
X049744Y019570D01*
X049744Y020046D02*
X029601Y020046D01*
X029678Y020077D02*
X029834Y020233D01*
X029919Y020437D01*
X029919Y020657D01*
X029834Y020860D01*
X029678Y021016D01*
X029475Y021101D01*
X029255Y021101D01*
X029051Y021016D01*
X028895Y020860D01*
X028811Y020657D01*
X028811Y020437D01*
X028895Y020233D01*
X029051Y020077D01*
X029255Y019993D01*
X029475Y019993D01*
X029678Y020077D01*
X029805Y020204D02*
X049744Y020204D01*
X049744Y020363D02*
X029888Y020363D01*
X029919Y020521D02*
X049744Y020521D01*
X049744Y020680D02*
X029909Y020680D01*
X029844Y020838D02*
X036507Y020838D01*
X036610Y020796D02*
X036879Y020796D01*
X037127Y020898D01*
X037244Y021016D01*
X037362Y020898D01*
X037610Y020796D01*
X037879Y020796D01*
X038127Y020898D01*
X038244Y021016D01*
X038362Y020898D01*
X038610Y020796D01*
X038879Y020796D01*
X039127Y020898D01*
X039317Y021088D01*
X039419Y021336D01*
X039419Y021605D01*
X039317Y021853D01*
X039127Y022043D01*
X039007Y022092D01*
X039044Y022120D01*
X039095Y022171D01*
X039138Y022229D01*
X039171Y022294D01*
X039193Y022363D01*
X039204Y022434D01*
X039204Y022460D01*
X038754Y022460D01*
X038754Y022480D01*
X039204Y022480D01*
X039204Y022507D01*
X039193Y022578D01*
X039171Y022647D01*
X039138Y022712D01*
X039095Y022770D01*
X039044Y022821D01*
X038985Y022864D01*
X038921Y022897D01*
X038852Y022919D01*
X038781Y022930D01*
X038754Y022930D01*
X038754Y022480D01*
X038734Y022480D01*
X038734Y022930D01*
X038708Y022930D01*
X038637Y022919D01*
X038568Y022897D01*
X038503Y022864D01*
X038445Y022821D01*
X038393Y022770D01*
X038366Y022733D01*
X038317Y022853D01*
X038127Y023043D01*
X037879Y023145D01*
X037610Y023145D01*
X037362Y023043D01*
X037244Y022925D01*
X037127Y023043D01*
X036879Y023145D01*
X036610Y023145D01*
X036362Y023043D01*
X036172Y022853D01*
X036069Y022605D01*
X036069Y022336D01*
X036172Y022088D01*
X036290Y021970D01*
X036172Y021853D01*
X036069Y021605D01*
X036069Y021336D01*
X036172Y021088D01*
X036362Y020898D01*
X036610Y020796D01*
X036981Y020838D02*
X037507Y020838D01*
X037264Y020997D02*
X037225Y020997D01*
X037981Y020838D02*
X038507Y020838D01*
X038264Y020997D02*
X038225Y020997D01*
X038981Y020838D02*
X049744Y020838D01*
X049744Y020997D02*
X039225Y020997D01*
X039344Y021155D02*
X049744Y021155D01*
X049744Y021314D02*
X039410Y021314D01*
X039419Y021472D02*
X042087Y021472D01*
X042074Y021477D02*
X042277Y021393D01*
X042498Y021393D01*
X042701Y021477D01*
X042857Y021633D01*
X042941Y021837D01*
X042941Y022057D01*
X042857Y022260D01*
X042701Y022416D01*
X042498Y022501D01*
X042277Y022501D01*
X042074Y022416D01*
X041918Y022260D01*
X041834Y022057D01*
X041834Y021837D01*
X041918Y021633D01*
X042074Y021477D01*
X041921Y021631D02*
X039409Y021631D01*
X039343Y021789D02*
X041853Y021789D01*
X041834Y021948D02*
X039222Y021948D01*
X039025Y022106D02*
X041854Y022106D01*
X041922Y022265D02*
X039156Y022265D01*
X039203Y022423D02*
X042090Y022423D01*
X042685Y022423D02*
X049744Y022423D01*
X049744Y022265D02*
X042853Y022265D01*
X042921Y022106D02*
X049744Y022106D01*
X049744Y021948D02*
X042941Y021948D01*
X042921Y021789D02*
X049744Y021789D01*
X049744Y021631D02*
X042854Y021631D01*
X042688Y021472D02*
X049744Y021472D01*
X049744Y022582D02*
X039192Y022582D01*
X039117Y022740D02*
X049744Y022740D01*
X049744Y022899D02*
X038915Y022899D01*
X038754Y022899D02*
X038734Y022899D01*
X038734Y022740D02*
X038754Y022740D01*
X038754Y022582D02*
X038734Y022582D01*
X038372Y022740D02*
X038363Y022740D01*
X038271Y022899D02*
X038573Y022899D01*
X038092Y023057D02*
X049744Y023057D01*
X049744Y023216D02*
X031245Y023216D01*
X031214Y023290D02*
X031058Y023446D01*
X030855Y023531D01*
X030635Y023531D01*
X030431Y023446D01*
X030275Y023290D01*
X030191Y023087D01*
X030191Y022867D01*
X030275Y022663D01*
X030431Y022507D01*
X030635Y022423D01*
X030855Y022423D01*
X031058Y022507D01*
X031214Y022663D01*
X031299Y022867D01*
X031299Y023087D01*
X031214Y023290D01*
X031131Y023374D02*
X049744Y023374D01*
X049744Y023533D02*
X006831Y023533D01*
X006831Y023691D02*
X049744Y023691D01*
X049744Y023850D02*
X006831Y023850D01*
X006831Y024008D02*
X049744Y024008D01*
X049744Y024167D02*
X006831Y024167D01*
X006831Y024325D02*
X049744Y024325D01*
X049744Y024484D02*
X006831Y024484D01*
X006831Y024642D02*
X047776Y024642D01*
X047776Y024801D02*
X006831Y024801D01*
X006831Y023374D02*
X030359Y023374D01*
X030244Y023216D02*
X006831Y023216D01*
X006831Y023057D02*
X030191Y023057D01*
X030191Y022899D02*
X006831Y022899D01*
X006831Y022740D02*
X030244Y022740D01*
X030357Y022582D02*
X006831Y022582D01*
X006831Y022423D02*
X020502Y022423D01*
X020529Y022450D02*
X020362Y022283D01*
X020272Y022065D01*
X020272Y021829D01*
X020362Y021611D01*
X020529Y021444D01*
X020747Y021354D01*
X020983Y021354D01*
X021201Y021444D01*
X021368Y021611D01*
X021458Y021829D01*
X021458Y022065D01*
X021368Y022283D01*
X021201Y022450D01*
X020983Y022540D01*
X020747Y022540D01*
X020529Y022450D01*
X020354Y022265D02*
X006831Y022265D01*
X006831Y022106D02*
X020289Y022106D01*
X020272Y021948D02*
X006831Y021948D01*
X006831Y021789D02*
X020288Y021789D01*
X020354Y021631D02*
X006831Y021631D01*
X006831Y021472D02*
X019386Y021472D01*
X019455Y021501D02*
X019251Y021416D01*
X019095Y021260D01*
X019011Y021057D01*
X019011Y020837D01*
X019095Y020633D01*
X019251Y020477D01*
X019455Y020393D01*
X019675Y020393D01*
X019878Y020477D01*
X020034Y020633D01*
X020119Y020837D01*
X020119Y021057D01*
X020034Y021260D01*
X019878Y021416D01*
X019675Y021501D01*
X019455Y021501D01*
X019744Y021472D02*
X020501Y021472D01*
X020078Y021155D02*
X036144Y021155D01*
X036079Y021314D02*
X019981Y021314D01*
X020119Y020997D02*
X029031Y020997D01*
X028886Y020838D02*
X020119Y020838D01*
X020053Y020680D02*
X028820Y020680D01*
X028811Y020521D02*
X019922Y020521D01*
X019208Y020521D02*
X006831Y020521D01*
X006831Y020363D02*
X028842Y020363D01*
X028925Y020204D02*
X006831Y020204D01*
X006831Y020046D02*
X029128Y020046D01*
X027546Y019412D02*
X024419Y019412D01*
X024419Y019253D02*
X027392Y019253D01*
X027327Y019095D02*
X024360Y019095D01*
X024237Y018936D02*
X027311Y018936D01*
X026743Y017510D02*
X029444Y017510D01*
X029350Y017351D02*
X027640Y017351D01*
X027778Y017193D02*
X029311Y017193D01*
X029312Y017034D02*
X027844Y017034D01*
X027858Y016876D02*
X029378Y016876D01*
X029512Y016717D02*
X027841Y016717D01*
X027510Y015925D02*
X023313Y015925D01*
X023248Y015766D02*
X027390Y015766D01*
X027328Y015608D02*
X023109Y015608D01*
X021358Y014657D02*
X034172Y014657D01*
X032961Y014974D02*
X028207Y014974D01*
X028395Y015132D02*
X032797Y015132D01*
X032730Y015291D02*
X028477Y015291D01*
X028514Y015449D02*
X032711Y015449D01*
X032732Y015608D02*
X028514Y015608D01*
X028451Y015766D02*
X032801Y015766D01*
X032971Y015925D02*
X028332Y015925D01*
X026845Y017351D02*
X026575Y017351D01*
X023620Y017985D02*
X006831Y017985D01*
X006831Y017827D02*
X023481Y017827D01*
X023416Y017668D02*
X006831Y017668D01*
X006831Y017510D02*
X019660Y017510D01*
X019479Y017351D02*
X006831Y017351D01*
X006831Y017193D02*
X019399Y017193D01*
X019365Y017034D02*
X006831Y017034D01*
X006831Y016876D02*
X019365Y016876D01*
X019429Y016717D02*
X006831Y016717D01*
X006831Y016559D02*
X019551Y016559D01*
X020551Y016876D02*
X023411Y016876D01*
X023411Y017034D02*
X020551Y017034D01*
X020516Y017193D02*
X023467Y017193D01*
X023447Y017351D02*
X020436Y017351D01*
X020256Y017510D02*
X023411Y017510D01*
X023651Y014340D02*
X030279Y014340D01*
X030121Y014181D02*
X023809Y014181D01*
X023876Y014023D02*
X030054Y014023D01*
X030013Y013864D02*
X023916Y013864D01*
X023916Y013706D02*
X030013Y013706D01*
X030056Y013547D02*
X023874Y013547D01*
X023805Y013389D02*
X030125Y013389D01*
X030284Y013230D02*
X023646Y013230D01*
X022533Y013864D02*
X010155Y013864D01*
X010338Y014023D02*
X022573Y014023D01*
X022640Y014181D02*
X010450Y014181D01*
X010516Y014340D02*
X022799Y014340D01*
X018974Y011328D02*
X032982Y011328D01*
X032916Y011170D02*
X018871Y011170D01*
X014512Y010377D02*
X006831Y010377D01*
X006831Y010219D02*
X014437Y010219D01*
X009946Y010060D02*
X009890Y010101D01*
X009828Y010133D01*
X009762Y010154D01*
X009694Y010165D01*
X009659Y010165D01*
X009659Y009902D02*
X009659Y009902D01*
X009659Y009743D02*
X009659Y009743D01*
X009659Y009725D02*
X009659Y009725D01*
X010079Y006732D02*
X010822Y006732D01*
X010707Y006573D02*
X010224Y006573D01*
X010290Y006415D02*
X010654Y006415D01*
X010654Y006256D02*
X010314Y006256D01*
X010314Y006098D02*
X010706Y006098D01*
X010820Y005939D02*
X010250Y005939D01*
X023620Y006890D02*
X030310Y006890D01*
X030151Y006732D02*
X023778Y006732D01*
X023863Y006573D02*
X030066Y006573D01*
X030013Y006415D02*
X023916Y006415D01*
X023916Y006256D02*
X030013Y006256D01*
X030043Y006098D02*
X023887Y006098D01*
X023821Y005939D02*
X030108Y005939D01*
X030253Y005781D02*
X023677Y005781D01*
X030687Y009743D02*
X030723Y009743D01*
X030723Y009902D02*
X030687Y009902D01*
X030687Y010219D02*
X030723Y010219D01*
X030723Y010377D02*
X030687Y010377D01*
X033677Y010536D02*
X039652Y010536D01*
X039435Y010694D02*
X033895Y010694D01*
X036945Y017351D02*
X030380Y017351D01*
X030285Y017510D02*
X036880Y017510D01*
X034295Y018461D02*
X034266Y018461D01*
X034387Y018619D02*
X034458Y018619D01*
X036264Y020997D02*
X029698Y020997D01*
X031133Y022582D02*
X036069Y022582D01*
X036069Y022423D02*
X021227Y022423D01*
X021375Y022265D02*
X036099Y022265D01*
X036165Y022106D02*
X021441Y022106D01*
X021458Y021948D02*
X036267Y021948D01*
X036146Y021789D02*
X021441Y021789D01*
X021376Y021631D02*
X036080Y021631D01*
X036069Y021472D02*
X021229Y021472D01*
X019148Y021314D02*
X006831Y021314D01*
X006831Y021155D02*
X019052Y021155D01*
X019011Y020997D02*
X006831Y020997D01*
X006831Y020838D02*
X019011Y020838D01*
X019076Y020680D02*
X006831Y020680D01*
X031246Y022740D02*
X036125Y022740D01*
X036218Y022899D02*
X031299Y022899D01*
X031299Y023057D02*
X036397Y023057D01*
X037092Y023057D02*
X037397Y023057D01*
D18*
X033858Y018891D03*
X037465Y017647D03*
X038465Y018647D03*
X027921Y015497D03*
X019958Y016991D03*
X011665Y019147D03*
X020865Y021947D03*
X036340Y012422D03*
X035715Y008672D03*
X036965Y008547D03*
X021004Y009943D03*
M02*
