G75*
G70*
%OFA0B0*%
%FSLAX24Y24*%
%IPPOS*%
%LPD*%
%AMOC8*
5,1,8,0,0,1.08239X$1,22.5*
%
%ADD10R,0.0591X0.0512*%
%ADD11R,0.0433X0.0394*%
%ADD12R,0.2126X0.2441*%
%ADD13R,0.0394X0.0630*%
%ADD14R,0.0512X0.0591*%
%ADD15R,0.0787X0.0591*%
%ADD16R,0.0787X0.1496*%
%ADD17R,0.0581X0.0177*%
%ADD18R,0.0394X0.0433*%
%ADD19R,0.0433X0.0236*%
%ADD20R,0.0551X0.0315*%
%ADD21C,0.0600*%
%ADD22R,0.0598X0.0598*%
%ADD23R,0.0492X0.0197*%
%ADD24R,0.0394X0.0551*%
%ADD25R,0.0435X0.0413*%
%ADD26R,0.2000X0.0900*%
%ADD27R,0.0460X0.0630*%
%ADD28R,0.0256X0.0689*%
D10*
X009201Y004203D03*
X010201Y004203D03*
X010201Y004951D03*
X009201Y004951D03*
X014201Y004951D03*
X014201Y004203D03*
X005598Y008451D03*
X005598Y009199D03*
X033690Y006469D03*
X033690Y005721D03*
D11*
X032048Y005837D03*
X031379Y005837D03*
X031283Y004535D03*
X030613Y004535D03*
X028511Y005464D03*
X028511Y006133D03*
X031376Y007171D03*
X032045Y007171D03*
X033702Y007156D03*
X033702Y007825D03*
X032023Y008188D03*
X032023Y008858D03*
X030691Y009070D03*
X030021Y009070D03*
X028912Y009035D03*
X028243Y009035D03*
X028245Y009747D03*
X028914Y009747D03*
X030020Y009834D03*
X030690Y009834D03*
X034918Y011141D03*
X035587Y011141D03*
X036954Y012149D03*
X036954Y012818D03*
X036889Y013580D03*
X037558Y013580D03*
X039310Y016698D03*
X039980Y016698D03*
X036753Y017140D03*
X036084Y017140D03*
X036087Y017915D03*
X036756Y017915D03*
X027652Y015814D03*
X027652Y015144D03*
X022569Y014710D03*
X021899Y014710D03*
X021899Y013910D03*
X022569Y013910D03*
X019869Y015310D03*
X019199Y015310D03*
X018669Y016110D03*
X017999Y016110D03*
X017449Y016917D03*
X016780Y016917D03*
X017991Y017705D03*
X018660Y017705D03*
X019199Y017710D03*
X019869Y017710D03*
X021534Y018175D03*
X021534Y018844D03*
X023434Y018944D03*
X023434Y018275D03*
X015534Y015344D03*
X015534Y014675D03*
X013682Y016421D03*
X013682Y017090D03*
X011039Y018037D03*
X010260Y018014D03*
X009069Y017710D03*
X008399Y017710D03*
X008399Y017210D03*
X009069Y017210D03*
X009734Y016044D03*
X009734Y015375D03*
X010734Y015375D03*
X010734Y016044D03*
X006734Y016044D03*
X006734Y015375D03*
X010260Y018683D03*
X011039Y018706D03*
X019209Y011890D03*
X019879Y011890D03*
X034681Y003264D03*
X035351Y003264D03*
X038354Y003236D03*
X039023Y003236D03*
X039034Y003935D03*
X038364Y003935D03*
X035348Y001728D03*
X034679Y001728D03*
D12*
X012258Y002144D03*
X005509Y011913D03*
D13*
X004612Y009039D03*
X006407Y009039D03*
X011361Y005019D03*
X013156Y005019D03*
D14*
X011945Y008707D03*
X011197Y008707D03*
X008014Y009087D03*
X007266Y009087D03*
X007281Y009871D03*
X008029Y009871D03*
X011867Y012859D03*
X012615Y012859D03*
D15*
X010504Y011762D03*
X010504Y010857D03*
X010504Y009951D03*
D16*
X012984Y010857D03*
D17*
X021177Y015414D03*
X021177Y015670D03*
X021177Y015926D03*
X021177Y016182D03*
X021177Y016438D03*
X021177Y016694D03*
X021177Y016950D03*
X021177Y017206D03*
X023491Y017206D03*
X023491Y016950D03*
X023491Y016694D03*
X023491Y016438D03*
X023491Y016182D03*
X023491Y015926D03*
X023491Y015670D03*
X023491Y015414D03*
X028186Y008463D03*
X028186Y008207D03*
X028186Y007951D03*
X028186Y007695D03*
X028186Y007439D03*
X028186Y007183D03*
X028186Y006927D03*
X028186Y006671D03*
X030500Y006671D03*
X030500Y006927D03*
X030500Y007183D03*
X030500Y007439D03*
X030500Y007695D03*
X030500Y007951D03*
X030500Y008207D03*
X030500Y008463D03*
D18*
X003700Y001500D03*
X004369Y001500D03*
X005966Y003557D03*
X006635Y003557D03*
X004369Y004000D03*
X003700Y004000D03*
X003700Y006400D03*
X004369Y006400D03*
X005965Y006299D03*
X006634Y006299D03*
X021899Y013110D03*
X022569Y013110D03*
X018669Y015310D03*
X017999Y015310D03*
X019199Y016110D03*
X019869Y016110D03*
X019869Y016910D03*
X019199Y016910D03*
X018669Y016910D03*
X017999Y016910D03*
X020730Y018181D03*
X020730Y018851D03*
X019240Y018474D03*
X018571Y018474D03*
X022634Y018275D03*
X022634Y018944D03*
X024628Y018944D03*
X024628Y018275D03*
X028277Y015814D03*
X028902Y015814D03*
X028902Y015144D03*
X028277Y015144D03*
X035549Y013577D03*
X036218Y013577D03*
X036248Y011138D03*
X036917Y011138D03*
X033697Y009109D03*
X032998Y009104D03*
X032998Y008435D03*
X033697Y008439D03*
X032044Y006499D03*
X031375Y006499D03*
X030450Y005894D03*
X029781Y005894D03*
X027807Y006124D03*
X027103Y006123D03*
X027103Y005453D03*
X027807Y005455D03*
X034729Y004220D03*
X035399Y004220D03*
X036720Y004200D03*
X037389Y004200D03*
X035339Y002520D03*
X034670Y002520D03*
X036798Y001600D03*
X037467Y001600D03*
X038340Y002351D03*
X039009Y002351D03*
X030687Y010491D03*
X030018Y010491D03*
X028913Y010444D03*
X028244Y010444D03*
X036077Y016355D03*
X036746Y016355D03*
X037270Y016367D03*
X037940Y016367D03*
X014634Y015344D03*
X014634Y014675D03*
X011634Y016075D03*
X011634Y016744D03*
X010569Y017210D03*
X009899Y017210D03*
X008734Y016044D03*
X008734Y015375D03*
X007734Y015375D03*
X007734Y016044D03*
X007569Y017210D03*
X006899Y017210D03*
D19*
X036602Y003259D03*
X036602Y002885D03*
X036602Y002511D03*
X037665Y002511D03*
X037665Y003259D03*
D20*
X037664Y014370D03*
X037663Y014960D03*
X037664Y015550D03*
D21*
X036932Y015060D02*
X036932Y014860D01*
X036096Y014860D01*
X036096Y015060D01*
X036932Y015060D01*
D22*
X037398Y010188D03*
X036398Y010188D03*
X035398Y010188D03*
X034598Y009338D03*
X034598Y008338D03*
X034598Y007338D03*
X034598Y006338D03*
X035748Y005188D03*
X036748Y005188D03*
X037748Y005188D03*
X038748Y005188D03*
X039598Y006238D03*
X039598Y007238D03*
X039598Y008238D03*
X039598Y009238D03*
X038398Y010188D03*
D23*
X016219Y012745D03*
X016219Y013119D03*
X016219Y013493D03*
X015235Y013493D03*
X015235Y013119D03*
X015235Y012745D03*
X013226Y017936D03*
X013226Y018310D03*
X013226Y018684D03*
X012242Y018684D03*
X012242Y018310D03*
X012242Y017936D03*
X006033Y005274D03*
X006033Y004900D03*
X006033Y004526D03*
X005049Y004526D03*
X005049Y004900D03*
X005049Y005274D03*
D24*
X013060Y014777D03*
X013808Y014777D03*
X013434Y015643D03*
D25*
X005652Y016110D03*
X005652Y017110D03*
X003016Y017110D03*
X003016Y016110D03*
X003016Y015110D03*
X005652Y015110D03*
D26*
X001110Y014938D03*
X001110Y016678D03*
X001110Y018418D03*
X041824Y018418D03*
X041824Y016678D03*
X041824Y014938D03*
D27*
X029610Y014189D03*
X029010Y014189D03*
D28*
X030663Y015261D03*
X031163Y015261D03*
X031663Y015261D03*
X032163Y015261D03*
X032163Y012406D03*
X031663Y012406D03*
X031163Y012406D03*
X030663Y012406D03*
M02*
