G75*
G70*
%OFA0B0*%
%FSLAX24Y24*%
%IPPOS*%
%LPD*%
%AMOC8*
5,1,8,0,0,1.08239X$1,22.5*
%
%ADD10R,1.3780X0.1575*%
%ADD11R,2.8346X0.1575*%
%ADD12R,0.1969X1.3780*%
%ADD13R,2.5984X0.1575*%
%ADD14R,0.7874X0.1181*%
%ADD15R,0.0394X0.1181*%
%ADD16R,0.6693X0.1575*%
%ADD17R,0.3150X0.3543*%
%ADD18OC8,0.0600*%
%ADD19R,0.2080X0.0980*%
%ADD20C,0.0940*%
%ADD21OC8,0.0640*%
%ADD22OC8,0.0930*%
%ADD23C,0.0520*%
%ADD24R,0.0555X0.0555*%
%ADD25R,0.0397X0.0397*%
%ADD26OC8,0.0397*%
%ADD27R,0.0476X0.0476*%
%ADD28C,0.0476*%
%ADD29OC8,0.0476*%
D10*
X008875Y000808D03*
X009040Y000808D03*
X036024Y000787D03*
D11*
X028761Y000792D03*
D12*
X041872Y006990D03*
X041872Y013616D03*
X000938Y013909D03*
X000938Y007283D03*
D13*
X012992Y020079D03*
D14*
X029921Y020276D03*
D15*
X034055Y020276D03*
D16*
X037598Y020079D03*
D17*
X012205Y001772D03*
D18*
X002828Y002188D03*
X002828Y003188D03*
X002828Y004688D03*
X002828Y005688D03*
X002828Y007188D03*
X002828Y008188D03*
D19*
X001110Y014938D03*
X001110Y018418D03*
X041824Y018418D03*
X041824Y014938D03*
D20*
X023874Y009750D03*
X016394Y009750D03*
X023874Y006010D03*
X023874Y002270D03*
X016394Y002270D03*
D21*
X029913Y017433D03*
X030913Y017433D03*
X031913Y017433D03*
X031913Y018433D03*
X030913Y018433D03*
X029913Y018433D03*
D22*
X002921Y010510D03*
D23*
X018412Y012842D03*
X020412Y012842D03*
X019412Y013842D03*
D24*
X000774Y000883D03*
X000774Y002361D03*
X000774Y004330D03*
X000774Y006298D03*
X000774Y008267D03*
X000774Y010235D03*
X004940Y011078D03*
X004896Y012007D03*
X005513Y012601D03*
X006073Y012002D03*
X006120Y011119D03*
X010413Y012544D03*
X011139Y012842D03*
X001574Y014972D03*
X000374Y014972D03*
X000774Y014172D03*
X000774Y012204D03*
X000474Y018472D03*
X001674Y018472D03*
X001876Y020356D03*
X000774Y020356D03*
X003845Y020356D03*
X005813Y020356D03*
X007782Y020356D03*
X009750Y020356D03*
X011719Y020356D03*
X013687Y020356D03*
X015656Y020356D03*
X017624Y020356D03*
X019593Y020356D03*
X021561Y020356D03*
X023530Y020356D03*
X025498Y020356D03*
X027467Y020356D03*
X029435Y020356D03*
X031404Y020356D03*
X033372Y020356D03*
X035341Y020356D03*
X036002Y019709D03*
X037309Y020356D03*
X037971Y019709D03*
X039278Y020356D03*
X039939Y019709D03*
X038955Y018725D03*
X039939Y017741D03*
X041247Y018434D03*
X042247Y018434D03*
X036987Y018725D03*
X035018Y018725D03*
X039939Y015772D03*
X041247Y014934D03*
X042247Y014934D03*
X039939Y013804D03*
X038955Y012820D03*
X037971Y011835D03*
X039939Y011835D03*
X040924Y010851D03*
X041908Y009867D03*
X040924Y008883D03*
X041908Y007898D03*
X040924Y006914D03*
X041908Y005930D03*
X040924Y004946D03*
X041908Y003961D03*
X040924Y002977D03*
X041908Y001993D03*
X041246Y000883D03*
X039278Y000883D03*
X037309Y000883D03*
X035341Y000883D03*
X033372Y000883D03*
X032388Y001377D03*
X031404Y000883D03*
X030420Y001377D03*
X029435Y000883D03*
X028451Y001377D03*
X027467Y000883D03*
X025498Y000883D03*
X023530Y000883D03*
X021561Y000883D03*
X019593Y000883D03*
X017624Y000883D03*
X015656Y000883D03*
X013484Y000694D03*
X012884Y000694D03*
X012284Y000694D03*
X011684Y000694D03*
X011084Y000694D03*
X011084Y001294D03*
X011684Y001294D03*
X012284Y001294D03*
X012884Y001294D03*
X013484Y001294D03*
X013484Y001994D03*
X012884Y001994D03*
X012284Y001994D03*
X011684Y001994D03*
X011084Y001994D03*
X011084Y002694D03*
X011684Y002694D03*
X012284Y002694D03*
X012884Y002694D03*
X013484Y002694D03*
X013484Y003294D03*
X012884Y003294D03*
X012284Y003294D03*
X011684Y003294D03*
X011084Y003294D03*
X009750Y000883D03*
X007782Y000883D03*
X005813Y000883D03*
X029435Y002361D03*
X031404Y002361D03*
X033372Y002361D03*
X041908Y011835D03*
X040924Y012820D03*
X036597Y014957D03*
X035062Y013623D03*
X033313Y013673D03*
X034297Y014657D03*
X034297Y012689D03*
D25*
X036077Y014407D03*
X037951Y014964D03*
X036056Y015496D03*
X037213Y017134D03*
X037183Y017922D03*
X029361Y015112D03*
X023568Y015050D03*
X023068Y014750D03*
X020468Y016550D03*
X018938Y016120D03*
X016358Y016940D03*
X017588Y017700D03*
X019868Y018250D03*
X020738Y019290D03*
X021508Y019280D03*
X022628Y019350D03*
X024617Y019409D03*
X015534Y015810D03*
X014634Y015810D03*
X012567Y014792D03*
X014549Y013134D03*
X018719Y011904D03*
X012511Y008708D03*
X008574Y009101D03*
X008574Y009871D03*
X005566Y007845D03*
X010174Y003661D03*
X014204Y003671D03*
X027096Y005026D03*
X027807Y005021D03*
X029299Y005809D03*
X030924Y005809D03*
X033705Y005204D03*
X035757Y005818D03*
X035206Y006326D03*
X035207Y007343D03*
X037760Y005784D03*
X038990Y006222D03*
X039008Y007223D03*
X039012Y008228D03*
X039014Y009237D03*
X038395Y009598D03*
X036378Y009606D03*
X035212Y009349D03*
X033700Y009604D03*
X032957Y009595D03*
X032039Y009258D03*
X029568Y009798D03*
X029549Y009059D03*
X027759Y009051D03*
X027779Y009753D03*
X027702Y008466D03*
X029922Y007321D03*
X036177Y002892D03*
X036365Y001566D03*
X034195Y001726D03*
X039495Y003243D03*
X039490Y003937D03*
X011034Y017210D03*
X009834Y018010D03*
X011734Y018310D03*
X013234Y019210D03*
X009734Y014910D03*
X008734Y014910D03*
X007734Y014910D03*
D26*
X012734Y016910D03*
X017034Y015310D03*
X017134Y013510D03*
X017134Y012910D03*
X015934Y012010D03*
X014134Y011010D03*
X011634Y007510D03*
X008134Y006010D03*
X007334Y005310D03*
X007634Y004510D03*
X004376Y002297D03*
X004634Y008010D03*
X021034Y014910D03*
X022534Y016510D03*
X024434Y015110D03*
X027934Y014110D03*
X027534Y012010D03*
X026434Y011410D03*
X027734Y011010D03*
X023034Y013110D03*
X033134Y012810D03*
X035556Y017910D03*
X023914Y018940D03*
X032032Y007592D03*
X033034Y007010D03*
X029034Y007510D03*
X026634Y007010D03*
X039634Y002310D03*
D27*
X030134Y004510D03*
X029509Y008385D03*
X030634Y013610D03*
X031634Y014610D03*
X014034Y017910D03*
X004834Y015110D03*
X014173Y005906D03*
D28*
X028884Y004635D03*
X013127Y012954D03*
X027027Y014854D03*
D29*
X021090Y011460D03*
M02*
