%
M48
M72
T01C0.0157
T02C0.0236
T03C0.0240
T04C0.0315
T05C0.0320
T06C0.0360
T07C0.0394
T08C0.0520
%
T01
X4376Y2297
X7634Y4510
X7334Y5310
X8134Y6010
X11634Y7510
X12511Y8708
X8574Y9101
X8574Y9871
X5566Y7845
X4634Y8010
X10174Y3661
X14204Y3671
X26634Y7010
X29034Y7510
X29922Y7321
X32032Y7592
X33034Y7010
X35207Y7343
X35206Y6326
X35757Y5818
X37760Y5784
X38990Y6222
X39008Y7223
X39012Y8228
X39014Y9237
X38395Y9598
X36378Y9606
X35212Y9349
X33700Y9604
X32957Y9595
X32039Y9258
X29568Y9798
X29549Y9059
X27759Y9051
X27779Y9753
X27734Y11010
X26434Y11410
X27534Y12010
X27934Y14110
X29361Y15112
X33134Y12810
X36077Y14407
X37951Y14964
X36056Y15496
X37213Y17134
X37183Y17922
X35556Y17910
X24617Y19409
X23914Y18940
X22628Y19350
X21508Y19280
X20738Y19290
X19868Y18250
X17588Y17700
X16358Y16940
X15534Y15810
X14634Y15810
X12567Y14792
X14549Y13134
X15934Y12010
X17134Y12910
X17134Y13510
X18719Y11904
X23034Y13110
X23068Y14750
X23568Y15050
X24434Y15110
X22534Y16510
X20468Y16550
X18938Y16120
X17034Y15310
X21034Y14910
X14134Y11010
X9734Y14910
X8734Y14910
X7734Y14910
X11034Y17210
X9834Y18010
X11734Y18310
X13234Y19210
X12734Y16910
X27702Y8466
X29299Y5809
X30924Y5809
X33705Y5204
X36177Y2892
X36365Y1566
X34195Y1726
X39634Y2310
X39495Y3243
X39490Y3937
X27807Y5021
X27096Y5026
T02
X28884Y4635
X30134Y4510
X29509Y8385
X21090Y11460
X27027Y14854
X30634Y13610
X31634Y14610
X14034Y17910
X4834Y15110
X13127Y12954
X14173Y5906
T03
X18412Y12842
X20412Y12842
X19412Y13842
T04
X774Y883
X774Y2361
X774Y4330
X774Y6298
X774Y8267
X774Y10235
X4940Y11078
X4896Y12007
X5513Y12601
X6073Y12002
X6120Y11119
X10413Y12544
X11139Y12842
X1574Y14972
X374Y14972
X774Y14172
X774Y12204
X474Y18472
X1674Y18472
X1876Y20356
X774Y20356
X3845Y20356
X5813Y20356
X7782Y20356
X9750Y20356
X11719Y20356
X13687Y20356
X15656Y20356
X17624Y20356
X19593Y20356
X21561Y20356
X23530Y20356
X25498Y20356
X27467Y20356
X29435Y20356
X31404Y20356
X33372Y20356
X35341Y20356
X36002Y19709
X37309Y20356
X37971Y19709
X39278Y20356
X39939Y19709
X38955Y18725
X39939Y17741
X41247Y18434
X42247Y18434
X36987Y18725
X35018Y18725
X39939Y15772
X41247Y14934
X42247Y14934
X39939Y13804
X38955Y12820
X37971Y11835
X39939Y11835
X40924Y10851
X41908Y9867
X40924Y8883
X41908Y7898
X40924Y6914
X41908Y5930
X40924Y4946
X41908Y3961
X40924Y2977
X41908Y1993
X41246Y883
X39278Y883
X37309Y883
X35341Y883
X33372Y883
X32388Y1377
X31404Y883
X30420Y1377
X29435Y883
X28451Y1377
X27467Y883
X25498Y883
X23530Y883
X21561Y883
X19593Y883
X17624Y883
X15656Y883
X13484Y694
X12884Y694
X12284Y694
X11684Y694
X11084Y694
X11084Y1294
X11684Y1294
X12284Y1294
X12884Y1294
X13484Y1294
X13484Y1994
X12884Y1994
X12284Y1994
X11684Y1994
X11084Y1994
X11084Y2694
X11684Y2694
X12284Y2694
X12884Y2694
X13484Y2694
X13484Y3294
X12884Y3294
X12284Y3294
X11684Y3294
X11084Y3294
X9750Y883
X7782Y883
X5813Y883
X29435Y2361
X31404Y2361
X33372Y2361
X41908Y11835
X40924Y12820
X36597Y14957
X35062Y13623
X33313Y13673
X34297Y14657
X34297Y12689
T05
X2828Y8188
X2828Y7188
X2828Y5688
X2828Y4688
X2828Y3188
X2828Y2188
T06
X29913Y17433
X30913Y17433
X31913Y17433
X31913Y18433
X30913Y18433
X29913Y18433
T07
X23874Y9750
X16394Y9750
X23874Y6010
X23874Y2270
X16394Y2270
T08
X2921Y10510
M30
