G75*
G70*
%OFA0B0*%
%FSLAX24Y24*%
%IPPOS*%
%LPD*%
%AMOC8*
5,1,8,0,0,1.08239X$1,22.5*
%
%ADD10C,0.0520*%
%ADD11C,0.0594*%
%ADD12C,0.0560*%
%ADD13C,0.0780*%
%ADD14C,0.0440*%
%ADD15C,0.0475*%
%ADD16C,0.0317*%
%ADD17C,0.0396*%
%ADD18C,0.0160*%
%ADD19C,0.0240*%
D10*
X002828Y002188D03*
X002828Y003188D03*
X002828Y004688D03*
X002828Y005688D03*
X002828Y007188D03*
X002828Y008188D03*
D11*
X016394Y009750D03*
X023874Y009750D03*
X023874Y006010D03*
X023874Y002270D03*
X016394Y002270D03*
D12*
X029913Y017433D03*
X030913Y017433D03*
X031913Y017433D03*
X031913Y018433D03*
X030913Y018433D03*
X029913Y018433D03*
D13*
X007048Y009139D03*
D14*
X018412Y012842D03*
X020412Y012842D03*
X019412Y013842D03*
D15*
X000774Y000883D03*
X000774Y002361D03*
X000774Y004330D03*
X000774Y006298D03*
X000774Y008267D03*
X000774Y010235D03*
X002560Y010802D03*
X001966Y011419D03*
X002565Y011978D03*
X003448Y012026D03*
X003489Y010846D03*
X000774Y012204D03*
X000374Y014972D03*
X001574Y014972D03*
X001674Y018472D03*
X000474Y018472D03*
X000774Y020356D03*
X001876Y020356D03*
X003845Y020356D03*
X005813Y020356D03*
X007782Y020356D03*
X009750Y020356D03*
X011719Y020356D03*
X013687Y020356D03*
X015656Y020356D03*
X017624Y020356D03*
X019593Y020356D03*
X021561Y020356D03*
X023530Y020356D03*
X025498Y020356D03*
X027467Y020356D03*
X029435Y020356D03*
X031404Y020356D03*
X033372Y020356D03*
X035341Y020356D03*
X036002Y019709D03*
X037309Y020356D03*
X037971Y019709D03*
X039278Y020356D03*
X039939Y019709D03*
X038955Y018725D03*
X039939Y017741D03*
X041247Y018434D03*
X042247Y018434D03*
X036987Y018725D03*
X035018Y018725D03*
X039939Y015772D03*
X041247Y014934D03*
X042247Y014934D03*
X039939Y013804D03*
X038955Y012820D03*
X037971Y011835D03*
X039939Y011835D03*
X040924Y010851D03*
X041908Y009867D03*
X040924Y008883D03*
X041908Y007898D03*
X040924Y006914D03*
X041908Y005930D03*
X040924Y004946D03*
X041908Y003961D03*
X040924Y002977D03*
X041908Y001993D03*
X041246Y000883D03*
X039278Y000883D03*
X037309Y000883D03*
X035341Y000883D03*
X033372Y000883D03*
X032388Y001377D03*
X031404Y000883D03*
X030420Y001377D03*
X029435Y000883D03*
X028451Y001377D03*
X027467Y000883D03*
X025498Y000883D03*
X023530Y000883D03*
X021561Y000883D03*
X019593Y000883D03*
X017624Y000883D03*
X015656Y000883D03*
X013484Y000694D03*
X012884Y000694D03*
X012284Y000694D03*
X011684Y000694D03*
X011084Y000694D03*
X011084Y001294D03*
X011684Y001294D03*
X012284Y001294D03*
X012884Y001294D03*
X013484Y001294D03*
X013484Y001994D03*
X012884Y001994D03*
X012284Y001994D03*
X011684Y001994D03*
X011084Y001994D03*
X011084Y002694D03*
X011684Y002694D03*
X012284Y002694D03*
X012884Y002694D03*
X013484Y002694D03*
X013484Y003294D03*
X012884Y003294D03*
X012284Y003294D03*
X011684Y003294D03*
X011084Y003294D03*
X009750Y000883D03*
X007782Y000883D03*
X005813Y000883D03*
X029435Y002361D03*
X031404Y002361D03*
X033372Y002361D03*
X041908Y011835D03*
X040924Y012820D03*
X036597Y014957D03*
X035062Y013623D03*
X033313Y013673D03*
X034297Y014657D03*
X034297Y012689D03*
D16*
X033134Y012810D03*
X036077Y014407D03*
X036056Y015496D03*
X038131Y014964D03*
X037213Y017134D03*
X037183Y017922D03*
X035556Y017910D03*
X029361Y015112D03*
X027934Y014110D03*
X024434Y015110D03*
X023568Y015050D03*
X023068Y014750D03*
X021034Y014910D03*
X018938Y016120D03*
X020468Y016550D03*
X022534Y016510D03*
X019868Y018250D03*
X020738Y019290D03*
X021508Y019280D03*
X022628Y019350D03*
X023914Y018940D03*
X024617Y019409D03*
X017588Y017700D03*
X016358Y016940D03*
X015534Y015810D03*
X014634Y015810D03*
X012567Y014792D03*
X014549Y013134D03*
X015934Y012010D03*
X017134Y012910D03*
X017134Y013510D03*
X018719Y011904D03*
X023034Y013110D03*
X026434Y011410D03*
X027534Y012010D03*
X027734Y011010D03*
X029568Y009798D03*
X029549Y009059D03*
X027759Y009051D03*
X027779Y009753D03*
X027702Y008466D03*
X029034Y007510D03*
X029922Y007321D03*
X032032Y007592D03*
X033034Y007010D03*
X035207Y007343D03*
X035206Y006326D03*
X035757Y005818D03*
X037760Y005784D03*
X038990Y006222D03*
X039008Y007223D03*
X039012Y008228D03*
X039014Y009237D03*
X038395Y009598D03*
X036378Y009606D03*
X035212Y009349D03*
X033700Y009604D03*
X032957Y009595D03*
X032039Y009258D03*
X026634Y007010D03*
X029299Y005809D03*
X030924Y005809D03*
X033705Y005204D03*
X036177Y002892D03*
X036365Y001566D03*
X034235Y001736D03*
X039634Y002310D03*
X039495Y003243D03*
X039490Y003937D03*
X027807Y005021D03*
X027096Y005026D03*
X014204Y003671D03*
X010174Y003661D03*
X007634Y004510D03*
X007334Y005310D03*
X008134Y006010D03*
X011634Y007510D03*
X012511Y008708D03*
X014134Y011010D03*
X010489Y012309D03*
X009664Y012433D03*
X009861Y011770D03*
X011331Y012856D03*
X009954Y013123D03*
X009734Y014910D03*
X008734Y014910D03*
X007734Y014910D03*
X005466Y014479D03*
X004696Y014479D03*
X006410Y013469D03*
X006307Y010499D03*
X003552Y009141D03*
X017034Y015310D03*
X012734Y016910D03*
X011034Y017210D03*
X009834Y018010D03*
X011734Y018310D03*
X013234Y019210D03*
X005171Y018673D03*
X003661Y018703D03*
X004376Y002297D03*
X014511Y001388D03*
D17*
X014173Y005906D03*
X006311Y010503D03*
X008450Y011640D03*
X008150Y012740D03*
X013127Y012954D03*
X021090Y011460D03*
X027027Y014854D03*
X030634Y013610D03*
X031634Y014610D03*
X029509Y008385D03*
X028884Y004635D03*
X030134Y004510D03*
X014034Y017910D03*
D18*
X016534Y017910D01*
X017834Y016810D01*
X019234Y016810D01*
X021034Y014910D01*
X021634Y014010D02*
X022534Y014910D01*
X022534Y016510D01*
X023934Y014510D02*
X023934Y019010D01*
X023914Y018940D01*
X023934Y014510D02*
X023034Y013610D01*
X023034Y013110D01*
X021634Y014010D02*
X021634Y010510D01*
X019134Y008010D01*
X010634Y008010D01*
X010134Y007510D01*
X008134Y007510D01*
X007334Y006710D01*
X007334Y005310D01*
X008134Y004510D02*
X008634Y005010D01*
X008634Y006910D01*
X008834Y007110D01*
X026534Y007110D01*
X026634Y007010D01*
X028634Y007910D02*
X029034Y007510D01*
X028634Y007910D02*
X028634Y010210D01*
X031234Y012810D01*
X033134Y012810D01*
X029509Y008385D02*
X029509Y006760D01*
X030134Y006010D01*
X030134Y004510D01*
X015934Y012010D02*
X015334Y012010D01*
X015934Y012010D02*
X013634Y012010D01*
X009634Y008010D01*
X008134Y008010D01*
X006634Y006510D01*
X006634Y002797D01*
X006134Y002297D01*
X004376Y002297D01*
X007634Y004510D02*
X008134Y004510D01*
X013571Y012510D02*
X013127Y012954D01*
X013571Y012510D02*
X015034Y012510D01*
X015434Y012910D01*
X017134Y012910D01*
D19*
X018110Y014173D02*
X009343Y014173D01*
X008150Y012740D01*
X018110Y014173D02*
X019441Y012842D01*
X020412Y012842D01*
M02*
