G75*
G70*
%OFA0B0*%
%FSLAX24Y24*%
%IPPOS*%
%LPD*%
%AMOC8*
5,1,8,0,0,1.08239X$1,22.5*
%
%ADD10R,0.0591X0.0512*%
%ADD11R,0.0433X0.0394*%
%ADD12R,0.2126X0.2441*%
%ADD13R,0.0394X0.0630*%
%ADD14R,0.0512X0.0591*%
%ADD15R,0.0512X0.0512*%
%ADD16R,0.0512X0.0787*%
%ADD17R,0.0787X0.0591*%
%ADD18R,0.0787X0.1496*%
%ADD19R,0.0581X0.0177*%
%ADD20R,0.0394X0.0433*%
%ADD21R,0.0433X0.0236*%
%ADD22R,0.0551X0.0315*%
%ADD23C,0.0600*%
%ADD24R,0.0598X0.0598*%
%ADD25R,0.0492X0.0197*%
%ADD26R,0.0394X0.0551*%
%ADD27R,0.0435X0.0413*%
%ADD28R,0.2000X0.0900*%
%ADD29R,0.0460X0.0630*%
%ADD30R,0.0256X0.0689*%
D10*
X016032Y008240D03*
X017032Y008240D03*
X017032Y008988D03*
X016032Y008988D03*
X021032Y008988D03*
X021032Y008240D03*
X012429Y012488D03*
X012429Y013236D03*
X040521Y010506D03*
X040521Y009758D03*
D11*
X038879Y009874D03*
X038210Y009874D03*
X038114Y008572D03*
X037444Y008572D03*
X035342Y009501D03*
X035342Y010170D03*
X038207Y011208D03*
X038876Y011208D03*
X040533Y011193D03*
X040533Y011862D03*
X038854Y012225D03*
X038854Y012895D03*
X037522Y013107D03*
X036852Y013107D03*
X035743Y013072D03*
X035074Y013072D03*
X035076Y013784D03*
X035745Y013784D03*
X036851Y013871D03*
X037521Y013871D03*
X041749Y015178D03*
X042418Y015178D03*
X043785Y016186D03*
X043785Y016855D03*
X043720Y017617D03*
X044389Y017617D03*
X045165Y017642D03*
X045165Y018311D03*
X043198Y020374D03*
X042528Y020374D03*
X042531Y021168D03*
X043201Y021168D03*
X046141Y020735D03*
X046811Y020735D03*
X034483Y019851D03*
X034483Y019181D03*
X029399Y018747D03*
X028730Y018747D03*
X028730Y017947D03*
X029399Y017947D03*
X026699Y019347D03*
X026030Y019347D03*
X025499Y020147D03*
X024830Y020147D03*
X024280Y020954D03*
X023611Y020954D03*
X024822Y021742D03*
X025491Y021742D03*
X026030Y021747D03*
X026699Y021747D03*
X028365Y022212D03*
X028365Y022881D03*
X030265Y022981D03*
X030265Y022312D03*
X022365Y019381D03*
X022365Y018712D03*
X017565Y019412D03*
X017565Y020081D03*
X016565Y020081D03*
X016565Y019412D03*
X013565Y019412D03*
X013565Y020081D03*
X015230Y021247D03*
X015899Y021247D03*
X015899Y021747D03*
X015230Y021747D03*
X017091Y022051D03*
X017870Y022074D03*
X017870Y022743D03*
X017091Y022720D03*
X023980Y015647D03*
X024649Y015647D03*
X041512Y007301D03*
X042182Y007301D03*
X042179Y005855D03*
X041509Y005855D03*
X045185Y007273D03*
X045854Y007273D03*
X045865Y007972D03*
X045195Y007972D03*
D12*
X019089Y006181D03*
X012340Y015950D03*
D13*
X011443Y013076D03*
X013238Y013076D03*
X018192Y009056D03*
X019987Y009056D03*
D14*
X018776Y012744D03*
X018027Y012744D03*
X014845Y013124D03*
X014097Y013124D03*
X014112Y013908D03*
X014860Y013908D03*
X018698Y016896D03*
X019446Y016896D03*
D15*
X027123Y017219D03*
X027123Y016314D03*
D16*
X024958Y016766D03*
D17*
X017335Y015799D03*
X017335Y014894D03*
X017335Y013988D03*
D18*
X019815Y014894D03*
D19*
X028008Y019451D03*
X028008Y019707D03*
X028008Y019963D03*
X028008Y020219D03*
X028008Y020475D03*
X028008Y020731D03*
X028008Y020987D03*
X028008Y021243D03*
X030322Y021243D03*
X030322Y020987D03*
X030322Y020731D03*
X030322Y020475D03*
X030322Y020219D03*
X030322Y019963D03*
X030322Y019707D03*
X030322Y019451D03*
X035017Y012500D03*
X035017Y012244D03*
X035017Y011988D03*
X035017Y011732D03*
X035017Y011476D03*
X035017Y011220D03*
X035017Y010964D03*
X035017Y010708D03*
X037331Y010708D03*
X037331Y010964D03*
X037331Y011220D03*
X037331Y011476D03*
X037331Y011732D03*
X037331Y011988D03*
X037331Y012244D03*
X037331Y012500D03*
D20*
X010531Y005537D03*
X011200Y005537D03*
X012797Y007594D03*
X013466Y007594D03*
X011200Y008037D03*
X010531Y008037D03*
X010531Y010437D03*
X011200Y010437D03*
X012796Y010336D03*
X013465Y010336D03*
X028730Y017147D03*
X029399Y017147D03*
X025499Y019347D03*
X024830Y019347D03*
X026030Y020147D03*
X026699Y020147D03*
X026699Y020947D03*
X026030Y020947D03*
X025499Y020947D03*
X024830Y020947D03*
X027561Y022219D03*
X027561Y022888D03*
X026071Y022511D03*
X025402Y022511D03*
X029465Y022312D03*
X029465Y022981D03*
X031459Y022981D03*
X031459Y022312D03*
X035108Y019851D03*
X035733Y019851D03*
X035733Y019181D03*
X035108Y019181D03*
X042380Y017614D03*
X043049Y017614D03*
X043079Y015175D03*
X043748Y015175D03*
X040528Y013146D03*
X039829Y013141D03*
X039829Y012472D03*
X040528Y012476D03*
X038875Y010536D03*
X038206Y010536D03*
X037281Y009931D03*
X036612Y009931D03*
X034638Y010161D03*
X033934Y010160D03*
X033934Y009491D03*
X034638Y009492D03*
X041560Y008257D03*
X042230Y008257D03*
X043550Y008237D03*
X044220Y008237D03*
X042170Y006557D03*
X041501Y006557D03*
X043629Y005637D03*
X044298Y005637D03*
X045171Y006388D03*
X045840Y006388D03*
X037518Y014528D03*
X036849Y014528D03*
X035744Y014481D03*
X035075Y014481D03*
X043796Y020382D03*
X044465Y020382D03*
X021465Y019381D03*
X021465Y018712D03*
X018465Y020112D03*
X018465Y020781D03*
X017399Y021247D03*
X016730Y021247D03*
X015565Y020081D03*
X015565Y019412D03*
X014565Y019412D03*
X014565Y020081D03*
X014399Y021247D03*
X013730Y021247D03*
X020565Y021181D03*
X020565Y020512D03*
D21*
X043433Y007296D03*
X043433Y006922D03*
X043433Y006548D03*
X044496Y006548D03*
X044496Y007296D03*
D22*
X044495Y018407D03*
X044494Y018997D03*
X044495Y019587D03*
D23*
X043763Y019097D02*
X043763Y018897D01*
X042927Y018897D01*
X042927Y019097D01*
X043763Y019097D01*
D24*
X044229Y014225D03*
X043229Y014225D03*
X042229Y014225D03*
X041429Y013375D03*
X041429Y012375D03*
X041429Y011375D03*
X041429Y010375D03*
X042579Y009225D03*
X043579Y009225D03*
X044579Y009225D03*
X045579Y009225D03*
X046429Y010275D03*
X046429Y011275D03*
X046429Y012275D03*
X046429Y013275D03*
X045229Y014225D03*
D25*
X023050Y016782D03*
X023050Y017156D03*
X023050Y017530D03*
X022066Y017530D03*
X022066Y017156D03*
X022066Y016782D03*
X020057Y021973D03*
X020057Y022347D03*
X020057Y022721D03*
X019073Y022721D03*
X019073Y022347D03*
X019073Y021973D03*
X012864Y009311D03*
X012864Y008937D03*
X012864Y008563D03*
X011880Y008563D03*
X011880Y008937D03*
X011880Y009311D03*
D26*
X019891Y018814D03*
X020639Y018814D03*
X020265Y019680D03*
D27*
X012483Y020147D03*
X012483Y021147D03*
X009847Y021147D03*
X009847Y020147D03*
X009847Y019147D03*
X012483Y019147D03*
D28*
X007941Y018975D03*
X007941Y020715D03*
X007941Y022455D03*
X048655Y022455D03*
X048655Y020715D03*
X048655Y018975D03*
D29*
X036441Y018226D03*
X035841Y018226D03*
D30*
X037494Y019298D03*
X037994Y019298D03*
X038494Y019298D03*
X038994Y019298D03*
X038994Y016443D03*
X038494Y016443D03*
X037994Y016443D03*
X037494Y016443D03*
M02*
